<?xml version="1.0" encoding="iso-8859-1"?>
<!-- Generator: Adobe Illustrator 18.1.1, SVG Export Plug-In . SVG Version: 6.00 Build 0)  -->
<svg version="1.1" id="Capa_1" xmlns="http://www.w3.org/2000/svg" xmlns:xlink="http://www.w3.org/1999/xlink" x="0px" y="0px"
	 viewBox="0 0 32 32" style="enable-background:new 0 0 32 32;" xml:space="preserve">
<g>
	<g>
		<path style="fill:#030104;" d="M27.586,14.212C26.66,11.751,24.284,10,21.5,10c-0.641,0-1.26,0.093-1.846,0.266
			C18.068,7.705,15.233,6,12,6c-4.904,0-8.894,3.924-8.998,8.803C1.207,15.842,0,17.783,0,20c0,3.312,2.688,6,6,6h20
			c3.312,0,6-2.693,6-6C32,17.234,30.13,14.907,27.586,14.212z M26.003,24H5.997C3.794,24,2,22.209,2,20
			c0-1.893,1.317-3.482,3.087-3.896C5.029,15.745,5,15.376,5,15c0-3.866,3.134-7,7-7c3.162,0,5.834,2.097,6.702,4.975
			C19.471,12.364,20.441,12,21.5,12c2.316,0,4.225,1.75,4.473,4h0.03C28.206,16,30,17.791,30,20C30,22.205,28.211,24,26.003,24z"/>
		<path style="fill:#030104;" d="M19.003,17H17v-2.003C17,14.446,16.557,14,16,14c-0.553,0-1,0.453-1,0.997V17h-2.003
			C12.446,17,12,17.443,12,18c0,0.553,0.453,1,0.997,1H15v2.003C15,21.555,15.444,22,16,22c0.553,0,1-0.453,1-0.997V19h2.003
			C19.555,19,20,18.557,20,18C20,17.447,19.547,17,19.003,17z"/>
	</g>
</g>
<g>
</g>
<g>
</g>
<g>
</g>
<g>
</g>
<g>
</g>
<g>
</g>
<g>
</g>
<g>
</g>
<g>
</g>
<g>
</g>
<g>
</g>
<g>
</g>
<g>
</g>
<g>
</g>
<g>
</g>
</svg>
