<?xml version="1.0" encoding="iso-8859-1"?>
<!-- Generator: Adobe Illustrator 17.1.0, SVG Export Plug-In . SVG Version: 6.00 Build 0)  -->
<!DOCTYPE svg PUBLIC "-//W3C//DTD SVG 1.1//EN" "http://www.w3.org/Graphics/SVG/1.1/DTD/svg11.dtd">
<svg version="1.1" id="Capa_1" xmlns="http://www.w3.org/2000/svg" xmlns:xlink="http://www.w3.org/1999/xlink" x="0px" y="0px"
	 viewBox="0 0 427.107 427.107" style="enable-background:new 0 0 427.107 427.107;" xml:space="preserve">
<g>
	<path d="M223.101,385.735h-19.096c-1.626,0-3,1.374-3,3v12.508c0,1.626,1.374,3,3,3h19.096c1.626,0,3-1.374,3-3v-12.508
		C226.101,387.109,224.727,385.735,223.101,385.735z"/>
	<path d="M300.394,97.099H126.713c-11.028,0-20,8.972-20,20v290.008c0,11.028,8.972,20,20,20h173.682c11.028,0,20-8.972,20-20
		V117.099C320.394,106.071,311.423,97.099,300.394,97.099z M198.686,112.071h29.734c2.762,0,5,2.239,5,5c0,2.761-2.238,5-5,5
		h-29.734c-2.762,0-5-2.239-5-5C193.686,114.31,195.925,112.071,198.686,112.071z M236.101,401.243c0,7.168-5.832,13-13,13h-19.096
		c-7.168,0-13-5.832-13-13v-12.508c0-7.168,5.832-13,13-13h19.096c7.168,0,13,5.832,13,13V401.243z M298.16,360.365
		c0,2.75-2.25,5-5,5H133.947c-2.75,0-5-2.25-5-5V139.544c0-2.75,2.25-5,5-5H293.16c2.75,0,5,2.25,5,5V360.365z"/>
	<path d="M160.475,38.419C175.659,26.369,193.929,20,213.311,20c19.591,0,38.011,6.486,53.271,18.758
		c1.847,1.486,4.061,2.208,6.261,2.208c2.924,0,5.823-1.277,7.799-3.733c3.461-4.304,2.777-10.599-1.526-14.06
		C260.534,8.23,237.165,0,213.311,0c-23.942,0-46.513,7.868-65.27,22.753c-4.325,3.433-5.05,9.723-1.616,14.049
		C149.857,41.129,156.148,41.853,160.475,38.419z"/>
	<path d="M213.404,38.57c-15.585,0-30.276,5.122-42.487,14.812c-4.325,3.433-5.05,9.723-1.616,14.049
		c3.433,4.326,9.722,5.05,14.05,1.617c8.637-6.855,19.029-10.478,30.054-10.478c11.144,0,21.622,3.69,30.303,10.671
		c1.847,1.486,4.061,2.208,6.261,2.208c2.924,0,5.823-1.277,7.799-3.733c3.461-4.304,2.777-10.598-1.526-14.06
		C244.144,43.927,228.931,38.57,213.404,38.57z"/>
</g>
<g>
</g>
<g>
</g>
<g>
</g>
<g>
</g>
<g>
</g>
<g>
</g>
<g>
</g>
<g>
</g>
<g>
</g>
<g>
</g>
<g>
</g>
<g>
</g>
<g>
</g>
<g>
</g>
<g>
</g>
</svg>
