<?xml version="1.0" encoding="UTF-8" standalone="no"?>
<svg
   xmlns:dc="http://purl.org/dc/elements/1.1/"
   xmlns:cc="http://creativecommons.org/ns#"
   xmlns:rdf="http://www.w3.org/1999/02/22-rdf-syntax-ns#"
   xmlns:svg="http://www.w3.org/2000/svg"
   xmlns="http://www.w3.org/2000/svg"
   xmlns:xlink="http://www.w3.org/1999/xlink"
   xmlns:sodipodi="http://sodipodi.sourceforge.net/DTD/sodipodi-0.dtd"
   xmlns:inkscape="http://www.inkscape.org/namespaces/inkscape"
   width="299px"
   height="294px"
   viewBox="0 0 299 294"
   version="1.1"
   id="svg1125"
   sodipodi:docname="OW-integrations.svg"
   inkscape:version="0.92.2 5c3e80d, 2017-08-06">
  <metadata
     id="metadata1129">
    <rdf:RDF>
      <cc:Work
         rdf:about="">
        <dc:format>image/svg+xml</dc:format>
        <dc:type
           rdf:resource="http://purl.org/dc/dcmitype/StillImage" />
        <dc:title>illustration-integrators</dc:title>
      </cc:Work>
    </rdf:RDF>
  </metadata>
  <sodipodi:namedview
     pagecolor="#ffffff"
     bordercolor="#666666"
     borderopacity="1"
     objecttolerance="10"
     gridtolerance="10"
     guidetolerance="10"
     inkscape:pageopacity="0"
     inkscape:pageshadow="2"
     inkscape:window-width="1340"
     inkscape:window-height="813"
     id="namedview1127"
     showgrid="false"
     inkscape:zoom="0.80272109"
     inkscape:cx="149.5"
     inkscape:cy="147"
     inkscape:window-x="221"
     inkscape:window-y="52"
     inkscape:window-maximized="0"
     inkscape:current-layer="svg1125" />
  <!-- Generator: Sketch 41.2 (35397) - http://www.bohemiancoding.com/sketch -->
  <title
     id="title1036">illustration-integrators</title>
  <desc
     id="desc1038">Created with Sketch.</desc>
  <defs
     id="defs1044">
    <circle
       id="path-1"
       cx="50"
       cy="26"
       r="7" />
    <mask
       id="mask-2"
       maskContentUnits="userSpaceOnUse"
       maskUnits="objectBoundingBox"
       x="0"
       y="0"
       width="14"
       height="14"
       fill="white">
      <use
         xlink:href="#path-1"
         id="use1041" />
    </mask>
  </defs>
  <g
     style="fill:none;fill-rule:evenodd;stroke:none;stroke-width:1"
     id="illustration-integrators"
     transform="translate(-891,-2388)">
    <g
       inkscape:label="YouTube"
       transform="translate(1047,2388)"
       id="Group-17">
      <g
         id="Group-6">
        <rect
           style="fill:#5aaafa"
           rx="10"
           height="70"
           width="70"
           y="0"
           x="0"
           id="Rectangle-3-Copy-2" />
        <path
           style="fill:#ffffff"
           inkscape:connector-curvature="0"
           id="Fill-8"
           d="M 46.740516,43.816945 H 44.722693 V 42.79096 c 0,-1.004535 0.336603,-1.519315 1.008912,-1.519315 0.672308,0 1.008911,0.51478 1.008911,1.519315 z m 1.995383,2.991264 h -2.040263 c 0,0.803449 -0.02244,1.249413 -0.04488,1.362021 -0.112201,0.535336 -0.403026,0.80345 -0.89671,0.80345 -0.694749,0 -1.031352,-0.513886 -1.031352,-1.540765 V 45.490873 H 48.7359 v -2.298635 c 0,-1.182385 -0.201962,-2.031414 -0.605885,-2.589986 -0.582548,-0.75787 -1.367058,-1.137699 -2.375969,-1.137699 -1.031352,0 -1.815862,0.379829 -2.398409,1.137699 -0.426364,0.558572 -0.628326,1.407601 -0.628326,2.589986 v 3.860849 c 0,1.183278 0.224402,2.053757 0.650766,2.589986 0.582548,0.758764 1.367057,1.138592 2.420849,1.138592 1.053792,0 1.883182,-0.401278 2.420849,-1.183278 0.246843,-0.357486 0.426364,-0.759658 0.471245,-1.205622 0.04488,-0.200192 0.04488,-0.647049 0.04488,-1.294099 z M 44.655372,29.955426 h -2.039365 v -1.227964 c -0.807848,0.937507 -1.569917,1.384364 -2.309546,1.384364 -0.650766,0 -1.121113,-0.268114 -1.323075,-0.825793 -0.112201,-0.335143 -0.178624,-0.870478 -0.178624,-1.674821 v -8.794156 h 2.039366 v 8.191792 c 0,0.4692 0,0.737315 0.02334,0.781107 0.04398,0.3128 0.201064,0.491543 0.469449,0.491543 0.403924,0 0.830288,-0.311907 1.279092,-0.95985 v -8.504592 h 2.039365 z m -5.492464,17.522175 c 0,1.004536 -0.291723,1.496079 -0.87427,1.496079 -0.336603,0 -0.672309,-0.1564 -1.008912,-0.491543 v -6.718949 c 0.336603,-0.33425 0.672309,-0.491543 1.008912,-0.491543 0.582547,0 0.87427,0.51478 0.87427,1.496079 z m 1.995383,-4.553477 c 0,-1.026879 -0.04488,-1.7633 -0.201962,-2.210158 -0.245945,-0.825792 -0.80695,-1.249413 -1.591459,-1.249413 -0.739629,0 -1.434378,0.401278 -2.085144,1.205622 v -4.843936 h -1.995383 v 14.798133 h 1.995383 v -1.070671 c 0.672309,0.826686 1.367955,1.227964 2.085144,1.227964 0.784509,0 1.345514,-0.424514 1.591459,-1.227964 0.157081,-0.468307 0.201962,-1.205621 0.201962,-2.231606 z M 35.105719,22.031749 c 0,-1.026878 -0.291723,-1.540764 -0.964929,-1.540764 -0.649868,0 -0.963133,0.513886 -0.963133,1.540764 v 4.686641 c 0,1.027773 0.313265,1.563108 0.963133,1.563108 0.673206,0 0.964929,-0.535335 0.964929,-1.563108 z m 2.039366,4.306813 c 0,1.184172 -0.201962,2.076993 -0.627428,2.635565 -0.561006,0.75787 -1.345515,1.137699 -2.376867,1.137699 -1.008911,0 -1.793421,-0.379829 -2.353528,-1.137699 -0.425467,-0.580915 -0.627428,-1.451393 -0.627428,-2.635565 v -3.905535 c 0,-1.183278 0.201961,-2.053757 0.627428,-2.611435 0.560107,-0.758764 1.344617,-1.138593 2.353528,-1.138593 1.031352,0 1.815861,0.379829 2.376867,1.138593 0.425466,0.557678 0.627428,1.428157 0.627428,2.611435 z m -3.609283,24.28581 V 39.597717 h -1.995383 v 8.438456 c -0.447906,0.624707 -0.87427,0.937507 -1.277296,0.937507 -0.269283,0 -0.426364,-0.1564 -0.471244,-0.4692 -0.02244,-0.06703 -0.02244,-0.311907 -0.02244,-0.781107 v -8.125656 h -1.994485 v 8.72802 c 0,0.781107 0.06642,1.294099 0.178624,1.630136 0.179522,0.557678 0.650766,0.825792 1.300634,0.825792 0.717189,0 1.479259,-0.446857 2.286208,-1.362021 v 1.204728 z M 31.137393,15 28.424821,23.906763 v 6.048663 H 26.182596 V 23.906763 C 25.981532,22.812856 25.532728,21.249749 24.815539,19.174542 24.321854,17.790178 23.829067,16.384364 23.357823,15 H 25.73469 L 27.326149,20.870813 28.850288,15 Z M 27.48323,37.923788 v -2.097549 h -6.99506 v 2.097549 h 2.353528 v 12.700584 h 2.243123 V 37.923788 Z m 23.158291,13.37087 C 50.216055,53.057957 48.78078,54.35295 47.054679,54.531693 42.929272,55 38.758984,55 34.612034,55 30.465085,55 26.294797,55 22.16939,54.531693 20.443289,54.35295 18.986471,53.057957 18.582548,51.294658 18,48.794937 18,46.048551 18,43.481802 c 0,-2.588199 0.02244,-5.312242 0.582548,-7.811963 0.426364,-1.763299 1.860741,-3.058292 3.609282,-3.259378 4.102967,-0.445964 8.273255,-0.445964 12.420204,-0.445964 4.14695,0 8.317238,0 12.442645,0.445964 1.726101,0.201086 3.182919,1.496079 3.586842,3.259378 0.582548,2.499721 0.582548,5.223764 0.582548,7.811963 0,2.566749 -0.02154,5.313135 -0.582548,7.812856 z" />
      </g>
    </g>
    <g
       inkscape:label="Slack"
       transform="translate(1120,2458)"
       id="Group-18">
      <g
         id="Group-11">
        <rect
           style="fill:#5aaafa"
           rx="10"
           height="70"
           width="70"
           y="0"
           x="0"
           id="Rectangle-3-Copy-3" />
        <path
           style="fill:#ffffff"
           inkscape:connector-curvature="0"
           id="Fill-11"
           d="m 39.882239,37.33244 -2.524703,-7.539343 -7.451871,2.560712 2.523741,7.491426 z M 55.00351,36.973058 c 0,1.532403 -0.79312,2.609589 -2.235946,3.111764 l -4.135008,1.412609 1.34561,3.997279 c 0.120316,0.359382 0.168442,0.741764 0.168442,1.124145 0,1.890826 -1.539078,3.472104 -3.437177,3.472104 -1.514053,0 -2.860625,-0.934392 -3.341888,-2.370001 l -1.32251,-3.95032 -7.45187,2.537712 1.32251,3.925403 c 0.120316,0.358423 0.191542,0.741763 0.191542,1.125104 0,1.866866 -1.539077,3.471145 -3.462203,3.471145 -1.514052,0 -2.835599,-0.934392 -3.316862,-2.370001 l -1.322509,-3.901444 -3.677809,1.267897 c -0.38501,0.119794 -0.793121,0.215629 -1.201232,0.215629 -1.948151,0 -3.414077,-1.435609 -3.414077,-3.374352 0,-1.484484 0.961563,-2.825217 2.380325,-3.303434 l 3.749998,-1.268856 -2.524703,-7.492383 -3.749998,1.292815 c -0.38501,0.119793 -0.769058,0.19167 -1.154068,0.19167 C 16.490952,36.087543 15,34.627975 15,32.713191 c 0,-1.484485 0.961563,-2.825217 2.380325,-3.303434 l 3.774061,-1.268856 -1.273421,-3.806568 C 19.76065,23.97591 19.68846,23.593528 19.68846,23.211146 c 0,-1.891783 1.538116,-3.471145 3.461241,-3.471145 1.515015,0 2.836562,0.933433 3.317824,2.369042 l 1.298447,3.829569 7.45187,-2.512795 -1.297484,-3.829568 C 33.800043,19.236867 33.726891,18.854485 33.726891,18.470187 33.726891,16.58032 35.290031,15 37.189094,15 c 1.515014,0 2.861587,0.957392 3.341887,2.370001 l 1.274384,3.853527 3.894377,-1.316774 c 0.336883,-0.09488 0.672805,-0.142794 1.033752,-0.142794 1.874036,0 3.485303,1.387691 3.485303,3.302475 0,1.484485 -1.154067,2.729382 -2.499677,3.183641 l -3.774062,1.291856 2.523741,7.56426 3.941541,-1.340732 c 0.360947,-0.119794 0.745957,-0.190712 1.106904,-0.190712 1.971252,0 3.486266,1.435609 3.486266,3.39831 z" />
      </g>
    </g>
    <g
       transform="translate(964,2388)"
       id="Group-5">
      <rect
         style="fill:#5aaafa"
         rx="10"
         height="70"
         width="70"
         y="0"
         x="0"
         id="Rectangle-3-Copy" />
      <g
         transform="translate(15,15)"
         id="Group-7">
        <g
           id="Page-1">
          <path
             style="stroke:#ffffff;stroke-width:3"
             inkscape:connector-curvature="0"
             id="Fill-1"
             d="m 40.002438,19.284873 c 0,10.65071 -8.954921,19.284687 -20.001219,19.284687 C 8.9549208,38.56956 0,29.935583 0,19.284873 0,8.6341634 8.9549208,3.1062499e-5 20.001219,3.1062499e-5 31.047517,3.1062499e-5 40.002438,8.6341634 40.002438,19.284873" />
          <path
             style="fill:#ffffff"
             inkscape:connector-curvature="0"
             id="Fill-3"
             d="m 7.1762716,17.79684 v -0.47622 c 0,0 -0.1676293,0.173384 0,0.47622" />
          <path
             style="fill:#ffffff"
             inkscape:connector-curvature="0"
             id="Fill-5"
             d="m 17.8454,19.761046 c 6.108185,4.047443 14.192428,-0.654798 14.13258,-2.380941 0,0 0.568941,-2.425515 -2.934241,-3.63074 4.730757,-6.8051724 -14.23243,-6.686203 -14.566825,-1.33926 -8.1592477,0.907802 -7.3507609,4.910515 -7.3507609,4.910515 0,0 1.6168173,4.464148 10.7192469,2.440426" />
          <path
             style="fill:#ffffff"
             inkscape:connector-curvature="0"
             id="Fill-7"
             d="m 31.977965,17.380105 v 0.47622 c 0.02952,-0.29714 0,-0.47622 0,-0.47622" />
          <path
             style="fill:#ffffff"
             inkscape:connector-curvature="0"
             id="Fill-9"
             d="M 17.8454,21.181046 C 8.7429704,23.204768 7.1261531,18.74062 7.1261531,18.74062 v 0.473082 5.717209 c 0,0 0.4192443,5.594822 10.6593999,3.392646 4.071967,2.975943 13.47379,1.071345 14.192427,-2.440425 v -6.804241 -0.278786 c 0.05985,1.726143 -8.024395,6.428384 -14.13258,2.380941" />
        </g>
      </g>
    </g>
    <g
       inkscape:label="Watson"
       transform="translate(891,2458)"
       id="Group-23">
      <rect
         style="fill:#5aaafa"
         rx="10"
         height="70"
         width="70"
         y="0"
         x="0"
         id="Rectangle-3" />
      <path
         style="fill:#ffffff"
         inkscape:connector-curvature="0"
         id="path1075"
         d="m 39.502826,25.823261 c 0.232826,0.404565 0.406739,0.911956 0.528044,1.504782 0.836956,-0.101087 1.683478,-0.140869 2.535434,-0.112826 L 42.56913,27.215 C 41.614783,26.636956 40.586956,26.167391 39.502826,25.823261 Z M 36.95913,34.98913 c 0.254783,0 0.484131,0.112392 0.643696,0.29174 0.498044,-0.04696 0.994565,-0.08631 1.487609,-0.117392 0.132174,-0.84913 0.238913,-1.678913 0.316521,-2.476522 -1.306521,-1.074347 -2.70826,-2.000652 -4.121086,-2.732391 -0.542609,1.247609 -1.073044,2.682826 -1.566522,4.218696 0.496304,0.33413 0.860652,0.852826 0.997826,1.459565 0.495,-0.07348 0.992391,-0.14087 1.489782,-0.201304 0.15174,-0.264783 0.43174,-0.442392 0.752174,-0.442392 z m 0.859783,1.048261 c -0.07,0.423044 -0.428261,0.745218 -0.859783,0.745218 -0.367391,0 -0.681521,-0.233479 -0.810217,-0.563913 -0.463043,0.05891 -0.925,0.12413 -1.384565,0.195434 -0.118913,1.185 -1.090652,2.114348 -2.283696,2.148479 -0.303261,1.234565 -0.572608,2.481087 -0.797391,3.702826 0.479782,-0.02804 0.966087,-0.06217 1.457391,-0.102174 0.12587,-0.781087 0.763261,-1.375218 1.531087,-1.375218 0.660217,0 1.224131,0.439783 1.449131,1.060001 0.530434,-0.06935 1.061739,-0.146087 1.591521,-0.230653 C 37.89587,40.929783 38.07,40.23413 38.232826,39.536957 37.88,39.327826 37.643696,38.944565 37.643696,38.506522 c 0,-0.615435 0.466521,-1.122392 1.066956,-1.191087 0.09,-0.458261 0.173696,-0.913913 0.251087,-1.365435 -0.38,0.0237 -0.761304,0.05304 -1.142826,0.08739 z M 20.897174,39.86913 c 0.495435,-0.413043 1.36,-0.870652 2.492391,-1.334565 -0.755217,-2.032826 -1.036522,-4.136956 -0.661522,-6.148261 -1.170869,2.063044 -1.839347,4.446522 -1.839347,6.985653 0,0.166304 0.0028,0.331956 0.0085,0.497173 z m 4.157391,-1.955 c 1.454565,-0.496739 3.168696,-0.980869 5.017609,-1.404347 -0.01565,-0.111305 -0.0237,-0.225 -0.0237,-0.34087 0,-1.320435 1.055,-2.391304 2.357826,-2.394565 0.484566,-1.481087 1.003261,-2.867609 1.532826,-4.081522 -1.619782,0.831087 -3.176304,1.935435 -4.588695,3.201304 0.08304,0.161957 0.13,0.346087 0.13,0.541305 0,0.648261 -0.518261,1.173913 -1.157392,1.173913 -0.206304,0 -0.4,-0.05478 -0.567608,-0.150652 -1.02587,1.096739 -1.939565,2.267608 -2.70087,3.455434 z m 14.708044,-2.787608 c 0.389565,-0.01848 0.776521,-0.03131 1.159565,-0.03826 0.03435,-0.282174 0.130652,-0.544565 0.274782,-0.772826 -0.375652,-0.378261 -0.765,-0.744131 -1.164782,-1.096305 -0.07326,0.619783 -0.163913,1.257392 -0.269565,1.907391 z m 4.795434,0.100652 c 0.799131,0.0837 1.561305,0.205217 2.274131,0.369348 0.476739,-2.215652 0.145217,-4.232174 -1.301522,-5.646087 -1.664782,-1.272392 -3.497609,-1.841305 -5.379348,-1.873044 0.133261,1.092174 0.127609,2.399565 0.01174,3.838696 0.634783,0.536956 1.248261,1.106304 1.832392,1.703043 0.225869,-0.101956 0.475869,-0.158695 0.738695,-0.158695 0.978261,0 1.776957,0.783043 1.823912,1.766739 z m 3.647174,0.762609 c 0.319131,0.111739 0.622392,0.235869 0.911739,0.370869 -0.163478,-0.753913 -0.386739,-1.485435 -0.664999,-2.189782 -0.02674,0.591521 -0.110653,1.2 -0.24674,1.818913 z m 1.093261,1.387826 c -0.415652,-0.202392 -0.853043,-0.382392 -1.310434,-0.540218 -0.198261,0.680652 -0.456088,1.37 -0.766957,2.059348 0.77,-0.372609 1.480652,-0.77913 2.116087,-1.221956 -0.01196,-0.09935 -0.02478,-0.198479 -0.0387,-0.297174 z m -2.683261,-0.938044 c -0.70326,-0.168261 -1.440652,-0.295 -2.20326,-0.385652 -0.03739,0.08804 -0.08109,0.172609 -0.13087,0.253261 0.54587,0.746522 1.040652,1.518478 1.472391,2.308261 0.357826,-0.731739 0.648478,-1.461305 0.861739,-2.17587 z m -5.623261,-0.562391 c -0.451086,0.003 -0.906304,0.01587 -1.363913,0.03674 -0.08804,0.49413 -0.184347,0.993696 -0.287826,1.496522 0.422174,0.186521 0.716522,0.607174 0.716522,1.096087 0,0.662391 -0.540217,1.199348 -1.206304,1.199348 l -0.02739,-4.35e-4 c -0.147391,0.603913 -0.303478,1.206956 -0.466521,1.805 2.370652,-0.407609 4.690652,-0.973696 6.748261,-1.724783 -0.442609,-0.955217 -0.991305,-1.883043 -1.622392,-2.770652 -0.228261,0.104565 -0.481521,0.162826 -0.748261,0.162826 -0.817391,0 -1.509347,-0.546956 -1.742174,-1.300652 z m -10.668695,1.413478 c -2.195652,0.525218 -4.195,1.14 -5.796957,1.74087 0.426957,1.140869 0.988044,2.251739 1.663044,3.298913 1.222608,0.05109 2.593478,0.055 4.051087,0.0033 0.245869,-1.363261 0.55,-2.763044 0.897174,-4.147609 -0.341739,-0.222174 -0.623044,-0.53087 -0.814348,-0.895435 z m -6.757174,2.118913 c -1.251957,0.518261 -2.164783,1.008696 -2.605,1.401957 0.02196,0.218261 0.04913,0.435 0.08087,0.650217 0.291956,0.188696 0.797826,0.353696 1.477608,0.489348 0.27587,-0.853478 0.627392,-1.70413 1.046522,-2.541522 z m 12.567826,3.598696 c -0.215652,0.639565 -0.788913,1.096956 -1.462174,1.096956 -0.566087,0 -1.061304,-0.323043 -1.333043,-0.805869 -0.627826,0.05109 -1.248044,0.09217 -1.856305,0.123913 -0.221739,1.364348 -0.381739,2.681956 -0.464348,3.899782 0.946957,0.668261 2.038479,1.33174 3.198479,1.906087 0.373261,-0.138913 0.744782,-0.293043 1.113043,-0.461304 0.717826,-1.711087 1.423044,-3.76 2.045435,-5.93087 -0.413696,0.06174 -0.827826,0.118696 -1.241087,0.171305 z M 23.07913,42.05 c 0.651957,0.102174 1.42,0.182391 2.280435,0.236739 C 24.823913,41.504783 24.350652,40.692391 23.952826,39.861522 23.590652,40.60087 23.296304,41.335 23.07913,42.05 Z M 49.43,38.895652 c -0.828696,0.562609 -1.779565,1.06587 -2.820217,1.513478 0.788913,1.929131 1.178478,3.928044 1.015869,5.898913 1.153696,-2.051956 1.812174,-4.417173 1.812174,-6.936086 0,-0.159566 -0.0026,-0.318261 -0.0078,-0.476305 z m -5.302826,2.43087 c -1.912826,0.606956 -4.001957,1.071304 -6.117609,1.411956 -0.598261,2.04587 -1.270652,3.996957 -1.958478,5.679783 1.117609,-0.572391 2.201739,-1.27087 3.225869,-2.060652 -0.07652,-0.211522 -0.118478,-0.439348 -0.118478,-0.677174 0,-1.103044 0.898478,-1.997392 2.006522,-1.997392 0.307174,0 0.598478,0.06891 0.858696,0.19174 0.772174,-0.813261 1.479347,-1.670435 2.103478,-2.548261 z m -14.081304,2.15413 c -1.075218,0.03065 -2.099348,0.0313 -3.046305,0.0043 0.235218,0.308696 0.48087,0.610217 0.73587,0.903261 0.152608,-0.08543 0.330217,-0.134348 0.519782,-0.134348 0.567392,0 1.027392,0.438044 1.027392,0.978044 0,0.207173 -0.06783,0.399347 -0.183044,0.557391 0.192392,0.176522 0.388913,0.348696 0.588913,0.515869 0.08196,-0.900869 0.203044,-1.84913 0.357392,-2.824565 z m -3.821305,-0.02435 C 24.86587,43.393478 23.7,43.27087 22.813913,43.100435 c -0.297174,1.493913 -0.211304,2.868043 0.356522,3.984565 0.183695,0.282609 0.377391,0.558043 0.58,0.826522 1.8,1.47 3.805217,2.123695 5.862391,2.163043 -0.07174,-0.945869 -0.05783,-2.029782 0.02913,-3.206739 -0.121521,-0.09696 -0.238913,-0.192391 -0.352173,-0.286304 -0.189131,-0.156957 -0.37587,-0.317609 -0.560218,-0.481522 -0.141956,0.07043 -0.303043,0.110217 -0.474348,0.110217 -0.567174,0 -1.026956,-0.437826 -1.026956,-0.97826 0,-0.170435 0.04565,-0.33087 0.126304,-0.470435 -0.394782,-0.42 -0.772391,-0.856087 -1.13,-1.305218 z m -3.997826,-0.486956 c -0.427826,-0.110652 -0.756304,-0.236522 -0.969348,-0.375 0.164783,0.708043 0.382609,1.395435 0.649131,2.058478 0.0713,-0.558478 0.178695,-1.120652 0.320217,-1.683478 z m 12.961957,7.39913 c -0.689566,1.427392 -1.369566,2.513696 -1.981305,3.088478 0.639348,0.08739 1.292392,0.132392 1.95587,0.132392 2.400869,0 4.662826,-0.590652 6.648261,-1.633478 -2.04,0.196521 -4.405,-0.522609 -6.622826,-1.587392 z m -2.691739,2.973261 c 0.61326,-0.382609 1.308043,-1.381956 2.016521,-2.789565 -1.12413,0.363696 -2.271522,0.597391 -3.424565,0.674348 0.111739,0.781521 0.297609,1.435217 0.566304,1.930217 0.277392,0.06978 0.558044,0.131522 0.84174,0.185 z M 39.507609,31.37913 c 0.06891,-1.216521 0.05609,-2.331087 -0.05674,-3.28913 -1.22087,0.06348 -2.456087,0.342174 -3.673261,0.791304 l -0.01196,0.025 c 1.278478,0.686305 2.542391,1.521305 3.741957,2.472826 z m -0.156305,-3.955 c -0.136521,-0.740652 -0.348261,-1.358913 -0.642826,-1.827826 -0.142174,-0.0363 -0.285,-0.07022 -0.428695,-0.102174 -0.68587,0.339348 -1.438696,1.337826 -2.192827,2.774566 1.061522,-0.378696 2.153261,-0.665218 3.264348,-0.844566 z m -8.365652,20.451957 c -0.03739,0.761957 -0.04152,1.478478 -0.0091,2.137609 0.84,-0.08978 1.682826,-0.273044 2.518695,-0.53674 -0.897391,-0.512826 -1.746304,-1.061304 -2.509565,-1.600869 z m -0.755,4.841304 c -0.207174,-0.398261 -0.362391,-0.893913 -0.469782,-1.473043 -1.119566,-0.04544 -2.237609,-0.247826 -3.337609,-0.631087 1.143478,0.883261 2.425,1.597174 3.807391,2.10413 z m 4.352174,-24.401087 c 0.761087,-1.512174 1.525,-2.608478 2.225,-3.068695 -0.539565,-0.06152 -1.088478,-0.09326 -1.644565,-0.09326 -2.435,0 -4.726957,0.607608 -6.732609,1.678261 l 0.01217,-0.0011 c 1.893913,-0.03956 4.016087,0.505217 6.14,1.484782 z m -10.356739,1.919348 c -0.908043,2.491522 -0.821522,5.277174 0.0093,7.945218 0.852826,-1.446957 1.90413,-2.83674 3.112608,-4.112174 -0.115652,-0.182826 -0.182608,-0.4 -0.182608,-0.633261 0,-0.648478 0.518261,-1.173913 1.157608,-1.173913 0.252827,0 0.48674,0.08217 0.677174,0.221739 1.45,-1.264565 3.063479,-2.365652 4.787609,-3.230218 C 30.390652,27.835 27.1,27.638696 25.091304,29.308478 l -0.0067,-0.0046 c -0.299782,0.297609 -0.586087,0.608696 -0.858478,0.931739 z m 11.745652,19.767391 c 3.763696,1.450218 7.827826,1.630435 9.900218,-2.012608 h 0.0011 c 0.674347,-2.162609 0.566304,-4.36087 -0.09326,-6.468696 -0.778696,1.201522 -1.702392,2.368261 -2.737609,3.451957 0.08348,0.219782 0.129348,0.457826 0.129348,0.706739 0,1.103043 -0.898479,1.997174 -2.006522,1.997174 -0.323913,0 -0.63,-0.07652 -0.901087,-0.212392 -1.340435,1.022827 -2.786739,1.891305 -4.292174,2.537826 z m -0.783913,4.890653 c 8.581522,0 15.538044,-6.905435 15.538044,-15.423913 0,-8.518479 -6.956522,-15.423913 -15.538044,-15.423913 -8.581739,0 -15.538261,6.905434 -15.538261,15.423913 0,8.518478 6.956522,15.423913 15.538261,15.423913 z" />
      <path
         style="fill:#ffffff"
         inkscape:connector-curvature="0"
         id="path1077"
         d="m 15.265337,25.127391 2.17e-4,-2.17e-4 c 0.280435,-0.448913 0.877174,-0.586522 1.326087,-0.306087 l 3.915,2.446304 c 0.448913,0.280435 0.586739,0.877392 0.306087,1.326305 -0.280434,0.448913 -0.877174,0.586739 -1.326304,0.306087 l -3.914783,-2.446305 c -0.448913,-0.280435 -0.586739,-0.877174 -0.306304,-1.326087" />
      <path
         style="fill:#ffffff"
         inkscape:connector-curvature="0"
         id="Fill-4"
         d="M 24.221956,17.570217 V 17.57 c 0.479783,-0.223696 1.055218,-0.01413 1.279131,0.465652 l 1.95087,4.183913 c 0.223695,0.479783 0.01435,1.055218 -0.465435,1.278913 l -2.18e-4,2.18e-4 c -0.479782,0.223695 -1.055217,0.01413 -1.278913,-0.465652 L 23.756304,18.84913 c -0.223695,-0.479782 -0.01413,-1.055217 0.465652,-1.278913" />
    </g>
    <g
       inkscape:label="Cloud"
       transform="translate(891,2542)"
       id="Group-22">
      <g
         id="Group-15">
        <rect
           style="fill:#5aaafa"
           rx="10"
           height="70"
           width="70"
           y="0"
           x="0"
           id="Rectangle-3-Copy-7" />
        <g
           style="fill:#ffffff;stroke:#ffffff;stroke-width:2"
           transform="translate(12,17)"
           id="Group-8">
          <path
             inkscape:connector-curvature="0"
             id="Shape"
             d="m 15.869005,4.7573077 c 0.534166,0 0.967684,-0.4257919 0.967684,-0.9513188 V 0.95131881 C 16.836689,0.42579188 16.403171,0 15.869005,0 15.334839,0 14.902047,0.42579188 14.902047,0.95131881 V 3.8059889 c 0,0.5255269 0.432792,0.9513188 0.966958,0.9513188 z" />
          <path
             inkscape:connector-curvature="0"
             id="path1083"
             d="m 4.869874,5.5663683 2.0500714,2.0169136 7.254e-4,7.137e-4 c 0.3775707,0.3714639 0.989627,0.3714639 1.3679232,0 0.3775708,-0.371464 0.3775708,-0.9736209 0,-1.3457986 v 0 L 6.2363464,4.2198561 v 0 0 c -0.3775707,-0.3714639 -0.9896271,-0.3714639 -1.3679232,0 -0.3775708,0.3714639 -0.3775708,0.9743346 0,1.3457985 0,0 7.254e-4,7.137e-4 0.00145,7.137e-4 z" />
          <path
             inkscape:connector-curvature="0"
             id="path1085"
             d="m 3.8685588,15.979273 c 0.5341665,0 0.9676837,-0.425792 0.9676837,-0.951319 0,-0.525526 -0.4327918,-0.951318 -0.9676837,-0.951318 v 0 l -2.90160046,-7.14e-4 v 7.14e-4 0 C 0.43279184,14.076636 0,14.502428 0,15.027954 c 0,0.525527 0.43279184,0.951319 0.96695834,0.951319 h 7.254e-4 z" />
          <path
             inkscape:connector-curvature="0"
             id="path1087"
             d="m 8.288594,22.237036 c -0.3782962,-0.37075 -0.9903525,-0.372177 -1.3679232,0 h -7.254e-4 l -2.0515222,2.018341 v 0 0 c -0.3775708,0.370751 -0.3775708,0.974335 0,1.346513 0.3782961,0.37075 0.9903525,0.37075 1.3679232,0 l 7.254e-4,-0.0014 2.0515222,-2.018341 v 0 c 0.3775708,-0.372177 0.3775708,-0.974334 0,-1.345085 z" />
          <path
             inkscape:connector-curvature="0"
             id="path1089"
             d="m 24.577327,7.5839956 v 0 0 l 2.050797,-2.018341 v 0 0 c 0.379747,-0.3714639 0.379747,-0.9743346 0,-1.3457985 -0.376846,-0.3714639 -0.988902,-0.3714639 -1.365747,0 h -0.0015 l -2.050797,2.0176273 -7.25e-4,7.136e-4 c -0.377571,0.3721777 -0.377571,0.9743346 0,1.3457986 0.37757,0.3714639 0.990352,0.3714639 1.367923,0 z" />
          <path
             inkscape:connector-curvature="0"
             id="path1091"
             d="m 35.200935,11.102058 c -3.380456,0 -6.426592,1.407798 -8.567338,3.658973 -0.321625,-0.363792 -0.684325,-0.689938 -1.083839,-0.970855 -0.668728,-4.6130581 -4.699504,-8.1598072 -9.573286,-8.1598072 -5.341303,0 -9.67176,4.259703 -9.67176,9.5153292 0,3.17805 1.5832764,5.990882 4.01518,7.717957 -0.5865764,1.080225 -0.919535,2.312461 -0.919535,3.621328 0,4.247124 3.500237,7.6928 7.817909,7.6928 h 17.982669 c 6.47474,0 11.725367,-5.165704 11.725367,-11.538576 0,-6.372159 -5.250627,-11.537149 -11.725367,-11.537149 z M 10.505413,20.528892 C 9.0440042,19.090406 8.2392634,17.178669 8.2392634,15.145698 c 0,-2.033685 0.8047408,-3.945422 2.2661496,-5.3831943 1.46141,-1.4377724 3.404575,-2.2294973 5.470968,-2.2294973 2.067118,0 4.010284,0.7917249 5.471693,2.2294973 0.880545,0.8670173 1.522343,1.9061163 1.893566,3.0400453 -0.460447,-0.10598 -0.939302,-0.162359 -1.432393,-0.162359 -3.454174,0 -6.25449,2.755024 -6.25449,6.15333 0,0.05156 7.25e-4,0.101787 0.0021,0.153349 -1.65763,0.330339 -3.124751,1.17782 -4.221375,2.362597 -0.327246,-0.234172 -0.638171,-0.493412 -0.930054,-0.780574 z m 31.617924,8.923609 c -1.847503,1.81905 -4.307063,2.821217 -6.922493,2.821217 H 17.218175 c -3.243717,0 -5.883267,-2.596768 -5.883267,-5.788825 0,-1.342319 0.47813,-2.652523 1.34598,-3.68404 0.857877,-1.021705 2.050797,-1.728414 3.359963,-1.987654 l 1.589624,-0.31776 -0.03972,-1.594601 c -0.0015,-0.03622 -0.0015,-0.07244 -0.0015,-0.107318 0,-2.343773 1.937453,-4.249979 4.319848,-4.249979 1.252404,0 2.441878,0.533823 3.263575,1.465694 l 1.408274,1.595315 1.464946,-1.543752 c 0.908201,-0.954798 1.980705,-1.706825 3.190672,-2.23369 1.249592,-0.545688 2.582787,-0.821699 3.964221,-0.821699 2.61543,0 5.07499,1.001543 6.922493,2.821217 1.850314,1.819674 2.869048,4.239453 2.869048,6.812581 0,2.573128 -1.018643,4.992907 -2.869048,6.813294 z" />
        </g>
      </g>
    </g>
    <g
       inkscape:label="Alarms"
       transform="translate(964,2612)"
       id="Group-21">
      <g
         style="display:inline"
         id="Group-14">
        <rect
           style="fill:#5aaafa"
           rx="10"
           height="70"
           width="70"
           y="0"
           x="0"
           id="Rectangle-3-Copy-6" />
        <g
           style="fill:#ffffff"
           transform="translate(15,15)"
           id="Group">
          <path
             inkscape:connector-curvature="0"
             id="path1097"
             d="M 19.828571,0 C 8.895102,0 0,8.895102 0,19.828571 c 0,10.93347 8.895102,19.828572 19.828571,19.828572 10.93347,0 19.828572,-8.895102 19.828572,-19.828572 C 39.657143,8.895102 30.762041,0 19.828571,0 Z m 0,35.437959 c -8.606938,0 -15.6097955,-7.002041 -15.6097955,-15.609388 0,-8.607346 7.0028575,-15.6093873 15.6097955,-15.6093873 8.606939,0 15.609796,7.0020413 15.609796,15.6093873 0,8.607347 -7.002857,15.609388 -15.609796,15.609388 z" />
          <path
             inkscape:connector-curvature="0"
             id="path1099"
             d="m 30.162449,19.216326 h -8.91102 V 8.5020408 c 0,-0.9016326 -0.731021,-1.632653 -1.632653,-1.632653 -0.901633,0 -1.632654,0.7310204 -1.632654,1.632653 V 20.84898 c 0,0.901632 0.731021,1.632653 1.632654,1.632653 h 10.543673 c 0.901633,0 1.632653,-0.731021 1.632653,-1.632653 0,-0.901633 -0.73102,-1.632654 -1.632653,-1.632654 z" />
        </g>
      </g>
    </g>
    <g
       inkscape:label="Github"
       transform="translate(1047,2612)"
       id="Group-20">
      <g
         style="display:inline"
         id="Group-13">
        <rect
           style="fill:#5aaafa"
           rx="10"
           height="70"
           width="70"
           y="0"
           x="0"
           id="Rectangle-3-Copy-5" />
        <path
           style="fill:#ffffff"
           inkscape:connector-curvature="0"
           id="path1105"
           d="m 29.426776,47.202238 c -0.234607,0.0522 -0.391011,0.2088 -0.364944,0.391501 0.02607,0.1566 0.234607,0.261 0.469214,0.2088 0.234607,-0.0522 0.391012,-0.2088 0.363902,-0.365401 -0.02502,-0.1566 -0.233564,-0.259956 -0.468172,-0.2349 m -1.484802,0.2088 c -0.233565,0 -0.416037,0.130501 -0.416037,0.287101 0,0.181656 0.182472,0.312156 0.443147,0.2871 0.233564,0 0.416037,-0.1305 0.416037,-0.2871 0,-0.1827 -0.20854,-0.312157 -0.443147,-0.287101 m -1.535895,-0.259956 c -0.20854,-0.05324 -0.443147,0.0261 -0.495282,0.181656 -0.05213,0.1566 0.105313,0.338257 0.338877,0.391501 0.20854,0.0783 0.442104,0 0.494239,-0.155556 0.05318,-0.157645 -0.103227,-0.340345 -0.337834,-0.417601 M 25.155883,46.42028 c -0.182472,-0.1827 -0.417079,-0.207756 -0.520306,-0.0783 -0.130337,0.1044 -0.0782,0.339301 0.103227,0.494857 0.182472,0.182701 0.417079,0.209845 0.521349,0.08039 0.10427,-0.105444 0.05213,-0.340344 -0.10427,-0.496945 m -0.98952,-1.095158 c -0.10427,-0.1827 -0.31281,-0.259956 -0.443147,-0.1566 -0.129295,0.07934 -0.129295,0.287101 0,0.469801 0.130337,0.1827 0.338877,0.261001 0.443147,0.1827 0.130337,-0.1044 0.130337,-0.3132 0,-0.495901 m -0.833117,-1.095158 c -0.130337,-0.1305 -0.312809,-0.181656 -0.417079,-0.0783 -0.10427,0.0783 -0.0782,0.261001 0.05213,0.418645 0.130337,0.129456 0.311767,0.180612 0.417079,0.07726 0.10427,-0.07726 0.0782,-0.261 -0.05213,-0.417601 m -0.938428,-0.781957 c -0.156405,-0.0522 -0.286742,-0.0261 -0.337835,0.05116 -0.05213,0.105444 0.02607,0.235945 0.18143,0.314245 0.130337,0.0783 0.286742,0.0522 0.338877,-0.05324 0.05213,-0.103357 -0.02503,-0.233857 -0.182472,-0.312157 M 55,35.026044 c 0,8.839564 -5.728586,16.348025 -13.671863,19.008142 -1.015588,0.1827 -1.380533,-0.442657 -1.380533,-0.964658 0,-0.651457 0.02607,-2.815673 0.02607,-5.500845 0,-1.87816 -0.624577,-3.077718 -1.354466,-3.703075 4.453366,-0.495901 9.141338,-2.19136 9.141338,-9.882522 0,-2.190316 -0.782024,-3.964075 -2.057244,-5.372434 0.20854,-0.520957 0.885251,-2.554672 -0.20854,-5.318145 -1.666232,-0.522001 -5.495021,2.058772 -5.495021,2.058772 C 38.411709,24.908622 36.6923,24.673721 35,24.673721 c -1.6923,0 -3.41171,0.234901 -5.000782,0.677558 0,0 -3.827746,-2.580773 -5.493978,-2.058772 -1.094834,2.763473 -0.41708,4.797188 -0.20854,5.318145 -1.276263,1.408359 -2.058287,3.182118 -2.058287,5.372434 0,7.666106 4.661905,9.386621 9.116313,9.882522 -0.573484,0.520957 -1.094833,1.407314 -1.276263,2.685173 -1.145926,0.522001 -4.062353,1.408358 -5.807831,-1.669359 -1.09379,-1.903216 -3.073875,-2.058772 -3.073875,-2.058772 -1.952974,-0.02714 -0.130337,1.225658 -0.130337,1.225658 1.30233,0.599257 2.213649,2.919029 2.213649,2.919029 1.171993,3.572575 6.745216,2.373017 6.745216,2.373017 0,1.668315 0.02711,3.234317 0.02711,3.729174 0,0.522001 -0.364945,1.147358 -1.380533,0.964658 C 20.728586,51.374069 15,43.865608 15,35.026044 15,23.970064 23.957823,15 35,15 c 11.042177,0 20,8.970064 20,20.026044" />
      </g>
    </g>
    <g
       transform="translate(1120,2542)"
       id="Group-19">
      <g
         id="Group-12">
        <rect
           style="fill:#5aaafa"
           rx="10"
           height="70"
           width="70"
           y="0"
           x="0"
           id="Rectangle-3-Copy-4" />
        <ellipse
           style="fill:#ffffff"
           ry="15.5"
           rx="18.5"
           cy="34.5"
           cx="34.5"
           id="Oval-3" />
        <use
           height="100%"
           width="100%"
           y="0"
           x="0"
           style="fill:#ffffff;stroke:#5aaafa;stroke-width:4"
           xlink:href="#path-1"
           mask="url(#mask-2)"
           id="Oval-3-Copy" />
        <polygon
           style="fill:#ffffff"
           points="15.313709,51.313708 23.313709,35.313708 31.313709,51.313708 "
           transform="rotate(-135,23.313708,43.313708)"
           id="Triangle" />
      </g>
    </g>
  </g>
</svg>
