<?xml version="1.0" encoding="iso-8859-1"?>
<!-- Generator: Adobe Illustrator 19.1.0, SVG Export Plug-In . SVG Version: 6.00 Build 0)  -->
<svg version="1.1" id="Capa_1" xmlns="http://www.w3.org/2000/svg" xmlns:xlink="http://www.w3.org/1999/xlink" x="0px" y="0px"
	 viewBox="0 0 64 64" style="enable-background:new 0 0 64 64;" xml:space="preserve">
<g>
	<path d="M56.975,37.073C56.439,27.025,47.236,19,36,19c-1.959,0-3.854,0.275-5.658,0.769C27.917,17.962,25.042,17,22,17
		c-7.72,0-14,6.28-14,14c0,2.164,0.487,3.615,1.247,5.018C6.683,38.011,5,41.291,5,45c0,5.794,4.206,10,10,10h41c4.71,0,8-3.29,8-8
		C64,42.507,61.217,37.718,56.975,37.073z M10,31c0-6.617,5.383-12,12-12c2.12,0,4.143,0.547,5.943,1.58
		c-5.84,2.384-10.312,7.286-11.754,13.42H15c-1.442,0-2.811,0.344-4.05,0.951C10.292,33.7,10,32.618,10,31z M56,53H15
		c-4.71,0-8-3.29-8-8c0-4.962,3.589-9,8-9h2.83l0.153-0.815C19.528,26.965,27.105,21,36,21c10.477,0,19,7.626,19,17v1h1
		c3.536,0,6,4.216,6,8C62,50.645,59.645,53,56,53z"/>
	<rect y="30" width="6" height="2"/>
	<rect x="21" y="9" width="2" height="6"/>
	<path d="M9.293,19.706l-6-6l1.414-1.414l6,6L9.293,19.706z"/>
	<g>
	</g>
	<g>
	</g>
	<g>
	</g>
	<g>
	</g>
	<g>
	</g>
	<g>
	</g>
	<g>
	</g>
	<g>
	</g>
	<g>
	</g>
	<g>
	</g>
	<g>
	</g>
	<g>
	</g>
	<g>
	</g>
	<g>
	</g>
	<g>
	</g>
</g>
<g>
</g>
<g>
</g>
<g>
</g>
<g>
</g>
<g>
</g>
<g>
</g>
<g>
</g>
<g>
</g>
<g>
</g>
<g>
</g>
<g>
</g>
<g>
</g>
<g>
</g>
<g>
</g>
<g>
</g>
</svg>
