<?xml version="1.0" encoding="UTF-8"?>
<svg width="190px" height="190px" viewBox="0 0 190 190" version="1.1" xmlns="http://www.w3.org/2000/svg" xmlns:xlink="http://www.w3.org/1999/xlink">
    <!-- Generator: Sketch 41.2 (35397) - http://www.bohemiancoding.com/sketch -->
    <title>logo/apache-openwhisk-mark</title>
    <desc>Created with Sketch.</desc>
    <defs></defs>
    <g id="Favicon" stroke="none" stroke-width="1" fill="none" fill-rule="evenodd">
        <g id="logo/apache-openwhisk-mark">
            <g id="Group-23" transform="translate(79.000000, 85.000000)"></g>
            <g id="Apache-OpenWhisk-Logo" transform="translate(3.000000, 34.000000)">
                <polygon id="Fill-1" fill="#008571" points="154.915807 -0.000754154308 95.229064 0.0180997034 154.882553 105.580849 184.744399 52.7825059"></polygon>
                <polygon id="Fill-2" fill="#6EEDD8" points="95.2301724 0.0192309349 65.9373349 52.7911786 125.065399 52.7631891"></polygon>
                <polygon id="Fill-3" fill="#325C80" points="0 67.8833147 29.5440879 120.666575 88.6618226 120.64395 29.5773416 15.0849715"></polygon>
                <polygon id="Fill-4" fill="#5AAAFA" points="59.1184737 67.8934957 88.6625616 120.64659 118.236208 67.8746419"></polygon>
            </g>
            <path d="M179.544847,44.8765389 L177.299332,44.8765389 L177.299332,51.0714034 L176.255364,51.0714034 L176.255364,44.8765389 L174,44.8765389 L174,44 L179.544847,44 L179.544847,44.8765389 Z M188,44 L188,51.0714034 L187.084066,51.0714034 L187.084066,46.0386915 C187.084066,45.9631841 187.086528,45.8827534 187.091453,45.7973971 C187.096377,45.7120408 187.102122,45.6250444 187.108688,45.5364052 L184.754836,49.8550827 C184.672763,50.0159464 184.546372,50.0963771 184.37566,50.0963771 L184.227928,50.0963771 C184.057216,50.0963771 183.932466,50.0159464 183.853676,49.8550827 L181.455505,45.5216321 C181.475202,45.7054764 181.485051,45.8778278 181.485051,46.0386915 L181.485051,51.0714034 L180.564193,51.0714034 L180.564193,44 L181.342244,44 C181.434166,44 181.505569,44.0090279 181.556454,44.0270841 C181.60734,44.0451402 181.655762,44.0952042 181.701724,44.1772775 L184.065424,48.4122406 C184.111385,48.4975969 184.154062,48.5878762 184.193458,48.6830813 C184.232853,48.7782863 184.270606,48.87349 184.306718,48.968695 C184.37566,48.775002 184.456091,48.5878776 184.548013,48.4073162 L186.867394,44.1772775 C186.910072,44.0952042 186.956853,44.0451402 187.007738,44.0270841 C187.058624,44.0090279 187.130027,44 187.221949,44 L188,44 Z" id="TM" fill="#29558F"></path>
        </g>
    </g>
</svg>