<?xml version="1.0" standalone="no"?>
<!DOCTYPE svg PUBLIC "-//W3C//DTD SVG 20010904//EN"
 "http://www.w3.org/TR/2001/REC-SVG-20010904/DTD/svg10.dtd">
<svg version="1.0" xmlns="http://www.w3.org/2000/svg"
 width="700.000000pt" height="700.000000pt" viewBox="0 0 700.000000 700.000000"
 preserveAspectRatio="xMidYMid meet">
<metadata>
Created by potrace 1.11, written by Peter Selinger 2001-2013
</metadata>
<g transform="translate(0.000000,700.000000) scale(0.100000,-0.100000)"
fill="#000000" stroke="none">
<path d="M3607 5723 c-7 -12 -84 -152 -172 -309 -88 -158 -173 -310 -188 -338
-16 -28 -90 -161 -165 -296 -74 -135 -143 -258 -152 -275 -38 -69 -79 -142
-203 -365 -72 -129 -139 -251 -150 -270 -10 -19 -23 -40 -29 -47 -5 -6 -5 -13
-1 -16 4 -2 494 -4 1087 -3 l1079 1 22 -35 c12 -19 37 -62 55 -95 18 -33 59
-105 90 -160 70 -122 106 -186 138 -245 13 -25 27 -49 32 -55 4 -5 21 -35 37
-65 16 -30 90 -161 163 -290 74 -129 141 -248 150 -265 9 -16 27 -50 42 -75
38 -66 269 -475 308 -545 18 -33 41 -73 51 -88 l17 -29 92 164 c51 89 104 183
118 208 14 25 84 149 155 275 72 127 149 264 172 305 23 41 51 91 62 110 36
61 274 483 305 540 17 30 45 80 63 110 18 30 55 95 83 144 l50 89 -33 56 c-18
31 -45 79 -60 106 -104 185 -119 213 -174 308 -50 87 -247 437 -269 477 -13
25 -32 59 -42 75 -10 17 -29 50 -43 75 -13 25 -41 74 -62 110 -21 36 -49 85
-63 110 -14 25 -43 77 -65 115 -51 90 -59 104 -184 327 l-106 186 -1099 -1
-1099 -1 -12 -23z"/>
<path d="M1162 5123 c-21 -37 -53 -93 -69 -123 -26 -48 -220 -394 -283 -505
-13 -22 -76 -134 -140 -250 -137 -245 -335 -598 -375 -670 -186 -330 -188
-335 -171 -354 9 -10 16 -20 16 -23 0 -3 24 -48 53 -99 29 -52 67 -119 84
-149 37 -67 294 -527 548 -980 103 -184 199 -355 213 -380 13 -25 40 -71 58
-103 19 -32 34 -60 34 -62 0 -2 16 -31 35 -64 l35 -60 1084 1 c597 1 1089 4
1094 7 5 3 26 38 47 76 20 39 46 86 57 105 11 19 43 76 71 125 27 50 59 106
70 125 11 19 40 73 66 119 25 46 61 109 79 140 17 31 44 79 58 106 15 28 51
91 80 142 30 50 54 93 54 95 0 3 32 61 71 129 39 68 81 142 93 164 104 187
153 273 163 290 7 11 16 27 20 35 4 8 22 42 41 75 54 95 112 202 112 207 0 3
-483 4 -1072 3 -590 0 -1080 1 -1088 3 -9 2 -31 31 -49 65 -19 34 -138 249
-266 477 -128 228 -245 438 -260 465 -15 28 -57 102 -93 165 -36 63 -77 138
-92 165 -15 28 -50 90 -79 139 -28 49 -51 91 -51 93 0 3 -17 35 -39 71 -65
113 -128 225 -149 265 l-20 38 -40 -68z"/>
</g>
</svg>
