<?xml version="1.0" encoding="iso-8859-1"?>
<!-- Generator: Adobe Illustrator 19.0.0, SVG Export Plug-In . SVG Version: 6.00 Build 0)  -->
<svg version="1.1" id="Layer_1" xmlns="http://www.w3.org/2000/svg" xmlns:xlink="http://www.w3.org/1999/xlink" x="0px" y="0px"
	 viewBox="0 0 512 512" style="enable-background:new 0 0 512 512;" xml:space="preserve">
<path style="fill:#ABCDE0;" d="M478.596,288.374l-92.326,24.739l-11.292-6.519V205.406l11.292-6.519l92.326,24.739l8.114-30.279
	l-62.048-16.625l60.879-35.148l-15.673-27.146l-60.879,35.148l16.625-62.048l-30.279-8.114l-24.739,92.327l-11.291,6.519
	l-87.63-50.594v-13.038l67.588-67.588l-22.165-22.165l-45.423,45.423V0h-31.347v70.297l-45.423-45.422L172.738,47.04l67.588,67.587
	v13.038l-87.63,50.594l-11.291-6.519l-24.739-92.327l-30.279,8.114l16.625,62.048l-60.878-35.148l-15.673,27.146l60.879,35.148
	l-62.049,16.626l8.114,30.279l92.326-24.739l11.292,6.519v101.187l-11.292,6.519l-92.326-24.739l-8.114,30.279l62.048,16.625
	l-60.878,35.148l15.673,27.146l60.879-35.148l-16.625,62.048l30.279,8.114l24.739-92.327l11.291-6.519l87.629,50.594v13.038
	l-67.588,67.588l22.165,22.165l45.423-45.423V512h31.347v-70.297l45.423,45.422l22.165-22.165l-67.588-67.587v-13.038l87.63-50.594
	l11.291,6.519l24.739,92.327l30.279-8.114l-16.625-62.048l60.879,35.148l15.673-27.146l-60.879-35.148l62.048-16.625
	L478.596,288.374z M343.63,288.495L287.347,256l56.283-32.495V288.495z M327.958,196.357l-56.284,32.495v-64.992L327.958,196.357z
	 M240.327,163.861v64.992l-56.284-32.495L240.327,163.861z M168.37,223.505L224.653,256l-56.283,32.495V223.505z M184.042,315.643
	l56.284-32.495v64.992L184.042,315.643z M271.673,348.139v-64.992l56.284,32.495L271.673,348.139z"/>
<path style="fill:#BDE5F9;" d="M256,512V0h-15.673v70.297l-45.423-45.422L172.738,47.04l67.588,67.587v13.038l-87.63,50.594
	l-11.291-6.519l-24.739-92.327l-30.279,8.114l16.625,62.048l-60.878-35.148l-15.673,27.146l60.879,35.148l-62.049,16.626
	l8.114,30.279l92.326-24.739l11.292,6.519v101.187l-11.292,6.519l-92.326-24.739l-8.114,30.279l62.048,16.625l-60.878,35.148
	l15.673,27.146l60.879-35.148l-16.625,62.048l30.279,8.114l24.739-92.327l11.291-6.519l87.629,50.594v13.038l-67.588,67.588
	l22.165,22.165l45.423-45.423V512H256z M240.327,163.861v64.992l-56.284-32.495L240.327,163.861z M168.37,223.505L224.653,256
	l-56.283,32.495V223.505z M184.042,315.643l56.284-32.495v64.992L184.042,315.643z"/>
<g>
</g>
<g>
</g>
<g>
</g>
<g>
</g>
<g>
</g>
<g>
</g>
<g>
</g>
<g>
</g>
<g>
</g>
<g>
</g>
<g>
</g>
<g>
</g>
<g>
</g>
<g>
</g>
<g>
</g>
</svg>
