<?xml version="1.0" encoding="UTF-8"?>
<svg width="18px" height="18px" viewBox="0 0 12 12" version="1.1" xmlns="http://www.w3.org/2000/svg" xmlns:xlink="http://www.w3.org/1999/xlink">
    <!-- Generator: Sketch 41.2 (35397) - http://www.bohemiancoding.com/sketch -->
    <title>icon-github</title>
    <desc>Created with Sketch.</desc>
    <defs></defs>
    <g id="Symbols" stroke="none" stroke-width="1" fill="none" fill-rule="evenodd">
        <g id="Menu" transform="translate(-1049.000000, -7.000000)" fill="#FFFFFF">
            <g id="Group-36">
                <g id="Group-34" transform="translate(1049.000000, 6.000000)">
                    <path d="M4.20588178,10.8084261 C4.13748901,10.8236435 4.09189383,10.8692957 4.09949303,10.9225565 C4.10709222,10.9682087 4.16788579,10.9986435 4.23627856,10.9834261 C4.30467133,10.9682087 4.35026651,10.9225565 4.34236335,10.8769043 C4.33506812,10.8312522 4.27427455,10.8011217 4.20588178,10.8084261 M3.77303154,10.8692957 C3.70494273,10.8692957 3.65174836,10.9073391 3.65174836,10.9529913 C3.65174836,11.0059478 3.70494273,11.0439913 3.7809347,11.036687 C3.8490235,11.036687 3.90221788,10.9986435 3.90221788,10.9529913 C3.90221788,10.8997304 3.84142431,10.8619913 3.77303154,10.8692957 M3.32528687,10.793513 C3.2644933,10.7779913 3.19610053,10.8011217 3.18090213,10.8464696 C3.16570374,10.8921217 3.21160289,10.9450783 3.27969169,10.9606 C3.34048526,10.9834261 3.40857407,10.9606 3.42377246,10.9152522 C3.43927482,10.8692957 3.39367964,10.8160348 3.32528687,10.793513 M2.9608294,10.5804696 C2.90763502,10.5272087 2.83924225,10.5199043 2.80914943,10.5576435 C2.77115345,10.5880783 2.78635184,10.6565565 2.83924225,10.7019043 C2.89243663,10.7551652 2.9608294,10.7630783 2.99122618,10.7253391 C3.02162297,10.6946 3.00642458,10.6261217 2.9608294,10.5804696 M2.67236389,10.2612087 C2.64196711,10.2079478 2.58117353,10.1854261 2.54317755,10.2155565 C2.50548553,10.238687 2.50548553,10.2992522 2.54317755,10.352513 C2.58117353,10.4057739 2.64196711,10.4286 2.67236389,10.4057739 C2.71035988,10.3753391 2.71035988,10.3144696 2.67236389,10.2612087 M2.42949357,9.94194783 C2.39149758,9.90390435 2.33830321,9.8889913 2.30790642,9.91912174 C2.27750963,9.94194783 2.28510883,9.9952087 2.32310481,10.0411652 C2.3611008,10.0789043 2.41399121,10.0938174 2.44469196,10.063687 C2.47508875,10.0411652 2.46748955,9.9876 2.42949357,9.94194783 M2.15592249,9.7139913 C2.11032731,9.69877391 2.07233132,9.70638261 2.0574369,9.72890435 C2.04223851,9.75964348 2.0650361,9.79768696 2.11032731,9.82051304 C2.14832329,9.84333913 2.19391847,9.83573043 2.20911686,9.8049913 C2.22431526,9.77486087 2.20182164,9.73681739 2.15592249,9.7139913 M11.6609977,7.25881739 C11.6609977,9.83573043 9.99099821,12.0246 7.675371,12.8000783 C7.3793063,12.8533391 7.27291755,12.6710348 7.27291755,12.5188609 C7.27291755,12.3289478 7.28051675,11.6980348 7.28051675,10.9152522 C7.28051675,10.3677304 7.09843999,10.0180348 6.88566249,9.83573043 C8.18390924,9.69116522 9.55054877,9.19690435 9.55054877,6.95477391 C9.55054877,6.31625217 9.32257287,5.79916522 8.95082017,5.3886 C9.01161374,5.23673043 9.20888889,4.64386087 8.8900266,3.83825217 C8.40428595,3.68607826 7.28811594,4.43842609 7.28811594,4.43842609 C6.82517288,4.30938261 6.32392987,4.24090435 5.83059002,4.24090435 C5.33725018,4.24090435 4.83600716,4.30938261 4.37276014,4.43842609 C4.37276014,4.43842609 3.2568941,3.68607826 2.77115345,3.83825217 C2.45198719,4.64386087 2.6495663,5.23673043 2.71035988,5.3886 C2.33830321,5.79916522 2.11032731,6.31625217 2.11032731,6.95477391 C2.11032731,9.1896 3.46936764,9.69116522 4.76791836,9.83573043 C4.60073604,9.9876 4.4487521,10.2459913 4.39586169,10.618513 C4.06180101,10.770687 3.21160289,11.0290783 2.70276068,10.1318609 C2.38389839,9.57703478 1.80666341,9.53168696 1.80666341,9.53168696 C1.2373316,9.52377391 1.76866743,9.8889913 1.76866743,9.8889913 C2.14832329,10.063687 2.41399121,10.7399478 2.41399121,10.7399478 C2.75565109,11.7814261 4.38035933,11.4317304 4.38035933,11.4317304 C4.38035933,11.9180783 4.3882625,12.3746 4.3882625,12.5188609 C4.3882625,12.6710348 4.28187374,12.8533391 3.98580904,12.8000783 C1.67018184,12.0246 0.00018238072,9.83573043 0.00018238072,7.25881739 C0.00018238072,4.03577391 2.61157032,1.42081739 5.83059002,1.42081739 C9.04960973,1.42081739 11.6609977,4.03577391 11.6609977,7.25881739" id="icon-github"></path>
                </g>
            </g>
        </g>
    </g>
</svg>