<?xml version="1.0" encoding="UTF-8"?>
<svg width="18px" height="18px" viewBox="0 0 15 12" version="1.1" xmlns="http://www.w3.org/2000/svg" xmlns:xlink="http://www.w3.org/1999/xlink">
    <!-- Generator: Sketch 41.2 (35397) - http://www.bohemiancoding.com/sketch -->
    <title>icon-medium</title>
    <desc>Created with Sketch.</desc>
    <defs></defs>
    <g id="Symbols" stroke="none" stroke-width="1" fill="none" fill-rule="evenodd">
        <g id="Menu" transform="translate(-1190.000000, -7.000000)" fill="#FFFFFF">
            <g id="Group-36">
                <g id="Group-34" transform="translate(1049.000000, 6.000000)">
                    <path d="M155.28238,3.47851304 L151.033213,1.35142609 C151.014063,1.34168696 150.993089,1.33712174 150.972115,1.33651304 C150.970595,1.33651304 150.96938,1.3362087 150.968164,1.3362087 C150.916489,1.3362087 150.864815,1.36207826 150.837154,1.40712174 L148.218166,5.66829565 L151.141729,10.4249478 L155.323111,3.62155652 C155.353812,3.57103478 155.33527,3.5049913 155.28238,3.47851304 Z M146.833593,4.17072174 L146.833593,8.7618087 L150.909498,10.8024609 L146.833593,4.17072174 Z M151.265779,10.9778261 L155.008839,12.8516957 C155.213105,12.9539565 155.380288,12.8504783 155.380288,12.621913 L155.380288,4.2833913 L151.265779,10.9778261 Z M146.383295,3.4999087 L142.462717,1.53716957 L142.214679,1.4133 C142.179115,1.39534348 142.145375,1.38712609 142.11437,1.38712609 C142.070599,1.38712609 142.033515,1.40416957 142.007373,1.43551739 C141.982144,1.46625652 141.96725,1.5106913 141.96725,1.56638696 L141.96725,10.5251696 C141.96725,10.6776478 142.078806,10.8581261 142.214679,10.9263 L146.066864,12.8546478 C146.120667,12.8817348 146.171429,12.894213 146.217632,12.894213 C146.347427,12.894213 146.438617,12.7937783 146.438617,12.6248652 L146.438617,3.58938696 C146.438617,3.55164783 146.417035,3.51695217 146.383295,3.4999087 Z" id="icon-medium"></path>
                </g>
            </g>
        </g>
    </g>
</svg>