<?xml version="1.0" encoding="UTF-8"?>
<svg width="18px" height="18px" viewBox="0 0 12 14" version="1.1" xmlns="http://www.w3.org/2000/svg" xmlns:xlink="http://www.w3.org/1999/xlink">
    <!-- Generator: Sketch 41.2 (35397) - http://www.bohemiancoding.com/sketch -->
    <title>icon-stack-overflow</title>
    <desc>Created with Sketch.</desc>
    <defs></defs>
    <g id="Symbols" stroke="none" stroke-width="1" fill="none" fill-rule="evenodd">
        <g id="Menu" transform="translate(-1144.000000, -6.000000)" fill="#FFFFFF">
            <g id="Group-36">
                <g id="Group-34" transform="translate(1049.000000, 6.000000)">
                    <path d="M103.185114,0.304256522 L102.213329,1.03408261 L105.834802,5.90638696 L106.806283,5.17686522 L103.185114,0.304256522 Z M100.170969,3.17760435 L104.83262,7.07721304 L105.60713,6.14225652 L100.945479,2.24264783 L100.170969,3.17760435 Z M98.6450502,5.88386522 L104.1493,8.45286522 L104.658143,7.35082174 L99.1535884,4.7739087 L98.6450502,5.88386522 Z M97.8629409,8.72677826 L103.80764,9.97338696 L104.05811,8.78734348 L98.1137144,7.53343043 L97.8629409,8.72677826 Z M97.7340585,11.4856913 L103.807336,11.4856913 L103.807336,10.2771261 L97.7340585,10.2771261 L97.7340585,11.4856913 Z M105.014697,12.7097783 L105.014697,9.06095217 L106.229352,9.06095217 L106.229352,13.9259522 L95.3123465,13.9259522 L95.3123465,9.06095217 L96.5270021,9.06095217 L96.5270021,12.7097783 L105.014697,12.7097783 Z" id="icon-stack-overflow"></path>
                </g>
            </g>
        </g>
    </g>
</svg>