<?xml version="1.0" encoding="iso-8859-1"?>
<!-- Generator: Adobe Illustrator 19.0.0, SVG Export Plug-In . SVG Version: 6.00 Build 0)  -->
<svg version="1.1" id="Layer_1" xmlns="http://www.w3.org/2000/svg" xmlns:xlink="http://www.w3.org/1999/xlink" x="0px" y="0px"
	 viewBox="0 0 488 488" style="enable-background:new 0 0 488 488;" xml:space="preserve">
<g transform="translate(0 -540.36)">
	<g>
		<g>
			<path d="M336,590.16c5.5,0,10-4.5,10-10v-29.8c0-5.5-4.5-10-10-10s-10,4.5-10,10v29.8C326,585.66,330.5,590.16,336,590.16z"/>
			<path d="M417.7,620.66c2.5,0,5.1-1,7-2.9l19.9-19.8c3.9-3.9,3.9-10.2,0-14.1c-3.9-3.9-10.2-3.9-14.1,0l-19.9,19.8
				c-3.9,3.9-3.9,10.2,0,14.1C412.6,619.66,415.1,620.66,417.7,620.66z"/>
			<path d="M424.6,766.96c-3.9-3.9-10.2-3.9-14.1,0c-3.9,3.9-3.9,10.2,0,14.1l19.9,19.9c2,1.9,4.5,2.9,7.1,2.9c2.6,0,5.2-0.9,7-2.9
				c3.9-3.9,3.9-10.2,0-14.1L424.6,766.96z"/>
			<path d="M478,672.46h-29.8c-5.5,0-10,4.5-10,10s4.5,10,10,10H478c5.5,0,10-4.5,10-10S483.5,672.46,478,672.46z"/>
			<path d="M247.2,617.76c2,1.9,4.5,2.9,7.1,2.9c2.6,0,5.1-1,7.1-2.9c3.9-3.9,3.9-10.2,0-14.1l-19.9-19.8c-3.9-3.9-10.2-3.9-14.1,0
				c-3.9,3.9-3.9,10.2,0,14.1L247.2,617.76z"/>
			<path d="M91.7,906.06c-3.3,0-6.3,1.6-8.2,4.3c-5.3,7.6-22.4,33.4-22.4,46.9c0,16.5,13.7,29.9,30.6,29.9
				c16.9,0,30.6-13.4,30.6-29.9c0-13.5-17.1-39.3-22.4-46.9C98.1,907.66,95,906.06,91.7,906.06z M91.7,967.06
				c-5.7,0-10.6-4.5-10.6-9.8c0-3.2,4.5-12.4,10.6-22.7c6.1,10.2,10.6,19.5,10.6,22.7C102.3,962.56,97.5,967.06,91.7,967.06z"/>
			<path d="M254.1,905.96c-3.3,0.1-6.4,1.7-8.2,4.5c-5,7.6-21.5,33.4-21.5,46.8c0,16.2,13.7,29.9,29.9,29.9
				c16.9,0,30.6-13.4,30.5-30c0-13.5-17.1-39.3-22.4-46.9C260.5,907.56,257.4,905.96,254.1,905.96z M254.4,967.26
				c-5.2,0-9.9-4.7-9.9-9.9c0-3.2,4.2-12.3,10-22.5v0c6,10.1,10.4,19.2,10.5,22.6C265,962.76,260.2,967.26,254.4,967.26z"/>
			<path d="M173.5,947.26c-3.2,0-6.3,1.5-8.2,4.2c-5.3,7.5-22.5,32.7-22.5,46.3c0,16.9,13.7,30.6,30.6,30.6
				c16.4,0,29.8-13.7,29.9-30.6c0-13.5-16.5-38.7-21.6-46.1C179.8,948.96,176.8,947.26,173.5,947.26z M173.3,1008.26
				c-5.9,0-10.6-4.7-10.6-10.6c0.1-3.1,4.5-12.1,10.5-22c5.8,10,10,18.9,10,22C183.2,1003.36,178.6,1008.26,173.3,1008.26z"/>
			<path d="M405.1,649.26L405.1,649.26c-9.9-16.2-25.2-28.4-43.1-34.3c-34.9-11.6-73.7,3.8-92.3,35.9c-14.2-5.8-29.7-8.9-46-8.9
				c-23.6,0-46.6,6.8-66.3,19.7c-17.2,11.2-31.2,26.4-41,44.5c-9.2-2.5-18.2-3.1-24.7-3.1c-24.5,0-47.5,9.4-64.8,26.5
				c-17.4,17.1-26.9,40-26.9,64.5c0,50.6,41.1,91.7,91.7,91.7h132.1c64.2,0,116.9-49.7,121.8-112.6c16.7-1.6,32.5-8.7,45.1-20.2
				c13.9-12.8,22.9-30.2,25.5-49.1C419,684.86,415.1,665.56,405.1,649.26z M223.8,865.56L223.8,865.56l-132.1,0
				c-39.5,0-71.7-32.2-71.7-71.7c0-39.1,32.2-70.9,71.7-70.9c9.6,0,18.8,1.6,25.9,4.6c5,2.1,10.7-0.2,13-5.1
				c16.7-36.8,53.2-60.5,93.2-60.5c56.4,0,102.2,45.5,102.2,101.5C326,819.76,280.1,865.56,223.8,865.56z M396.4,700.76
				L396.4,700.76c0,0.1,0,0.1,0,0.2c-3.6,27.2-25,48.5-50.8,51.9c-3.4-39.3-25.7-73.4-57.9-93c14.1-23.4,42.5-34.5,68.1-26
				C383.4,643.16,400.8,671.86,396.4,700.76z"/>
		</g>
	</g>
</g>
<g>
</g>
<g>
</g>
<g>
</g>
<g>
</g>
<g>
</g>
<g>
</g>
<g>
</g>
<g>
</g>
<g>
</g>
<g>
</g>
<g>
</g>
<g>
</g>
<g>
</g>
<g>
</g>
<g>
</g>
</svg>
