<?xml version="1.0" encoding="UTF-8" standalone="no"?>
<!-- Generator: Adobe Illustrator 16.0.0, SVG Export Plug-In . SVG Version: 6.00 Build 0)  -->

<svg
   xmlns:dc="http://purl.org/dc/elements/1.1/"
   xmlns:cc="http://creativecommons.org/ns#"
   xmlns:rdf="http://www.w3.org/1999/02/22-rdf-syntax-ns#"
   xmlns:svg="http://www.w3.org/2000/svg"
   xmlns="http://www.w3.org/2000/svg"
   xmlns:sodipodi="http://sodipodi.sourceforge.net/DTD/sodipodi-0.dtd"
   xmlns:inkscape="http://www.inkscape.org/namespaces/inkscape"
   version="1.1"
   id="Capa_1"
   x="0px"
   y="0px"
   width="263.97311"
   height="356.57089"
   viewBox="0 0 263.9731 356.57087"
   xml:space="preserve"
   sodipodi:docname="connection.svg"
   inkscape:version="0.92.2 5c3e80d, 2017-08-06"
   inkscape:export-filename="/Users/Matt/openwhisk/release/incubator-openwhisk-website/images/elements/connection.png"
   inkscape:export-xdpi="98.790001"
   inkscape:export-ydpi="98.790001"><metadata
     id="metadata63"><rdf:RDF><cc:Work
         rdf:about=""><dc:format>image/svg+xml</dc:format><dc:type
           rdf:resource="http://purl.org/dc/dcmitype/StillImage" /><dc:title></dc:title></cc:Work></rdf:RDF></metadata><defs
     id="defs61" /><sodipodi:namedview
     pagecolor="#ffffff"
     bordercolor="#666666"
     borderopacity="1"
     objecttolerance="10"
     gridtolerance="10"
     guidetolerance="10"
     inkscape:pageopacity="0"
     inkscape:pageshadow="2"
     inkscape:window-width="1543"
     inkscape:window-height="1000"
     id="namedview59"
     showgrid="false"
     inkscape:zoom="1.0969851"
     inkscape:cx="172.80077"
     inkscape:cy="253.03752"
     inkscape:window-x="95"
     inkscape:window-y="0"
     inkscape:window-maximized="0"
     inkscape:current-layer="Capa_1"
     fit-margin-top="0"
     fit-margin-left="0"
     fit-margin-right="0"
     fit-margin-bottom="0"
     inkscape:pagecheckerboard="true"
     inkscape:snap-smooth-nodes="true" /><g
     id="g26"
     inkscape:label="wireless connection"
     transform="matrix(0,-0.74389493,-0.74389493,0,358.0863,396.72664)"
     style="fill:#707070;fill-opacity:1;stroke:#707070;stroke-width:5.37710333;stroke-miterlimit:4;stroke-dasharray:none;stroke-opacity:1"><g
       id="g24"
       style="display:inline;fill:#707070;fill-opacity:1;stroke:#707070;stroke-width:7.69609118;stroke-miterlimit:4;stroke-dasharray:none;stroke-opacity:1"
       inkscape:label="center"
       transform="matrix(0.69868225,0,0,0.69867736,82.329321,122.64562)"><path
         style="display:inline;fill:#707070;fill-opacity:1;stroke:#707070;stroke-width:7.69609118;stroke-miterlimit:4;stroke-dasharray:none;stroke-opacity:1"
         d="m 92.359375,220.75586 c -33.39588,-0.0583 -64.57685,29.46799 -63.417969,63.81641 -1.3016,38.56681 38.168075,71.05294 75.765624,62.41015 20.77941,-3.90284 38.92488,-18.856 46.73633,-38.5039 15.68174,-35.24518 -8.6393,-80.18892 -46.73633,-86.31641 -4.1123,-0.94536 -8.246407,-1.3991 -12.347655,-1.40625 z m -0.197266,20.01953 a 44.582886,44.582886 0 0 1 44.582031,44.58399 44.582886,44.582886 0 0 1 -44.582031,44.58203 44.582886,44.582886 0 0 1 -44.583984,-44.58203 44.582886,44.582886 0 0 1 44.583984,-44.58399 z"
         transform="rotate(-90,275.50077,262.98966)"
         id="path20"
         inkscape:connector-curvature="0" /></g></g><path
     style="fill:none;stroke:#707070;stroke-width:16;stroke-linecap:round;stroke-linejoin:miter;stroke-miterlimit:4;stroke-dasharray:none;stroke-opacity:1"
     d="m 89.679128,106.97264 c 0,0 10.538622,10.89267 14.800002,17.11594 5.34354,7.80365 10.40855,16.0582 13.3,25.0632 3.15218,9.81703 4.20453,22.72047 4.11769,30.65677 -0.0974,8.90196 -1.3126,19.77837 -4.11769,29.19888 -2.96714,9.96472 -7.60655,19.50477 -13.24921,28.23746 -4.1282,6.38889 -14.850792,17.32607 -14.850792,17.32607"
     id="path25"
     inkscape:connector-curvature="0"
     sodipodi:nodetypes="caasaac"
     inkscape:label="inner" /><path
     sodipodi:nodetypes="caasaac"
     inkscape:connector-curvature="0"
     id="path856"
     d="m 141.01605,52.491144 c 0,0 17.89027,20.272457 24.76834,31.820696 7.34788,12.337057 13.38805,25.63763 17.28733,39.45755 4.70884,16.68917 7.19504,37.93529 7.1082,51.53435 -0.0974,15.25375 -2.80529,34.40347 -7.1082,51.02989 -3.88488,15.01118 -9.48813,29.69505 -16.73812,43.40145 -6.66459,12.59967 -24.32071,35.17127 -24.32071,35.17127"
     style="fill:none;stroke:#707070;stroke-width:16;stroke-linecap:round;stroke-linejoin:miter;stroke-miterlimit:4;stroke-dasharray:none;stroke-opacity:1"
     inkscape:label="middle" /><path
     style="fill:none;stroke:#707070;stroke-width:16;stroke-linecap:round;stroke-linejoin:miter;stroke-miterlimit:4;stroke-dasharray:none;stroke-opacity:1"
     d="m 193.84823,8.0887758 c 0,0 24.41713,30.1956162 33.73984,47.1130642 8.63187,15.6638 15.70914,32.395839 20.19258,49.70949 5.67342,21.90901 8.27712,48.77953 8.19028,67.39919 -0.0974,20.88522 -1.54932,46.60164 -6.8229,69.15792 -4.51403,19.30757 -12.06509,37.95489 -21.01075,55.65048 -9.20453,18.20767 -33.29222,51.35965 -33.29222,51.35965"
     id="path858"
     inkscape:connector-curvature="0"
     sodipodi:nodetypes="caasaac"
     inkscape:label="outer" /></svg>