<?xml version="1.0" encoding="UTF-8" standalone="no"?>
<svg
   xmlns:dc="http://purl.org/dc/elements/1.1/"
   xmlns:cc="http://creativecommons.org/ns#"
   xmlns:rdf="http://www.w3.org/1999/02/22-rdf-syntax-ns#"
   xmlns:svg="http://www.w3.org/2000/svg"
   xmlns="http://www.w3.org/2000/svg"
   xmlns:sodipodi="http://sodipodi.sourceforge.net/DTD/sodipodi-0.dtd"
   xmlns:inkscape="http://www.inkscape.org/namespaces/inkscape"
   width="185.18349"
   height="176.79234"
   viewBox="0 0 185.18348 176.79234"
   version="1.1"
   id="svg13"
   sodipodi:docname="drawing-events-sensors.svg"
   inkscape:version="0.92.2 5c3e80d, 2017-08-06">
  <metadata
     id="metadata17">
    <rdf:RDF>
      <cc:Work
         rdf:about="">
        <dc:format>image/svg+xml</dc:format>
        <dc:type
           rdf:resource="http://purl.org/dc/dcmitype/StillImage" />
        <dc:title>icon-slack</dc:title>
      </cc:Work>
    </rdf:RDF>
  </metadata>
  <sodipodi:namedview
     pagecolor="#ffffff"
     bordercolor="#666666"
     borderopacity="1"
     objecttolerance="10"
     gridtolerance="10"
     guidetolerance="10"
     inkscape:pageopacity="0"
     inkscape:pageshadow="2"
     inkscape:window-width="1509"
     inkscape:window-height="925"
     id="namedview15"
     showgrid="false"
     inkscape:pagecheckerboard="true"
     fit-margin-top="0"
     fit-margin-left="0"
     fit-margin-right="0"
     fit-margin-bottom="0"
     inkscape:zoom="4.093823"
     inkscape:cx="90.263615"
     inkscape:cy="90.602165"
     inkscape:window-x="86"
     inkscape:window-y="19"
     inkscape:window-maximized="0"
     inkscape:current-layer="svg13"
     units="px" />
  <!-- Generator: Sketch 41.2 (35397) - http://www.bohemiancoding.com/sketch -->
  <title
     id="title2">icon-slack</title>
  <desc
     id="desc4">Created with Sketch.</desc>
  <ellipse
     style="display:inline;fill:#ffffff;fill-opacity:1;stroke:#000000;stroke-width:4;stroke-miterlimit:4;stroke-dasharray:none;stroke-opacity:0.49803922"
     id="path1170"
     cx="90.38575"
     cy="86.190178"
     inkscape:label="background circle"
     rx="89.155853"
     ry="84.960281"
     inkscape:export-xdpi="96"
     inkscape:export-ydpi="96" />
  <g
     id="g1547"
     transform="matrix(1.4311043,0,0,1.3931337,-10.139018,-40.408329)"
     inkscape:label="speedometer">
    <path
       inkscape:label="casing"
       sodipodi:nodetypes="sssssssccsccscscscccscsccccssscccccssccccscccccscc"
       inkscape:connector-curvature="0"
       id="path1483"
       d="M 64.832901,142.10836 C 52.939272,139.17155 44.940756,127.04832 47.56094,115.92953 c 1.049959,-4.45552 2.828485,-7.58921 6.216346,-10.95295 5.166467,-5.12968 10.933455,-7.337755 18.024165,-6.901126 11.256173,0.693128 19.862532,8.425556 21.769263,19.558706 1.08521,6.33637 -1.758823,13.92274 -7.062016,18.83773 -5.589741,5.18056 -14.324049,7.45179 -21.675797,5.63647 z m 18.22815,-14.15612 h 6.467615 l 0.445186,-1.12968 c 0.244851,-0.62132 0.536968,-2.00774 0.64915,-3.08093 l 0.203973,-1.95126 h -1.999583 c -2.457816,0 -3.811493,-0.81378 -3.001002,-1.8041 0.362405,-0.44282 1.196355,-0.66064 2.529259,-0.66064 1.401109,0 2.058029,-0.18353 2.223664,-0.62123 0.379212,-1.00212 -0.218544,-4.02092 -1.080932,-5.45895 l -0.797195,-1.32932 -2.058852,1.05797 c -1.621954,0.83347 -2.181004,0.95517 -2.634486,0.57352 -0.987926,-0.83144 -0.640963,-1.60764 1.234478,-2.76171 0.995566,-0.61263 1.815881,-1.37892 1.822922,-1.70288 0.01813,-0.83392 -3.884273,-4.54588 -4.779104,-4.54588 -0.414848,0 -1.17749,0.68112 -1.724832,1.54047 -1.893444,2.97276 -4.115131,1.88553 -2.415067,-1.18187 0.496366,-0.89558 0.803649,-1.8895 0.682858,-2.2087 -0.272563,-0.72028 -4.30911,-1.94863 -5.823305,-1.77207 -1.041151,0.1214 -1.132804,0.28717 -1.321302,2.3898 -0.18659,2.08134 -0.282338,2.25935 -1.215281,2.25935 -0.932942,0 -1.02869,-0.17801 -1.21528,-2.25935 -0.180684,-2.01548 -0.309516,-2.27466 -1.193536,-2.40119 -1.157632,-0.16569 -6.000866,1.08765 -6.33752,1.64003 -0.126509,0.20757 0.113861,0.9721 0.534155,1.69896 1.221426,2.11232 1.336819,2.68925 0.672606,3.3628 -0.827261,0.8389 -1.803526,0.281 -2.803594,-1.60213 -0.428228,-0.80635 -1.082012,-1.4661 -1.452852,-1.4661 -0.971709,0 -4.812816,3.63009 -4.812816,4.54842 0,0.48668 0.584454,1.07753 1.570413,1.5876 1.797876,0.93011 2.363932,1.96329 1.535757,2.80312 -0.489195,0.49607 -0.87282,0.42155 -2.722211,-0.52878 -2.066894,-1.06211 -2.174537,-1.07605 -2.698482,-0.34943 -0.617072,0.85576 -1.736412,4.44113 -1.736412,5.56191 0,0.79174 0.792136,1.08225 3.439926,1.26154 1.211098,0.082 1.653278,0.30337 1.761506,0.88185 0.197752,1.05698 -0.603007,1.47327 -2.848237,1.48071 -1.045158,0.003 -2.018298,0.19992 -2.162532,0.43658 -0.309707,0.50816 0.547717,4.47715 1.127269,5.21808 0.29185,0.37312 2.206134,0.51349 7.002725,0.51349 h 6.601078 c 8.978786,0.2054 2.597482,-0.0272 18.329873,0 z"
       style="display:inline;fill:#7c7c7c;fill-opacity:1;stroke:#7c7c7c;stroke-width:0.40793237;stroke-opacity:0.49803922" />
    <path
       inkscape:label="base"
       sodipodi:nodetypes="ccccscccsccssccccscsc"
       inkscape:connector-curvature="0"
       id="path1473"
       d="m 68.038654,141.11648 c -0.334202,-0.22942 -1.191514,-0.41997 -1.905135,-0.42343 -2.292423,-0.0111 -7.793664,-2.65032 -10.430516,-5.00401 -1.798594,-1.60546 -4.516433,-5.16231 -4.194238,-5.48904 0.08637,-0.0876 3.381077,-0.18302 7.321562,-0.21206 l 7.16452,-0.0528 1.174739,1.30426 c 0.974656,1.08212 1.485118,1.30902 2.997073,1.3322 1.991051,0.0305 4.353492,-1.29132 4.353492,-2.43588 0,-0.45922 0.25348,-0.56724 0.911461,-0.38843 0.501303,0.13623 3.782561,0.25022 7.291684,0.25331 4.422314,0.004 6.380224,0.14629 6.380224,0.46406 0,0.94576 -2.911476,4.43038 -5.104673,6.10955 -3.690168,2.82529 -7.292033,4.09345 -13.529632,4.76358 -1.002606,0.10772 -2.096359,0.008 -2.430561,-0.2213 z M 47.986521,120.558 c -0.137699,-0.22593 0.04459,-0.41079 0.405094,-0.41079 0.3605,0 0.542793,0.18486 0.405094,0.41079 -0.137699,0.22594 -0.319992,0.41079 -0.405094,0.41079 -0.0851,0 -0.267395,-0.18485 -0.405094,-0.41079 z"
       style="display:inline;fill:#7c7c7c;fill-opacity:1;stroke:#7c7c7c;stroke-width:0.40793237;stroke-opacity:0.49803922" />
    <rect
       inkscape:label="needle"
       transform="rotate(34.008708)"
       ry="0.14642107"
       y="48.833908"
       x="127.77502"
       height="14.262481"
       width="1.7390838"
       id="rect1491"
       style="display:inline;fill:#7c7c7c;fill-opacity:1;stroke:#7c7c7c;stroke-width:1.89999998;stroke-linecap:round;stroke-linejoin:round;stroke-miterlimit:4;stroke-dasharray:none;stroke-opacity:0.77619048" />
    <ellipse
       inkscape:label="pin"
       ry="3.5356529"
       rx="3.956593"
       cy="128.52791"
       cx="70.270836"
       id="path1499"
       style="display:inline;fill:#7c7c7c;fill-opacity:1;stroke:#7c7c7c;stroke-width:1.89999998;stroke-linecap:round;stroke-linejoin:round;stroke-miterlimit:4;stroke-dasharray:none;stroke-opacity:1" />
  </g>
  <g
     id="g1725"
     inkscape:label="maintenance"
     style="fill:#7f7f7f;fill-opacity:0.49803922"
     transform="matrix(1.2655942,0,0,1.3019793,-32.521243,-36.743233)">
    <path
       style="fill:#7f7f7f;fill-opacity:0.49803922;stroke-width:0.07618435"
       d="m 105.43637,96.376297 c -0.51434,-0.512225 -0.93472,-0.964997 -0.93418,-1.006159 5.4e-4,-0.04116 0.2843,-0.509912 0.63057,-1.041666 0.34628,-0.531755 1.45224,-2.240328 2.4577,-3.796829 1.00545,-1.556502 1.90315,-2.909526 1.99489,-3.006722 0.13733,-0.145498 0.41874,-0.227225 1.59294,-0.462608 0.78438,-0.157239 1.44098,-0.299831 1.45912,-0.316869 0.67161,-0.630989 17.01024,-16.872487 17.01024,-16.90912 0,-0.02956 -0.46805,-0.519654 -1.04012,-1.089093 -0.80138,-0.797708 -1.02954,-1.068086 -0.99407,-1.178 0.0253,-0.07846 2.80643,-2.899776 6.18023,-6.269588 6.57566,-6.567878 6.3981,-6.408125 7.5482,-6.791227 0.62934,-0.209636 1.78763,-0.193618 2.47747,0.03426 1.37672,0.454776 2.52684,1.367919 3.2535,2.583122 0.91033,1.522367 0.94723,3.370159 0.0925,4.634498 -0.3532,0.522484 -12.62881,12.538538 -12.80939,12.538538 -0.10135,0 -0.52209,-0.360437 -1.16631,-0.999154 l -1.00776,-0.999154 -1.10036,1.036816 c -0.60519,0.570249 -4.44441,4.3841 -8.53159,8.475226 l -7.43124,7.43841 -0.26458,1.313587 c -0.14552,0.722473 -0.28131,1.386711 -0.30176,1.476086 -0.0263,0.115024 -0.84686,0.679163 -2.80852,1.930907 -3.80515,2.428079 -4.47995,2.861842 -4.84753,3.116016 -0.17503,0.121023 -0.36472,0.220043 -0.42153,0.220043 -0.0568,0 -0.52412,-0.419094 -1.03846,-0.93132 z m 34.89919,-31.063921 c 3.5586,-3.53712 4.82798,-4.844293 4.82798,-4.97174 0,-0.34532 -0.4785,-0.651202 -0.75057,-0.479809 -0.29617,0.186574 -9.72075,9.608605 -9.72075,9.718125 0,0.306017 0.40709,0.63833 0.69146,0.564449 0.0682,-0.0177 2.29649,-2.191667 4.95188,-4.831025 z m -2.89099,-2.767681 c 4.37247,-4.330202 4.81451,-4.790364 4.81451,-5.011815 0,-0.14259 -0.0635,-0.306901 -0.15286,-0.395712 -0.37161,-0.369194 -0.23395,-0.487624 -5.40696,4.651785 -3.57647,3.553244 -4.83506,4.848858 -4.83506,4.977298 0,0.232346 0.32794,0.546418 0.57054,0.546418 0.15627,0 1.1577,-0.953084 5.00983,-4.767974 z m 2.18031,32.17606 c -1.87342,-0.285702 -3.51613,-1.679201 -4.06551,-3.448741 -0.13969,-0.449933 -0.19191,-0.505215 -5.47659,-5.797404 -3.69657,-3.701824 -5.32835,-5.38519 -5.31209,-5.480034 0.0365,-0.213076 5.47905,-5.695742 5.65403,-5.695742 0.0939,0 2.14531,1.949806 5.57246,5.296403 5.42145,5.294033 5.4241,5.296476 5.92182,5.463282 0.7845,0.262913 1.32382,0.608141 1.9841,1.270063 0.99228,0.994738 1.43775,2.067193 1.43775,3.461314 0,1.418546 -0.44399,2.470558 -1.47493,3.494811 -0.95516,0.948955 -1.88272,1.371512 -3.21701,1.465533 -0.31249,0.02202 -0.7733,0.0088 -1.02403,-0.02949 z m 1.54749,-2.998325 c 1.16906,-0.484435 1.45869,-2.032717 0.54191,-2.896877 -1.11581,-1.051761 -2.96305,-0.273194 -2.96943,1.251544 -0.004,0.985519 0.75817,1.757365 1.73962,1.761419 0.22205,9.19e-4 0.53161,-0.05132 0.6879,-0.116086 z M 121.54095,76.827039 c -0.13561,-0.113369 -1.04128,-0.935439 -2.01259,-1.826822 -1.35475,-1.243257 -1.80163,-1.611955 -1.9189,-1.583162 -1.59793,0.392351 -2.54398,0.578096 -3.3356,0.654906 -1.37234,0.133156 -1.7855,0.08729 -2.71923,-0.301888 -0.77307,-0.322214 -0.80125,-0.343281 -2.7898,-2.085594 -2.29187,-2.008069 -3.60708,-3.419201 -3.82694,-4.106032 -0.35648,-1.113679 -0.54335,-2.94514 -0.43917,-4.304252 0.0753,-0.982864 0.11242,-1.089832 0.47654,-1.374954 0.13864,-0.108557 0.40483,-0.336642 0.59154,-0.506856 0.18671,-0.170213 0.36529,-0.300269 0.39685,-0.289012 0.0316,0.01126 1.33086,1.261079 2.88734,2.777385 l 2.82995,2.756921 0.72772,0.225993 c 0.6671,0.20717 0.74529,0.216781 0.93878,0.115395 0.11609,-0.06083 0.95735,-0.856397 1.86946,-1.767929 1.78354,-1.782418 1.91709,-1.968645 1.91149,-2.665457 -0.006,-0.733291 0.004,-0.720785 -3.68452,-4.489007 -1.07197,-1.095026 -1.96143,-2.025998 -1.97657,-2.068825 -0.0346,-0.09785 0.24663,-0.395718 1.00253,-1.061913 l 0.59284,-0.522484 0.78296,0.0015 c 0.97663,0.0018 2.15122,0.154274 3.17363,0.411838 1.51902,0.38267 1.48756,0.362872 2.77073,1.743344 0.93065,1.001211 2.73303,3.145365 3.71609,4.420744 0.15125,0.196222 0.20929,0.436486 0.33934,1.404827 0.18654,1.388837 0.19582,2.454993 0.0275,3.159553 -0.0676,0.282962 -0.203,0.884391 -0.3009,1.33651 l -0.17801,0.822035 0.53468,0.506855 c 0.29407,0.278771 0.56406,0.517569 0.59997,0.530662 0.17632,0.06429 2.67311,2.768318 2.67311,2.894981 0,0.0887 -1.00365,1.134215 -2.60469,2.713333 -1.43258,1.412967 -2.65079,2.594797 -2.70714,2.626291 -0.0632,0.03531 -0.19698,-0.02177 -0.34902,-0.148868 z"
       id="path1739"
       inkscape:connector-curvature="0" />
    <path
       style="fill:#7f7f7f;fill-opacity:0.49803922;stroke-width:0.07618435"
       d="m 105.46366,96.327445 c -0.67366,-0.671033 -0.8949,-0.937581 -0.85784,-1.03353 0.0275,-0.07111 0.92056,-1.46675 1.98466,-3.101419 1.06409,-1.634668 2.17294,-3.343863 2.46412,-3.79821 0.29117,-0.454346 0.59819,-0.870745 0.68227,-0.925331 0.0841,-0.05458 0.76549,-0.217163 1.51424,-0.361284 l 1.36138,-0.262039 0.61857,-0.597139 c 1.61097,-1.555163 16.49302,-16.366899 16.49302,-16.415095 0,-0.0302 -0.46433,-0.515265 -1.03184,-1.077934 -0.56752,-0.562668 -1.03185,-1.068846 -1.03185,-1.12484 0,-0.112923 3.54249,-3.703837 8.85802,-8.979113 3.12963,-3.105929 3.5413,-3.487938 4.02798,-3.73772 1.20679,-0.619376 2.38605,-0.677062 3.63066,-0.177602 1.79043,0.718489 3.11504,2.267443 3.47575,4.064429 0.20667,1.029621 10e-4,2.179794 -0.5192,2.906429 -0.27834,0.388638 -12.66033,12.591787 -12.77632,12.591787 -0.0403,0 -0.54674,-0.466176 -1.12551,-1.035946 l -1.05233,-1.035947 -1.10203,1.038394 c -0.60611,0.571116 -4.45796,4.39749 -8.55966,8.503054 l -7.45763,7.464659 -0.2821,1.398489 c -0.15816,0.784017 -0.33389,1.457052 -0.39996,1.531777 -0.0648,0.07331 -1.32477,0.904246 -2.7999,1.846527 -1.47513,0.94228 -3.20876,2.052673 -3.85252,2.467538 -0.64375,0.414865 -1.21181,0.754301 -1.26234,0.754301 -0.0505,0 -0.50037,-0.406906 -0.99964,-0.904235 z m 34.87657,-30.934339 c 2.64791,-2.621951 4.83573,-4.834003 4.86182,-4.915671 0.10816,-0.338563 -0.37651,-0.830789 -0.71342,-0.724551 -0.16688,0.05262 -9.65691,9.427051 -9.78611,9.666903 -0.0734,0.136281 -0.0684,0.213765 0.0256,0.39433 0.0643,0.123596 0.17716,0.260414 0.25073,0.304038 0.36755,0.217953 0.38471,0.202823 5.36138,-4.725049 z m -2.84675,-2.807488 c 4.45535,-4.418053 4.84347,-4.823045 4.84279,-5.053234 -4.6e-4,-0.163738 -0.0656,-0.31468 -0.18836,-0.436636 -0.41605,-0.413351 -0.20445,-0.592882 -5.48687,4.655232 -3.64379,3.620131 -4.87327,4.886033 -4.87327,5.017656 0,0.244565 0.39632,0.61997 0.65451,0.61997 0.1727,0 1.02334,-0.808843 5.0512,-4.802988 z m 1.82294,32.01549 c -1.42844,-0.299778 -2.77114,-1.336342 -3.38512,-2.613318 -0.16956,-0.352657 -0.33268,-0.758568 -0.36248,-0.902025 -0.0448,-0.21568 -0.97878,-1.186263 -5.39532,-5.606822 -2.93762,-2.940295 -5.34113,-5.397413 -5.34113,-5.460262 0,-0.121828 5.36691,-5.604851 5.55715,-5.677379 0.0752,-0.02868 0.86593,0.696731 2.37965,2.183125 1.24685,1.224338 3.70047,3.622721 5.45249,5.329739 3.11747,3.037391 3.1959,3.107152 3.67307,3.266817 0.80002,0.267693 1.28523,0.572173 1.94098,1.218005 0.49781,0.490279 0.68281,0.739192 0.93125,1.253013 0.71246,1.473464 0.71246,2.922325 0,4.395789 -0.43738,0.904568 -1.29596,1.757572 -2.20644,2.192112 -1.0809,0.515876 -2.13862,0.653208 -3.2441,0.421206 z m 1.7229,-2.760543 c 0.60116,-0.165924 1.17102,-0.802634 1.26285,-1.411001 0.19601,-1.298632 -0.83204,-2.320011 -2.13916,-2.125269 -0.68317,0.101783 -1.36048,0.774689 -1.46293,1.453425 -0.20894,1.384306 0.99291,2.454436 2.33924,2.082845 z M 119.75324,75.131727 c -1.09098,-1.001037 -2.0305,-1.820068 -2.08782,-1.820068 -0.0573,0 -0.16394,0.03175 -0.23694,0.07056 -0.30095,0.160018 -2.26462,0.543881 -3.31681,0.648376 -1.33036,0.132122 -1.55789,0.102213 -2.59357,-0.340938 -0.71372,-0.30539 -0.80728,-0.376164 -2.75048,-2.080486 -1.48345,-1.301086 -2.22714,-2.015114 -2.83241,-2.71943 -0.45142,-0.525299 -0.85805,-1.052322 -0.90361,-1.171162 -0.43712,-1.140167 -0.66189,-4.280768 -0.37699,-5.26769 0.0584,-0.202441 0.56181,-0.724132 1.11838,-1.159092 l 0.19483,-0.152259 1.50236,1.473997 c 0.8263,0.810699 2.10427,2.059687 2.83994,2.77553 l 1.33757,1.301533 0.75732,0.233863 0.75732,0.233863 0.23631,-0.145831 c 0.12997,-0.08021 0.9979,-0.90831 1.92873,-1.840228 1.81359,-1.815715 1.86239,-1.88508 1.85961,-2.643604 -0.003,-0.719804 -0.0668,-0.798626 -3.50986,-4.314665 -1.15822,-1.18276 -2.11814,-2.184718 -2.13316,-2.226573 -0.0352,-0.09804 0.19216,-0.340151 0.92587,-0.986107 l 0.59284,-0.521932 h 0.82318 c 1.06565,0 1.89582,0.103592 3.05857,0.381661 1.5146,0.362215 1.54273,0.379773 2.826,1.763793 1.14171,1.231344 3.73374,4.37279 3.83748,4.65087 0.0311,0.08353 0.13404,0.766959 0.22864,1.518731 0.19912,1.582527 0.18162,1.964853 -0.15186,3.318307 -0.12659,0.513778 -0.24968,1.104999 -0.27352,1.313824 l -0.0433,0.379683 0.73433,0.645461 c 0.64944,0.570841 2.15031,2.092834 2.86988,2.910278 l 0.25569,0.290467 -2.66859,2.652076 c -1.46773,1.458641 -2.70317,2.650991 -2.74544,2.649665 -0.0423,-0.0013 -0.96946,-0.82144 -2.06044,-1.822477 z"
       id="path1737"
       inkscape:connector-curvature="0" />
    <path
       style="fill:#7f7f7f;fill-opacity:0.49803922;stroke-width:0.07618435"
       d="m 105.54119,96.35841 c -0.48791,-0.484294 -0.88498,-0.938702 -0.88238,-1.009793 0.003,-0.07109 0.16598,-0.376756 0.36306,-0.679256 0.19708,-0.3025 0.59636,-0.917586 0.8873,-1.366858 2.7471,-4.242141 3.60681,-5.549489 3.7455,-5.695727 0.1306,-0.137698 0.44077,-0.227353 1.60042,-0.462602 l 1.43842,-0.291803 8.57208,-8.51641 8.57207,-8.516409 -1.05041,-1.045599 c -0.57774,-0.575079 -1.05042,-1.100484 -1.05042,-1.167566 0,-0.06708 2.77738,-2.890664 6.17196,-6.274627 5.72213,-5.704245 6.21095,-6.172151 6.70699,-6.420106 1.81341,-0.906476 3.79986,-0.495589 5.42811,1.122775 1.17677,1.169623 1.60372,2.120228 1.60372,3.570678 0,0.925995 -0.12134,1.411461 -0.50395,2.016264 -0.24981,0.39488 -12.6249,12.601527 -12.77542,12.601527 -0.0542,0 -0.54474,-0.444229 -1.09003,-0.987176 -0.60568,-0.603089 -1.05043,-0.987175 -1.1431,-0.987175 -0.1636,0 -16.85203,16.5841 -17.04585,16.939292 -0.0586,0.107402 -0.21399,0.75666 -0.34529,1.442795 -0.13131,0.686134 -0.26372,1.31066 -0.29426,1.387836 -0.0305,0.07718 -0.60469,0.49375 -1.2759,0.925723 -2.70262,1.739332 -6.63464,4.250877 -6.68835,4.272137 -0.0314,0.01244 -0.45635,-0.373624 -0.94427,-0.85792 z M 140.3667,65.432575 c 4.354,-4.325728 4.87327,-4.866745 4.87327,-5.077396 0,-0.316413 -0.32147,-0.636167 -0.63959,-0.636167 -0.21098,0 -0.75986,0.519472 -5.07483,4.802988 -2.66104,2.641644 -4.85874,4.882507 -4.88377,4.979697 -0.0866,0.33626 0.29992,0.761477 0.69945,0.769458 0.1015,0.002 1.77554,-1.609752 5.02547,-4.83858 z m -2.82654,-2.886316 c 2.79742,-2.780518 4.87179,-4.899944 4.87179,-4.977617 0,-0.197667 -0.20423,-0.557539 -0.34737,-0.612113 -0.068,-0.02594 -0.23187,-0.04717 -0.36404,-0.04717 -0.21596,0 -0.7305,0.486822 -5.07654,4.803094 -4.31936,4.289764 -4.83623,4.828273 -4.83623,5.038694 0,0.331145 0.30164,0.637459 0.62773,0.637459 0.23263,0 0.64286,-0.38763 5.12466,-4.842347 z m 1.58517,31.988218 c -1.62012,-0.439384 -2.87365,-1.608455 -3.443,-3.211012 l -0.19884,-0.559683 -5.32556,-5.341662 c -2.92905,-2.937915 -5.32556,-5.37751 -5.32556,-5.421324 0,-0.12819 5.5197,-5.634399 5.62386,-5.610116 0.052,0.01213 2.50817,2.37989 5.45806,5.261683 4.40805,4.30629 5.42702,5.265119 5.72036,5.382752 1.26691,0.508045 1.8975,0.925425 2.51936,1.667542 0.40652,0.485132 0.8155,1.297897 0.97934,1.946232 0.18499,0.73204 0.11689,2.069581 -0.14023,2.754017 -0.5333,1.419648 -1.59008,2.469803 -3.02131,3.002361 -0.65724,0.244563 -2.16824,0.313151 -2.84648,0.12921 z m 2.05458,-2.710498 c 0.14211,-0.04293 0.39699,-0.202081 0.56638,-0.353659 1.00181,-0.896455 0.72132,-2.576314 -0.51578,-3.088996 -0.3875,-0.160589 -1.07127,-0.160589 -1.45877,0 -1.17587,0.487307 -1.50696,2.075627 -0.62342,2.990735 0.53336,0.552427 1.20462,0.701746 2.03159,0.45192 z M 119.79324,75.118015 c -1.06352,-0.972613 -1.97916,-1.794499 -2.03476,-1.826413 -0.0556,-0.03191 -0.21506,-0.0074 -0.35435,0.05441 -0.77836,0.345545 -3.89078,0.80716 -4.69961,0.697018 -0.19079,-0.02598 -0.713,-0.203152 -1.16046,-0.393712 -0.80597,-0.34324 -0.831,-0.361846 -2.68272,-1.994154 -1.64371,-1.448944 -2.77055,-2.573644 -3.53548,-3.528743 -0.42971,-0.536536 -0.74971,-2.260124 -0.74321,-4.003087 0.006,-1.59548 0.047,-1.77453 0.50353,-2.196497 0.55,-0.508354 0.78095,-0.689093 0.88056,-0.689093 0.0487,0 1.32966,1.22552 2.84655,2.723376 l 2.75797,2.723377 0.74862,0.245535 c 0.50686,0.166245 0.81486,0.229017 0.95376,0.194383 0.23034,-0.05744 3.25541,-2.991805 3.61705,-3.508598 0.33461,-0.478169 0.423,-0.95958 0.27134,-1.477871 -0.14525,-0.496398 -0.33772,-0.749407 -1.378,-1.811441 -3.31748,-3.386842 -4.17455,-4.282358 -4.17455,-4.361783 0,-0.05004 0.3021,-0.384695 0.67134,-0.743667 0.7875,-0.765603 0.85276,-0.787538 2.10881,-0.708747 1.35477,0.08499 3.09942,0.439329 3.90397,0.792911 0.44276,0.194578 2.1595,2.038774 3.86134,4.148016 0.74136,0.918832 1.37022,1.707336 1.39746,1.752229 0.0926,0.15259 0.36249,2.497288 0.3621,3.14568 -2.3e-4,0.386915 -0.0629,0.904007 -0.15635,1.290922 -0.0858,0.355003 -0.22438,0.958716 -0.30799,1.341583 l -0.15203,0.696124 1.91362,1.909716 c 1.10873,1.106471 1.91361,1.9684 1.91361,2.049237 0,0.140138 -5.1181,5.182894 -5.30391,5.225831 -0.052,0.01202 -0.96469,-0.773928 -2.02821,-1.746541 z"
       id="path1735"
       inkscape:connector-curvature="0" />
    <path
       style="fill:#7f7f7f;fill-opacity:0.49803922;stroke-width:0.07618435"
       d="m 105.50183,96.28944 c -0.64413,-0.641769 -0.85655,-0.899805 -0.81956,-0.995561 0.0275,-0.07109 0.92054,-1.466714 1.98464,-3.101383 1.06409,-1.634668 2.17292,-3.342825 2.46407,-3.795903 0.29114,-0.453078 0.58097,-0.851019 0.64405,-0.884314 0.0631,-0.03329 0.66502,-0.168387 1.33763,-0.300205 0.67261,-0.131818 1.32611,-0.272313 1.45223,-0.312211 0.15406,-0.04874 3.01943,-2.854098 8.73246,-8.549574 4.67674,-4.662367 8.50317,-8.501386 8.50317,-8.531151 0,-0.02977 -0.46433,-0.518646 -1.03185,-1.086401 -0.56751,-0.567755 -1.03184,-1.065868 -1.03184,-1.106917 0,-0.08209 4.90844,-5.0442 9.39874,-9.501516 2.52505,-2.506495 2.93369,-2.881515 3.41082,-3.130228 1.30796,-0.681792 2.56536,-0.691185 3.96747,-0.02964 1.83419,0.865416 3.16434,2.815155 3.17064,4.647508 0.002,0.506026 -0.25498,1.490696 -0.49452,1.896778 -0.16364,0.277426 -12.61593,12.639406 -12.78971,12.696956 -0.0348,0.01151 -0.53567,-0.441224 -1.11316,-1.006071 -0.57749,-0.564848 -1.09089,-1.028129 -1.1409,-1.029512 -0.05,-0.0014 -3.93121,3.834362 -8.62491,8.52388 l -8.53398,8.526396 -0.27934,1.402342 c -0.15363,0.771288 -0.315,1.445042 -0.3586,1.497231 -0.0436,0.05219 -1.03045,0.700792 -2.19302,1.441343 -1.16257,0.74055 -2.89753,1.852255 -3.85547,2.470456 -0.95795,0.6182 -1.78398,1.124001 -1.83564,1.124001 -0.0517,0 -0.48519,-0.389837 -0.96342,-0.866304 z m 34.81356,-30.742296 c 2.63128,-2.599878 4.83367,-4.820728 4.8942,-4.935222 0.19301,-0.365082 -0.0577,-0.818587 -0.51479,-0.931244 -0.29146,-0.07184 -0.60892,0.222552 -5.66501,5.253277 -4.06114,4.040779 -4.414,4.412027 -4.414,4.644084 0,0.336002 0.35239,0.696157 0.68115,0.696157 0.20771,0 0.77738,-0.536598 5.01845,-4.727052 z m -7.62574,1.80863 c 0.11352,-0.05982 2.34748,-2.238894 4.96435,-4.84238 4.24275,-4.221043 4.75795,-4.759072 4.75795,-4.968741 0,-0.437257 -0.5391,-0.844004 -0.87276,-0.658491 -0.16487,0.09166 -9.58431,9.423083 -9.72065,9.629805 -0.15277,0.231646 -0.0716,0.521267 0.21274,0.758958 0.2611,0.218275 0.3718,0.231869 0.65837,0.08085 z m 6.58855,27.175979 c -1.64858,-0.351773 -3.13984,-1.735541 -3.61998,-3.35903 -0.11351,-0.383812 -0.35443,-0.63806 -5.415,-5.714571 -3.19233,-3.202395 -5.2962,-5.368946 -5.2962,-5.454008 0,-0.165477 5.32234,-5.553436 5.4858,-5.553436 0.0592,0 2.54215,2.373572 5.51776,5.274604 4.98922,4.864183 5.44068,5.284428 5.80202,5.400847 2.07148,0.667399 3.48471,2.558789 3.48471,4.663737 0,3.082118 -2.90482,5.39358 -5.95911,4.741857 z m 1.87294,-2.665462 c 0.70497,-0.238646 1.26081,-1.02014 1.26081,-1.772649 0,-1.001165 -0.90311,-1.898414 -1.91082,-1.898414 -0.46165,0 -0.99638,0.22654 -1.33959,0.567525 -0.74829,0.743432 -0.74768,1.91895 0.001,2.663146 0.53086,0.527409 1.25643,0.688122 1.98823,0.440392 z M 120.91642,76.104785 c -0.47269,-0.429444 -1.36903,-1.250664 -1.99187,-1.824935 -0.62284,-0.57427 -1.18439,-1.044128 -1.24789,-1.044128 -0.0635,0 -0.17568,0.03202 -0.24927,0.07115 -0.30571,0.162551 -2.26295,0.549821 -3.30191,0.653336 -1.33178,0.132689 -1.58733,0.09763 -2.6234,-0.359841 -0.70243,-0.310154 -0.83814,-0.412659 -2.68407,-2.027265 -1.42171,-1.243555 -2.17101,-1.962663 -2.78806,-2.675727 -0.46411,-0.536323 -0.88061,-1.069572 -0.92556,-1.184996 -0.17746,-0.455695 -0.44941,-2.101619 -0.49426,-2.991489 -0.026,-0.516597 -0.0137,-1.258493 0.0275,-1.648659 0.0735,-0.696726 0.0808,-0.715481 0.4087,-1.050376 0.18363,-0.187541 0.46591,-0.445969 0.6273,-0.574284 l 0.29343,-0.233301 2.22885,2.197635 c 3.52304,3.473695 3.33846,3.31441 4.11252,3.548812 0.3634,0.110046 0.74585,0.200084 0.84988,0.200084 0.10573,0 0.35369,-0.131411 0.5622,-0.297948 0.47255,-0.377434 3.14995,-3.130473 3.35392,-3.448684 0.11799,-0.18407 0.15287,-0.368599 0.15287,-0.808784 0,-0.490134 -0.0306,-0.622016 -0.21765,-0.938183 -0.11996,-0.202764 -1.38069,-1.554263 -2.80891,-3.011154 -1.4252,-1.453801 -2.59126,-2.675363 -2.59126,-2.714583 0,-0.03922 0.32377,-0.367144 0.7195,-0.728722 l 0.71949,-0.657413 0.90471,4.48e-4 c 1.03042,5.09e-4 2.03202,0.133284 3.17339,0.420671 1.33635,0.336484 1.36403,0.354837 2.66681,1.768313 1.03532,1.123281 3.35709,3.910123 3.67994,4.41705 0.16414,0.257737 0.47313,2.837211 0.41851,3.493828 -0.0226,0.271883 -0.12665,0.835712 -0.23119,1.252954 -0.10455,0.417241 -0.23371,1.009551 -0.28702,1.316243 l -0.0969,0.557624 0.6823,0.614092 c 0.70754,0.636804 1.40341,1.336286 2.53375,2.546895 l 0.66032,0.707215 -2.55524,2.543797 c -1.40539,1.399089 -2.61526,2.576949 -2.6886,2.617467 -0.10908,0.06026 -0.2898,-0.06847 -0.9928,-0.707137 z"
       id="path1733"
       inkscape:connector-curvature="0" />
    <path
       style="fill:#7f7f7f;fill-opacity:0.49803922;stroke-width:0.07618435"
       d="m 105.55551,96.271113 c -0.80348,-0.794095 -0.88609,-0.900382 -0.80984,-1.041931 0.0467,-0.0867 0.30671,-0.495037 0.5778,-0.907422 0.27109,-0.412386 1.04947,-1.609302 1.72974,-2.659813 0.68027,-1.050511 1.5108,-2.333042 1.84561,-2.850069 0.91999,-1.420671 0.70034,-1.271192 2.35249,-1.600988 0.78818,-0.157332 1.44752,-0.29922 1.46521,-0.315306 0.3189,-0.289938 17.16043,-17.046783 17.16043,-17.074139 0,-0.02141 -0.48734,-0.52398 -1.08298,-1.11681 l -1.08299,-1.077872 3.67524,-3.707082 c 2.02139,-2.038895 4.80458,-4.820028 6.18489,-6.180297 2.20064,-2.168707 2.57648,-2.507415 3.05255,-2.75098 1.33074,-0.680836 2.51321,-0.65977 4.00485,0.07135 0.61258,0.300256 0.83404,0.463767 1.41643,1.045801 1.06881,1.068151 1.56445,2.16128 1.56445,3.450381 0,0.776186 -0.16151,1.439148 -0.47872,1.964976 -0.1623,0.269047 -2.24449,2.368546 -6.45788,6.511562 -3.42009,3.362968 -6.25993,6.114487 -6.31075,6.114487 -0.0508,0 -0.53854,-0.444229 -1.08383,-0.987175 -0.60649,-0.603896 -1.05038,-0.987176 -1.14328,-0.987176 -0.0999,0 -3.02719,2.867452 -8.54684,8.372008 -4.61724,4.604604 -8.44769,8.447571 -8.51212,8.539927 -0.0644,0.09235 -0.24664,0.802136 -0.40491,1.57729 -0.15826,0.775154 -0.30136,1.422506 -0.31798,1.43856 -0.0631,0.06092 -7.76937,5.000851 -7.85646,5.0362 -0.0255,0.01035 -0.449,-0.379116 -0.94111,-0.865482 z m 34.85233,-30.807171 c 2.66016,-2.637648 4.85672,-4.873272 4.88126,-4.968054 0.10155,-0.392216 -0.30403,-0.852813 -0.75094,-0.852813 -0.12872,0 -1.45105,1.267386 -5.05083,4.840957 -2.68206,2.662526 -4.89535,4.914162 -4.91844,5.003636 -0.0994,0.385084 0.45907,0.919967 0.84945,0.813634 0.0841,-0.0229 2.32935,-2.199713 4.9895,-4.83736 z m -5.60532,-0.12105 c 1.17946,-1.166908 3.37409,-3.335961 4.87695,-4.820118 2.70035,-2.666736 2.73248,-2.702102 2.73248,-3.007693 0,-0.401948 -0.27826,-0.681659 -0.67812,-0.681659 -0.26006,0 -0.51552,0.240228 -5.14806,4.841062 -4.38072,4.350727 -4.87443,4.865234 -4.87443,5.079719 0,0.340289 0.36211,0.71034 0.6951,0.71034 0.22735,0 0.45837,-0.204566 2.39608,-2.121651 z m 4.89606,29.230079 c -1.07375,-0.146869 -1.92478,-0.578882 -2.76008,-1.401124 -0.50074,-0.492911 -0.67949,-0.73439 -0.92951,-1.255727 -0.17025,-0.355004 -0.3321,-0.754536 -0.35966,-0.887851 -0.0396,-0.191513 -1.17207,-1.365612 -5.39532,-5.593613 -2.93986,-2.943172 -5.3452,-5.381319 -5.3452,-5.418103 0,-0.120365 5.44441,-5.573722 5.54139,-5.550496 0.052,0.01244 2.50921,2.38045 5.46058,5.262243 2.95136,2.881793 5.45813,5.279577 5.57059,5.328409 0.11246,0.04883 0.40452,0.164778 0.64902,0.257657 1.07898,0.409864 2.0609,1.316841 2.56501,2.36924 0.37543,0.783773 0.4931,1.286393 0.4931,2.10629 0,0.824012 -0.11757,1.32196 -0.502,2.126224 -0.24797,0.518798 -0.43018,0.766329 -0.92848,1.261395 -0.4983,0.495065 -0.74745,0.676083 -1.26964,0.922452 -0.94559,0.446133 -1.85678,0.600622 -2.7898,0.473004 z m 1.52267,-2.687441 c 0.37096,-0.153989 0.85157,-0.612288 1.03337,-0.985388 0.1874,-0.384605 0.21216,-1.136625 0.0501,-1.52195 -0.155,-0.368548 -0.61629,-0.846039 -0.99183,-1.026654 -0.38712,-0.186184 -1.14406,-0.210783 -1.5319,-0.04978 -0.37096,0.153989 -0.85157,0.612288 -1.03337,0.985389 -0.1874,0.384604 -0.21216,1.136624 -0.0501,1.521949 0.15352,0.365043 0.61055,0.840451 0.98498,1.024587 0.38322,0.188463 1.1476,0.21422 1.53874,0.05185 z M 119.85919,75.090161 c -1.02716,-0.943019 -1.94233,-1.765358 -2.03371,-1.82742 -0.14524,-0.09864 -0.19334,-0.09909 -0.38217,-0.0036 -0.36999,0.18714 -2.23373,0.567294 -3.25613,0.664162 -1.33263,0.126262 -1.69594,0.08118 -2.62581,-0.325841 -0.7489,-0.327806 -0.83711,-0.394096 -2.6974,-2.027029 -1.90495,-1.672137 -3.48969,-3.310179 -3.71518,-3.840136 -0.17425,-0.409535 -0.42608,-1.800831 -0.48766,-2.694142 -0.0597,-0.865491 0.004,-2.417121 0.11076,-2.683038 0.0555,-0.13876 1.08586,-1.039461 1.1891,-1.039461 0.0306,0 1.30926,1.227712 2.8415,2.72825 l 2.78589,2.728249 0.78835,0.243335 c 0.77215,0.238329 0.79344,0.240618 1.03507,0.111334 0.38641,-0.206746 3.57465,-3.446801 3.7381,-3.798849 0.19008,-0.409422 0.18298,-1.043756 -0.0167,-1.491111 -0.16347,-0.366244 -0.35977,-0.578831 -3.63202,-3.933481 -0.9984,-1.023546 -1.81528,-1.90096 -1.81528,-1.94981 0,-0.143049 1.29004,-1.315118 1.50704,-1.369229 0.30164,-0.07522 2.04156,0.02817 2.7732,0.164783 0.75926,0.141768 1.95792,0.455446 2.32892,0.609453 0.37024,0.153691 2.1724,2.106227 3.78112,4.09663 0.74263,0.918832 1.37519,1.711603 1.40567,1.761713 0.10367,0.170401 0.35673,2.411791 0.35408,3.136196 -0.001,0.396769 -0.0542,0.926426 -0.11715,1.177017 -0.26924,1.071225 -0.48198,2.19406 -0.43141,2.277011 0.03,0.04923 0.36411,0.364592 0.74245,0.700811 0.87848,0.780669 3.0191,3.01235 3.0191,3.14753 0,0.111167 -5.14023,5.151229 -5.25361,5.151229 -0.0377,0 -0.90896,-0.771561 -1.93613,-1.71458 z"
       id="path1731"
       inkscape:connector-curvature="0" />
    <path
       style="fill:#7f7f7f;fill-opacity:0.49803922;stroke-width:0.07618435"
       d="m 105.53175,96.242661 -0.83945,-0.837147 0.18504,-0.320886 c 0.10178,-0.176488 0.56782,-0.901801 1.03566,-1.611808 0.46784,-0.710007 1.49653,-2.290711 2.28599,-3.512674 0.78945,-1.221963 1.48049,-2.266577 1.53563,-2.321363 0.0878,-0.08718 1.02543,-0.30463 2.52454,-0.585439 l 0.45859,-0.0859 8.5796,-8.51702 c 4.71878,-4.68436 8.5796,-8.56804 8.5796,-8.630401 0,-0.06236 -0.47043,-0.581649 -1.04539,-1.153975 l -1.04539,-1.040592 1.91881,-1.959886 c 1.05535,-1.077936 3.83882,-3.861489 6.18551,-6.185673 3.71031,-3.674745 4.32891,-4.256603 4.74387,-4.462102 0.89174,-0.441623 1.8446,-0.571609 2.78656,-0.380135 0.55144,0.112091 1.69737,0.674001 2.163,1.060627 1.23889,1.028705 2.01942,2.53784 2.02414,3.91366 0.002,0.486452 -0.25053,1.480013 -0.46786,1.843145 -0.22694,0.379198 -0.27033,0.422883 -6.89234,6.940046 l -5.87108,5.77813 -1.04709,-1.038295 c -0.57589,-0.571063 -1.10356,-1.038296 -1.1726,-1.038296 -0.11589,0 -16.9198,16.703366 -17.15332,17.050696 -0.0572,0.08514 -0.22672,0.768573 -0.3766,1.518731 -0.14988,0.750158 -0.31406,1.403237 -0.36485,1.451286 -0.0508,0.04805 -1.29616,0.854289 -2.76749,1.791643 -1.47134,0.937354 -3.18407,2.034242 -3.80608,2.437529 -0.62202,0.403286 -1.17292,0.733248 -1.22423,0.733248 -0.0513,0 -0.47106,-0.376716 -0.93277,-0.837146 z m 34.84199,-30.657549 c 2.73897,-2.715968 4.85101,-4.869321 4.91148,-5.007569 0.11876,-0.271511 0.0834,-0.433282 -0.15218,-0.695731 -0.24095,-0.268448 -0.47045,-0.331546 -0.7566,-0.208012 -0.13997,0.06043 -2.29802,2.149521 -5.04092,4.879839 -4.42251,4.402233 -4.79616,4.793882 -4.79616,5.02715 0,0.353503 0.41856,0.769343 0.77437,0.769343 0.23479,0 0.629,-0.371228 5.06001,-4.76502 z m -7.68409,1.846596 c 0.11352,-0.05982 2.36467,-2.255976 5.00257,-4.880337 5.28066,-5.253581 5.03804,-4.965087 4.60531,-5.476025 -0.2222,-0.262351 -0.48439,-0.347751 -0.75446,-0.245739 -0.20843,0.07873 -9.58029,9.327485 -9.79165,9.663026 -0.14893,0.236442 -0.10543,0.463224 0.14068,0.73342 0.14959,0.164232 0.37797,0.297637 0.53004,0.309613 0.0336,0.0026 0.154,-0.04413 0.26751,-0.103958 z m 6.46336,26.996347 c -1.64937,-0.443559 -2.85732,-1.589986 -3.42181,-3.247512 -0.15755,-0.462616 -0.24093,-0.551017 -5.45298,-5.781248 -2.91114,-2.921297 -5.29298,-5.358356 -5.29298,-5.415687 0,-0.166274 5.39572,-5.485525 5.51467,-5.436518 0.0567,0.02337 2.51529,2.399111 5.46346,5.279418 5.34437,5.221336 5.36178,5.237403 5.85061,5.399019 1.48512,0.491006 2.67116,1.68374 3.14182,3.159542 0.13423,0.420895 0.16952,0.713357 0.16952,1.404827 0,0.69147 -0.0353,0.983931 -0.16952,1.404826 -0.47233,1.481047 -1.67891,2.690319 -3.15531,3.162359 -0.72396,0.231466 -1.93043,0.263809 -2.64748,0.07097 z m 1.9551,-2.479679 c 0.75077,-0.221508 1.38027,-1.067395 1.38027,-1.854734 0,-1.010361 -0.97029,-1.974351 -1.98725,-1.974351 -1.01697,0 -1.98726,0.96399 -1.98726,1.974351 0,0.766996 0.62964,1.631138 1.34828,1.850425 0.48665,0.148495 0.75412,0.14942 1.24596,0.0043 z M 119.79166,74.985803 c -1.09484,-1.00431 -2.04459,-1.826017 -2.11054,-1.826017 -0.066,0 -0.18435,0.03426 -0.2631,0.07613 -0.5648,0.30031 -4.0034,0.824208 -4.70027,0.716125 -0.16815,-0.02608 -0.66687,-0.198713 -1.10827,-0.383627 -0.79847,-0.334498 -0.81254,-0.344983 -2.76736,-2.062006 -1.41255,-1.240715 -2.19171,-1.98936 -2.77203,-2.663478 -0.44396,-0.515723 -0.83678,-0.994124 -0.87293,-1.063112 -0.10626,-0.202758 -0.38341,-1.587818 -0.46575,-2.327594 -0.0918,-0.825045 -0.0937,-1.774471 -0.005,-2.543875 l 0.0657,-0.569524 0.5129,-0.474604 c 0.2821,-0.261032 0.56938,-0.474603 0.63841,-0.474603 0.069,0 1.20873,1.07864 2.53268,2.396979 1.32395,1.318337 2.57339,2.536962 2.77653,2.708052 0.26137,0.220131 0.56288,0.374076 1.03134,0.526579 0.86767,0.282464 0.994,0.275593 1.43958,-0.0783 0.67656,-0.537356 3.27628,-3.225305 3.42477,-3.540989 0.18357,-0.390294 0.23227,-0.904 0.12368,-1.304645 -0.15212,-0.561276 -0.30003,-0.725601 -4.3449,-4.826992 -0.68979,-0.699433 -1.24267,-1.302447 -1.22861,-1.34003 0.014,-0.03758 0.33105,-0.349549 0.70442,-0.693258 l 0.67887,-0.624925 1.23195,0.03931 c 0.83269,0.02657 1.47968,0.09176 1.99629,0.201132 0.84501,0.178901 1.89679,0.488714 2.15249,0.634034 0.31093,0.176718 2.3456,2.446792 3.69388,4.121254 l 1.34735,1.673315 0.1775,1.433548 c 0.20045,1.61891 0.18704,2.059832 -0.0971,3.193908 -0.10454,0.417242 -0.23343,1.00803 -0.28641,1.312866 l -0.0963,0.554244 1.14029,1.086745 c 0.62716,0.59771 1.49853,1.470104 1.93636,1.938654 l 0.79608,0.85191 -2.36295,2.353036 c -1.29962,1.294171 -2.4903,2.454903 -2.64596,2.579407 l -0.28301,0.22637 z"
       id="path1729"
       inkscape:connector-curvature="0" />
    <path
       style="fill:#7f7f7f;fill-opacity:0.49803922;stroke-width:0.07618435"
       d="m 105.57251,96.201156 -0.80132,-0.802075 0.16861,-0.291061 c 0.12298,-0.212295 4.12538,-6.388424 4.79707,-7.40238 0.0505,-0.07625 0.57828,-0.215287 1.55628,-0.409987 l 1.47984,-0.294605 8.5902,-8.534157 c 4.7246,-4.693786 8.59019,-8.585028 8.59019,-8.647205 0,-0.06218 -0.47249,-0.583371 -1.04998,-1.158209 l -1.04998,-1.04516 1.18339,-1.195952 c 5.40917,-5.466626 11.01999,-10.993034 11.38788,-11.216573 0.66132,-0.40182 1.31203,-0.588649 2.06369,-0.592511 0.76627,-0.0039 1.31489,0.137963 2.13511,0.55225 2.44307,1.233982 3.60295,4.16987 2.46862,6.248553 -0.14075,0.257932 -2.02456,2.16153 -6.45696,6.52478 l -6.25824,6.160597 -1.04715,-1.038362 c -0.57593,-0.571099 -1.09977,-1.038362 -1.16407,-1.038362 -0.0993,0 -15.4006,15.154622 -16.81141,16.650204 l -0.48456,0.513681 -0.29003,1.422701 c -0.15951,0.782486 -0.29116,1.427875 -0.29254,1.434196 -10e-4,0.0063 -0.97417,0.632781 -2.16175,1.392132 -1.18758,0.75935 -2.92544,1.873293 -3.86192,2.475428 -0.93648,0.602135 -1.74476,1.094647 -1.79618,1.094472 -0.0514,-1.52e-4 -0.45407,-0.361254 -0.89479,-0.802395 z m 30.0216,-25.883859 c 0.11351,-0.05982 2.36467,-2.255975 5.00256,-4.880336 4.67371,-4.649743 4.79616,-4.778994 4.79616,-5.06251 0,-0.413618 -0.39663,-0.807312 -0.81334,-0.807312 -0.28652,0 -0.41219,0.117817 -5.20509,4.879585 -5.29592,5.26153 -5.08508,5.018472 -4.78744,5.519063 0.14023,0.235843 0.45774,0.455244 0.6632,0.458261 0.0756,0.0011 0.23043,-0.04693 0.34395,-0.106751 z m 2.01764,-7.614356 c 3.38793,-3.364399 4.88542,-4.901087 4.9175,-5.046223 0.0605,-0.273464 -0.14597,-0.701358 -0.39209,-0.812774 -0.24438,-0.110624 -0.53088,-0.110162 -0.74297,0.0012 -0.0918,0.04821 -2.32535,2.226641 -4.9634,4.840957 -4.42027,4.380498 -4.79643,4.773046 -4.79617,5.005085 6.1e-4,0.504746 0.32224,0.844947 0.80143,0.847605 0.30126,0.0017 0.35352,-0.04715 5.1757,-4.835849 z m 1.60339,31.68425 c -0.22386,-0.05382 -0.69303,-0.238667 -1.04262,-0.410768 -1.10751,-0.545232 -1.93802,-1.525238 -2.36837,-2.794718 -0.15818,-0.466628 -0.22704,-0.539664 -5.5015,-5.835007 l -5.34132,-5.362463 2.74443,-2.727818 2.74444,-2.727817 5.42776,5.299967 c 5.14664,5.025457 5.44949,5.306978 5.84712,5.435349 1.29767,0.418932 2.30424,1.273549 2.86294,2.43074 0.38872,0.805106 0.49908,1.268442 0.49908,2.09524 0,0.826797 -0.11036,1.290133 -0.49908,2.09524 -0.46537,0.963875 -1.16065,1.654642 -2.13082,2.116989 -0.38221,0.182146 -0.8772,0.368224 -1.09996,0.413507 -0.53426,0.108599 -1.63278,0.09401 -2.1421,-0.02844 z m 2.18183,-2.488519 c 0.37963,-0.175407 0.80818,-0.622271 0.98298,-1.024988 0.18662,-0.429969 0.16725,-1.193751 -0.0414,-1.632102 -0.19639,-0.41259 -0.63556,-0.836022 -1.05228,-1.014558 -0.37622,-0.161183 -1.19407,-0.161183 -1.57028,0 -1.34513,0.576298 -1.65733,2.380928 -0.5793,3.348544 0.6301,0.565561 1.47435,0.686246 2.26028,0.323104 z M 119.79261,74.910737 c -1.09536,-1.004788 -2.05359,-1.826888 -2.1294,-1.826888 -0.0758,0 -0.17079,0.03275 -0.21108,0.07278 -0.14358,0.142642 -2.38221,0.595677 -3.38738,0.685505 -1.2576,0.112388 -1.5176,0.07584 -2.48832,-0.34977 -0.74291,-0.325728 -0.83585,-0.395696 -2.6895,-2.024575 -1.91214,-1.680276 -3.43271,-3.262202 -3.66376,-3.81159 -0.33788,-0.8034 -0.58334,-3.293434 -0.45685,-4.63447 0.0547,-0.579608 0.0654,-0.60413 0.43431,-0.991661 0.20805,-0.218546 0.4818,-0.439966 0.60835,-0.492044 l 0.23009,-0.09469 2.72788,2.699023 2.72788,2.699024 0.76129,0.23564 c 0.41871,0.129603 0.82525,0.23564 0.90342,0.23564 0.0782,0 0.28591,-0.09929 0.46164,-0.220648 0.52853,-0.365003 3.37696,-3.275446 3.5743,-3.652117 0.2515,-0.480034 0.25137,-1.190742 -3.1e-4,-1.70077 -0.12968,-0.262817 -0.82435,-1.026393 -2.36868,-2.603635 -1.20185,-1.227465 -2.38559,-2.449739 -2.63054,-2.716163 l -0.44537,-0.484408 0.6257,-0.594881 c 0.38004,-0.361314 0.71996,-0.617827 0.86575,-0.653325 0.55436,-0.134971 2.43944,0.06406 3.79569,0.400761 1.3532,0.335939 1.37486,0.349846 2.60163,1.670002 0.99424,1.069917 3.8171,4.482682 3.81731,4.615018 5e-5,0.03029 0.0688,0.584739 0.15279,1.232099 0.20816,1.604565 0.19712,2.107284 -0.0714,3.25549 -0.12338,0.527444 -0.26623,1.176612 -0.31746,1.442595 l -0.0931,0.483604 1.06268,1.005597 c 0.58447,0.553078 1.4553,1.422982 1.93518,1.93312 l 0.87251,0.927523 -1.5604,1.556052 c -0.85822,0.855828 -2.03128,1.999975 -2.6068,2.542548 l -1.04639,0.986495 z"
       id="path1727"
       inkscape:connector-curvature="0" />
  </g>
  <g
     id="g1367"
     transform="matrix(1.7967082,0,0,1.422092,-200.86103,-40.696342)"
     inkscape:label="thermometer"
     style="display:inline">
    <path
       inkscape:label="casing"
       inkscape:connector-curvature="0"
       id="path1307"
       d="m 139.95992,95.588822 c -2.54869,-0.349702 -4.74053,-1.915811 -5.89992,-4.215593 -0.69452,-1.377667 -0.93953,-3.253612 -0.62893,-4.815459 0.25159,-1.265107 0.96105,-2.653892 1.83236,-3.586873 0.38247,-0.409548 0.8541,-0.852718 1.04805,-0.984822 l 0.35266,-0.240187 6.9e-4,-15.84179 c 4e-4,-10.286287 0.036,-16.029272 0.10132,-16.376405 0.14997,-0.796685 0.56426,-1.559564 1.18327,-2.178908 2.4534,-2.45475 6.61257,-1.003158 7.05962,2.46389 0.0475,0.368043 0.0881,7.703578 0.0902,16.301191 l 0.004,15.632022 0.34684,0.236199 c 0.56173,0.38255 1.58801,1.532401 2.01911,2.262222 0.22014,0.372684 0.52549,1.034912 0.67855,1.471616 0.25948,0.740319 0.27811,0.89803 0.27548,2.332397 -0.003,1.42078 -0.0239,1.599092 -0.2783,2.332397 -0.69331,1.998341 -2.05569,3.561337 -3.88666,4.458989 -1.38031,0.676702 -2.89811,0.941229 -4.29828,0.749114 z m 2.41646,-1.636561 c 2.23463,-0.568033 4.0001,-2.393613 4.47471,-4.627066 0.52549,-2.472855 -0.56294,-5.057461 -2.69884,-6.408735 -0.23517,-0.14878 -0.47503,-0.374633 -0.53301,-0.501897 -0.073,-0.160255 -0.10573,-5.226108 -0.1064,-16.479056 l -9.7e-4,-16.247671 -0.23285,-0.500037 c -0.27723,-0.595352 -0.99087,-1.255593 -1.53256,-1.417887 -1.34673,-0.40349 -2.75399,0.211919 -3.32895,1.455779 l -0.21363,0.462145 -0.0268,16.368653 c -0.02,12.185236 -0.0561,16.403912 -0.14131,16.506615 -0.063,0.07588 -0.34804,0.292978 -0.63348,0.482441 -1.01576,0.674223 -1.8439,1.788778 -2.29185,3.084472 -0.36561,1.05754 -0.39149,2.611457 -0.0609,3.655197 0.63663,2.009841 2.39095,3.683532 4.36088,4.160461 0.78003,0.188849 2.23622,0.192082 2.96596,0.0066 z M 148.269,79.327028 c -0.16599,-0.134412 -0.22935,-0.288741 -0.22935,-0.558668 0,-0.269927 0.0634,-0.424256 0.22935,-0.558668 0.2063,-0.167051 0.421,-0.185714 2.13644,-0.185714 1.86514,0 1.91185,0.0051 2.1229,0.229711 0.28667,0.305137 0.28051,0.76666 -0.0139,1.043251 -0.21927,0.205998 -0.31571,0.215802 -2.1229,0.215802 -1.70185,0 -1.91636,-0.01877 -2.12253,-0.185714 z m -0.0832,-5.5346 c -0.27288,-0.346908 -0.25981,-0.685913 0.0379,-0.983635 l 0.24362,-0.243617 h 4.37606 4.37606 l 0.24362,0.243617 c 0.3126,0.312603 0.31842,0.743267 0.0139,1.029345 -0.22876,0.214912 -0.24798,0.215802 -4.65759,0.215802 h -4.42788 z m 0,-5.458801 c -0.2564,-0.325958 -0.26177,-0.639694 -0.0162,-0.943317 0.1857,-0.229554 0.22858,-0.234929 2.11326,-0.264821 1.83681,-0.02913 1.93587,-0.02096 2.19249,0.180892 0.33492,0.263448 0.36895,0.79156 0.0703,1.090256 -0.18522,0.18522 -0.33084,0.198502 -2.17632,0.198502 h -1.97782 z m 0.29355,-5.225 c -0.13482,-0.06822 -0.31026,-0.240084 -0.38988,-0.381921 -0.18489,-0.329423 -0.0147,-0.801453 0.34863,-0.967007 0.36828,-0.167799 8.53587,-0.153517 8.86993,0.01551 0.51352,0.259821 0.5166,1.045212 0.005,1.309697 -0.24706,0.127764 -0.92236,0.150459 -4.44004,0.149219 -3.11904,-0.0011 -4.20949,-0.03225 -4.39378,-0.125499 z m -0.0661,-5.447923 c -0.21132,-0.102323 -0.43314,-0.470453 -0.43314,-0.718835 0,-0.07195 0.0926,-0.248502 0.20571,-0.392334 l 0.2057,-0.261512 h 1.97782 c 1.84548,0 1.99109,0.01328 2.17631,0.198502 0.29554,0.295535 0.26467,0.826803 -0.063,1.084557 -0.24352,0.191552 -0.38521,0.205242 -2.05945,0.198988 -1.02053,-0.0038 -1.88961,-0.0511 -2.00994,-0.109366 z m -0.13286,-5.538696 c -0.30919,-0.309183 -0.35708,-0.673107 -0.12883,-0.978861 l 0.1973,-0.2643 4.47243,-0.02582 4.47242,-0.02582 0.2065,0.262518 c 0.27363,0.347869 0.26086,0.68666 -0.0371,0.984642 l -0.24362,0.243616 h -4.37155 c -4.22045,0 -4.37833,-0.0068 -4.56753,-0.195978 z"
       style="fill:#7f7f7f;fill-opacity:1;stroke:#7f7f7f;stroke-width:0.09925094;stroke-opacity:1" />
    <ellipse
       inkscape:label="bulb"
       ry="3.4117851"
       rx="3.5316355"
       cx="140.83557"
       cy="88.151482"
       id="path1354"
       style="fill:#7f7f7f;fill-opacity:1;stroke:#7f7f7f;stroke-width:1.47898996;stroke-miterlimit:4;stroke-dasharray:none;stroke-opacity:0.99523806" />
    <rect
       inkscape:label="stem"
       y="58.867226"
       x="140.58427"
       height="24.81065"
       width="0.35955057"
       id="rect1362"
       style="fill:#7f7f7f;fill-opacity:1;stroke:#7f7f7f;stroke-width:1.93787956;stroke-linecap:round;stroke-linejoin:round;stroke-miterlimit:4;stroke-dasharray:none;stroke-opacity:0.99523806" />
  </g>
  <defs
     id="defs6" />
  <g
     inkscape:groupmode="layer"
     id="layer1"
     inkscape:label="icons"
     style="display:inline" />
</svg>
