<?xml version="1.0" encoding="UTF-8" standalone="no"?>
<svg
   xmlns:dc="http://purl.org/dc/elements/1.1/"
   xmlns:cc="http://creativecommons.org/ns#"
   xmlns:rdf="http://www.w3.org/1999/02/22-rdf-syntax-ns#"
   xmlns:svg="http://www.w3.org/2000/svg"
   xmlns="http://www.w3.org/2000/svg"
   xmlns:sodipodi="http://sodipodi.sourceforge.net/DTD/sodipodi-0.dtd"
   xmlns:inkscape="http://www.inkscape.org/namespaces/inkscape"
   width="185.18349"
   height="176.79234"
   viewBox="0 0 185.18348 176.79234"
   version="1.1"
   id="svg13"
   sodipodi:docname="drawing-events-devices.svg"
   inkscape:version="0.92.2 5c3e80d, 2017-08-06">
  <metadata
     id="metadata17">
    <rdf:RDF>
      <cc:Work
         rdf:about="">
        <dc:format>image/svg+xml</dc:format>
        <dc:type
           rdf:resource="http://purl.org/dc/dcmitype/StillImage" />
        <dc:title>icon-slack</dc:title>
      </cc:Work>
    </rdf:RDF>
  </metadata>
  <sodipodi:namedview
     pagecolor="#ffffff"
     bordercolor="#666666"
     borderopacity="1"
     objecttolerance="10"
     gridtolerance="10"
     guidetolerance="10"
     inkscape:pageopacity="0"
     inkscape:pageshadow="2"
     inkscape:window-width="1509"
     inkscape:window-height="925"
     id="namedview15"
     showgrid="false"
     inkscape:pagecheckerboard="true"
     fit-margin-top="0"
     fit-margin-left="0"
     fit-margin-right="0"
     fit-margin-bottom="0"
     inkscape:zoom="4.093823"
     inkscape:cx="108.23977"
     inkscape:cy="80.831347"
     inkscape:window-x="86"
     inkscape:window-y="19"
     inkscape:window-maximized="0"
     inkscape:current-layer="svg13"
     units="px" />
  <!-- Generator: Sketch 41.2 (35397) - http://www.bohemiancoding.com/sketch -->
  <title
     id="title2">icon-slack</title>
  <desc
     id="desc4">Created with Sketch.</desc>
  <ellipse
     style="display:inline;fill:#ffffff;fill-opacity:1;stroke:#000000;stroke-width:4;stroke-miterlimit:4;stroke-dasharray:none;stroke-opacity:0.49803922"
     id="path1170"
     cx="90.38575"
     cy="86.190178"
     inkscape:label="background circle"
     rx="89.155853"
     ry="84.960281"
     inkscape:export-xdpi="96"
     inkscape:export-ydpi="96" />
  <defs
     id="defs6" />
  <g
     inkscape:groupmode="layer"
     id="layer1"
     inkscape:label="icons"
     style="display:inline">
    <g
       id="g239"
       transform="matrix(0.64078506,0,0,0.64078506,20.570808,78.579894)"
       inkscape:label="mobile"
       style="fill:#7f7f7e;fill-opacity:1;stroke:#7f7f7f;stroke-opacity:1">
      <g
         id="g176"
         style="fill:#7f7f7e;fill-opacity:1;stroke:#7f7f7f;stroke-opacity:1">
        <g
           id="g174"
           style="fill:#7f7f7e;fill-opacity:1;stroke:#7f7f7f;stroke-opacity:1">
          <path
             id="path160"
             d="M 69.351,0 H 26.086 c -4.212,0 -7.635,3.423 -7.635,7.635 v 80.168 c 0,4.213 3.423,7.635 7.635,7.635 h 43.265 c 4.213,0 7.636,-3.422 7.636,-7.635 V 7.635 C 76.987,3.423 73.564,0 69.351,0 Z M 40.72,6.973 c 0,-1.044 0.84,-1.884 1.884,-1.884 h 10.23 c 1.043,0 1.885,0.84 1.885,1.884 v 0.051 c 0,1.043 -0.842,1.883 -1.885,1.883 h -10.23 c -1.044,0 -1.884,-0.84 -1.884,-1.883 z m 6.999,85.601 c -2.278,0 -4.136,-1.856 -4.136,-4.135 0,-2.277 1.858,-4.136 4.136,-4.136 2.277,0 4.134,1.858 4.134,4.136 0,2.279 -1.857,4.135 -4.134,4.135 z M 70.624,80.168 c 0,0.699 -0.573,1.271 -1.272,1.271 H 26.086 c -0.7,0 -1.272,-0.572 -1.272,-1.271 V 15.27 c 0,-0.699 0.573,-1.272 1.272,-1.272 h 43.265 c 0.699,0 1.272,0.573 1.272,1.272 v 64.898 z"
             inkscape:connector-curvature="0"
             style="fill:#7f7f7e;fill-opacity:1;stroke:#7f7f7f;stroke-opacity:1" />
          <path
             id="path162"
             d="m 33.085,48.354 h 6.363 c 0.35,0 0.636,-0.284 0.636,-0.636 v -5.727 c 0,-0.702 -0.57,-1.272 -1.273,-1.272 h -5.09 c -0.702,0 -1.272,0.57 -1.272,1.272 v 5.727 c -10e-4,0.352 0.285,0.636 0.636,0.636 z"
             inkscape:connector-curvature="0"
             style="fill:#7f7f7e;fill-opacity:1;stroke:#7f7f7f;stroke-opacity:1" />
          <path
             id="path164"
             d="m 55.99,48.354 h 6.363 c 0.35,0 0.636,-0.284 0.636,-0.636 V 26.722 c 0,-0.702 -0.569,-1.272 -1.272,-1.272 h -5.09 c -0.701,0 -1.271,0.571 -1.271,1.272 v 20.997 c -0.003,0.351 0.282,0.635 0.634,0.635 z"
             inkscape:connector-curvature="0"
             style="fill:#7f7f7e;fill-opacity:1;stroke:#7f7f7f;stroke-opacity:1" />
          <path
             id="path166"
             d="M 44.537,48.354 H 50.9 c 0.35,0 0.636,-0.284 0.636,-0.636 V 33.085 c 0,-0.702 -0.569,-1.273 -1.272,-1.273 h -5.09 c -0.702,0 -1.272,0.571 -1.272,1.273 v 14.634 c -10e-4,0.351 0.285,0.635 0.635,0.635 z"
             inkscape:connector-curvature="0"
             style="fill:#7f7f7e;fill-opacity:1;stroke:#7f7f7f;stroke-opacity:1" />
          <path
             id="path168"
             d="m 64.274,72.533 h -33.11 c -0.696,0 -1.26,0.563 -1.26,1.26 v 0.025 c 0,0.695 0.564,1.26 1.26,1.26 h 33.11 c 0.696,0 1.26,-0.564 1.26,-1.26 v -0.025 c 0,-0.696 -0.564,-1.26 -1.26,-1.26 z"
             inkscape:connector-curvature="0"
             style="fill:#7f7f7e;fill-opacity:1;stroke:#7f7f7f;stroke-opacity:1" />
          <path
             id="path170"
             d="m 64.274,57.263 h -33.11 c -0.696,0 -1.26,0.563 -1.26,1.261 v 0.023 c 0,0.695 0.564,1.26 1.26,1.26 h 33.11 c 0.696,0 1.26,-0.564 1.26,-1.26 v -0.023 c 0,-0.698 -0.564,-1.261 -1.26,-1.261 z"
             inkscape:connector-curvature="0"
             style="fill:#7f7f7e;fill-opacity:1;stroke:#7f7f7f;stroke-opacity:1" />
          <path
             id="path172"
             d="m 64.274,64.898 h -33.11 c -0.696,0 -1.26,0.563 -1.26,1.26 v 0.024 c 0,0.696 0.564,1.261 1.26,1.261 h 33.11 c 0.696,0 1.26,-0.564 1.26,-1.261 v -0.024 c 0,-0.696 -0.564,-1.26 -1.26,-1.26 z"
             inkscape:connector-curvature="0"
             style="fill:#7f7f7e;fill-opacity:1;stroke:#7f7f7f;stroke-opacity:1" />
        </g>
      </g>
      <g
         id="g178"
         style="fill:#7f7f7e;fill-opacity:1;stroke:#7f7f7f;stroke-opacity:1" />
      <g
         id="g180"
         style="fill:#7f7f7e;fill-opacity:1;stroke:#7f7f7f;stroke-opacity:1" />
      <g
         id="g182"
         style="fill:#7f7f7e;fill-opacity:1;stroke:#7f7f7f;stroke-opacity:1" />
      <g
         id="g184"
         style="fill:#7f7f7e;fill-opacity:1;stroke:#7f7f7f;stroke-opacity:1" />
      <g
         id="g186"
         style="fill:#7f7f7e;fill-opacity:1;stroke:#7f7f7f;stroke-opacity:1" />
      <g
         id="g188"
         style="fill:#7f7f7e;fill-opacity:1;stroke:#7f7f7f;stroke-opacity:1" />
      <g
         id="g190"
         style="fill:#7f7f7e;fill-opacity:1;stroke:#7f7f7f;stroke-opacity:1" />
      <g
         id="g192"
         style="fill:#7f7f7e;fill-opacity:1;stroke:#7f7f7f;stroke-opacity:1" />
      <g
         id="g194"
         style="fill:#7f7f7e;fill-opacity:1;stroke:#7f7f7f;stroke-opacity:1" />
      <g
         id="g196"
         style="fill:#7f7f7e;fill-opacity:1;stroke:#7f7f7f;stroke-opacity:1" />
      <g
         id="g198"
         style="fill:#7f7f7e;fill-opacity:1;stroke:#7f7f7f;stroke-opacity:1" />
      <g
         id="g200"
         style="fill:#7f7f7e;fill-opacity:1;stroke:#7f7f7f;stroke-opacity:1" />
      <g
         id="g202"
         style="fill:#7f7f7e;fill-opacity:1;stroke:#7f7f7f;stroke-opacity:1" />
      <g
         id="g204"
         style="fill:#7f7f7e;fill-opacity:1;stroke:#7f7f7f;stroke-opacity:1" />
      <g
         id="g206"
         style="fill:#7f7f7e;fill-opacity:1;stroke:#7f7f7f;stroke-opacity:1" />
    </g>
    <g
       id="g1335"
       transform="matrix(0.15874332,0,0,0.15874332,51.464269,7.8898318)"
       inkscape:label="drone"
       style="fill:#7f7f7e;fill-opacity:1;stroke:#7f7f7f;stroke-width:1.00214732;stroke-miterlimit:4;stroke-dasharray:none;stroke-opacity:1">
      <path
         id="path1184"
         d="m 277.984,226.868 h -51.846 c -1.804,4.017 -4.356,8.586 -7.373,13.044 -0.969,1.449 -1.189,3.245 -0.614,4.876 0.583,1.631 1.89,2.875 3.552,3.387 9.295,2.812 19.787,4.293 30.358,4.293 10.563,0 21.063,-1.481 30.358,-4.293 1.654,-0.504 2.97,-1.757 3.553,-3.387 0.575,-1.631 0.347,-3.434 -0.614,-4.876 -3.018,-4.458 -5.57,-9.027 -7.374,-13.044 z"
         style="fill:#7f7f7e;fill-opacity:1;stroke:#7f7f7f;stroke-width:1.00214732;stroke-miterlimit:4;stroke-dasharray:none;stroke-opacity:1"
         inkscape:connector-curvature="0" />
      <ellipse
         id="ellipse1186"
         ry="41.889"
         rx="100.061"
         cy="147.658"
         cx="252.062"
         style="fill:#7f7f7e;fill-opacity:1;stroke:#7f7f7f;stroke-width:1.00214732;stroke-miterlimit:4;stroke-dasharray:none;stroke-opacity:1" />
      <path
         id="path1188"
         d="m 352.122,147.658 c 0,23.142 -44.804,41.889 -100.061,41.889 C 196.804,189.547 152,170.792 152,147.658"
         style="fill:#7f7f7e;fill-opacity:1;stroke:#7f7f7f;stroke-width:1.00214732;stroke-miterlimit:4;stroke-dasharray:none;stroke-opacity:1"
         inkscape:connector-curvature="0" />
      <path
         id="path1190"
         d="m 215.725,138.206 c 0,15.368 -12.438,27.829 -27.829,27.829 -15.344,0 -125.605,-12.461 -125.605,-27.829 0,-15.352 110.261,-27.813 125.605,-27.813 15.392,-0.001 27.829,12.46 27.829,27.813 z"
         style="fill:#7f7f7e;fill-opacity:1;stroke:#7f7f7f;stroke-width:1.00214732;stroke-miterlimit:4;stroke-dasharray:none;stroke-opacity:1"
         inkscape:connector-curvature="0" />
      <path
         id="path1192"
         d="m 187.896,110.392 c 15.392,0 27.829,12.461 27.829,27.813"
         style="fill:#7f7f7e;fill-opacity:1;stroke:#7f7f7f;stroke-width:1.00214732;stroke-miterlimit:4;stroke-dasharray:none;stroke-opacity:1"
         inkscape:connector-curvature="0" />
      <g
         id="g1198"
         style="fill:#7f7f7e;fill-opacity:1;stroke:#7f7f7f;stroke-width:1.00214732;stroke-miterlimit:4;stroke-dasharray:none;stroke-opacity:1">
        <path
           id="path1194"
           d="m 215.725,138.206 c 0,15.368 17.904,48.065 2.536,48.065 -15.368,0 -155.978,-32.69 -155.978,-48.065"
           style="fill:#7f7f7e;fill-opacity:1;stroke:#7f7f7f;stroke-width:1.00214732;stroke-miterlimit:4;stroke-dasharray:none;stroke-opacity:1"
           inkscape:connector-curvature="0" />
        <path
           id="path1196"
           d="m 90.01,144.751 c 0,8.862 -7.176,16.03 -16.022,16.03 v 0 c -8.862,0 -15.998,-7.168 -15.998,-16.03 v -14.336 c 0,-8.846 7.136,-16.014 15.998,-16.014 v 0 c 8.846,0 16.022,7.168 16.022,16.014 z"
           style="fill:#7f7f7e;fill-opacity:1;stroke:#7f7f7f;stroke-width:1.00214732;stroke-miterlimit:4;stroke-dasharray:none;stroke-opacity:1"
           inkscape:connector-curvature="0" />
      </g>
      <path
         id="path1200"
         d="m 90.01,128.95 c 0,8.846 -7.176,16.014 -16.022,16.014 v 0 c -8.862,0 -15.998,-7.168 -15.998,-16.014 v -14.336 c 0,-8.846 7.136,-16.03 15.998,-16.03 v 0 c 8.846,0 16.022,7.184 16.022,16.03 z"
         style="fill:#7f7f7e;fill-opacity:1;stroke:#7f7f7f;stroke-width:1.00214732;stroke-miterlimit:4;stroke-dasharray:none;stroke-opacity:1"
         inkscape:connector-curvature="0" />
      <path
         id="path1202"
         d="m 58.478,114.606 c 1.694,7.018 7.971,12.233 15.51,12.233 7.538,0 13.808,-5.215 15.518,-12.233 -1.709,-7.003 -7.979,-12.233 -15.518,-12.233 -7.538,0 -13.816,5.239 -15.51,12.233 z"
         style="fill:#7f7f7e;fill-opacity:1;stroke:#7f7f7f;stroke-width:1.00214732;stroke-miterlimit:4;stroke-dasharray:none;stroke-opacity:1"
         inkscape:connector-curvature="0" />
      <ellipse
         id="ellipse1204"
         ry="11.705"
         rx="73.980003"
         cy="101.854"
         cx="73.980003"
         style="fill:#7f7f7e;fill-opacity:1;stroke:#7f7f7f;stroke-width:1.00214732;stroke-miterlimit:4;stroke-dasharray:none;stroke-opacity:1" />
      <ellipse
         id="ellipse1206"
         ry="11.705"
         rx="41.102001"
         cy="101.854"
         cx="73.987999"
         style="fill:#7f7f7e;fill-opacity:1;stroke:#7f7f7f;stroke-width:1.00214732;stroke-miterlimit:4;stroke-dasharray:none;stroke-opacity:1" />
      <path
         id="path1208"
         d="m 147.495,101.854 c 0,1.142 -0.906,2.048 -2.056,2.048 H 2.521 c -1.126,0 -2.04,-0.906 -2.04,-2.048 v 0 c 0,-1.142 0.914,-2.064 2.04,-2.064 H 145.44 c 1.142,0 2.055,0.929 2.055,2.064 z"
         style="fill:#7f7f7e;fill-opacity:1;stroke:#7f7f7f;stroke-width:1.00214732;stroke-miterlimit:4;stroke-dasharray:none;stroke-opacity:1"
         inkscape:connector-curvature="0" />
      <path
         id="path1210"
         d="m 90.277,87.644 c 0,4.695 6.294,8.523 1.56,8.523 H 56.123 c -4.71,0 1.575,-3.828 1.575,-8.523 v 0 c 0,-4.742 3.828,-8.554 8.539,-8.554 h 15.486 c 4.718,-0.001 8.554,3.812 8.554,8.554 z"
         style="fill:#7f7f7e;fill-opacity:1;stroke:#7f7f7f;stroke-width:1.00214732;stroke-miterlimit:4;stroke-dasharray:none;stroke-opacity:1"
         inkscape:connector-curvature="0" />
      <path
         id="path1212"
         d="m 288.398,138.206 c 0,15.368 12.438,27.829 27.821,27.829 15.352,0 125.613,-12.461 125.613,-27.829 0,-15.352 -110.261,-27.813 -125.613,-27.813 -15.384,-0.001 -27.821,12.46 -27.821,27.813 z"
         style="fill:#7f7f7e;fill-opacity:1;stroke:#7f7f7f;stroke-width:1.00214732;stroke-miterlimit:4;stroke-dasharray:none;stroke-opacity:1"
         inkscape:connector-curvature="0" />
      <path
         id="path1214"
         d="m 316.227,110.392 c -15.384,0 -27.821,12.461 -27.821,27.813"
         style="fill:#7f7f7e;fill-opacity:1;stroke:#7f7f7f;stroke-width:1.00214732;stroke-miterlimit:4;stroke-dasharray:none;stroke-opacity:1"
         inkscape:connector-curvature="0" />
      <g
         id="g1220"
         style="fill:#7f7f7e;fill-opacity:1;stroke:#7f7f7f;stroke-width:1.00214732;stroke-miterlimit:4;stroke-dasharray:none;stroke-opacity:1">
        <path
           id="path1216"
           d="m 288.398,138.206 c 0,15.368 -17.904,48.065 -2.536,48.065 15.368,0 155.979,-32.689 155.979,-48.065"
           style="fill:#7f7f7e;fill-opacity:1;stroke:#7f7f7f;stroke-width:1.00214732;stroke-miterlimit:4;stroke-dasharray:none;stroke-opacity:1"
           inkscape:connector-curvature="0" />
        <path
           id="path1218"
           d="m 414.113,144.751 c 0,8.862 7.176,16.03 16.022,16.03 v 0 c 8.854,0 16.006,-7.168 16.006,-16.03 v -14.336 c 0,-8.846 -7.152,-16.014 -16.006,-16.014 v 0 c -8.846,0 -16.022,7.168 -16.022,16.014 z"
           style="fill:#7f7f7e;fill-opacity:1;stroke:#7f7f7f;stroke-width:1.00214732;stroke-miterlimit:4;stroke-dasharray:none;stroke-opacity:1"
           inkscape:connector-curvature="0" />
      </g>
      <path
         id="path1222"
         d="m 414.113,128.95 c 0,8.846 7.176,16.014 16.022,16.014 v 0 c 8.854,0 16.006,-7.168 16.006,-16.014 v -14.336 c 0,-8.846 -7.152,-16.03 -16.006,-16.03 v 0 c -8.846,0 -16.022,7.184 -16.022,16.03 z"
         style="fill:#7f7f7e;fill-opacity:1;stroke:#7f7f7f;stroke-width:1.00214732;stroke-miterlimit:4;stroke-dasharray:none;stroke-opacity:1"
         inkscape:connector-curvature="0" />
      <path
         id="path1224"
         d="m 445.645,114.606 c -1.694,7.018 -7.979,12.233 -15.51,12.233 -7.538,0 -13.816,-5.215 -15.525,-12.233 1.709,-7.003 7.987,-12.233 15.525,-12.233 7.53,0.008 13.816,5.239 15.51,12.233 z"
         style="fill:#7f7f7e;fill-opacity:1;stroke:#7f7f7f;stroke-width:1.00214732;stroke-miterlimit:4;stroke-dasharray:none;stroke-opacity:1"
         inkscape:connector-curvature="0" />
      <ellipse
         id="ellipse1226"
         ry="11.705"
         rx="73.987999"
         cy="101.854"
         cx="430.159"
         style="fill:#7f7f7e;fill-opacity:1;stroke:#7f7f7f;stroke-width:1.00214732;stroke-miterlimit:4;stroke-dasharray:none;stroke-opacity:1" />
      <ellipse
         id="ellipse1228"
         ry="11.705"
         rx="41.102001"
         cy="101.854"
         cx="430.159"
         style="fill:#7f7f7e;fill-opacity:1;stroke:#7f7f7f;stroke-width:1.00214732;stroke-miterlimit:4;stroke-dasharray:none;stroke-opacity:1" />
      <path
         id="path1230"
         d="m 356.628,101.854 c 0,1.142 0.906,2.048 2.056,2.048 h 142.919 c 1.126,0 2.04,-0.906 2.04,-2.048 v 0 c 0,-1.142 -0.914,-2.064 -2.04,-2.064 H 358.684 c -1.143,0 -2.056,0.929 -2.056,2.064 z"
         style="fill:#7f7f7e;fill-opacity:1;stroke:#7f7f7f;stroke-width:1.00214732;stroke-miterlimit:4;stroke-dasharray:none;stroke-opacity:1"
         inkscape:connector-curvature="0" />
      <path
         id="path1232"
         d="m 413.846,87.644 c 0,4.695 -6.294,8.523 -1.56,8.523 H 448 c 4.71,0 -1.575,-3.828 -1.575,-8.523 v 0 c 0,-4.742 -3.828,-8.554 -8.539,-8.554 H 422.4 c -4.71,-0.001 -8.554,3.812 -8.554,8.554 z"
         style="fill:#7f7f7e;fill-opacity:1;stroke:#7f7f7f;stroke-width:1.00214732;stroke-miterlimit:4;stroke-dasharray:none;stroke-opacity:1"
         inkscape:connector-curvature="0" />
      <path
         id="path1234"
         d="m 299.402,151.714 h -15.265 c -2.316,0 -4.521,1.032 -6.018,2.796 -2.135,2.521 -11.902,6.262 -26.065,6.262 -14.171,0 -23.914,-3.742 -26.049,-6.262 -1.504,-1.772 -3.702,-2.796 -6.026,-2.796 h -15.258 c -4.356,0 -7.877,3.521 -7.877,7.877 v 16.14 c 0,2.001 0.772,3.938 2.135,5.404 3.009,3.182 7.176,4.506 11.201,5.782 7.704,2.434 8.539,3.434 8.539,6.294 0,6.412 -6.081,19.952 -14.816,32.91 -1.386,2.08 -1.717,4.695 -0.874,7.05 0.843,2.355 2.749,4.167 5.136,4.892 13.438,4.064 28.617,6.215 43.89,6.215 15.273,0 30.46,-2.15 43.898,-6.215 2.395,-0.725 4.285,-2.536 5.136,-4.892 0.835,-2.355 0.504,-4.97 -0.882,-7.05 -8.72,-12.958 -14.809,-26.49 -14.809,-32.91 0,-2.859 0.835,-3.86 8.523,-6.294 4.033,-1.276 8.2,-2.599 11.209,-5.782 1.371,-1.465 2.135,-3.403 2.135,-5.404 v -16.14 c 0.014,-4.348 -3.515,-7.877 -7.863,-7.877 z"
         style="fill:#7f7f7e;fill-opacity:1;stroke:#7f7f7f;stroke-width:1.00214732;stroke-miterlimit:4;stroke-dasharray:none;stroke-opacity:1"
         inkscape:connector-curvature="0" />
      <g
         id="g1242"
         style="fill:#7f7f7e;fill-opacity:1;stroke:#7f7f7f;stroke-width:1.00214732;stroke-miterlimit:4;stroke-dasharray:none;stroke-opacity:1">
        <path
           id="path1236"
           d="m 268.138,119.38 c 0,0.819 -0.662,1.481 -1.481,1.481 h -29.2 c -0.819,0 -1.481,-0.662 -1.481,-1.481 v 0 c 0,-0.819 0.662,-1.481 1.481,-1.481 h 29.2 c 0.82,0 1.481,0.661 1.481,1.481 z"
           style="fill:#7f7f7e;fill-opacity:1;stroke:#7f7f7f;stroke-width:1.00214732;stroke-miterlimit:4;stroke-dasharray:none;stroke-opacity:1"
           inkscape:connector-curvature="0" />
        <path
           id="path1238"
           d="m 268.138,128.241 c 0,0.819 -0.662,1.481 -1.481,1.481 h -29.2 c -0.819,0 -1.481,-0.662 -1.481,-1.481 v 0 c 0,-0.819 0.662,-1.481 1.481,-1.481 h 29.2 c 0.82,0 1.481,0.662 1.481,1.481 z"
           style="fill:#7f7f7e;fill-opacity:1;stroke:#7f7f7f;stroke-width:1.00214732;stroke-miterlimit:4;stroke-dasharray:none;stroke-opacity:1"
           inkscape:connector-curvature="0" />
        <path
           id="path1240"
           d="m 268.138,137.103 c 0,0.819 -0.662,1.481 -1.481,1.481 h -29.2 c -0.819,0 -1.481,-0.662 -1.481,-1.481 v 0 c 0,-0.819 0.662,-1.481 1.481,-1.481 h 29.2 c 0.82,0 1.481,0.662 1.481,1.481 z"
           style="fill:#7f7f7e;fill-opacity:1;stroke:#7f7f7f;stroke-width:1.00214732;stroke-miterlimit:4;stroke-dasharray:none;stroke-opacity:1"
           inkscape:connector-curvature="0" />
      </g>
      <path
         id="path1244"
         d="m 86.158,339.437 c 4.687,-4.695 12.312,-4.695 17.014,0 82.085,82.109 215.67,82.109 297.779,0 4.695,-4.695 12.304,-4.695 16.998,0 4.71,4.71 4.71,12.32 0,17.014 -91.475,91.475 -240.325,91.475 -331.792,0 -4.694,-4.686 -4.694,-12.303 0.001,-17.014 z"
         style="fill:#7f7f7e;fill-opacity:1;stroke:#7f7f7f;stroke-width:1.00214732;stroke-miterlimit:4;stroke-dasharray:none;stroke-opacity:1"
         inkscape:connector-curvature="0" />
      <path
         id="path1246"
         d="m 130.812,299.359 c 3.434,-3.434 9.019,-3.434 12.446,0 59.983,59.983 157.617,59.983 217.6,0 3.434,-3.434 9.003,-3.434 12.43,0 3.427,3.434 3.434,9.003 0,12.43 -66.844,66.844 -175.616,66.859 -242.467,0 -3.428,-3.426 -3.435,-8.995 -0.009,-12.43 z"
         style="fill:#7f7f7e;fill-opacity:1;stroke:#7f7f7f;stroke-width:1.00214732;stroke-miterlimit:4;stroke-dasharray:none;stroke-opacity:1"
         inkscape:connector-curvature="0" />
      <path
         id="path1248"
         d="m 169.819,264.378 c 2.324,-2.339 6.097,-2.339 8.428,0 40.692,40.692 106.921,40.692 147.614,-0.016 2.332,-2.324 6.105,-2.324 8.436,0.016 2.332,2.324 2.332,6.089 0,8.428 -45.347,45.34 -119.131,45.355 -164.486,0 -2.324,-2.339 -2.324,-6.104 0.008,-8.428 z"
         style="fill:#7f7f7e;fill-opacity:1;stroke:#7f7f7f;stroke-width:1.00214732;stroke-miterlimit:4;stroke-dasharray:none;stroke-opacity:1"
         inkscape:connector-curvature="0" />
      <g
         id="g1250"
         style="fill:#7f7f7e;fill-opacity:1;stroke:#7f7f7f;stroke-width:1.00214732;stroke-miterlimit:4;stroke-dasharray:none;stroke-opacity:1" />
      <g
         id="g1252"
         style="fill:#7f7f7e;fill-opacity:1;stroke:#7f7f7f;stroke-width:1.00214732;stroke-miterlimit:4;stroke-dasharray:none;stroke-opacity:1" />
      <g
         id="g1254"
         style="fill:#7f7f7e;fill-opacity:1;stroke:#7f7f7f;stroke-width:1.00214732;stroke-miterlimit:4;stroke-dasharray:none;stroke-opacity:1" />
      <g
         id="g1256"
         style="fill:#7f7f7e;fill-opacity:1;stroke:#7f7f7f;stroke-width:1.00214732;stroke-miterlimit:4;stroke-dasharray:none;stroke-opacity:1" />
      <g
         id="g1258"
         style="fill:#7f7f7e;fill-opacity:1;stroke:#7f7f7f;stroke-width:1.00214732;stroke-miterlimit:4;stroke-dasharray:none;stroke-opacity:1" />
      <g
         id="g1260"
         style="fill:#7f7f7e;fill-opacity:1;stroke:#7f7f7f;stroke-width:1.00214732;stroke-miterlimit:4;stroke-dasharray:none;stroke-opacity:1" />
      <g
         id="g1262"
         style="fill:#7f7f7e;fill-opacity:1;stroke:#7f7f7f;stroke-width:1.00214732;stroke-miterlimit:4;stroke-dasharray:none;stroke-opacity:1" />
      <g
         id="g1264"
         style="fill:#7f7f7e;fill-opacity:1;stroke:#7f7f7f;stroke-width:1.00214732;stroke-miterlimit:4;stroke-dasharray:none;stroke-opacity:1" />
      <g
         id="g1266"
         style="fill:#7f7f7e;fill-opacity:1;stroke:#7f7f7f;stroke-width:1.00214732;stroke-miterlimit:4;stroke-dasharray:none;stroke-opacity:1" />
      <g
         id="g1268"
         style="fill:#7f7f7e;fill-opacity:1;stroke:#7f7f7f;stroke-width:1.00214732;stroke-miterlimit:4;stroke-dasharray:none;stroke-opacity:1" />
      <g
         id="g1270"
         style="fill:#7f7f7e;fill-opacity:1;stroke:#7f7f7f;stroke-width:1.00214732;stroke-miterlimit:4;stroke-dasharray:none;stroke-opacity:1" />
      <g
         id="g1272"
         style="fill:#7f7f7e;fill-opacity:1;stroke:#7f7f7f;stroke-width:1.00214732;stroke-miterlimit:4;stroke-dasharray:none;stroke-opacity:1" />
      <g
         id="g1274"
         style="fill:#7f7f7e;fill-opacity:1;stroke:#7f7f7f;stroke-width:1.00214732;stroke-miterlimit:4;stroke-dasharray:none;stroke-opacity:1" />
      <g
         id="g1276"
         style="fill:#7f7f7e;fill-opacity:1;stroke:#7f7f7f;stroke-width:1.00214732;stroke-miterlimit:4;stroke-dasharray:none;stroke-opacity:1" />
      <g
         id="g1278"
         style="fill:#7f7f7e;fill-opacity:1;stroke:#7f7f7f;stroke-width:1.00214732;stroke-miterlimit:4;stroke-dasharray:none;stroke-opacity:1" />
    </g>
    <g
       id="g1466"
       transform="matrix(0.34734782,0,0,0.34734782,87.91507,80.374006)"
       inkscape:label="medical"
       style="fill:#7f7f7e;fill-opacity:1;stroke:#7f7f7f;stroke-opacity:1">
      <path
         id="path1411"
         d="M 184.814,38.511 H 15.343 C 6.869,38.511 0,45.38 0,53.854 v 80.034 c 0,8.473 6.869,15.343 15.343,15.343 h 17.882 v 2.476 c 0,5.49 4.45,9.94 9.939,9.94 h 8.262 c 5.489,0 9.94,-4.45 9.94,-9.94 v -2.476 h 77.427 v 2.476 c 0,5.49 4.45,9.94 9.939,9.94 h 8.262 c 5.489,0 9.939,-4.45 9.939,-9.94 v -2.476 h 17.882 c 8.474,0 15.343,-6.869 15.343,-15.343 V 53.854 c -10e-4,-8.474 -6.87,-15.343 -15.344,-15.343 z m -51.411,15.344 c 0,-2.209 1.791,-4 4,-4 h 14.952 c 2.209,0 4,1.791 4,4 v 0.631 c 0,2.209 -1.791,4 -4,4 h -14.952 c -2.209,0 -4,-1.791 -4,-4 z m 28.533,28.905 c 6.499,0 11.767,5.179 11.767,11.568 0,6.389 -5.268,11.568 -11.767,11.568 -6.498,0 -11.767,-5.179 -11.767,-11.568 10e-4,-6.389 5.269,-11.568 11.767,-11.568 z M 133.403,71.32 c 0,-2.209 1.791,-4 4,-4 h 14.952 c 2.209,0 4,1.791 4,4 v 0.631 c 0,2.209 -1.791,4 -4,4 h -14.952 c -2.209,0 -4,-1.791 -4,-4 z M 18.68,49.395 h 90.709 c 4.136,0 7.49,3.353 7.49,7.49 V 86.294 H 98.09 c -1.857,0 -3.562,1.03 -4.426,2.674 l -4.607,8.767 -5.493,-38.36 c -0.332,-2.317 -2.228,-4.094 -4.562,-4.276 -2.333,-0.189 -4.481,1.28 -5.168,3.518 L 64.287,89.734 63.49,88.531 c -0.926,-1.397 -2.491,-2.238 -4.167,-2.238 h -4.655 l -4.816,-8.278 c -0.905,-1.556 -2.59,-2.546 -4.376,-2.485 -1.8,0.02 -3.45,1.004 -4.321,2.58 l -4.526,8.183 H 11.19 V 56.885 c 0,-4.137 3.353,-7.49 7.49,-7.49 z m 90.709,75.524 H 18.68 c -4.136,0 -7.49,-3.353 -7.49,-7.49 V 96.294 h 28.386 c 1.819,0 3.495,-0.988 4.375,-2.58 l 1.688,-3.052 1.831,3.147 c 0.896,1.539 2.542,2.485 4.322,2.485 h 4.846 l 5.159,7.783 c 1.068,1.613 2.97,2.465 4.884,2.186 1.914,-0.277 3.496,-1.633 4.063,-3.481 l 6.09,-19.852 4.513,31.513 c 0.308,2.146 1.963,3.85 4.1,4.218 0.285,0.049 0.57,0.073 0.852,0.073 1.833,0 3.55,-1.011 4.425,-2.674 l 10.388,-19.767 h 15.767 v 21.136 c -0.001,4.137 -3.354,7.49 -7.49,7.49 z m 24.014,-4 v -0.631 c 0,-2.209 1.791,-4 4,-4 h 14.952 c 2.209,0 4,1.791 4,4 v 0.631 c 0,2.209 -1.791,4 -4,4 h -14.952 c -2.209,0 -4,-1.791 -4,-4 z m 56.482,0 c 0,2.209 -1.791,4 -4,4 h -14.953 c -2.209,0 -4,-1.791 -4,-4 v -0.631 c 0,-2.209 1.791,-4 4,-4 h 14.953 c 2.209,0 4,1.791 4,4 z m 0,-48.968 c 0,2.209 -1.791,4 -4,4 h -14.953 c -2.209,0 -4,-1.791 -4,-4 V 71.32 c 0,-2.209 1.791,-4 4,-4 h 14.953 c 2.209,0 4,1.791 4,4 z m 0,-17.465 c 0,2.209 -1.791,4 -4,4 h -14.953 c -2.209,0 -4,-1.791 -4,-4 v -0.631 c 0,-2.209 1.791,-4 4,-4 h 14.953 c 2.209,0 4,1.791 4,4 z"
         inkscape:connector-curvature="0"
         style="fill:#7f7f7e;fill-opacity:1;stroke:#7f7f7f;stroke-opacity:1" />
      <g
         id="g1413"
         style="fill:#7f7f7e;fill-opacity:1;stroke:#7f7f7f;stroke-opacity:1" />
      <g
         id="g1415"
         style="fill:#7f7f7e;fill-opacity:1;stroke:#7f7f7f;stroke-opacity:1" />
      <g
         id="g1417"
         style="fill:#7f7f7e;fill-opacity:1;stroke:#7f7f7f;stroke-opacity:1" />
      <g
         id="g1419"
         style="fill:#7f7f7e;fill-opacity:1;stroke:#7f7f7f;stroke-opacity:1" />
      <g
         id="g1421"
         style="fill:#7f7f7e;fill-opacity:1;stroke:#7f7f7f;stroke-opacity:1" />
      <g
         id="g1423"
         style="fill:#7f7f7e;fill-opacity:1;stroke:#7f7f7f;stroke-opacity:1" />
      <g
         id="g1425"
         style="fill:#7f7f7e;fill-opacity:1;stroke:#7f7f7f;stroke-opacity:1" />
      <g
         id="g1427"
         style="fill:#7f7f7e;fill-opacity:1;stroke:#7f7f7f;stroke-opacity:1" />
      <g
         id="g1429"
         style="fill:#7f7f7e;fill-opacity:1;stroke:#7f7f7f;stroke-opacity:1" />
      <g
         id="g1431"
         style="fill:#7f7f7e;fill-opacity:1;stroke:#7f7f7f;stroke-opacity:1" />
      <g
         id="g1433"
         style="fill:#7f7f7e;fill-opacity:1;stroke:#7f7f7f;stroke-opacity:1" />
      <g
         id="g1435"
         style="fill:#7f7f7e;fill-opacity:1;stroke:#7f7f7f;stroke-opacity:1" />
      <g
         id="g1437"
         style="fill:#7f7f7e;fill-opacity:1;stroke:#7f7f7f;stroke-opacity:1" />
      <g
         id="g1439"
         style="fill:#7f7f7e;fill-opacity:1;stroke:#7f7f7f;stroke-opacity:1" />
      <g
         id="g1441"
         style="fill:#7f7f7e;fill-opacity:1;stroke:#7f7f7f;stroke-opacity:1" />
    </g>
  </g>
</svg>
