<?xml version="1.0" encoding="UTF-8" standalone="no"?>
<!-- Created with Inkscape (http://www.inkscape.org/) -->

<svg
   xmlns:dc="http://purl.org/dc/elements/1.1/"
   xmlns:cc="http://creativecommons.org/ns#"
   xmlns:rdf="http://www.w3.org/1999/02/22-rdf-syntax-ns#"
   xmlns:svg="http://www.w3.org/2000/svg"
   xmlns="http://www.w3.org/2000/svg"
   xmlns:sodipodi="http://sodipodi.sourceforge.net/DTD/sodipodi-0.dtd"
   xmlns:inkscape="http://www.inkscape.org/namespaces/inkscape"
   width="60.060417mm"
   height="60.325001mm"
   viewBox="0 0 60.060417 60.325001"
   version="1.1"
   id="svg8983"
   inkscape:version="0.92.2 5c3e80d, 2017-08-06"
   sodipodi:docname="drawing-8-sided-cog-.svg"
   inkscape:export-filename="/Users/Matt/openwhisk/release/openwhisk-website/images/elements/drawing-cog-gray.png"
   inkscape:export-xdpi="96"
   inkscape:export-ydpi="96">
  <defs
     id="defs8977" />
  <sodipodi:namedview
     id="base"
     pagecolor="#ffffff"
     bordercolor="#666666"
     borderopacity="1.0"
     inkscape:pageopacity="0.56862745"
     inkscape:pageshadow="2"
     inkscape:zoom="1"
     inkscape:cx="105.5"
     inkscape:cy="74.000001"
     inkscape:document-units="mm"
     inkscape:current-layer="layer1"
     showgrid="false"
     inkscape:pagecheckerboard="true"
     fit-margin-top="0"
     fit-margin-left="0"
     fit-margin-right="0"
     fit-margin-bottom="0"
     inkscape:window-width="1680"
     inkscape:window-height="961"
     inkscape:window-x="0"
     inkscape:window-y="1"
     inkscape:window-maximized="1" />
  <metadata
     id="metadata8980">
    <rdf:RDF>
      <cc:Work
         rdf:about="">
        <dc:format>image/svg+xml</dc:format>
        <dc:type
           rdf:resource="http://purl.org/dc/dcmitype/StillImage" />
        <dc:title></dc:title>
      </cc:Work>
    </rdf:RDF>
  </metadata>
  <g
     inkscape:label="8-sided cog"
     id="layer1"
     transform="translate(-0.96385121,-235.84346)"
     inkscape:groupmode="layer"
     style="opacity:1">
    <path
       inkscape:label="light aquamarine"
       style="display:inline;opacity:1;fill:#6aeffa;fill-opacity:1;stroke:#acacac;stroke-width:0.26458335;stroke-opacity:1"
       d="m 28.943539,295.70742 c 1.055026,-0.0502 2.781432,-0.0502 3.836458,0 1.055026,0.0502 0.191823,0.0913 -1.918229,0.0913 -2.110052,0 -2.973255,-0.0411 -1.918229,-0.0913 z m -1.367994,-0.65525 c -0.05549,-0.18641 -0.494298,-1.93017 -0.975123,-3.87503 -0.780714,-3.15788 -0.946252,-3.56503 -1.547586,-3.80634 -0.370348,-0.14862 -1.66706,-0.73026 -2.881582,-1.29253 -1.214522,-0.56227 -2.405147,-1.02212 -2.645833,-1.02188 -0.240686,2.3e-4 -1.866361,0.89197 -3.612611,1.98164 -1.74625,1.08967 -3.296856,1.98245 -3.445791,1.98395 -0.362283,0.004 -4.3594178,-4.03082 -4.3594178,-4.40014 0,-0.15958 0.8334376,-1.66571 1.8520834,-3.34697 2.1213754,-3.50131 2.2075074,-3.99027 1.0946924,-6.21448 -0.416565,-0.83259 -0.90235,-1.9612 -1.0795223,-2.50802 -0.1771726,-0.54682 -0.5209563,-1.09719 -0.7639637,-1.22303 -1.0164675,-0.5264 -7.5691738,-1.93302 -7.6650471,-1.6454 -0.053912,0.16174 -0.2069156,0.22677 -0.3400075,0.14451 -0.3172868,-0.19609 -0.31675161,-7.52666 5.495e-4,-7.52666 0.1333941,0 0.2854036,0.12861 0.3377989,0.2858 0.061552,0.18465 1.488673,-0.0728 4.0327226,-0.72761 l 3.9374583,-1.01339 0.9894233,-2.47333 c 0.544183,-1.36033 1.12063,-2.60453 1.280993,-2.7649 0.544773,-0.54477 0.293797,-1.20511 -1.692806,-4.45393 -1.091406,-1.78485 -1.9843748,-3.37316 -1.9843748,-3.52959 0,-0.37007 4.0251368,-4.37305 4.3972508,-4.37305 0.156476,0 1.344467,0.66637 2.63998,1.48081 4.259795,2.67799 4.041049,2.65149 8.044019,0.97422 l 2.513542,-1.05319 0.983283,-3.94206 c 0.540806,-2.16814 0.919735,-4.15043 0.842067,-4.40509 -0.129511,-0.42464 0.146862,-0.46302 3.334025,-0.46302 3.186221,0 3.463703,0.0385 3.336496,0.46302 -0.07631,0.25466 0.30262,2.23872 0.842069,4.40901 l 0.98081,3.94599 2.513542,1.04239 c 1.382448,0.57331 2.89628,1.1021 3.364074,1.17509 0.916268,0.14296 1.418635,-0.0962 5.261964,-2.5053 l 2.143747,-1.34375 2.192946,2.2044 c 1.671701,1.68043 2.149451,2.31774 2.009958,2.68126 -0.100643,0.26227 -0.964142,1.75851 -1.918888,3.32499 -2.021176,3.31619 -2.017403,3.25302 -0.42363,7.09248 l 1.043382,2.51355 4.06114,1.04062 c 2.888395,0.74011 4.091432,0.94975 4.166031,0.72595 0.05769,-0.17306 0.213783,-0.24736 0.346874,-0.16511 0.133091,0.0823 0.241985,1.75214 0.241985,3.71086 v 3.5613 l -0.612246,-0.15366 c -0.564123,-0.14159 -6.451999,1.16206 -7.76192,1.71858 -0.322691,0.13709 -0.711528,0.67883 -0.898334,1.25159 -0.181158,0.55543 -0.669266,1.71558 -1.084689,2.57811 -0.415419,0.86253 -0.755311,1.9136 -0.755311,2.33572 0,0.48269 0.687245,1.90176 1.852083,3.82432 1.018646,1.68126 1.852084,3.19282 1.852084,3.35903 0,0.1662 -0.949256,1.24587 -2.109457,2.39927 l -2.109459,2.09709 -1.131687,-0.62802 c -0.622429,-0.3454 -2.137235,-1.26212 -3.366238,-2.03714 -1.229,-0.77503 -2.453349,-1.40914 -2.720774,-1.40914 -0.267425,0 -1.107347,0.31699 -1.866492,0.70442 -0.759148,0.38743 -2.035112,0.95947 -2.835477,1.27118 l -1.455208,0.56677 -0.94144,3.82204 -0.941443,3.82205 -3.23091,0.0743 c -2.448859,0.0563 -3.25533,-0.008 -3.331805,-0.26458 z"
       id="path9323"
       inkscape:connector-curvature="0" />
    <path
       inkscape:connector-curvature="0"
       id="path9321"
       d="m 28.943539,295.70742 c 1.055026,-0.0502 2.781432,-0.0502 3.836458,0 1.055026,0.0502 0.191823,0.0913 -1.918229,0.0913 -2.110052,0 -2.973255,-0.0411 -1.918229,-0.0913 z m -1.367994,-0.65525 c -0.05549,-0.18641 -0.494298,-1.93017 -0.975123,-3.87503 -0.780714,-3.15788 -0.946252,-3.56503 -1.547586,-3.80634 -0.370348,-0.14862 -1.66706,-0.73026 -2.881582,-1.29253 -1.214522,-0.56227 -2.405147,-1.02212 -2.645833,-1.02188 -0.240686,2.3e-4 -1.866361,0.89197 -3.612611,1.98164 -1.74625,1.08967 -3.296856,1.98245 -3.445791,1.98395 -0.362283,0.004 -4.3594178,-4.03082 -4.3594178,-4.40014 0,-0.15958 0.8334376,-1.66571 1.8520834,-3.34697 2.1213754,-3.50131 2.2075074,-3.99027 1.0946924,-6.21448 -0.416565,-0.83259 -0.90235,-1.9612 -1.0795223,-2.50802 -0.1771726,-0.54682 -0.5209563,-1.09719 -0.7639637,-1.22303 -1.0164675,-0.5264 -7.5691738,-1.93302 -7.6650471,-1.6454 -0.053912,0.16174 -0.2069156,0.22677 -0.3400075,0.14451 -0.3172868,-0.19609 -0.31675161,-7.52666 5.495e-4,-7.52666 0.1333941,0 0.2854036,0.12861 0.3377989,0.2858 0.061552,0.18465 1.488673,-0.0728 4.0327226,-0.72761 l 3.9374583,-1.01339 0.9894233,-2.47333 c 0.544183,-1.36033 1.12063,-2.60453 1.280993,-2.7649 0.544773,-0.54477 0.293797,-1.20511 -1.692806,-4.45393 -1.091406,-1.78485 -1.9843748,-3.37316 -1.9843748,-3.52959 0,-0.37007 4.0251368,-4.37305 4.3972508,-4.37305 0.156476,0 1.344467,0.66637 2.63998,1.48081 4.259795,2.67799 4.041049,2.65149 8.044019,0.97422 l 2.513542,-1.05319 0.983283,-3.94206 c 0.540806,-2.16814 0.919735,-4.15043 0.842067,-4.40509 -0.129511,-0.42464 0.146862,-0.46302 3.334025,-0.46302 3.186221,0 3.463703,0.0385 3.336496,0.46302 -0.07631,0.25466 0.30262,2.23872 0.842069,4.40901 l 0.98081,3.94599 2.513542,1.04239 c 1.382448,0.57331 2.89628,1.1021 3.364074,1.17509 0.916268,0.14296 1.418635,-0.0962 5.261964,-2.5053 l 2.143747,-1.34375 2.192946,2.2044 c 1.671701,1.68043 2.149451,2.31774 2.009958,2.68126 -0.100643,0.26227 -0.964142,1.75851 -1.918888,3.32499 -2.021176,3.31619 -2.017403,3.25302 -0.42363,7.09248 l 1.043382,2.51355 4.06114,1.04062 c 2.888395,0.74011 4.091432,0.94975 4.166031,0.72595 0.05769,-0.17306 0.213783,-0.24736 0.346874,-0.16511 0.133091,0.0823 0.241985,1.75214 0.241985,3.71086 v 3.5613 l -0.612246,-0.15366 c -0.564123,-0.14159 -6.451999,1.16206 -7.76192,1.71858 -0.322691,0.13709 -0.711528,0.67883 -0.898334,1.25159 -0.181158,0.55543 -0.669266,1.71558 -1.084689,2.57811 -0.415419,0.86253 -0.755311,1.9136 -0.755311,2.33572 0,0.48269 0.687245,1.90176 1.852083,3.82432 1.018646,1.68126 1.852084,3.19282 1.852084,3.35903 0,0.1662 -0.949256,1.24587 -2.109457,2.39927 l -2.109459,2.09709 -1.131687,-0.62802 c -0.622429,-0.3454 -2.137235,-1.26212 -3.366238,-2.03714 -1.229,-0.77503 -2.453349,-1.40914 -2.720774,-1.40914 -0.267425,0 -1.107347,0.31699 -1.866492,0.70442 -0.759148,0.38743 -2.035112,0.95947 -2.835477,1.27118 l -1.455208,0.56677 -0.94144,3.82204 -0.941443,3.82205 -3.23091,0.0743 c -2.448859,0.0563 -3.25533,-0.008 -3.331805,-0.26458 z"
       style="display:inline;opacity:1;fill:#6eedd8;fill-opacity:1;stroke:#acacac;stroke-width:0.26458335;stroke-opacity:1"
       inkscape:label="deep aquamarine" />
    <path
       style="display:inline;opacity:1;fill:#acacac;fill-opacity:1;stroke:#acacac;stroke-width:0.26458335;stroke-opacity:1"
       d="m 28.943539,295.70742 c 1.055026,-0.0502 2.781432,-0.0502 3.836458,0 1.055026,0.0502 0.191823,0.0913 -1.918229,0.0913 -2.110052,0 -2.973255,-0.0411 -1.918229,-0.0913 z m -1.367994,-0.65525 c -0.05549,-0.18641 -0.494298,-1.93017 -0.975123,-3.87503 -0.780714,-3.15788 -0.946252,-3.56503 -1.547586,-3.80634 -0.370348,-0.14862 -1.66706,-0.73026 -2.881582,-1.29253 -1.214522,-0.56227 -2.405147,-1.02212 -2.645833,-1.02188 -0.240686,2.3e-4 -1.866361,0.89197 -3.612611,1.98164 -1.74625,1.08967 -3.296856,1.98245 -3.445791,1.98395 -0.362283,0.004 -4.3594178,-4.03082 -4.3594178,-4.40014 0,-0.15958 0.8334376,-1.66571 1.8520834,-3.34697 2.1213754,-3.50131 2.2075074,-3.99027 1.0946924,-6.21448 -0.416565,-0.83259 -0.90235,-1.9612 -1.0795223,-2.50802 -0.1771726,-0.54682 -0.5209563,-1.09719 -0.7639637,-1.22303 -1.0164675,-0.5264 -7.5691738,-1.93302 -7.6650471,-1.6454 -0.053912,0.16174 -0.2069156,0.22677 -0.3400075,0.14451 -0.3172868,-0.19609 -0.31675161,-7.52666 5.495e-4,-7.52666 0.1333941,0 0.2854036,0.12861 0.3377989,0.2858 0.061552,0.18465 1.488673,-0.0728 4.0327226,-0.72761 l 3.9374583,-1.01339 0.9894233,-2.47333 c 0.544183,-1.36033 1.12063,-2.60453 1.280993,-2.7649 0.544773,-0.54477 0.293797,-1.20511 -1.692806,-4.45393 -1.091406,-1.78485 -1.9843748,-3.37316 -1.9843748,-3.52959 0,-0.37007 4.0251368,-4.37305 4.3972508,-4.37305 0.156476,0 1.344467,0.66637 2.63998,1.48081 4.259795,2.67799 4.041049,2.65149 8.044019,0.97422 l 2.513542,-1.05319 0.983283,-3.94206 c 0.540806,-2.16814 0.919735,-4.15043 0.842067,-4.40509 -0.129511,-0.42464 0.146862,-0.46302 3.334025,-0.46302 3.186221,0 3.463703,0.0385 3.336496,0.46302 -0.07631,0.25466 0.30262,2.23872 0.842069,4.40901 l 0.98081,3.94599 2.513542,1.04239 c 1.382448,0.57331 2.89628,1.1021 3.364074,1.17509 0.916268,0.14296 1.418635,-0.0962 5.261964,-2.5053 l 2.143747,-1.34375 2.192946,2.2044 c 1.671701,1.68043 2.149451,2.31774 2.009958,2.68126 -0.100643,0.26227 -0.964142,1.75851 -1.918888,3.32499 -2.021176,3.31619 -2.017403,3.25302 -0.42363,7.09248 l 1.043382,2.51355 4.06114,1.04062 c 2.888395,0.74011 4.091432,0.94975 4.166031,0.72595 0.05769,-0.17306 0.213783,-0.24736 0.346874,-0.16511 0.133091,0.0823 0.241985,1.75214 0.241985,3.71086 v 3.5613 l -0.612246,-0.15366 c -0.564123,-0.14159 -6.451999,1.16206 -7.76192,1.71858 -0.322691,0.13709 -0.711528,0.67883 -0.898334,1.25159 -0.181158,0.55543 -0.669266,1.71558 -1.084689,2.57811 -0.415419,0.86253 -0.755311,1.9136 -0.755311,2.33572 0,0.48269 0.687245,1.90176 1.852083,3.82432 1.018646,1.68126 1.852084,3.19282 1.852084,3.35903 0,0.1662 -0.949256,1.24587 -2.109457,2.39927 l -2.109459,2.09709 -1.131687,-0.62802 c -0.622429,-0.3454 -2.137235,-1.26212 -3.366238,-2.03714 -1.229,-0.77503 -2.453349,-1.40914 -2.720774,-1.40914 -0.267425,0 -1.107347,0.31699 -1.866492,0.70442 -0.759148,0.38743 -2.035112,0.95947 -2.835477,1.27118 l -1.455208,0.56677 -0.94144,3.82204 -0.941443,3.82205 -3.23091,0.0743 c -2.448859,0.0563 -3.25533,-0.008 -3.331805,-0.26458 z"
       id="path9219"
       inkscape:connector-curvature="0"
       inkscape:label="medium gray" />
  </g>
</svg>
