<?xml version="1.0" encoding="UTF-8" standalone="no"?>
<svg
   xmlns:dc="http://purl.org/dc/elements/1.1/"
   xmlns:cc="http://creativecommons.org/ns#"
   xmlns:rdf="http://www.w3.org/1999/02/22-rdf-syntax-ns#"
   xmlns:svg="http://www.w3.org/2000/svg"
   xmlns="http://www.w3.org/2000/svg"
   xmlns:sodipodi="http://sodipodi.sourceforge.net/DTD/sodipodi-0.dtd"
   xmlns:inkscape="http://www.inkscape.org/namespaces/inkscape"
   width="185.18349"
   height="176.79234"
   viewBox="0 0 185.18348 176.79234"
   version="1.1"
   id="svg13"
   sodipodi:docname="drawing-events-social.svg"
   inkscape:version="0.92.2 5c3e80d, 2017-08-06">
  <metadata
     id="metadata17">
    <rdf:RDF>
      <cc:Work
         rdf:about="">
        <dc:format>image/svg+xml</dc:format>
        <dc:type
           rdf:resource="http://purl.org/dc/dcmitype/StillImage" />
        <dc:title>icon-slack</dc:title>
      </cc:Work>
    </rdf:RDF>
  </metadata>
  <sodipodi:namedview
     pagecolor="#ffffff"
     bordercolor="#666666"
     borderopacity="1"
     objecttolerance="10"
     gridtolerance="10"
     guidetolerance="10"
     inkscape:pageopacity="0"
     inkscape:pageshadow="2"
     inkscape:window-width="1509"
     inkscape:window-height="925"
     id="namedview15"
     showgrid="false"
     inkscape:pagecheckerboard="true"
     fit-margin-top="0"
     fit-margin-left="0"
     fit-margin-right="0"
     fit-margin-bottom="0"
     inkscape:zoom="1"
     inkscape:cx="-7.1319238"
     inkscape:cy="162.2208"
     inkscape:window-x="183"
     inkscape:window-y="23"
     inkscape:window-maximized="0"
     inkscape:current-layer="svg13"
     units="px" />
  <!-- Generator: Sketch 41.2 (35397) - http://www.bohemiancoding.com/sketch -->
  <title
     id="title2">icon-slack</title>
  <desc
     id="desc4">Created with Sketch.</desc>
  <ellipse
     style="display:inline;fill:#ffffff;fill-opacity:1;stroke:#000000;stroke-width:4;stroke-opacity:0.49803922;stroke-miterlimit:4;stroke-dasharray:none"
     id="path1170"
     cx="92.591743"
     cy="88.396172"
     inkscape:label="background circle"
     rx="89.155853"
     ry="84.960281" />
  <defs
     id="defs6" />
  <g
     id="g1189"
     inkscape:label="logos"
     transform="matrix(5.8251476,0,0,5.8251476,27.350639,17.464915)">
    <g
       inkscape:label="Slack logo"
       transform="translate(-0.54994,10.441119)"
       style="fill:#7f7f7f;fill-opacity:1;fill-rule:evenodd;stroke:none;stroke-width:1"
       id="Symbols">
      <g
         style="fill:#7f7f7f;fill-opacity:1"
         transform="translate(-1167,-6)"
         id="Menu">
        <g
           style="fill:#7f7f7f;fill-opacity:1"
           id="Group-36">
          <g
             style="fill:#7f7f7f;fill-opacity:1"
             transform="translate(1049,6)"
             id="Group-34">
            <path
               style="fill:#7f7f7f;fill-opacity:1"
               inkscape:connector-curvature="0"
               id="icon-slack"
               d="m 126.4078,7.882913 -0.7973,-2.3943043 -2.35332,0.8132174 0.797,2.3790869 z m 4.77534,-0.1141304 c 0,0.4866522 -0.25047,0.8287391 -0.70612,0.9882174 l -1.30585,0.4486087 0.42495,1.2694353 c 0.038,0.11413 0.0532,0.235565 0.0532,0.356999 0,0.600479 -0.48605,1.102653 -1.08547,1.102653 -0.47814,0 -0.90339,-0.296739 -1.05538,-0.752652 l -0.41765,-1.2545223 -2.35332,0.8059133 0.41765,1.246609 c 0.038,0.113826 0.0605,0.235565 0.0605,0.357304 0,0.592869 -0.48604,1.102348 -1.09337,1.102348 -0.47814,0 -0.89549,-0.296739 -1.04747,-0.752652 l -0.41766,-1.239 -1.16146,0.402652 c -0.12159,0.03804 -0.25047,0.06848 -0.37935,0.06848 -0.61523,0 -1.07817,-0.455913 -1.07817,-1.071609 0,-0.471435 0.30366,-0.8972172 0.75171,-1.0490867 l 1.18426,-0.4029566 -0.79731,-2.3793913 -1.18426,0.4105652 c -0.12159,0.038043 -0.24287,0.06087 -0.36446,0.06087 -0.60732,0 -1.07817,-0.4635217 -1.07817,-1.0716087 0,-0.4714348 0.30366,-0.8972174 0.75171,-1.0490869 l 1.19185,-0.402959 -0.40215,-1.2088695 c -0.038,-0.1138261 -0.0608,-0.2352609 -0.0608,-0.3566957 0,-0.6007826 0.48574,-1.1023478 1.09307,-1.1023478 0.47844,0 0.89579,0.2964348 1.04777,0.7523478 l 0.41006,1.2161739 2.35332,-0.798 -0.40975,-1.2161739 c -0.038,-0.1141304 -0.0611,-0.2355652 -0.0611,-0.3576087 0,-0.6001739 0.49364,-1.10204345 1.09337,-1.10204345 0.47845,0 0.9037,0.30404345 1.05538,0.75265215 l 0.40245,1.2237826 1.22986,-0.4181739 c 0.10638,-0.03013 0.21247,-0.045348 0.32646,-0.045348 0.59182,0 1.10066,0.4406957 1.10066,1.0487826 0,0.4714348 -0.36445,0.8667826 -0.7894,1.0110435 l -1.19186,0.4102608 0.797,2.4022174 1.24475,-0.4257826 c 0.11399,-0.038043 0.23558,-0.060565 0.34957,-0.060565 0.62252,0 1.10097,0.4559131 1.10097,1.0792174 z" />
          </g>
        </g>
      </g>
    </g>
    <g
       inkscape:label="Twitter logo"
       transform="translate(3.935162,-0.2503478)"
       style="fill:#7f7f7f;fill-opacity:1;fill-rule:evenodd;stroke:none;stroke-width:1"
       id="Symbols-7">
      <g
         style="fill:#7f7f7f;fill-opacity:1"
         id="Menu-9"
         transform="translate(-1120,-8)">
        <g
           style="fill:#7f7f7f;fill-opacity:1"
           id="Group-36-3">
          <g
             style="fill:#7f7f7f;fill-opacity:1"
             id="Group-34-8"
             transform="translate(1049,6)">
            <path
               style="fill:#7f7f7f;fill-opacity:1"
               inkscape:connector-curvature="0"
               d="m 82.004724,4.675087 c 0.0076,0.1065217 0.0076,0.2127391 0.0076,0.3192608 0,3.2458696 -2.467611,6.9856962 -6.976975,6.9856962 -1.389437,0 -2.680084,-0.402653 -3.765554,-1.102348 0.197276,0.02283 0.387255,0.03043 0.59213,0.03043 1.146263,0 2.201639,-0.387434 3.044238,-1.0490865 -1.07787,-0.022522 -1.981567,-0.7295218 -2.292526,-1.7025218 0.15168,0.022826 0.303664,0.037739 0.462943,0.037739 0.220377,0 0.44045,-0.030131 0.645324,-0.083391 C 72.598439,7.882913 71.755536,6.8946956 71.755536,5.7013478 V 5.670913 c 0.326461,0.1823044 0.706117,0.2964348 1.108571,0.3116522 -0.660522,-0.4406956 -1.093373,-1.1933478 -1.093373,-2.044913 0,-0.4559131 0.121284,-0.874087 0.334061,-1.2386957 1.207057,1.4894783 3.021745,2.4627826 5.056202,2.569 -0.038,-0.1823043 -0.06079,-0.3722174 -0.06079,-0.5624348 0,-1.3531304 1.093068,-2.4551739 2.452413,-2.4551739 0.705813,0 1.343842,0.2964348 1.791586,0.7751739 C 81.898336,2.919 82.429672,2.7141739 82.900518,2.4326522 82.718441,3.003 82.331186,3.4817391 81.822344,3.7857826 82.315988,3.7325217 82.794129,3.5955652 83.234578,3.4056522 82.900518,3.8923044 82.482866,4.3256956 82.004724,4.675087"
               id="icon-twitter" />
          </g>
        </g>
      </g>
    </g>
    <g
       inkscape:label="GitHub logo"
       transform="translate(13.255063,6.2835697)"
       style="fill:#7f7f7f;fill-opacity:1;fill-rule:evenodd;stroke:none;stroke-width:1"
       id="Symbols-0">
      <g
         style="fill:#7f7f7f;fill-opacity:1"
         id="Menu-5"
         transform="translate(-1049,-7)">
        <g
           style="fill:#7f7f7f;fill-opacity:1"
           id="Group-36-2">
          <g
             style="fill:#7f7f7f;fill-opacity:1"
             id="Group-34-2"
             transform="translate(1049,6)">
            <path
               style="fill:#7f7f7f;fill-opacity:1"
               inkscape:connector-curvature="0"
               d="m 4.2058818,10.808426 c -0.068393,0.01522 -0.113988,0.06087 -0.1063888,0.114131 0.0076,0.04565 0.068393,0.07609 0.1367856,0.06087 0.068393,-0.01522 0.1139879,-0.06087 0.1060847,-0.106522 -0.0073,-0.04565 -0.068089,-0.07578 -0.1364815,-0.06848 m -0.4328503,0.06087 c -0.068089,0 -0.1212831,0.03804 -0.1212831,0.0837 0,0.05296 0.053194,0.091 0.1291863,0.0837 0.068089,0 0.1212832,-0.03804 0.1212832,-0.0837 0,-0.05326 -0.060794,-0.091 -0.1291864,-0.0837 m -0.4477446,-0.07578 c -0.060794,-0.01552 -0.1291864,0.0076 -0.1443848,0.05296 -0.015198,0.04565 0.030701,0.09861 0.09879,0.11413 0.060794,0.02283 0.1288824,0 0.1440808,-0.04535 0.015502,-0.04596 -0.030093,-0.09922 -0.098486,-0.121739 M 2.9608294,10.58047 c -0.053194,-0.05326 -0.1215871,-0.06057 -0.15168,-0.02283 -0.037996,0.03043 -0.022798,0.09891 0.030093,0.144261 0.053194,0.05326 0.1215871,0.06117 0.1519839,0.02343 0.030397,-0.03074 0.015198,-0.09922 -0.030397,-0.144869 M 2.6723639,10.261209 c -0.030397,-0.05326 -0.09119,-0.07578 -0.1291864,-0.04565 -0.037692,0.02313 -0.037692,0.08369 0,0.136956 0.037996,0.05326 0.09879,0.07609 0.1291864,0.05326 0.037996,-0.03043 0.037996,-0.0913 0,-0.144565 M 2.4294936,9.9419478 c -0.037996,-0.038043 -0.09119,-0.052956 -0.1215872,-0.022826 -0.030397,0.022826 -0.022798,0.076087 0.015198,0.1220432 0.037996,0.03774 0.090886,0.05265 0.1215872,0.02252 0.030397,-0.02252 0.022798,-0.076087 -0.015198,-0.1217391 M 2.1559225,9.7139913 c -0.045595,-0.015217 -0.083591,-0.00761 -0.098486,0.014913 -0.015198,0.030739 0.0076,0.068783 0.05289,0.091609 0.037996,0.022826 0.083591,0.015217 0.09879,-0.015522 0.015198,-0.03013 -0.0073,-0.068174 -0.053194,-0.091 M 11.660998,7.2588174 c 0,2.576913 -1.6699998,4.7657826 -3.985627,5.5412606 -0.2960647,0.05326 -0.4024535,-0.129043 -0.4024535,-0.281217 0,-0.189913 0.0076,-0.820826 0.0076,-1.603609 0,-0.547522 -0.1820768,-0.897217 -0.3948543,-1.0795216 C 8.1839092,9.6911652 9.5505488,9.1969044 9.5505488,6.9547739 9.5505488,6.3162522 9.3225729,5.7991652 8.9508202,5.3886 9.0116137,5.2367304 9.2088889,4.6438609 8.8900266,3.8382522 8.404286,3.6860783 7.2881159,4.4384261 7.2881159,4.4384261 6.8251729,4.3093826 6.3239299,4.2409043 5.83059,4.2409043 c -0.4933398,0 -0.9945828,0.068478 -1.4578299,0.1975218 0,0 -1.115866,-0.7523478 -1.6016066,-0.6001739 C 2.4519872,4.6438609 2.6495663,5.2367304 2.7103599,5.3886 2.3383032,5.7991652 2.1103273,6.3162522 2.1103273,6.9547739 c 0,2.2348261 1.3590403,2.7363913 2.6575911,2.8809565 C 4.600736,9.9876 4.4487521,10.245991 4.3958617,10.618513 4.061801,10.770687 3.2116029,11.029078 2.7027607,10.131861 2.3838984,9.5770348 1.8066634,9.531687 1.8066634,9.531687 1.2373316,9.523777 1.7686674,9.8889913 1.7686674,9.8889913 c 0.3796559,0.1746957 0.6453238,0.8509567 0.6453238,0.8509567 0.3416599,1.041478 1.9663681,0.691782 1.9663681,0.691782 0,0.486348 0.0079,0.94287 0.0079,1.087131 0,0.152174 -0.1063888,0.334478 -0.4024535,0.281217 C 1.6701818,12.0246 1.8238072e-4,9.8357304 1.8238072e-4,7.2588174 c 0,-3.2230435 2.61138791928,-5.838 5.83040761928,-5.838 3.2190197,0 5.830408,2.6149565 5.830408,5.838"
               id="icon-github" />
          </g>
        </g>
      </g>
    </g>
  </g>
</svg>
