<?xml version="1.0" encoding="UTF-8" standalone="no"?>
<!-- Created with Inkscape (http://www.inkscape.org/) -->

<svg
   xmlns:dc="http://purl.org/dc/elements/1.1/"
   xmlns:cc="http://creativecommons.org/ns#"
   xmlns:rdf="http://www.w3.org/1999/02/22-rdf-syntax-ns#"
   xmlns:svg="http://www.w3.org/2000/svg"
   xmlns="http://www.w3.org/2000/svg"
   xmlns:sodipodi="http://sodipodi.sourceforge.net/DTD/sodipodi-0.dtd"
   xmlns:inkscape="http://www.inkscape.org/namespaces/inkscape"
   version="1.1"
   id="svg2"
   width="320.44083"
   height="382.41187"
   viewBox="0 0 320.44083 382.41187"
   sodipodi:docname="events-cold.svg"
   inkscape:version="0.92.2 5c3e80d, 2017-08-06">
  <metadata
     id="metadata8">
    <rdf:RDF>
      <cc:Work
         rdf:about="">
        <dc:format>image/svg+xml</dc:format>
        <dc:type
           rdf:resource="http://purl.org/dc/dcmitype/StillImage" />
        <dc:title />
      </cc:Work>
    </rdf:RDF>
  </metadata>
  <defs
     id="defs6" />
  <sodipodi:namedview
     pagecolor="#ffffff"
     bordercolor="#666666"
     borderopacity="1"
     objecttolerance="10"
     gridtolerance="10"
     guidetolerance="10"
     inkscape:pageopacity="0"
     inkscape:pageshadow="2"
     inkscape:window-width="1362"
     inkscape:window-height="921"
     id="namedview4"
     showgrid="false"
     inkscape:zoom="1.3828125"
     inkscape:cx="29.308367"
     inkscape:cy="191.43276"
     inkscape:window-x="200"
     inkscape:window-y="17"
     inkscape:window-maximized="0"
     inkscape:current-layer="g1236"
     fit-margin-top="0"
     fit-margin-left="0"
     fit-margin-right="0"
     fit-margin-bottom="0" />
  <g
     id="g12"
     style="display:inline"
     inkscape:label="cold temp"
     transform="translate(-101.94587,-65.020907)">
    <path
       style="display:inline;fill:#4ca1ed;fill-opacity:1"
       d="m 321.89247,402.55054 c -12.9446,-3.56976 -24.73862,-13.81646 -29.73109,-25.83052 -7.60958,-18.31193 -4.16397,-35.88258 9.76268,-49.78409 3.79485,-3.78801 8.69053,-7.51847 11.57594,-8.82076 2.75,-1.24118 7.56062,-4.18182 8.38562,-4.61421 1.21471,-0.63665 -0.29052,-2.52288 0.11438,-16.60789 l -0.12854,-20.85004 11.94281,0.31427 11.31427,0.31427 L 345,296.66992 c -0.0607,9.44727 0.41073,16.41489 0.68573,16.64439 0.275,0.22949 3.73927,2.71466 7.31427,4.37026 16.21257,7.50814 25.92714,22.71759 26.0696,40.81543 0.12842,16.31449 -8.53845,31.24518 -23.08423,39.76791 -9.08453,5.32285 -23.67485,7.15563 -34.0929,4.28263 z"
       id="path26"
       inkscape:connector-curvature="0"
       inkscape:label="low"
       sodipodi:nodetypes="sscccscccscssss" />
    <path
       style="display:inline;fill:#221f20"
       d="m 325.5,446.97972 c -11.1329,-1.01815 -19.50342,-3.37594 -30,-8.45037 C 264.28267,423.43778 245,392.87976 245,358.5 c 0,-23.81624 8.85119,-45.06321 26.1081,-62.67152 L 279,287.77587 v -86.75145 c 0,-54.15668 0.37931,-88.77528 1.00953,-92.13793 1.75789,-9.379402 8.25357,-21.402174 15.27632,-28.274705 11.20658,-10.96688 22.90165,-15.624722 39.14565,-15.590693 16.38844,0.03433 27.86968,5.131985 39.45698,17.518849 6.02521,6.440963 10.9782,15.244149 13.21512,23.487869 0.8969,3.30532 1.29614,27.66939 1.53013,93.37848 l 0.3166,88.90629 7.86181,8.09371 c 17.52544,18.04241 25.50179,37.40896 25.57407,62.09371 0.0731,24.96082 -8.07555,44.36332 -26.29327,62.60618 -11.44231,11.45811 -21.36238,17.64859 -35.09294,21.89928 -13.25549,4.10362 -22.62098,5.15209 -35.5,3.97426 z m 30,-21.41834 c 18.9996,-6.39361 33.40718,-19.12924 42.11011,-37.22337 9.75039,-20.27191 8.14863,-47.87587 -3.8698,-66.69024 -4.53096,-7.09303 -13.35127,-16.50077 -19.4705,-20.76721 l -4.23018,-2.94938 -0.26982,-94.21559 -0.26981,-92.0157 c -6.47916,-18.744669 -20.64902,-30.006963 -35.18573,-30.081317 -8.20254,-0.0036 -10.58935,2.244772 -15.48942,4.541834 -11.04487,5.177641 -18.57035,14.842643 -20.80977,26.726083 -0.63661,3.37812 -1.03619,38.98555 -1.07169,95.5 l -0.0566,90.11351 -6.05271,4.40921 c -19.4133,14.14196 -30.61417,41.22731 -26.90794,65.06734 2.60789,16.77507 8.54102,28.47196 20.57388,40.56042 6.53771,6.56792 9.73646,8.89004 17.5,12.70406 12.42891,6.106 20.47552,7.82484 34.5,7.36955 8.62345,-0.27995 12.7284,-0.93873 19,-3.0492 z"
       id="path16"
       inkscape:connector-curvature="0"
       inkscape:label="thermo"
       sodipodi:nodetypes="sssscscssscscssssscsscccccscscssssscc" />
    <g
       id="g1236"
       transform="matrix(0.35899039,0,0,0.35310734,92.866641,129.44633)"
       style="stroke-width:2.80869913"
       inkscape:label="snowflake">
      <path
         id="path1178"
         d="m 478.596,288.374 -92.326,24.739 -11.292,-6.519 V 205.406 l 11.292,-6.519 92.326,24.739 8.114,-30.279 -62.048,-16.625 60.879,-35.148 -15.673,-27.146 -60.879,35.148 16.625,-62.048 -30.279,-8.114 -24.739,92.327 -11.291,6.519 -87.63,-50.594 V 114.628 L 339.263,47.04 317.098,24.875 271.675,70.298 V 0 h -31.347 v 70.297 l -45.423,-45.422 -22.167,22.165 67.588,67.587 v 13.038 l -87.63,50.594 -11.291,-6.519 -24.739,-92.327 -30.279,8.114 16.625,62.048 -60.878,-35.148 -15.673,27.146 60.879,35.148 -62.049,16.626 8.114,30.279 92.326,-24.739 11.292,6.519 v 101.187 l -11.292,6.519 -92.326,-24.739 -8.114,30.279 62.048,16.625 -60.878,35.148 15.673,27.146 60.879,-35.148 -16.625,62.048 30.279,8.114 24.739,-92.327 11.291,-6.519 87.629,50.594 v 13.038 l -67.588,67.588 22.165,22.165 45.423,-45.423 V 512 h 31.347 v -70.297 l 45.423,45.422 22.165,-22.165 -67.588,-67.587 v -13.038 l 87.63,-50.594 11.291,6.519 24.739,92.327 30.279,-8.114 -16.625,-62.048 60.879,35.148 15.673,-27.146 -60.879,-35.148 62.048,-16.625 z M 343.63,288.495 287.347,256 343.63,223.505 Z m -15.672,-92.138 -56.284,32.495 V 163.86 Z m -87.631,-32.496 v 64.992 L 184.043,196.358 Z M 168.37,223.505 224.653,256 168.37,288.495 Z m 15.672,92.138 56.284,-32.495 v 64.992 z m 87.631,32.496 v -64.992 l 56.284,32.495 z"
         style="display:inline;fill:#a3d3ff;fill-opacity:1;stroke-width:2.80869913"
         inkscape:connector-curvature="0"
         inkscape:label="right" />
      <path
         id="path1180"
         d="M 256,512 V 0 h -15.673 v 70.297 l -45.423,-45.422 -22.166,22.165 67.588,67.587 v 13.038 l -87.63,50.594 -11.291,-6.519 -24.739,-92.327 -30.279,8.114 16.625,62.048 -60.878,-35.148 -15.673,27.146 60.879,35.148 -62.049,16.626 8.114,30.279 92.326,-24.739 11.292,6.519 v 101.187 l -11.292,6.519 -92.326,-24.739 -8.114,30.279 62.048,16.625 -60.878,35.148 15.673,27.146 60.879,-35.148 -16.625,62.048 30.279,8.114 24.739,-92.327 11.291,-6.519 87.629,50.594 v 13.038 l -67.588,67.588 22.165,22.165 45.423,-45.423 V 512 Z M 240.327,163.861 v 64.992 L 184.043,196.358 Z M 168.37,223.505 224.653,256 168.37,288.495 Z m 15.672,92.138 56.284,-32.495 v 64.992 z"
         style="fill:#a3d3ff;fill-opacity:1;stroke-width:2.80869913"
         inkscape:connector-curvature="0"
         inkscape:label="left" />
    </g>
  </g>
</svg>
