<?xml version="1.0" encoding="UTF-8" standalone="no"?>
<!-- Created with Inkscape (http://www.inkscape.org/) -->

<svg
   xmlns:dc="http://purl.org/dc/elements/1.1/"
   xmlns:cc="http://creativecommons.org/ns#"
   xmlns:rdf="http://www.w3.org/1999/02/22-rdf-syntax-ns#"
   xmlns:svg="http://www.w3.org/2000/svg"
   xmlns="http://www.w3.org/2000/svg"
   xmlns:sodipodi="http://sodipodi.sourceforge.net/DTD/sodipodi-0.dtd"
   xmlns:inkscape="http://www.inkscape.org/namespaces/inkscape"
   version="1.1"
   id="svg2"
   width="323.2887"
   height="382.41187"
   viewBox="0 0 323.28871 382.41187"
   sodipodi:docname="events-average.svg"
   inkscape:version="0.92.2 5c3e80d, 2017-08-06"
   inkscape:export-filename="/Users/Matt/openwhisk/release/incubator-openwhisk-website/images/elements/events-average.png"
   inkscape:export-xdpi="98.790001"
   inkscape:export-ydpi="98.790001">
  <metadata
     id="metadata8">
    <rdf:RDF>
      <cc:Work
         rdf:about="">
        <dc:format>image/svg+xml</dc:format>
        <dc:type
           rdf:resource="http://purl.org/dc/dcmitype/StillImage" />
        <dc:title></dc:title>
      </cc:Work>
    </rdf:RDF>
  </metadata>
  <defs
     id="defs6" />
  <sodipodi:namedview
     pagecolor="#ffffff"
     bordercolor="#666666"
     borderopacity="1"
     objecttolerance="10"
     gridtolerance="10"
     guidetolerance="10"
     inkscape:pageopacity="0"
     inkscape:pageshadow="2"
     inkscape:window-width="1362"
     inkscape:window-height="921"
     id="namedview4"
     showgrid="false"
     inkscape:zoom="0.92570352"
     inkscape:cx="161.64435"
     inkscape:cy="147.99556"
     inkscape:window-x="268"
     inkscape:window-y="37"
     inkscape:window-maximized="0"
     inkscape:current-layer="svg2"
     fit-margin-top="0"
     fit-margin-left="0"
     fit-margin-right="0"
     fit-margin-bottom="0"
     inkscape:pagecheckerboard="true" />
  <g
     id="g12"
     style="display:inline"
     inkscape:label="average temp"
     transform="translate(-99.098005,-65.020907)">
    <path
       style="display:inline;fill:#2ca05a;fill-opacity:1"
       d="m 321.89247,402.55054 c -12.9446,-3.56976 -24.73862,-13.81646 -29.73109,-25.83052 -7.60958,-18.31193 -4.16397,-35.88258 9.76268,-49.78409 3.79485,-3.78801 8.69053,-7.51847 11.57594,-8.82076 2.75,-1.24118 7.56062,-4.18182 8.38562,-4.61421 1.21471,-0.63665 0.13969,-2.51709 0.11438,-16.60789 l -0.19829,-110.39539 c 14.36747,-11.83297 17.59505,-3.8028 23.4572,-0.23199 L 345,296.66992 c -0.0222,9.44744 0.41073,16.41489 0.68573,16.64439 0.275,0.22949 3.73927,2.71466 7.31427,4.37026 16.21257,7.50814 25.92714,22.71759 26.0696,40.81543 0.12842,16.31449 -8.53845,31.24518 -23.08423,39.76791 -9.08453,5.32285 -23.67485,7.15563 -34.0929,4.28263 z"
       id="path26"
       inkscape:connector-curvature="0"
       inkscape:label="green"
       sodipodi:nodetypes="sscccsccscssss"
       inkscape:export-xdpi="98.790001"
       inkscape:export-ydpi="98.790001" />
    <path
       style="display:inline;fill:#221f20"
       d="m 325.5,446.97972 c -11.1329,-1.01815 -19.50342,-3.37594 -30,-8.45037 C 264.28267,423.43778 245,392.87976 245,358.5 c 0,-23.81624 8.85119,-45.06321 26.1081,-62.67152 L 279,287.77587 v -86.75145 c 0,-54.15668 0.37931,-88.77528 1.00953,-92.13793 1.75789,-9.379402 8.25357,-21.402174 15.27632,-28.274705 11.20658,-10.96688 22.90165,-15.624722 39.14565,-15.590693 16.38844,0.03433 27.86968,5.131985 39.45698,17.518849 6.02521,6.440963 10.9782,15.244149 13.21512,23.487869 0.8969,3.30532 1.29614,27.66939 1.53013,93.37848 l 0.3166,88.90629 7.86181,8.09371 c 17.52544,18.04241 25.50179,37.40896 25.57407,62.09371 0.0731,24.96082 -8.07555,44.36332 -26.29327,62.60618 -11.44231,11.45811 -21.36238,17.64859 -35.09294,21.89928 -13.25549,4.10362 -22.62098,5.15209 -35.5,3.97426 z m 30,-21.41834 c 18.9996,-6.39361 33.40718,-19.12924 42.11011,-37.22337 9.75039,-20.27191 8.14863,-47.87587 -3.8698,-66.69024 -4.53096,-7.09303 -13.35127,-16.50077 -19.4705,-20.76721 l -4.23018,-2.94938 -0.26982,-94.21559 -0.26981,-92.0157 c -6.47916,-18.744669 -20.64902,-30.006963 -35.18573,-30.081317 -8.20254,-0.0036 -10.58935,2.244772 -15.48942,4.541834 -11.04487,5.177641 -18.57035,14.842643 -20.80977,26.726083 -0.63661,3.37812 -1.03619,38.98555 -1.07169,95.5 l -0.0566,90.11351 -6.05271,4.40921 c -19.4133,14.14196 -30.61417,41.22731 -26.90794,65.06734 2.60789,16.77507 8.54102,28.47196 20.57388,40.56042 6.53771,6.56792 9.73646,8.89004 17.5,12.70406 12.42891,6.106 20.47552,7.82484 34.5,7.36955 8.62345,-0.27995 12.7284,-0.93873 19,-3.0492 z"
       id="path16"
       inkscape:connector-curvature="0"
       inkscape:label="thermo"
       sodipodi:nodetypes="sssscscssscscssssscsscccccscscssssscc" />
  </g>
  <g
     id="g227"
     transform="matrix(0.27818561,0,0,0.27818561,-0.14998805,25.402949)"
     style="display:inline;fill:#ffcc00;stroke-width:3.59472227"
     inkscape:label="sun">
    <g
       id="g160"
       style="display:inline;fill:#ffcc00;stroke-width:3.59472227"
       inkscape:label="sun composite">
      <path
         style="display:inline;fill:#ffcc00;stroke-width:3.59472227"
         d="m 593.235,286.701 c -28.86931,0.24627 -57.78669,-0.49764 -86.62529,0.38099 -26.39726,5.26465 -13.9369,45.56522 10.84222,38.17201 27.7216,-0.89042 55.90709,1.85932 83.31391,-1.52344 18.77427,-7.55816 13.14347,-37.73097 -7.53084,-37.02956 z"
         id="path142"
         inkscape:connector-curvature="0"
         inkscape:label="E" />
      <path
         style="display:inline;fill:#ffcc00;stroke-width:3.59472227"
         d="m 464.305,175.861 c 20.58524,-22.00448 43.83302,-41.93581 62.60786,-65.35247 9.50365,-24.242979 -26.49723,-36.429858 -37.42154,-14.713463 -18.58469,19.953913 -39.78848,37.865723 -56.56321,59.234013 -8.4864,18.76572 17.29271,35.43531 31.37689,20.83192 z"
         id="path144"
         inkscape:connector-curvature="0"
         inkscape:label="NE" />
      <path
         style="display:inline;fill:#ffcc00;stroke-width:3.59472227"
         d="m 464.305,436.836 c -19.69924,-21.03558 -47.62927,16.5026 -23.43772,30.80889 20.4112,19.32571 38.94416,41.12984 60.60891,58.80386 24.65076,9.88495 36.88972,-26.10604 15.08569,-37.31559 C 499.14292,471.70077 481.72396,454.26839 464.305,436.836 Z"
         id="path146"
         inkscape:connector-curvature="0"
         inkscape:label="SE" />
      <path
         style="display:inline;fill:#ffcc00;stroke-width:3.59472227"
         d="m 306.178,121.665 c 20.93215,0.0322 20.33832,-23.126912 19.461,-38.179803 -0.90073,-23.908923 1.87596,-48.288773 -1.52541,-71.881103 -10.58271,-23.65317 -44.3871,-6.693972 -37.04959,16.183816 0.89375,27.37357 -1.84399,55.195286 1.47161,82.27257 2.79,7.02966 10.11363,11.73928 17.64239,11.60452 z"
         id="path148"
         inkscape:connector-curvature="0"
         inkscape:label="N" />
      <path
         style="display:inline;fill:#ffcc00;stroke-width:3.59472227"
         d="m 306.178,491.032 c -20.84288,0.0451 -19.8693,23.26104 -19.114,38.1808 0.88052,23.81556 -1.82599,48.08703 1.47161,71.59872 10.50911,24.37865 44.3967,6.25616 37.10339,-16.57043 -0.88668,-27.15223 1.85484,-54.76788 -1.52541,-81.60457 -2.9237,-7.04711 -10.35017,-11.71376 -17.93559,-11.60452 z"
         id="path150"
         inkscape:connector-curvature="0"
         inkscape:label="S" />
      <path
         style="display:inline;fill:#ffcc00;stroke-width:3.59472227"
         d="m 411.132,200.847 c -54.80314,-58.93177 -158.14809,-58.16082 -212.09955,1.76043 -58.68232,56.79403 -54.45078,161.59918 7.59414,214.1827 56.71227,53.60994 155.5652,49.65461 207.60377,-8.66448 C 469.5355,352.84357 468.37897,254.36902 411.132,200.847 Z m -26.766,183.201 c -44.41937,48.0962 -130.75484,41.04451 -167.45214,-12.97873 -36.78671,-48.31436 -23.61347,-124.98466 28.41752,-157.10953 50.44303,-36.04964 127.68821,-17.1173 157.0031,37.20658 24.76117,41.55211 17.20204,99.48866 -17.96848,132.88168 z"
         id="path152"
         inkscape:connector-curvature="0"
         inkscape:label="circle" />
      <path
         style="display:inline;fill:#ffcc00;stroke-width:3.59472227"
         d="m 149.089,175.861 c 21.23826,20.62246 46.52001,-18.33522 22.21451,-32.03408 C 152.18801,125.11713 133.84025,105.54275 114.24468,87.373578 91.468116,72.814645 72.008494,109.13504 94.911246,121.67132 112.9705,139.73455 131.02975,157.79777 149.089,175.861 Z"
         id="path154"
         inkscape:connector-curvature="0"
         inkscape:label="NW" />
      <path
         style="display:inline;fill:#ffcc00;stroke-width:3.59472227"
         d="m 148.4,436.836 c -20.6616,21.89662 -44.11373,41.59976 -62.8815,64.98783 -9.75018,24.1954 26.64341,36.37188 37.72462,15.11433 18.36168,-18.75798 37.55546,-36.76961 55.39469,-55.9962 C 191.23224,441.96365 164.18093,419.77391 148.4,436.836 Z"
         id="path156"
         inkscape:connector-curvature="0"
         inkscape:label="SW" />
      <path
         style="display:inline;fill:#ffcc00;stroke-width:3.59472227"
         d="m 121.983,305.83 c -0.0337,-20.8456 -23.242441,-19.88928 -38.164803,-19.128 -23.914012,0.87241 -48.270307,-1.81682 -71.887041,1.47703 -23.687753,10.36802 -6.5691455,44.39273 16.190754,37.07597 26.214246,-0.26176 52.481062,0.52432 78.66238,-0.39375 8.81841,-1.64284 15.38886,-10.137 15.19871,-19.03125 z"
         id="path158"
         inkscape:connector-curvature="0"
         inkscape:label="W" />
    </g>
  </g>
  <ellipse
     style="fill:#ffeeaa;fill-opacity:1;stroke:none;stroke-width:1;stroke-opacity:1"
     id="path1066"
     cx="84.833351"
     cy="110.32016"
     rx="30.689955"
     ry="31.062868"
     inkscape:label="solid sun interior" />
</svg>
