<?xml version="1.0" ?><svg enable-background="new 0 0 500 500" id="Layer_1" version="1.1" viewBox="0 0 500 500" xml:space="preserve" xmlns="http://www.w3.org/2000/svg" xmlns:xlink="http://www.w3.org/1999/xlink"><g><ellipse cx="258.977" cy="264.016" fill="#4384EC" rx="196.695" ry="196.695" transform="matrix(0.6604 -0.7509 0.7509 0.6604 -110.3035 284.1465)"/><path d="M388.867,116.308c-19.107-16.803-40.558-29.232-63.128-37.366c2.593,2.06,5.149,4.194,7.664,6.405   c81.576,71.737,89.553,196.021,17.817,277.598c-54.934,62.469-140.682,81.778-214.47,55.183   c81.526,64.768,200.409,54.84,269.934-24.222C478.42,312.329,470.444,188.045,388.867,116.308z" fill="#2C6CD3"/><path d="M305.128,189.197l-4.341,2.473c-2.188,1.247-4.925,0.967-6.816-0.696l-0.616-0.542   c-3.321-2.92-2.367-8.321,1.754-9.927l4.957-1.931c3.078-1.199,6.54,0.362,7.679,3.462v0   C308.738,184.743,307.632,187.77,305.128,189.197z" fill="#FFFFFF"/><path d="M75.193,190.249l14.956-4.304l4.731,1.795c7.371,2.796,14.711-4.161,12.313-11.671l-0.866-2.712   l27.065-27.417c4.298-4.354,11.415-4.053,15.329,0.65l0,0c4.331,5.204,2.586,13.096-3.536,15.988l-2.671,1.262   c-4.994,2.359-6.488,8.756-3.055,13.083l4.808,6.061c1.99,2.508,2.416,5.916,1.107,8.837l-7.871,17.56   c-0.135,5.976-5.731,10.316-11.553,8.96l-8.205-1.911c-15.784-3.676-32.178-3.875-48.046-0.582l-2.851,0.591   c-5.551,22.865-6.929,46.468-4.202,69.634l17.124,15.058c3.622,3.185,9.04-0.776,7.105-5.193l-3.238-7.392   c-0.353-0.805-0.462-1.695-0.315-2.562l4.515-26.637c6.785-8.983,19.239-11.428,28.916-5.676l17.189,10.216   c2.24,0.373,4.515,0.488,6.781,0.343l10.375-0.666c8.977-0.576,16.867-6.15,20.409-14.419l8.816-20.579   c1.507-3.518,1.283-7.537-0.605-10.866l0,0c-1.979-3.489-2.124-7.727-0.388-11.343l9.07-18.894c0.994-2.07,2.549-3.819,4.489-5.047   l7.726-4.893c7.684-4.867,8.539-15.75,1.709-21.756l-10.927-9.609c-5.562-4.891-6.202-13.327-1.442-19.001l11.891-14.174   c4.324-5.155,11.768-6.373,17.51-2.867l0,0c5.74,3.505,13.179,2.289,17.505-2.861l16.575-19.732c0,0,3.645-12.413,6.044-21.202   c-9.761-0.07-19.516,0.591-29.182,1.96l-6.558,8.507c-8.141,10.56-19.676,17.988-32.659,21.03l-0.452,0.106   c-8.435,1.976-16.479-4.185-16.778-12.744l0-0.005c-23.558,11.13-45.282,27.138-63.581,47.948   C94.964,150.53,83.301,169.882,75.193,190.249z" fill="#FFFFFF"/><path d="M166.404,308.834l3.11,37.685l15.833,21.585l-0.087,0.61c-1.17,8.222-8.942,13.822-17.111,12.33   l-0.574-0.105c-5.856-1.069-8.722,6.737-3.626,9.659c17.264,9.902,38.5,22.088,49.103,28.173c4.209,2.416,9.31,2.683,13.751,0.727   l11.744-5.172c5.199-2.29,11.184-1.933,16.074,0.958l25.081,14.826l0.051,0.03c3.326,1.971,7.397,2.223,10.94,0.676l23.963-10.457   c3.92-1.711,6.557-5.468,6.833-9.736l0.32-4.943c0.383-5.918,5.23-10.56,11.159-10.687l18.135-0.388   c1.32-0.028,2.635-0.182,3.926-0.459l11.739-2.52c6.64-1.426,12.167-6,14.809-12.255l13.531-32.034   c0.878-2.077,0.953-4.407,0.211-6.536l-2.791-8.016c-1.438-4.131,0.265-8.701,4.056-10.884l0,0   c5.778-3.326,13.054,0.48,13.615,7.123l0.688,8.138c0.718,8.495,9.347,13.959,17.333,10.975l10.38-3.878   c10.606-23.726,16.241-49.027,16.983-74.388l-1.864-2.105c-9.423-10.638-24.579-14.083-37.675-8.565l-36.846,21.758   c-10.357,4.708-12.653,13.712-16.156,20.562c-1.427,2.791-2.204,5.832-2.621,8.938c-0.886,6.604-7.169,11.549-14.164,10.293   l-5.75-1.033c-7.922-1.423-13.371,7.737-8.341,14.02l3.941,4.923c4.22,5.271,6.608,11.774,6.802,18.524l0.105,3.663   c0.205,7.131-6.763,12.277-13.514,9.992c-5.754-1.947-12.099-0.502-16.006,4.149l-9.137,10.876   c-11.294,2.532-22.586-4.254-25.65-15.416l-12.983-47.299c-2.983-14.948-15.8-25.919-31.03-26.561l-2.854-0.106   c-6.175-0.229-11.662-4.003-14.084-9.688l-0.156-0.365c-4.267-10.021-16.756-13.349-25.398-6.803   c-6.681,5.061-13.995,10.589-19.252,14.561C168.403,297.63,165.935,303.152,166.404,308.834z" fill="#FFFFFF"/><path d="M315.856,215.9c6.429,2.01,10.236,8.63,8.72,15.194c-1.874,8.116-4.604,17.558-7.254,18.112   c-2.163,0.452-9.364,1.083-16.5,1.632c-8.416,0.648-15.18-6.822-13.691-15.131v0c0.539-3.006,2.126-5.723,4.481-7.667l11.93-9.854   c3.362-2.777,7.899-3.667,12.061-2.365L315.856,215.9z" fill="#FFFFFF"/><path d="M445.762,202.312c-25.945,44.953-66.358,92.211-115.535,134.808   c-54.011,46.785-112.081,82.31-163.992,100.397c6.649,3.561,13.451,6.703,20.369,9.44c49.752-19.962,103.741-54.123,154.099-97.743   c45.643-39.536,84.02-83.134,110.805-125.498C450.001,216.495,448.079,209.349,445.762,202.312z" fill="#2A63D8"/><path d="M453.721,267.768c-9.423-10.638-24.579-14.083-37.676-8.565l-20.382,8.588   c-6.098,34.18-21.322,67.179-45.923,95.155c-24.206,27.526-54.399,46.66-86.912,57.191l16.875,9.975   c0.017,0.01,0.034,0.02,0.051,0.03c3.25,1.931,7.188,2.314,10.653,0.801l24.249-10.582c3.92-1.711,6.557-5.468,6.833-9.736   l0.32-4.943c0.383-5.918,5.23-10.56,11.159-10.687l18.136-0.388c1.32-0.028,2.635-0.182,3.926-0.459l11.739-2.52   c6.64-1.426,12.167-6,14.809-12.255l13.531-32.034c0.877-2.077,0.953-4.407,0.211-6.536l-2.791-8.016   c-1.438-4.131,0.265-8.701,4.056-10.884c5.778-3.326,13.054,0.48,13.615,7.123l0.688,8.138c0.718,8.495,9.347,13.959,17.333,10.975   l10.38-3.878c10.606-23.726,16.241-49.027,16.982-74.388L453.721,267.768z" fill="#F2F2F2"/><g><path d="M416.045,259.203l-15.074,6.352c-12.32,14.735-25.873,29.372-40.471,43.679    c-0.204,6.545-5.672,11.791-12.241,11.696c-4.993,4.648-10.099,9.249-15.3,13.803l3.149,3.933    c2.381,2.974,4.155,6.348,5.304,9.929c33.593-29.178,63.222-60.546,87.159-91.987C424.353,256.649,420.1,257.494,416.045,259.203z    " fill="#CAD8EF"/><path d="M281.026,375.847c-23.169,16.486-46.511,30.696-69.288,42.17c0.453,0.26,0.896,0.514,1.316,0.755    c4.209,2.416,9.31,2.683,13.751,0.727l11.744-5.172c4.297-1.892,9.128-1.972,13.436-0.313    c14.193-8.531,28.451-17.971,42.615-28.224C288.976,384.448,284.044,380.892,281.026,375.847z" fill="#CAD8EF"/></g><path d="M92.844,458.834c-25.634,0.001-45.665-7.499-58.546-22.37c-21.984-25.38-19.725-68.459,6.361-121.301   c1.956-3.961,6.752-5.587,10.715-3.632c3.961,1.956,5.588,6.753,3.632,10.715c-22.719,46.021-25.859,83.834-8.614,103.743   c17.51,20.215,56.115,22.261,105.915,5.612c52.837-17.665,112.386-53.77,167.678-101.664s99.522-101.684,124.544-151.46   c23.583-46.915,27.066-85.416,9.555-105.632c-18.394-21.235-59.42-22.439-112.56-3.304c-4.157,1.496-8.74-0.66-10.237-4.816   c-1.497-4.157,0.66-8.74,4.816-10.237c60.58-21.815,106.775-19.017,130.075,7.882c22.29,25.732,19.678,69.519-7.353,123.293   c-25.94,51.603-71.527,107.135-128.364,156.368S212.155,428.463,157.38,446.776C133.285,454.832,111.569,458.834,92.844,458.834z" fill="#F2F2F2"/></g></svg>