<?xml version="1.0" encoding="UTF-8"?>
<svg width="386px" height="363px" viewBox="0 0 386 363" version="1.1" xmlns="http://www.w3.org/2000/svg" xmlns:xlink="http://www.w3.org/1999/xlink">
    <!-- Generator: Sketch 41.2 (35397) - http://www.bohemiancoding.com/sketch -->
    <title>illustration-integrator-community</title>
    <desc>Created with Sketch.</desc>
    <defs></defs>
    <g id="Service-Integrator" stroke="none" stroke-width="1" fill="none" fill-rule="evenodd">
        <g id="Service-Developer" transform="translate(-252.000000, -450.000000)">
            <g id="illustration-integrator-community" transform="translate(252.000000, 450.000000)">
                <g id="peeps-bigger" transform="translate(0.000000, 142.477500)">
                    <g id="Group-3">
                        <ellipse id="Oval-Copy-3" fill="#90E5FD" cx="40.4888753" cy="41" rx="40.4888753" ry="41"></ellipse>
                        <path d="M61.0399631,49.8203882 C61.8224291,49.9068011 62.5332533,49.3342822 62.6192766,48.5480051 L63.1383461,43.7993089 C63.2243694,43.0132993 62.6544317,42.2995235 61.8719657,42.212843 C61.0892334,42.1266977 60.3786755,42.6992165 60.2926522,43.4852261 L59.7733164,48.2339223 C59.6872931,49.0201994 60.2572308,49.7342428 61.0399631,49.8203882 Z" id="Fill-1" fill="#FFFFFF"></path>
                        <path d="M20.2764701,49.8203882 L20.2764701,49.8203882 C19.4937379,49.9068011 18.7831799,49.3342822 18.6971566,48.5480051 L18.1778208,43.7993089 C18.0917975,43.0132993 18.6620016,42.2995235 19.4444675,42.212843 L19.4444675,42.212843 C20.2271998,42.1266977 20.9377577,42.6992165 21.023781,43.4852261 L21.5431168,48.2339223 C21.6291402,49.0201994 21.0589361,49.7342428 20.2764701,49.8203882" id="Fill-3" fill="#FFFFFF"></path>
                        <path d="M62.2970754,28.0395231 L60.2479627,52.1286558 C59.8644532,56.6381783 57.2565885,60.654639 53.3027119,62.8245925 L47.3434001,66.0957085 C46.3247029,66.6551183 45.1824305,66.948066 44.0215152,66.948066 L40.6580835,66.948066 L37.2949181,66.948066 C36.1340028,66.948066 34.9917303,66.6551183 33.9727669,66.0957085 L28.0137214,62.8245925 C24.0598448,60.654639 21.4519801,56.6381783 21.0682042,52.1286558 L19.0193579,28.0395231 L41.1209581,16.3994654 L62.2970754,28.0395231 Z" id="Fill-13" fill="#FFFFFF"></path>
                        <path d="M34.2696405,47.7608719 L27.142489,47.7608719 C25.384737,47.7608719 23.9465763,46.3164657 23.9465763,44.5504857 L23.9465763,40.2507085 C23.9465763,39.80607 24.3087798,39.4419587 24.7514137,39.4419587 L36.6607158,39.4419587 C37.1033497,39.4419587 37.4655532,39.80607 37.4655532,40.2507085 L37.4655532,44.5504857 C37.4655532,46.3164657 36.0273925,47.7608719 34.2696405,47.7608719" id="Fill-15"></path>
                        <path d="M54.7945639,47.7608719 L47.6674124,47.7608719 C45.9096604,47.7608719 44.4714997,46.3164657 44.4714997,44.5504857 L44.4714997,40.2507085 C44.4714997,39.80607 44.8337031,39.4419587 45.276337,39.4419587 L57.1856392,39.4419587 C57.6282731,39.4419587 57.9904765,39.80607 57.9904765,40.2507085 L57.9904765,44.5504857 C57.9904765,46.3164657 56.5523158,47.7608719 54.7945639,47.7608719" id="Fill-19"></path>
                        <path d="M25.6474677,34.3215533 L24.6689857,33.4143516 L24.9121414,33.1497623 C27.1261099,30.7398324 30.4631754,29.7574542 33.6215361,30.5860014 L33.9685589,30.6769623 L33.6324554,31.971283 L33.2854326,31.8803221 C30.6040619,31.1777826 27.7703526,32.0108778 25.8908897,34.0569639 L25.6474677,34.3215533 Z" id="Fill-29" fill="#29648F"></path>
                        <path d="M56.3025286,32.62152 L56.0583076,32.3580008 C54.1700559,30.3199407 51.3328845,29.4983493 48.654177,30.2131953 L48.3074205,30.3057614 L47.9654578,29.0130459 L48.3122144,28.9204798 C51.4673791,28.078021 54.8084395,29.0464875 57.0327947,31.4462511 L57.2770157,31.7097703 L56.3025286,32.62152 Z" id="Fill-31" fill="#29648F"></path>
                        <path d="M43.0070526,60.0987071 L36.8048515,60.0987071 C35.3339327,60.0987071 33.9130832,59.5641778 32.8041015,58.5933035 L30.796003,56.8353495 L31.6711505,55.8267532 L33.6792489,57.5849747 C34.5456076,58.3431609 35.6556546,58.7610462 36.8048515,58.7610462 L43.0070526,58.7610462 L43.0070526,60.0987071 Z" id="Fill-45" fill="#29648F"></path>
                        <path d="M33.2746996,19.0641126 L29.3360036,19.0641126 C23.6059986,19.0641126 18.9607395,23.7301414 18.9607395,29.4863639 L18.9607395,35.0216047 C18.9607395,35.6069651 19.7168392,35.8357052 20.0388274,35.347994 L22.3438794,31.8556289 C24.5799529,28.4670663 27.4360335,25.5359837 30.760049,23.2175498 L33.9330576,21.0045236 C34.809803,20.3932125 34.3405365,19.0103387 33.2746996,19.0641126" id="Fill-47" fill="#29648F"></path>
                        <path d="M18.9608461,32.1656184 L18.9608461,40.487207 C18.9608461,40.7047106 19.1363549,40.8810143 19.3526117,40.8810143 L21.0025016,40.8810143 C21.2643001,40.8810143 21.4523263,40.6279289 21.3782877,40.375646 L18.9608461,32.1656184 Z" id="Fill-51" fill="#29648F"></path>
                        <path d="M48.0416271,19.0641126 L51.9803231,19.0641126 C57.7103282,19.0641126 62.3555872,23.7301414 62.3555872,29.4863639 L62.3555872,35.0216047 C62.3555872,35.6069651 61.5994875,35.8357052 61.2774993,35.347994 L58.9724473,31.8556289 C56.7363738,28.4670663 53.8805595,25.5359837 50.5562777,23.2175498 L47.3832691,21.0045236 C46.5065237,20.3932125 46.9757902,19.0103387 48.0416271,19.0641126" id="Fill-53" fill="#29648F"></path>
                        <path d="M62.3556138,32.1656184 L62.3556138,40.487207 C62.3556138,40.7047106 62.180105,40.8810143 61.9635819,40.8810143 L60.3139583,40.8810143 C60.0521598,40.8810143 59.8638673,40.6279289 59.9381722,40.375646 L62.3556138,32.1656184 Z" id="Fill-57" fill="#29648F"></path>
                        <path d="M53.7041718,17.9279035 C52.5568391,23.1399654 48.1494092,26.5119411 41.2973725,26.5119411 C34.4453358,26.5119411 28.8905733,23.2657056 28.8905733,17.9279035 C35.9332995,17.9279035 35.7599212,13.4384459 41.2973725,10.7936228 C48.3507517,7.42485752 54.6395089,13.6784223 53.7041718,17.9279035" id="Fill-59" fill="#29648F"></path>
                        <polygon id="Fill-68" fill="#29648F" points="38.2868228 55.5478027 43.0292909 55.5478027 43.0292909 54.2101418 38.2868228 54.2101418"></polygon>
                        <path d="M38.1314482,42.3544539 L38.201412,42.3192406 C39.9520691,41.4387952 42.0277277,41.4013919 43.8057645,42.2070309 L43.8057645,40.2505212 C43.8057645,39.4361533 44.4654541,38.7732085 45.2764169,38.7732085 L57.1854528,38.7732085 C57.9964156,38.7732085 58.6563716,39.4361533 58.6563716,40.2505212 L58.6563716,41.0785601 L63.4206517,41.0785601 C63.788448,41.0785601 64.0864669,41.3779286 64.0864669,41.7473906 C64.0864669,42.1168525 63.788448,42.416221 63.4206517,42.416221 L58.6563716,42.416221 L58.6563716,44.550566 C58.6563716,46.6894858 56.9239206,48.4297826 54.7946438,48.4297826 L47.6674922,48.4297826 C45.5379491,48.4297826 43.8057645,46.6894858 43.8057645,44.550566 L43.8057645,43.6974355 L43.4440404,43.515377 C41.9893675,42.7834089 40.2526553,42.7834089 38.7979824,43.515377 L38.1572019,43.8380208 L38.1314482,43.7864071 L38.1314482,44.550566 C38.1314482,46.6894858 36.3989972,48.4297826 34.2697204,48.4297826 L27.1425689,48.4297826 C25.0130257,48.4297826 23.2808411,46.6894858 23.2808411,44.550566 L23.2808411,42.416221 L18.4325351,42.416221 C18.0647388,42.416221 17.7667199,42.1168525 17.7667199,41.7473906 C17.7667199,41.3779286 18.0647388,41.0785601 18.4325351,41.0785601 L23.2808411,41.0785601 L23.2808411,40.2505212 C23.2808411,39.4361533 23.9405307,38.7732085 24.7514936,38.7732085 L36.6605294,38.7732085 C37.4714922,38.7732085 38.1314482,39.4361533 38.1314482,40.2505212 L38.1314482,42.3544539 Z M45.2764169,40.1108694 C45.2010467,40.1108694 45.1373947,40.1748096 45.1373947,40.2505212 L45.1373947,44.550566 C45.1373947,45.9518996 46.2722101,47.0921217 47.6674922,47.0921217 L54.7946438,47.0921217 C56.1896597,47.0921217 57.3247413,45.9518996 57.3247413,44.550566 L57.3247413,40.2505212 C57.3247413,40.1748096 57.2610894,40.1108694 57.1854528,40.1108694 L45.2764169,40.1108694 Z M24.7514936,40.1108694 C24.6761233,40.1108694 24.6124714,40.1748096 24.6124714,40.2505212 L24.6124714,44.550566 C24.6124714,45.9518996 25.7472867,47.0921217 27.1425689,47.0921217 L34.2697204,47.0921217 C35.6647363,47.0921217 36.7998179,45.9518996 36.7998179,44.550566 L36.7998179,40.2505212 C36.7998179,40.1748096 36.736166,40.1108694 36.6605294,40.1108694 L24.7514936,40.1108694 Z" id="Combined-Shape" fill="#29648F"></path>
                    </g>
                </g>
                <g id="peeps-bigger" transform="translate(38.065574, 241.395000)">
                    <g id="Group-3">
                        <ellipse id="Oval-Copy-3" fill="#90E5FD" cx="40.4888753" cy="41" rx="40.4888753" ry="41"></ellipse>
                        <path d="M61.0399631,49.8203882 C61.8224291,49.9068011 62.5332533,49.3342822 62.6192766,48.5480051 L63.1383461,43.7993089 C63.2243694,43.0132993 62.6544317,42.2995235 61.8719657,42.212843 C61.0892334,42.1266977 60.3786755,42.6992165 60.2926522,43.4852261 L59.7733164,48.2339223 C59.6872931,49.0201994 60.2572308,49.7342428 61.0399631,49.8203882 Z" id="Fill-1" fill="#FFFFFF"></path>
                        <path d="M20.2764701,49.8203882 L20.2764701,49.8203882 C19.4937379,49.9068011 18.7831799,49.3342822 18.6971566,48.5480051 L18.1778208,43.7993089 C18.0917975,43.0132993 18.6620016,42.2995235 19.4444675,42.212843 L19.4444675,42.212843 C20.2271998,42.1266977 20.9377577,42.6992165 21.023781,43.4852261 L21.5431168,48.2339223 C21.6291402,49.0201994 21.0589361,49.7342428 20.2764701,49.8203882" id="Fill-3" fill="#FFFFFF"></path>
                        <path d="M62.2970754,28.0395231 L60.2479627,52.1286558 C59.8644532,56.6381783 57.2565885,60.654639 53.3027119,62.8245925 L47.3434001,66.0957085 C46.3247029,66.6551183 45.1824305,66.948066 44.0215152,66.948066 L40.6580835,66.948066 L37.2949181,66.948066 C36.1340028,66.948066 34.9917303,66.6551183 33.9727669,66.0957085 L28.0137214,62.8245925 C24.0598448,60.654639 21.4519801,56.6381783 21.0682042,52.1286558 L19.0193579,28.0395231 L41.1209581,16.3994654 L62.2970754,28.0395231 Z" id="Fill-13" fill="#FFFFFF"></path>
                        <path d="M34.2696405,47.7608719 L27.142489,47.7608719 C25.384737,47.7608719 23.9465763,46.3164657 23.9465763,44.5504857 L23.9465763,40.2507085 C23.9465763,39.80607 24.3087798,39.4419587 24.7514137,39.4419587 L36.6607158,39.4419587 C37.1033497,39.4419587 37.4655532,39.80607 37.4655532,40.2507085 L37.4655532,44.5504857 C37.4655532,46.3164657 36.0273925,47.7608719 34.2696405,47.7608719" id="Fill-15"></path>
                        <path d="M54.7945639,47.7608719 L47.6674124,47.7608719 C45.9096604,47.7608719 44.4714997,46.3164657 44.4714997,44.5504857 L44.4714997,40.2507085 C44.4714997,39.80607 44.8337031,39.4419587 45.276337,39.4419587 L57.1856392,39.4419587 C57.6282731,39.4419587 57.9904765,39.80607 57.9904765,40.2507085 L57.9904765,44.5504857 C57.9904765,46.3164657 56.5523158,47.7608719 54.7945639,47.7608719" id="Fill-19"></path>
                        <path d="M25.6474677,34.3215533 L24.6689857,33.4143516 L24.9121414,33.1497623 C27.1261099,30.7398324 30.4631754,29.7574542 33.6215361,30.5860014 L33.9685589,30.6769623 L33.6324554,31.971283 L33.2854326,31.8803221 C30.6040619,31.1777826 27.7703526,32.0108778 25.8908897,34.0569639 L25.6474677,34.3215533 Z" id="Fill-29" fill="#29648F"></path>
                        <path d="M56.3025286,32.62152 L56.0583076,32.3580008 C54.1700559,30.3199407 51.3328845,29.4983493 48.654177,30.2131953 L48.3074205,30.3057614 L47.9654578,29.0130459 L48.3122144,28.9204798 C51.4673791,28.078021 54.8084395,29.0464875 57.0327947,31.4462511 L57.2770157,31.7097703 L56.3025286,32.62152 Z" id="Fill-31" fill="#29648F"></path>
                        <path d="M43.0070526,60.0987071 L36.8048515,60.0987071 C35.3339327,60.0987071 33.9130832,59.5641778 32.8041015,58.5933035 L30.796003,56.8353495 L31.6711505,55.8267532 L33.6792489,57.5849747 C34.5456076,58.3431609 35.6556546,58.7610462 36.8048515,58.7610462 L43.0070526,58.7610462 L43.0070526,60.0987071 Z" id="Fill-45" fill="#29648F"></path>
                        <path d="M33.2746996,19.0641126 L29.3360036,19.0641126 C23.6059986,19.0641126 18.9607395,23.7301414 18.9607395,29.4863639 L18.9607395,35.0216047 C18.9607395,35.6069651 19.7168392,35.8357052 20.0388274,35.347994 L22.3438794,31.8556289 C24.5799529,28.4670663 27.4360335,25.5359837 30.760049,23.2175498 L33.9330576,21.0045236 C34.809803,20.3932125 34.3405365,19.0103387 33.2746996,19.0641126" id="Fill-47" fill="#29648F"></path>
                        <path d="M18.9608461,32.1656184 L18.9608461,40.487207 C18.9608461,40.7047106 19.1363549,40.8810143 19.3526117,40.8810143 L21.0025016,40.8810143 C21.2643001,40.8810143 21.4523263,40.6279289 21.3782877,40.375646 L18.9608461,32.1656184 Z" id="Fill-51" fill="#29648F"></path>
                        <path d="M48.0416271,19.0641126 L51.9803231,19.0641126 C57.7103282,19.0641126 62.3555872,23.7301414 62.3555872,29.4863639 L62.3555872,35.0216047 C62.3555872,35.6069651 61.5994875,35.8357052 61.2774993,35.347994 L58.9724473,31.8556289 C56.7363738,28.4670663 53.8805595,25.5359837 50.5562777,23.2175498 L47.3832691,21.0045236 C46.5065237,20.3932125 46.9757902,19.0103387 48.0416271,19.0641126" id="Fill-53" fill="#29648F"></path>
                        <path d="M62.3556138,32.1656184 L62.3556138,40.487207 C62.3556138,40.7047106 62.180105,40.8810143 61.9635819,40.8810143 L60.3139583,40.8810143 C60.0521598,40.8810143 59.8638673,40.6279289 59.9381722,40.375646 L62.3556138,32.1656184 Z" id="Fill-57" fill="#29648F"></path>
                        <path d="M53.7041718,17.9279035 C52.5568391,23.1399654 48.1494092,26.5119411 41.2973725,26.5119411 C34.4453358,26.5119411 28.8905733,23.2657056 28.8905733,17.9279035 C35.9332995,17.9279035 35.7599212,13.4384459 41.2973725,10.7936228 C48.3507517,7.42485752 54.6395089,13.6784223 53.7041718,17.9279035" id="Fill-59" fill="#29648F"></path>
                        <polygon id="Fill-68" fill="#29648F" points="38.2868228 55.5478027 43.0292909 55.5478027 43.0292909 54.2101418 38.2868228 54.2101418"></polygon>
                        <path d="M38.1314482,42.3544539 L38.201412,42.3192406 C39.9520691,41.4387952 42.0277277,41.4013919 43.8057645,42.2070309 L43.8057645,40.2505212 C43.8057645,39.4361533 44.4654541,38.7732085 45.2764169,38.7732085 L57.1854528,38.7732085 C57.9964156,38.7732085 58.6563716,39.4361533 58.6563716,40.2505212 L58.6563716,41.0785601 L63.4206517,41.0785601 C63.788448,41.0785601 64.0864669,41.3779286 64.0864669,41.7473906 C64.0864669,42.1168525 63.788448,42.416221 63.4206517,42.416221 L58.6563716,42.416221 L58.6563716,44.550566 C58.6563716,46.6894858 56.9239206,48.4297826 54.7946438,48.4297826 L47.6674922,48.4297826 C45.5379491,48.4297826 43.8057645,46.6894858 43.8057645,44.550566 L43.8057645,43.6974355 L43.4440404,43.515377 C41.9893675,42.7834089 40.2526553,42.7834089 38.7979824,43.515377 L38.1572019,43.8380208 L38.1314482,43.7864071 L38.1314482,44.550566 C38.1314482,46.6894858 36.3989972,48.4297826 34.2697204,48.4297826 L27.1425689,48.4297826 C25.0130257,48.4297826 23.2808411,46.6894858 23.2808411,44.550566 L23.2808411,42.416221 L18.4325351,42.416221 C18.0647388,42.416221 17.7667199,42.1168525 17.7667199,41.7473906 C17.7667199,41.3779286 18.0647388,41.0785601 18.4325351,41.0785601 L23.2808411,41.0785601 L23.2808411,40.2505212 C23.2808411,39.4361533 23.9405307,38.7732085 24.7514936,38.7732085 L36.6605294,38.7732085 C37.4714922,38.7732085 38.1314482,39.4361533 38.1314482,40.2505212 L38.1314482,42.3544539 Z M45.2764169,40.1108694 C45.2010467,40.1108694 45.1373947,40.1748096 45.1373947,40.2505212 L45.1373947,44.550566 C45.1373947,45.9518996 46.2722101,47.0921217 47.6674922,47.0921217 L54.7946438,47.0921217 C56.1896597,47.0921217 57.3247413,45.9518996 57.3247413,44.550566 L57.3247413,40.2505212 C57.3247413,40.1748096 57.2610894,40.1108694 57.1854528,40.1108694 L45.2764169,40.1108694 Z M24.7514936,40.1108694 C24.6761233,40.1108694 24.6124714,40.1748096 24.6124714,40.2505212 L24.6124714,44.550566 C24.6124714,45.9518996 25.7472867,47.0921217 27.1425689,47.0921217 L34.2697204,47.0921217 C35.6647363,47.0921217 36.7998179,45.9518996 36.7998179,44.550566 L36.7998179,40.2505212 C36.7998179,40.1748096 36.736166,40.1108694 36.6605294,40.1108694 L24.7514936,40.1108694 Z" id="Combined-Shape" fill="#29648F"></path>
                    </g>
                </g>
                <g id="peeps-bigger" transform="translate(143.199063, 281.325000)">
                    <g id="Group-3">
                        <ellipse id="Oval-Copy-3" fill="#90E5FD" cx="40.4888753" cy="41" rx="40.4888753" ry="41"></ellipse>
                        <path d="M61.0399631,49.8203882 C61.8224291,49.9068011 62.5332533,49.3342822 62.6192766,48.5480051 L63.1383461,43.7993089 C63.2243694,43.0132993 62.6544317,42.2995235 61.8719657,42.212843 C61.0892334,42.1266977 60.3786755,42.6992165 60.2926522,43.4852261 L59.7733164,48.2339223 C59.6872931,49.0201994 60.2572308,49.7342428 61.0399631,49.8203882 Z" id="Fill-1" fill="#FFFFFF"></path>
                        <path d="M20.2764701,49.8203882 L20.2764701,49.8203882 C19.4937379,49.9068011 18.7831799,49.3342822 18.6971566,48.5480051 L18.1778208,43.7993089 C18.0917975,43.0132993 18.6620016,42.2995235 19.4444675,42.212843 L19.4444675,42.212843 C20.2271998,42.1266977 20.9377577,42.6992165 21.023781,43.4852261 L21.5431168,48.2339223 C21.6291402,49.0201994 21.0589361,49.7342428 20.2764701,49.8203882" id="Fill-3" fill="#FFFFFF"></path>
                        <path d="M62.2970754,28.0395231 L60.2479627,52.1286558 C59.8644532,56.6381783 57.2565885,60.654639 53.3027119,62.8245925 L47.3434001,66.0957085 C46.3247029,66.6551183 45.1824305,66.948066 44.0215152,66.948066 L40.6580835,66.948066 L37.2949181,66.948066 C36.1340028,66.948066 34.9917303,66.6551183 33.9727669,66.0957085 L28.0137214,62.8245925 C24.0598448,60.654639 21.4519801,56.6381783 21.0682042,52.1286558 L19.0193579,28.0395231 L41.1209581,16.3994654 L62.2970754,28.0395231 Z" id="Fill-13" fill="#FFFFFF"></path>
                        <path d="M34.2696405,47.7608719 L27.142489,47.7608719 C25.384737,47.7608719 23.9465763,46.3164657 23.9465763,44.5504857 L23.9465763,40.2507085 C23.9465763,39.80607 24.3087798,39.4419587 24.7514137,39.4419587 L36.6607158,39.4419587 C37.1033497,39.4419587 37.4655532,39.80607 37.4655532,40.2507085 L37.4655532,44.5504857 C37.4655532,46.3164657 36.0273925,47.7608719 34.2696405,47.7608719" id="Fill-15"></path>
                        <path d="M54.7945639,47.7608719 L47.6674124,47.7608719 C45.9096604,47.7608719 44.4714997,46.3164657 44.4714997,44.5504857 L44.4714997,40.2507085 C44.4714997,39.80607 44.8337031,39.4419587 45.276337,39.4419587 L57.1856392,39.4419587 C57.6282731,39.4419587 57.9904765,39.80607 57.9904765,40.2507085 L57.9904765,44.5504857 C57.9904765,46.3164657 56.5523158,47.7608719 54.7945639,47.7608719" id="Fill-19"></path>
                        <path d="M25.6474677,34.3215533 L24.6689857,33.4143516 L24.9121414,33.1497623 C27.1261099,30.7398324 30.4631754,29.7574542 33.6215361,30.5860014 L33.9685589,30.6769623 L33.6324554,31.971283 L33.2854326,31.8803221 C30.6040619,31.1777826 27.7703526,32.0108778 25.8908897,34.0569639 L25.6474677,34.3215533 Z" id="Fill-29" fill="#29648F"></path>
                        <path d="M56.3025286,32.62152 L56.0583076,32.3580008 C54.1700559,30.3199407 51.3328845,29.4983493 48.654177,30.2131953 L48.3074205,30.3057614 L47.9654578,29.0130459 L48.3122144,28.9204798 C51.4673791,28.078021 54.8084395,29.0464875 57.0327947,31.4462511 L57.2770157,31.7097703 L56.3025286,32.62152 Z" id="Fill-31" fill="#29648F"></path>
                        <path d="M43.0070526,60.0987071 L36.8048515,60.0987071 C35.3339327,60.0987071 33.9130832,59.5641778 32.8041015,58.5933035 L30.796003,56.8353495 L31.6711505,55.8267532 L33.6792489,57.5849747 C34.5456076,58.3431609 35.6556546,58.7610462 36.8048515,58.7610462 L43.0070526,58.7610462 L43.0070526,60.0987071 Z" id="Fill-45" fill="#29648F"></path>
                        <path d="M33.2746996,19.0641126 L29.3360036,19.0641126 C23.6059986,19.0641126 18.9607395,23.7301414 18.9607395,29.4863639 L18.9607395,35.0216047 C18.9607395,35.6069651 19.7168392,35.8357052 20.0388274,35.347994 L22.3438794,31.8556289 C24.5799529,28.4670663 27.4360335,25.5359837 30.760049,23.2175498 L33.9330576,21.0045236 C34.809803,20.3932125 34.3405365,19.0103387 33.2746996,19.0641126" id="Fill-47" fill="#29648F"></path>
                        <path d="M18.9608461,32.1656184 L18.9608461,40.487207 C18.9608461,40.7047106 19.1363549,40.8810143 19.3526117,40.8810143 L21.0025016,40.8810143 C21.2643001,40.8810143 21.4523263,40.6279289 21.3782877,40.375646 L18.9608461,32.1656184 Z" id="Fill-51" fill="#29648F"></path>
                        <path d="M48.0416271,19.0641126 L51.9803231,19.0641126 C57.7103282,19.0641126 62.3555872,23.7301414 62.3555872,29.4863639 L62.3555872,35.0216047 C62.3555872,35.6069651 61.5994875,35.8357052 61.2774993,35.347994 L58.9724473,31.8556289 C56.7363738,28.4670663 53.8805595,25.5359837 50.5562777,23.2175498 L47.3832691,21.0045236 C46.5065237,20.3932125 46.9757902,19.0103387 48.0416271,19.0641126" id="Fill-53" fill="#29648F"></path>
                        <path d="M62.3556138,32.1656184 L62.3556138,40.487207 C62.3556138,40.7047106 62.180105,40.8810143 61.9635819,40.8810143 L60.3139583,40.8810143 C60.0521598,40.8810143 59.8638673,40.6279289 59.9381722,40.375646 L62.3556138,32.1656184 Z" id="Fill-57" fill="#29648F"></path>
                        <path d="M53.7041718,17.9279035 C52.5568391,23.1399654 48.1494092,26.5119411 41.2973725,26.5119411 C34.4453358,26.5119411 28.8905733,23.2657056 28.8905733,17.9279035 C35.9332995,17.9279035 35.7599212,13.4384459 41.2973725,10.7936228 C48.3507517,7.42485752 54.6395089,13.6784223 53.7041718,17.9279035" id="Fill-59" fill="#29648F"></path>
                        <polygon id="Fill-68" fill="#29648F" points="38.2868228 55.5478027 43.0292909 55.5478027 43.0292909 54.2101418 38.2868228 54.2101418"></polygon>
                        <path d="M38.1314482,42.3544539 L38.201412,42.3192406 C39.9520691,41.4387952 42.0277277,41.4013919 43.8057645,42.2070309 L43.8057645,40.2505212 C43.8057645,39.4361533 44.4654541,38.7732085 45.2764169,38.7732085 L57.1854528,38.7732085 C57.9964156,38.7732085 58.6563716,39.4361533 58.6563716,40.2505212 L58.6563716,41.0785601 L63.4206517,41.0785601 C63.788448,41.0785601 64.0864669,41.3779286 64.0864669,41.7473906 C64.0864669,42.1168525 63.788448,42.416221 63.4206517,42.416221 L58.6563716,42.416221 L58.6563716,44.550566 C58.6563716,46.6894858 56.9239206,48.4297826 54.7946438,48.4297826 L47.6674922,48.4297826 C45.5379491,48.4297826 43.8057645,46.6894858 43.8057645,44.550566 L43.8057645,43.6974355 L43.4440404,43.515377 C41.9893675,42.7834089 40.2526553,42.7834089 38.7979824,43.515377 L38.1572019,43.8380208 L38.1314482,43.7864071 L38.1314482,44.550566 C38.1314482,46.6894858 36.3989972,48.4297826 34.2697204,48.4297826 L27.1425689,48.4297826 C25.0130257,48.4297826 23.2808411,46.6894858 23.2808411,44.550566 L23.2808411,42.416221 L18.4325351,42.416221 C18.0647388,42.416221 17.7667199,42.1168525 17.7667199,41.7473906 C17.7667199,41.3779286 18.0647388,41.0785601 18.4325351,41.0785601 L23.2808411,41.0785601 L23.2808411,40.2505212 C23.2808411,39.4361533 23.9405307,38.7732085 24.7514936,38.7732085 L36.6605294,38.7732085 C37.4714922,38.7732085 38.1314482,39.4361533 38.1314482,40.2505212 L38.1314482,42.3544539 Z M45.2764169,40.1108694 C45.2010467,40.1108694 45.1373947,40.1748096 45.1373947,40.2505212 L45.1373947,44.550566 C45.1373947,45.9518996 46.2722101,47.0921217 47.6674922,47.0921217 L54.7946438,47.0921217 C56.1896597,47.0921217 57.3247413,45.9518996 57.3247413,44.550566 L57.3247413,40.2505212 C57.3247413,40.1748096 57.2610894,40.1108694 57.1854528,40.1108694 L45.2764169,40.1108694 Z M24.7514936,40.1108694 C24.6761233,40.1108694 24.6124714,40.1748096 24.6124714,40.2505212 L24.6124714,44.550566 C24.6124714,45.9518996 25.7472867,47.0921217 27.1425689,47.0921217 L34.2697204,47.0921217 C35.6647363,47.0921217 36.7998179,45.9518996 36.7998179,44.550566 L36.7998179,40.2505212 C36.7998179,40.1748096 36.736166,40.1108694 36.6605294,40.1108694 L24.7514936,40.1108694 Z" id="Combined-Shape" fill="#29648F"></path>
                    </g>
                </g>
                <g id="peeps-bigger" transform="translate(183.983607, 40.837500) rotate(-360.000000) translate(-183.983607, -40.837500) translate(143.199063, 0.000000)">
                    <g id="Group-3">
                        <ellipse id="Oval-Copy-3" fill="#90E5FD" cx="40.4888753" cy="41" rx="40.4888753" ry="41"></ellipse>
                        <path d="M61.0399631,49.8203882 C61.8224291,49.9068011 62.5332533,49.3342822 62.6192766,48.5480051 L63.1383461,43.7993089 C63.2243694,43.0132993 62.6544317,42.2995235 61.8719657,42.212843 C61.0892334,42.1266977 60.3786755,42.6992165 60.2926522,43.4852261 L59.7733164,48.2339223 C59.6872931,49.0201994 60.2572308,49.7342428 61.0399631,49.8203882 Z" id="Fill-1" fill="#FFFFFF"></path>
                        <path d="M20.2764701,49.8203882 L20.2764701,49.8203882 C19.4937379,49.9068011 18.7831799,49.3342822 18.6971566,48.5480051 L18.1778208,43.7993089 C18.0917975,43.0132993 18.6620016,42.2995235 19.4444675,42.212843 L19.4444675,42.212843 C20.2271998,42.1266977 20.9377577,42.6992165 21.023781,43.4852261 L21.5431168,48.2339223 C21.6291402,49.0201994 21.0589361,49.7342428 20.2764701,49.8203882" id="Fill-3" fill="#FFFFFF"></path>
                        <path d="M62.2970754,28.0395231 L60.2479627,52.1286558 C59.8644532,56.6381783 57.2565885,60.654639 53.3027119,62.8245925 L47.3434001,66.0957085 C46.3247029,66.6551183 45.1824305,66.948066 44.0215152,66.948066 L40.6580835,66.948066 L37.2949181,66.948066 C36.1340028,66.948066 34.9917303,66.6551183 33.9727669,66.0957085 L28.0137214,62.8245925 C24.0598448,60.654639 21.4519801,56.6381783 21.0682042,52.1286558 L19.0193579,28.0395231 L41.1209581,16.3994654 L62.2970754,28.0395231 Z" id="Fill-13" fill="#FFFFFF"></path>
                        <path d="M34.2696405,47.7608719 L27.142489,47.7608719 C25.384737,47.7608719 23.9465763,46.3164657 23.9465763,44.5504857 L23.9465763,40.2507085 C23.9465763,39.80607 24.3087798,39.4419587 24.7514137,39.4419587 L36.6607158,39.4419587 C37.1033497,39.4419587 37.4655532,39.80607 37.4655532,40.2507085 L37.4655532,44.5504857 C37.4655532,46.3164657 36.0273925,47.7608719 34.2696405,47.7608719" id="Fill-15"></path>
                        <path d="M54.7945639,47.7608719 L47.6674124,47.7608719 C45.9096604,47.7608719 44.4714997,46.3164657 44.4714997,44.5504857 L44.4714997,40.2507085 C44.4714997,39.80607 44.8337031,39.4419587 45.276337,39.4419587 L57.1856392,39.4419587 C57.6282731,39.4419587 57.9904765,39.80607 57.9904765,40.2507085 L57.9904765,44.5504857 C57.9904765,46.3164657 56.5523158,47.7608719 54.7945639,47.7608719" id="Fill-19"></path>
                        <path d="M25.6474677,34.3215533 L24.6689857,33.4143516 L24.9121414,33.1497623 C27.1261099,30.7398324 30.4631754,29.7574542 33.6215361,30.5860014 L33.9685589,30.6769623 L33.6324554,31.971283 L33.2854326,31.8803221 C30.6040619,31.1777826 27.7703526,32.0108778 25.8908897,34.0569639 L25.6474677,34.3215533 Z" id="Fill-29" fill="#29648F"></path>
                        <path d="M56.3025286,32.62152 L56.0583076,32.3580008 C54.1700559,30.3199407 51.3328845,29.4983493 48.654177,30.2131953 L48.3074205,30.3057614 L47.9654578,29.0130459 L48.3122144,28.9204798 C51.4673791,28.078021 54.8084395,29.0464875 57.0327947,31.4462511 L57.2770157,31.7097703 L56.3025286,32.62152 Z" id="Fill-31" fill="#29648F"></path>
                        <path d="M43.0070526,60.0987071 L36.8048515,60.0987071 C35.3339327,60.0987071 33.9130832,59.5641778 32.8041015,58.5933035 L30.796003,56.8353495 L31.6711505,55.8267532 L33.6792489,57.5849747 C34.5456076,58.3431609 35.6556546,58.7610462 36.8048515,58.7610462 L43.0070526,58.7610462 L43.0070526,60.0987071 Z" id="Fill-45" fill="#29648F"></path>
                        <path d="M33.2746996,19.0641126 L29.3360036,19.0641126 C23.6059986,19.0641126 18.9607395,23.7301414 18.9607395,29.4863639 L18.9607395,35.0216047 C18.9607395,35.6069651 19.7168392,35.8357052 20.0388274,35.347994 L22.3438794,31.8556289 C24.5799529,28.4670663 27.4360335,25.5359837 30.760049,23.2175498 L33.9330576,21.0045236 C34.809803,20.3932125 34.3405365,19.0103387 33.2746996,19.0641126" id="Fill-47" fill="#29648F"></path>
                        <path d="M18.9608461,32.1656184 L18.9608461,40.487207 C18.9608461,40.7047106 19.1363549,40.8810143 19.3526117,40.8810143 L21.0025016,40.8810143 C21.2643001,40.8810143 21.4523263,40.6279289 21.3782877,40.375646 L18.9608461,32.1656184 Z" id="Fill-51" fill="#29648F"></path>
                        <path d="M48.0416271,19.0641126 L51.9803231,19.0641126 C57.7103282,19.0641126 62.3555872,23.7301414 62.3555872,29.4863639 L62.3555872,35.0216047 C62.3555872,35.6069651 61.5994875,35.8357052 61.2774993,35.347994 L58.9724473,31.8556289 C56.7363738,28.4670663 53.8805595,25.5359837 50.5562777,23.2175498 L47.3832691,21.0045236 C46.5065237,20.3932125 46.9757902,19.0103387 48.0416271,19.0641126" id="Fill-53" fill="#29648F"></path>
                        <path d="M62.3556138,32.1656184 L62.3556138,40.487207 C62.3556138,40.7047106 62.180105,40.8810143 61.9635819,40.8810143 L60.3139583,40.8810143 C60.0521598,40.8810143 59.8638673,40.6279289 59.9381722,40.375646 L62.3556138,32.1656184 Z" id="Fill-57" fill="#29648F"></path>
                        <path d="M53.7041718,17.9279035 C52.5568391,23.1399654 48.1494092,26.5119411 41.2973725,26.5119411 C34.4453358,26.5119411 28.8905733,23.2657056 28.8905733,17.9279035 C35.9332995,17.9279035 35.7599212,13.4384459 41.2973725,10.7936228 C48.3507517,7.42485752 54.6395089,13.6784223 53.7041718,17.9279035" id="Fill-59" fill="#29648F"></path>
                        <polygon id="Fill-68" fill="#29648F" points="38.2868228 55.5478027 43.0292909 55.5478027 43.0292909 54.2101418 38.2868228 54.2101418"></polygon>
                        <path d="M38.1314482,42.3544539 L38.201412,42.3192406 C39.9520691,41.4387952 42.0277277,41.4013919 43.8057645,42.2070309 L43.8057645,40.2505212 C43.8057645,39.4361533 44.4654541,38.7732085 45.2764169,38.7732085 L57.1854528,38.7732085 C57.9964156,38.7732085 58.6563716,39.4361533 58.6563716,40.2505212 L58.6563716,41.0785601 L63.4206517,41.0785601 C63.788448,41.0785601 64.0864669,41.3779286 64.0864669,41.7473906 C64.0864669,42.1168525 63.788448,42.416221 63.4206517,42.416221 L58.6563716,42.416221 L58.6563716,44.550566 C58.6563716,46.6894858 56.9239206,48.4297826 54.7946438,48.4297826 L47.6674922,48.4297826 C45.5379491,48.4297826 43.8057645,46.6894858 43.8057645,44.550566 L43.8057645,43.6974355 L43.4440404,43.515377 C41.9893675,42.7834089 40.2526553,42.7834089 38.7979824,43.515377 L38.1572019,43.8380208 L38.1314482,43.7864071 L38.1314482,44.550566 C38.1314482,46.6894858 36.3989972,48.4297826 34.2697204,48.4297826 L27.1425689,48.4297826 C25.0130257,48.4297826 23.2808411,46.6894858 23.2808411,44.550566 L23.2808411,42.416221 L18.4325351,42.416221 C18.0647388,42.416221 17.7667199,42.1168525 17.7667199,41.7473906 C17.7667199,41.3779286 18.0647388,41.0785601 18.4325351,41.0785601 L23.2808411,41.0785601 L23.2808411,40.2505212 C23.2808411,39.4361533 23.9405307,38.7732085 24.7514936,38.7732085 L36.6605294,38.7732085 C37.4714922,38.7732085 38.1314482,39.4361533 38.1314482,40.2505212 L38.1314482,42.3544539 Z M45.2764169,40.1108694 C45.2010467,40.1108694 45.1373947,40.1748096 45.1373947,40.2505212 L45.1373947,44.550566 C45.1373947,45.9518996 46.2722101,47.0921217 47.6674922,47.0921217 L54.7946438,47.0921217 C56.1896597,47.0921217 57.3247413,45.9518996 57.3247413,44.550566 L57.3247413,40.2505212 C57.3247413,40.1748096 57.2610894,40.1108694 57.1854528,40.1108694 L45.2764169,40.1108694 Z M24.7514936,40.1108694 C24.6761233,40.1108694 24.6124714,40.1748096 24.6124714,40.2505212 L24.6124714,44.550566 C24.6124714,45.9518996 25.7472867,47.0921217 27.1425689,47.0921217 L34.2697204,47.0921217 C35.6647363,47.0921217 36.7998179,45.9518996 36.7998179,44.550566 L36.7998179,40.2505212 C36.7998179,40.1748096 36.736166,40.1108694 36.6605294,40.1108694 L24.7514936,40.1108694 Z" id="Combined-Shape" fill="#29648F"></path>
                    </g>
                </g>
                <g id="peeps-bigger" transform="translate(78.850117, 88.935000) rotate(-360.000000) translate(-78.850117, -88.935000) translate(38.065574, 48.097500)">
                    <g id="Group-3">
                        <ellipse id="Oval-Copy-3" fill="#90E5FD" cx="40.4888753" cy="41" rx="40.4888753" ry="41"></ellipse>
                        <path d="M61.0399631,49.8203882 C61.8224291,49.9068011 62.5332533,49.3342822 62.6192766,48.5480051 L63.1383461,43.7993089 C63.2243694,43.0132993 62.6544317,42.2995235 61.8719657,42.212843 C61.0892334,42.1266977 60.3786755,42.6992165 60.2926522,43.4852261 L59.7733164,48.2339223 C59.6872931,49.0201994 60.2572308,49.7342428 61.0399631,49.8203882 Z" id="Fill-1" fill="#FFFFFF"></path>
                        <path d="M20.2764701,49.8203882 L20.2764701,49.8203882 C19.4937379,49.9068011 18.7831799,49.3342822 18.6971566,48.5480051 L18.1778208,43.7993089 C18.0917975,43.0132993 18.6620016,42.2995235 19.4444675,42.212843 L19.4444675,42.212843 C20.2271998,42.1266977 20.9377577,42.6992165 21.023781,43.4852261 L21.5431168,48.2339223 C21.6291402,49.0201994 21.0589361,49.7342428 20.2764701,49.8203882" id="Fill-3" fill="#FFFFFF"></path>
                        <path d="M62.2970754,28.0395231 L60.2479627,52.1286558 C59.8644532,56.6381783 57.2565885,60.654639 53.3027119,62.8245925 L47.3434001,66.0957085 C46.3247029,66.6551183 45.1824305,66.948066 44.0215152,66.948066 L40.6580835,66.948066 L37.2949181,66.948066 C36.1340028,66.948066 34.9917303,66.6551183 33.9727669,66.0957085 L28.0137214,62.8245925 C24.0598448,60.654639 21.4519801,56.6381783 21.0682042,52.1286558 L19.0193579,28.0395231 L41.1209581,16.3994654 L62.2970754,28.0395231 Z" id="Fill-13" fill="#FFFFFF"></path>
                        <path d="M34.2696405,47.7608719 L27.142489,47.7608719 C25.384737,47.7608719 23.9465763,46.3164657 23.9465763,44.5504857 L23.9465763,40.2507085 C23.9465763,39.80607 24.3087798,39.4419587 24.7514137,39.4419587 L36.6607158,39.4419587 C37.1033497,39.4419587 37.4655532,39.80607 37.4655532,40.2507085 L37.4655532,44.5504857 C37.4655532,46.3164657 36.0273925,47.7608719 34.2696405,47.7608719" id="Fill-15"></path>
                        <path d="M54.7945639,47.7608719 L47.6674124,47.7608719 C45.9096604,47.7608719 44.4714997,46.3164657 44.4714997,44.5504857 L44.4714997,40.2507085 C44.4714997,39.80607 44.8337031,39.4419587 45.276337,39.4419587 L57.1856392,39.4419587 C57.6282731,39.4419587 57.9904765,39.80607 57.9904765,40.2507085 L57.9904765,44.5504857 C57.9904765,46.3164657 56.5523158,47.7608719 54.7945639,47.7608719" id="Fill-19"></path>
                        <path d="M25.6474677,34.3215533 L24.6689857,33.4143516 L24.9121414,33.1497623 C27.1261099,30.7398324 30.4631754,29.7574542 33.6215361,30.5860014 L33.9685589,30.6769623 L33.6324554,31.971283 L33.2854326,31.8803221 C30.6040619,31.1777826 27.7703526,32.0108778 25.8908897,34.0569639 L25.6474677,34.3215533 Z" id="Fill-29" fill="#29648F"></path>
                        <path d="M56.3025286,32.62152 L56.0583076,32.3580008 C54.1700559,30.3199407 51.3328845,29.4983493 48.654177,30.2131953 L48.3074205,30.3057614 L47.9654578,29.0130459 L48.3122144,28.9204798 C51.4673791,28.078021 54.8084395,29.0464875 57.0327947,31.4462511 L57.2770157,31.7097703 L56.3025286,32.62152 Z" id="Fill-31" fill="#29648F"></path>
                        <path d="M43.0070526,60.0987071 L36.8048515,60.0987071 C35.3339327,60.0987071 33.9130832,59.5641778 32.8041015,58.5933035 L30.796003,56.8353495 L31.6711505,55.8267532 L33.6792489,57.5849747 C34.5456076,58.3431609 35.6556546,58.7610462 36.8048515,58.7610462 L43.0070526,58.7610462 L43.0070526,60.0987071 Z" id="Fill-45" fill="#29648F"></path>
                        <path d="M33.2746996,19.0641126 L29.3360036,19.0641126 C23.6059986,19.0641126 18.9607395,23.7301414 18.9607395,29.4863639 L18.9607395,35.0216047 C18.9607395,35.6069651 19.7168392,35.8357052 20.0388274,35.347994 L22.3438794,31.8556289 C24.5799529,28.4670663 27.4360335,25.5359837 30.760049,23.2175498 L33.9330576,21.0045236 C34.809803,20.3932125 34.3405365,19.0103387 33.2746996,19.0641126" id="Fill-47" fill="#29648F"></path>
                        <path d="M18.9608461,32.1656184 L18.9608461,40.487207 C18.9608461,40.7047106 19.1363549,40.8810143 19.3526117,40.8810143 L21.0025016,40.8810143 C21.2643001,40.8810143 21.4523263,40.6279289 21.3782877,40.375646 L18.9608461,32.1656184 Z" id="Fill-51" fill="#29648F"></path>
                        <path d="M48.0416271,19.0641126 L51.9803231,19.0641126 C57.7103282,19.0641126 62.3555872,23.7301414 62.3555872,29.4863639 L62.3555872,35.0216047 C62.3555872,35.6069651 61.5994875,35.8357052 61.2774993,35.347994 L58.9724473,31.8556289 C56.7363738,28.4670663 53.8805595,25.5359837 50.5562777,23.2175498 L47.3832691,21.0045236 C46.5065237,20.3932125 46.9757902,19.0103387 48.0416271,19.0641126" id="Fill-53" fill="#29648F"></path>
                        <path d="M62.3556138,32.1656184 L62.3556138,40.487207 C62.3556138,40.7047106 62.180105,40.8810143 61.9635819,40.8810143 L60.3139583,40.8810143 C60.0521598,40.8810143 59.8638673,40.6279289 59.9381722,40.375646 L62.3556138,32.1656184 Z" id="Fill-57" fill="#29648F"></path>
                        <path d="M53.7041718,17.9279035 C52.5568391,23.1399654 48.1494092,26.5119411 41.2973725,26.5119411 C34.4453358,26.5119411 28.8905733,23.2657056 28.8905733,17.9279035 C35.9332995,17.9279035 35.7599212,13.4384459 41.2973725,10.7936228 C48.3507517,7.42485752 54.6395089,13.6784223 53.7041718,17.9279035" id="Fill-59" fill="#29648F"></path>
                        <polygon id="Fill-68" fill="#29648F" points="38.2868228 55.5478027 43.0292909 55.5478027 43.0292909 54.2101418 38.2868228 54.2101418"></polygon>
                        <path d="M38.1314482,42.3544539 L38.201412,42.3192406 C39.9520691,41.4387952 42.0277277,41.4013919 43.8057645,42.2070309 L43.8057645,40.2505212 C43.8057645,39.4361533 44.4654541,38.7732085 45.2764169,38.7732085 L57.1854528,38.7732085 C57.9964156,38.7732085 58.6563716,39.4361533 58.6563716,40.2505212 L58.6563716,41.0785601 L63.4206517,41.0785601 C63.788448,41.0785601 64.0864669,41.3779286 64.0864669,41.7473906 C64.0864669,42.1168525 63.788448,42.416221 63.4206517,42.416221 L58.6563716,42.416221 L58.6563716,44.550566 C58.6563716,46.6894858 56.9239206,48.4297826 54.7946438,48.4297826 L47.6674922,48.4297826 C45.5379491,48.4297826 43.8057645,46.6894858 43.8057645,44.550566 L43.8057645,43.6974355 L43.4440404,43.515377 C41.9893675,42.7834089 40.2526553,42.7834089 38.7979824,43.515377 L38.1572019,43.8380208 L38.1314482,43.7864071 L38.1314482,44.550566 C38.1314482,46.6894858 36.3989972,48.4297826 34.2697204,48.4297826 L27.1425689,48.4297826 C25.0130257,48.4297826 23.2808411,46.6894858 23.2808411,44.550566 L23.2808411,42.416221 L18.4325351,42.416221 C18.0647388,42.416221 17.7667199,42.1168525 17.7667199,41.7473906 C17.7667199,41.3779286 18.0647388,41.0785601 18.4325351,41.0785601 L23.2808411,41.0785601 L23.2808411,40.2505212 C23.2808411,39.4361533 23.9405307,38.7732085 24.7514936,38.7732085 L36.6605294,38.7732085 C37.4714922,38.7732085 38.1314482,39.4361533 38.1314482,40.2505212 L38.1314482,42.3544539 Z M45.2764169,40.1108694 C45.2010467,40.1108694 45.1373947,40.1748096 45.1373947,40.2505212 L45.1373947,44.550566 C45.1373947,45.9518996 46.2722101,47.0921217 47.6674922,47.0921217 L54.7946438,47.0921217 C56.1896597,47.0921217 57.3247413,45.9518996 57.3247413,44.550566 L57.3247413,40.2505212 C57.3247413,40.1748096 57.2610894,40.1108694 57.1854528,40.1108694 L45.2764169,40.1108694 Z M24.7514936,40.1108694 C24.6761233,40.1108694 24.6124714,40.1748096 24.6124714,40.2505212 L24.6124714,44.550566 C24.6124714,45.9518996 25.7472867,47.0921217 27.1425689,47.0921217 L34.2697204,47.0921217 C35.6647363,47.0921217 36.7998179,45.9518996 36.7998179,44.550566 L36.7998179,40.2505212 C36.7998179,40.1748096 36.736166,40.1108694 36.6605294,40.1108694 L24.7514936,40.1108694 Z" id="Combined-Shape" fill="#29648F"></path>
                    </g>
                </g>
                <g id="Group-3" transform="translate(289.929742, 137.495000)">
                    <ellipse id="Oval-Copy-2" fill="#FF991F" cx="47.8869584" cy="48.554439" rx="47.8869584" ry="48.554439"></ellipse>
                    <path d="M42.5013859,51.469634 L42.5013859,46.7906421 L48.6779794,46.7906421 L48.6779794,42.2829428 L42.5013859,42.2829428 L42.5013859,36.2662911 L28.8704302,36.2662911 C23.50686,36.2662911 19.1179733,40.6646787 19.1179733,46.042364 L19.1179733,46.4818647 L11.8614708,46.4818647 L11.8614708,50.989564 L19.1179733,50.989564 L19.1179733,51.4290647 C19.1179733,56.80675 23.50686,61.2051376 28.8704302,61.2051376 L42.5013859,61.2051376 L42.5013859,55.9773334 L48.6779794,55.9773334 L48.6779794,51.469634 L42.5013859,51.469634 Z M76.2122849,46.4818647 L76.2122849,46.0424767 C76.2122849,40.6647914 71.8245225,36.2664038 66.459828,36.2664038 L52.8299966,36.2664038 L52.8299966,61.2052503 L66.459828,61.2052503 C71.8245225,61.2052503 76.2122849,56.8068627 76.2122849,51.4291774 L76.2122849,50.989564 L84.4714636,50.989564 L84.4714636,46.4818647 L76.2122849,46.4818647 Z" id="Combined-Shape" fill="#FFFFFF"></path>
                </g>
                <path d="M184.88993,73.0755015 L184.88993,298.596716" id="Line-Copy-4" stroke="#50E3C2" stroke-width="10" stroke-linecap="round"></path>
                <path d="M160.21654,132.558791 L160.21654,288.363393" id="Line-Copy-5" stroke="#50E3C2" stroke-width="10" stroke-linecap="round" transform="translate(160.669701, 210.742927) rotate(-315.000000) translate(-160.669701, -210.742927) "></path>
                <path d="M235.390201,159.88561 L83.935964,159.88561" id="Line-Copy-6" stroke="#50E3C2" stroke-width="10" stroke-linecap="round" transform="translate(160.067112, 159.885610) rotate(-315.000000) translate(-160.067112, -159.885610) "></path>
                <path d="M298.158605,185.58375 L72.9298381,185.58375" id="Line-Copy-7" stroke="#50E3C2" stroke-width="10" stroke-linecap="round"></path>
                <g id="Group-26" transform="translate(97.976581, 96.195000)">
                    <ellipse id="Oval" fill="#E7F5FF" cx="87.9546761" cy="89.1092263" rx="87.9546761" ry="89.1092263"></ellipse>
                    <g id="Group-23" transform="translate(18.000000, 45.000000)">
                        <polygon id="Fill-1" fill="#008571" points="114.524059 0.0365827749 70.6966972 0.0505721073 114.499641 78.3768439 136.426887 39.2011176"></polygon>
                        <polygon id="Fill-2" fill="#6EEDD8" points="70.6975111 0.0514114672 49.1880817 39.2075527 92.6052113 39.1867848"></polygon>
                        <polygon id="Fill-3" fill="#325C80" points="0.770974832 50.4057334 22.4648948 89.5702683 65.8744394 89.5534811 22.4893126 11.2300072"></polygon>
                        <polygon id="Fill-4" fill="#5AAAFA" points="44.1810621 50.4132877 65.874982 89.5554396 87.5906067 50.3992983"></polygon>
                    </g>
                </g>
            </g>
        </g>
    </g>
</svg>