<?xml version="1.0" encoding="UTF-8" standalone="no"?>
<!-- Created with Inkscape (http://www.inkscape.org/) -->

<svg
   xmlns:dc="http://purl.org/dc/elements/1.1/"
   xmlns:cc="http://creativecommons.org/ns#"
   xmlns:rdf="http://www.w3.org/1999/02/22-rdf-syntax-ns#"
   xmlns:svg="http://www.w3.org/2000/svg"
   xmlns="http://www.w3.org/2000/svg"
   xmlns:sodipodi="http://sodipodi.sourceforge.net/DTD/sodipodi-0.dtd"
   xmlns:inkscape="http://www.inkscape.org/namespaces/inkscape"
   width="169.48636mm"
   height="52.262974mm"
   viewBox="0 0 169.48636 52.262973"
   version="1.1"
   id="svg2520"
   inkscape:version="0.92.2 5c3e80d, 2017-08-06"
   sodipodi:docname="logo-kubernetes-text.svg">
  <defs
     id="defs2514">
    <clipPath
       clipPathUnits="userSpaceOnUse"
       id="clipPath146">
      <rect
         style="fill:#325c80;fill-opacity:1;stroke:none;stroke-width:0.26458332;stroke-opacity:1"
         id="rect148"
         width="78.800171"
         height="27.010019"
         x="184.18977"
         y="151.36804" />
    </clipPath>
  </defs>
  <sodipodi:namedview
     id="base"
     pagecolor="#ffffff"
     bordercolor="#666666"
     borderopacity="1.0"
     inkscape:pageopacity="0.0"
     inkscape:pageshadow="2"
     inkscape:zoom="1.0324628"
     inkscape:cx="237.03169"
     inkscape:cy="-25.722029"
     inkscape:document-units="mm"
     inkscape:current-layer="layer1"
     showgrid="false"
     fit-margin-top="0"
     fit-margin-left="0"
     fit-margin-right="0"
     fit-margin-bottom="0"
     inkscape:pagecheckerboard="true"
     inkscape:window-width="1680"
     inkscape:window-height="964"
     inkscape:window-x="0"
     inkscape:window-y="1"
     inkscape:window-maximized="1" />
  <metadata
     id="metadata2517">
    <rdf:RDF>
      <cc:Work
         rdf:about="">
        <dc:format>image/svg+xml</dc:format>
        <dc:type
           rdf:resource="http://purl.org/dc/dcmitype/StillImage" />
        <dc:title></dc:title>
      </cc:Work>
    </rdf:RDF>
  </metadata>
  <g
     inkscape:label="Layer 1"
     inkscape:groupmode="layer"
     id="layer1"
     transform="translate(-229.62017,-174.4311)">
    <g
       id="g2602"
       style="display:inline"
       inkscape:label="Kubernetes logo"
       inkscape:export-xdpi="25.605967"
       inkscape:export-ydpi="25.605967"
       transform="matrix(0.27158127,0,0,0.27158127,169.48672,137.15038)">
      <ellipse
         style="display:inline;fill:#ffffff;fill-opacity:1;stroke:none;stroke-width:0.27519625;stroke-opacity:1"
         id="path18"
         cx="321.03491"
         cy="239.65109"
         rx="81.492043"
         ry="77.776199"
         inkscape:label="white background" />
      <path
         style="display:inline;fill:#316ce5;stroke-width:0.05509761"
         d="m 280.85352,329.67288 c -0.16667,-0.0204 -0.24105,-0.044 -0.16529,-0.0524 0.0758,-0.008 -0.085,-0.0499 -0.3573,-0.0924 -3.1469,-0.49019 -6.02231,-2.10099 -8.0344,-4.50085 -0.28416,-0.33893 -10.96361,-13.60826 -23.7321,-29.48739 -12.76849,-15.87913 -23.48563,-29.20587 -23.81587,-29.61497 -1.52516,-1.88939 -2.40899,-3.60726 -2.87725,-5.5924 -0.41484,-1.75871 -0.46256,-3.69472 -0.13338,-5.41189 0.16657,-0.86895 17.04428,-74.24274 17.26802,-75.07062 0.61127,-2.26183 1.84271,-4.32207 3.56789,-5.9692 1.0202,-0.97404 2.11135,-1.72256 3.48283,-2.38916 3.39427,-1.64979 69.03127,-32.97879 69.51599,-33.18047 0.99366,-0.41344 2.69806,-0.85702 3.37891,-0.87938 0.16076,-0.005 0.1619,-0.007 0.0295,-0.0448 -0.21577,-0.0616 0.49392,-0.11417 1.54273,-0.11417 1.05433,0 1.77872,0.0546 1.51519,0.11412 -0.16358,0.037 -0.1632,0.0374 0.0369,0.0439 0.56649,0.0183 2.16153,0.41233 3.07614,0.75997 0.79964,0.30394 70.32999,33.51637 70.99793,33.91344 2.82342,1.67847 4.98698,4.514 5.8592,7.67897 0.197,0.71488 17.13599,74.28022 17.29748,75.12225 0.16676,0.86954 0.24745,1.96209 0.20982,2.8409 -0.10619,2.48017 -0.83559,4.74156 -2.17591,6.74609 -0.32823,0.49089 -8.63139,10.86071 -24.41869,30.49653 -13.15674,16.36399 -24.13369,29.99688 -24.39324,30.2953 -1.92742,2.21621 -4.77167,3.76462 -7.75598,4.22236 -0.36364,0.0558 -0.58679,0.10726 -0.49588,0.1144 0.10015,0.008 0.035,0.0292 -0.16529,0.054 -0.41166,0.0511 -78.84095,0.049 -79.25792,-0.002 z m 10.22061,-25.17793 c 1.03596,-0.3258 2.02402,-1.08164 2.63114,-2.01274 0.28324,-0.43438 0.82622,-1.56282 1.09734,-2.28054 0.11895,-0.31488 0.38735,-1.17027 0.59645,-1.90087 0.79468,-2.7766 2.04401,-6.08637 2.88185,-7.63466 0.538,-0.9942 1.00036,-1.37742 2.02207,-1.67595 0.16667,-0.0487 0.32983,-0.10736 0.36256,-0.13037 0.0327,-0.023 0.20384,-0.30215 0.38023,-0.62034 0.17639,-0.31819 0.38037,-0.68231 0.4533,-0.80917 l 0.13259,-0.23063 0.53403,0.19563 c 4.69681,1.72055 9.36172,2.72423 14.69412,3.1615 1.15513,0.0947 5.08386,0.12992 6.42001,0.0575 5.32858,-0.28874 10.26971,-1.26364 15.26372,-3.01161 0.47126,-0.16495 0.88516,-0.2999 0.91978,-0.2999 0.0346,0 0.20365,0.25414 0.37561,0.56475 0.5389,0.97341 0.50495,0.93626 0.99183,1.08565 1.09385,0.33562 1.44988,0.6685 2.10815,1.9711 0.50466,0.99863 0.86257,1.83323 1.30592,3.04531 0.65866,1.8007 1.03844,2.94166 1.43055,4.29761 0.45056,1.55811 0.64157,2.09068 1.09108,3.04221 0.68651,1.45319 1.42417,2.274 2.55691,2.84512 0.62426,0.31475 1.11191,0.42082 1.91735,0.41704 0.62221,-0.003 0.77416,-0.0226 1.15705,-0.14963 0.63473,-0.21064 1.09529,-0.49928 1.59948,-1.0024 0.73037,-0.72884 1.15019,-1.68798 1.22002,-2.78733 0.0622,-0.97981 -0.11139,-1.73093 -0.66978,-2.89762 -0.48802,-1.01964 -0.83718,-1.59239 -1.74105,-2.85589 -2.05583,-2.87382 -4.2209,-6.66395 -4.51307,-7.90052 -0.10589,-0.44814 -0.0426,-0.988 0.19217,-1.6384 l 0.20138,-0.55801 -0.30715,-0.74967 c -0.16894,-0.41233 -0.30645,-0.78107 -0.30559,-0.81944 8.8e-4,-0.0384 0.2302,-0.20584 0.50965,-0.37217 0.85549,-0.50918 3.04695,-1.98716 4.00679,-2.70227 3.89481,-2.9018 7.38869,-6.31821 10.33904,-10.10981 3.59502,-4.62008 6.4788,-9.93327 8.37265,-15.42606 0.21941,-0.63638 0.41938,-1.15403 0.44438,-1.15034 0.025,0.004 0.40753,0.0638 0.85007,0.13356 l 0.80464,0.12684 0.38802,-0.25796 c 0.66003,-0.43878 0.96616,-0.55561 1.51601,-0.57856 0.57813,-0.0241 0.91356,0.0287 2.21686,0.34916 1.69817,0.41753 4.50265,1.372 6.56083,2.2329 1.80026,0.753 3.00958,1.11542 4.23149,1.26811 2.17033,0.27121 4.22179,-0.95665 4.88302,-2.92263 0.18549,-0.5515 0.21404,-1.49089 0.0634,-2.08655 -0.38368,-1.51724 -1.56757,-2.74966 -3.14895,-3.27802 -1.09294,-0.36516 -2.30937,-0.55523 -4.28192,-0.66905 -2.63158,-0.15186 -5.66259,-0.53603 -7.39877,-0.93777 -1.69337,-0.39183 -2.08332,-0.62899 -2.69134,-1.63682 l -0.29038,-0.48132 -0.45133,-0.13532 c -0.24823,-0.0744 -0.6001,-0.1767 -0.78192,-0.22728 -0.18182,-0.0506 -0.35169,-0.11156 -0.3775,-0.13552 -0.0258,-0.024 0.004,-0.4985 0.0666,-1.05453 0.75477,-6.72074 0.25897,-13.37504 -1.48416,-19.91958 -1.43196,-5.37623 -3.67309,-10.4752 -6.65253,-15.13563 l -0.52447,-0.82038 0.27105,-0.25433 c 0.14908,-0.13989 0.4642,-0.42775 0.70028,-0.63971 l 0.42924,-0.38537 0.0547,-0.55097 c 0.0717,-0.72215 0.16884,-1.04592 0.43201,-1.43928 0.63083,-0.9429 4.24969,-3.47776 7.52518,-5.27106 2.29977,-1.25912 3.60783,-2.27847 4.31617,-3.36354 0.61918,-0.94848 0.88974,-2.13897 0.72206,-3.1771 -0.13244,-0.81997 -0.46142,-1.48837 -1.03448,-2.10184 -0.77939,-0.83433 -1.80435,-1.25791 -3.04587,-1.25873 -1.17338,-7.7e-4 -2.16391,0.38082 -3.32298,1.28016 -0.92169,0.71515 -1.38422,1.16464 -2.5943,2.52119 -1.75373,1.966 -4.2803,4.38254 -5.67406,5.42694 -1.06028,0.79451 -1.38908,0.90123 -2.45968,0.79834 l -0.70319,-0.0676 -0.69208,0.48873 c -0.38064,0.26879 -0.72774,0.51263 -0.77132,0.54186 -0.0611,0.041 -0.35979,-0.22353 -1.30783,-1.15846 -2.49732,-2.46276 -4.96665,-4.46542 -7.89528,-6.40317 -3.5854,-2.37232 -7.11695,-4.18088 -11.01964,-5.64331 -3.96089,-1.48424 -8.37513,-2.55485 -12.45206,-3.02006 -0.54547,-0.0622 -1.09581,-0.12606 -1.22299,-0.14181 -0.22442,-0.0278 -0.23208,-0.0354 -0.26002,-0.25987 -0.0158,-0.12718 -0.0444,-0.52202 -0.0634,-0.87744 l -0.0346,-0.6462 -0.40971,-0.39871 c -0.48276,-0.46977 -0.70636,-0.79937 -0.86189,-1.27048 -0.10339,-0.31319 -0.11372,-0.47852 -0.11449,-1.83189 -5.5e-4,-0.98968 0.0304,-1.81039 0.0927,-2.45185 0.19847,-2.04674 0.38163,-3.49766 0.61556,-4.87614 0.30556,-1.80061 0.38161,-2.63169 0.33783,-3.69154 -0.0611,-1.47848 -0.40426,-2.44163 -1.20174,-3.37278 -0.76675,-0.89525 -1.73667,-1.3764 -2.88854,-1.4329 -0.7718,-0.0379 -1.2755,0.0658 -1.93994,0.39915 -1.09224,0.54802 -1.84353,1.44457 -2.2636,2.70127 -0.20082,0.60077 -0.28125,1.2063 -0.28118,2.11705 0,0.94774 0.0767,1.67623 0.33626,3.1945 0.44609,2.60984 0.72254,5.41287 0.72843,7.38569 0.006,1.95999 -0.0705,2.21191 -0.9309,3.0706 l -0.45435,0.45347 -0.0338,0.48319 c -0.0186,0.26576 -0.0475,0.66021 -0.0643,0.87657 l -0.0304,0.39337 -0.42288,0.0377 c -0.81455,0.0726 -2.63574,0.31215 -3.61853,0.47604 -9.1834,1.53142 -17.54764,5.23474 -24.72991,10.94934 -1.62731,1.29476 -3.50845,2.98403 -4.82077,4.32906 -0.38357,0.39313 -0.64923,0.62473 -0.68872,0.60042 -0.0354,-0.0218 -0.35764,-0.24781 -0.71617,-0.50233 l -0.65187,-0.46276 -0.41101,0.0611 c -1.25263,0.1863 -1.73202,0.0254 -3.07873,-1.03331 -1.27629,-1.00335 -3.75642,-3.41054 -5.34384,-5.18669 -1.15355,-1.29069 -1.49875,-1.63199 -2.32196,-2.2957 -0.72029,-0.58074 -0.9783,-0.75236 -1.52121,-1.01189 -0.72153,-0.34491 -1.21444,-0.45495 -2.05291,-0.45829 -0.82101,-0.003 -1.3103,0.10494 -1.94447,0.43002 -0.491,0.25168 -0.6379,0.35538 -0.99443,0.70196 -0.86847,0.84425 -1.31461,2.12255 -1.16442,3.33639 0.0781,0.63128 0.32628,1.36079 0.64838,1.90591 0.6145,1.04002 1.97784,2.1708 3.89572,3.23116 1.63654,0.90482 1.82694,1.01483 2.68111,1.54907 2.18102,1.36412 3.55478,2.32183 4.56549,3.18281 0.91582,0.78015 1.11099,1.1506 1.2376,2.34895 0.0192,0.18182 0.0471,0.37252 0.0619,0.42379 0.0148,0.0513 0.31151,0.34567 0.6593,0.65424 l 0.63233,0.56105 -0.10455,0.17221 c -0.0575,0.0947 -0.34677,0.55653 -0.6428,1.02624 -3.36172,5.33384 -5.84669,11.6007 -7.10047,17.90672 -0.66504,3.34493 -0.94769,6.02723 -1.00731,9.55943 -0.0433,2.56241 0.0614,4.73278 0.3415,7.08005 0.0452,0.37879 0.0972,0.82581 0.11566,0.99338 l 0.0335,0.30465 -0.83181,0.24062 c -0.4575,0.13234 -0.86514,0.28037 -0.90589,0.32896 -0.0407,0.0486 -0.18815,0.27431 -0.32758,0.50159 -0.30269,0.49342 -0.66569,0.86898 -1.03333,1.06908 -0.34578,0.18819 -1.93213,0.59084 -3.03039,0.76918 -1.82065,0.29563 -4.18223,0.55907 -5.73015,0.6392 -1.78705,0.0925 -2.43144,0.1685 -3.4987,0.41255 -1.09311,0.24996 -1.56315,0.42861 -2.1835,0.82992 -0.92077,0.59564 -1.54403,1.38745 -1.90673,2.42239 -0.1817,0.5185 -0.23244,1.53389 -0.10392,2.07989 0.33375,1.41786 1.39321,2.5253 2.89936,3.03064 0.50812,0.17048 0.55162,0.17566 1.48764,0.17695 0.89705,10e-4 1.01409,-0.0108 1.68047,-0.17288 1.01901,-0.24784 1.87381,-0.54174 3.16079,-1.08674 2.57735,-1.09141 5.9924,-2.1845 7.85874,-2.5154 1.03515,-0.18353 1.44192,-0.10111 2.31737,0.46954 l 0.485,0.31614 0.89892,-0.15241 c 0.49441,-0.0838 0.90684,-0.14198 0.91652,-0.12923 0.01,0.0127 0.0816,0.22152 0.15995,0.46395 0.22583,0.69922 0.62912,1.79434 1.04108,2.82703 3.99754,10.02102 10.99917,18.67244 19.96867,24.67387 0.63537,0.42512 1.41556,0.92998 1.73374,1.1219 0.31819,0.19193 0.61141,0.37868 0.6516,0.41502 0.0599,0.0541 0.009,0.22315 -0.28212,0.93496 l -0.35519,0.86891 0.21325,0.62648 c 0.17741,0.5212 0.21325,0.70032 0.21325,1.06596 0,0.58459 -0.11888,0.93006 -0.77707,2.25832 -0.7179,1.44874 -2.58606,4.53373 -3.47463,5.73782 -1.47735,2.00195 -2.32507,3.56333 -2.61423,4.81507 -0.14195,0.61446 -0.1285,1.60525 0.0299,2.2039 0.40695,1.53794 1.43244,2.59658 2.917,3.01129 0.51311,0.14334 1.6317,0.11163 2.18345,-0.0619 z m 27.96204,-24.90917 c -3.53664,-0.1279 -7.36732,-0.76331 -10.60629,-1.75929 -0.39395,-0.12115 -0.85884,-0.26165 -1.03308,-0.31224 -0.17425,-0.0506 -0.31681,-0.11178 -0.31681,-0.136 0,-0.0242 2.41038,-4.40247 5.35641,-9.72947 4.75927,-8.60569 5.38822,-9.71615 5.64179,-9.96093 0.34261,-0.33073 0.77263,-0.59723 1.27525,-0.79035 0.33562,-0.12894 0.44586,-0.14275 1.14282,-0.14318 0.6671,-5.5e-4 0.81977,0.0168 1.1295,0.12701 0.71091,0.25308 1.40673,0.7827 1.79313,1.36483 0.20757,0.31274 10.60356,19.06889 10.62154,19.16311 0.0228,0.11951 -3.24876,1.01914 -4.9214,1.35331 -2.42676,0.48484 -4.54418,0.72985 -7.13514,0.82563 -0.8182,0.0303 -1.56202,0.0513 -1.65293,0.0467 -0.0909,-0.005 -0.67356,-0.0267 -1.29479,-0.0491 z m 20.45131,-17.03955 c -4.55821,-11.01408 -4.42125,-10.65381 -4.33796,-11.41193 0.10197,-0.92802 0.40286,-1.56396 1.04697,-2.21281 0.68061,-0.68561 1.45536,-1.01346 2.39492,-1.01346 0.36123,0 2.93192,0.41696 11.24212,1.82345 5.92558,1.00289 10.78233,1.8317 10.79278,1.84179 0.0262,0.0253 -0.32148,0.94611 -0.70687,1.87207 -2.17247,5.21971 -5.33928,9.91301 -9.37333,13.89155 -1.62792,1.60553 -2.77764,2.60302 -4.36988,3.79129 -0.78284,0.58422 -2.36,1.68397 -2.415,1.68397 -0.0138,0 -1.93703,-4.61966 -4.27375,-10.26592 z m -43.04133,9.52975 c -6.3617,-4.31415 -11.65598,-10.62774 -14.79114,-17.63889 -0.50892,-1.13809 -1.13836,-2.7435 -1.09192,-2.78497 0.0601,-0.0536 21.28817,-3.64414 21.7234,-3.67427 1.03922,-0.072 2.2344,0.53013 2.90286,1.46235 0.33839,0.47191 0.49363,0.85608 0.61227,1.51521 0.10918,0.60661 0.041,1.17611 -0.23105,1.92882 -0.22361,0.61873 -8.12364,19.72034 -8.17716,19.77167 -0.021,0.0201 -0.44725,-0.24084 -0.94726,-0.57992 z m 21.11794,-29.03673 c -1.58238,-0.76271 -2.899,-1.4111 -2.92581,-1.44087 -0.0268,-0.0298 -0.36731,-1.45036 -0.75667,-3.15687 -0.60429,-2.64857 -0.69773,-3.11907 -0.63829,-3.21424 0.0383,-0.0613 0.95079,-1.21267 2.02775,-2.55854 l 1.95811,-2.44704 3.28647,0.003 3.28646,0.003 1.95597,2.44969 c 1.07578,1.34734 1.98577,2.4928 2.0222,2.54548 0.0541,0.0783 -0.0652,0.66919 -0.65349,3.23634 -0.39585,1.72731 -0.72474,3.14626 -0.73087,3.15322 -0.0306,0.0347 -5.88473,2.82411 -5.9171,2.81943 -0.0207,-0.003 -1.33234,-0.62947 -2.91473,-1.39218 z m -39.48911,-2.02945 c -0.16283,-0.99714 -0.24951,-4.9133 -0.14635,-6.61159 0.36359,-5.98519 1.84716,-11.49365 4.51978,-16.7819 0.62182,-1.23038 1.49543,-2.77765 1.58519,-2.80757 0.0526,-0.0175 15.2505,13.51924 16.15196,14.3866 0.72569,0.69824 1.10024,1.49187 1.14747,2.43134 0.0346,0.68773 -0.0672,1.20364 -0.3517,1.78324 -0.27247,0.55504 -0.92294,1.21703 -1.48244,1.50868 -0.30857,0.16086 -2.58204,0.83638 -10.79913,3.20879 -5.72455,1.65277 -10.45031,3.01836 -10.50168,3.03464 -0.0717,0.0227 -0.10032,-0.0127 -0.1231,-0.15223 z m 74.46886,-2.90789 c -5.64707,-1.63116 -10.4199,-3.02118 -10.60629,-3.08893 -1.61357,-0.5865 -2.58827,-2.36519 -2.21515,-4.04231 0.11519,-0.51774 0.4558,-1.21408 0.7338,-1.50013 0.34063,-0.3505 16.36774,-14.67618 16.41924,-14.67618 0.0757,0 0.9749,1.57717 1.61771,2.83753 2.69785,5.28965 4.23367,10.93083 4.61988,16.96912 0.10374,1.62188 0.0588,4.92649 -0.0841,6.18565 -0.0254,0.22345 -0.0539,0.28832 -0.12528,0.28513 -0.0509,-0.002 -4.71278,-1.33871 -10.35984,-2.96988 z m -42.99698,-18.65483 c -0.17357,-0.0421 -0.44109,-0.1401 -0.59451,-0.21785 -0.15342,-0.0777 -2.75115,-1.89309 -5.77273,-4.03411 -3.02157,-2.14101 -7.031,-4.9811 -8.90983,-6.3113 -1.87883,-1.33021 -3.44875,-2.45003 -3.4887,-2.4885 -0.0595,-0.0573 0.0507,-0.1837 0.60833,-0.69781 4.03989,-3.72483 8.32601,-6.43182 13.29382,-8.39599 3.23372,-1.27855 6.92718,-2.23655 10.20334,-2.6465 l 0.28576,-0.0358 -0.026,0.29395 c -0.0143,0.16167 -0.28497,4.93041 -0.60148,10.5972 -0.3165,5.66679 -0.60041,10.52772 -0.6309,10.80207 -0.17555,1.5796 -1.17132,2.74814 -2.67189,3.1355 -0.40432,0.10437 -1.26281,0.10392 -1.6952,-8.8e-4 z m 20.48128,-0.005 c -0.6576,-0.13695 -1.1407,-0.3479 -1.60894,-0.70255 -0.55027,-0.41679 -1.07174,-1.19268 -1.22572,-1.82375 -0.0618,-0.25343 -1.33479,-22.16132 -1.29212,-22.23767 0.046,-0.0822 2.6734,0.37509 4.18188,0.72786 6.9888,1.63436 13.56434,5.07013 18.92603,9.88901 1.01621,0.91333 1.14306,1.05273 1.04457,1.14784 -0.0776,0.075 -16.87,11.98836 -17.52505,12.4332 -0.41879,0.28439 -0.72197,0.41176 -1.22986,0.51667 -0.38187,0.0789 -1.01167,0.10336 -1.27079,0.0494 z m -108.60843,37.94286 c 0,-0.16667 0.0103,-0.23485 0.0229,-0.15151 0.0126,0.0833 0.0126,0.2197 0,0.30303 -0.0126,0.0833 -0.0229,0.0152 -0.0229,-0.15152 z m 198.1783,0.0551 c 0,-0.0758 0.0125,-0.10675 0.0278,-0.0689 0.0153,0.0379 0.0153,0.0999 0,0.13774 -0.0153,0.0379 -0.0278,0.007 -0.0278,-0.0689 z"
         id="path2604"
         inkscape:connector-curvature="0"
         inkscape:label="blue foreground" />
    </g>
    <path
       style="fill:#000000;stroke-width:0.38453016"
       d="m 289.84146,200.79053 c 0,-7.60387 0.004,-7.64702 0.86519,-7.87761 2.21412,-0.59337 2.21106,-0.59901 2.21106,4.06914 v 4.3115 l 1.83972,-1.81206 c 1.6353,-1.61071 2.02919,-1.81205 3.54487,-1.81205 h 1.70513 l -2.27872,2.30274 -2.27873,2.30277 1.18052,1.25414 c 1.27628,1.35587 3.20875,4.13338 3.20875,4.61191 0,0.1624 -0.68384,0.29528 -1.51964,0.29528 -1.35465,0 -1.64206,-0.17746 -2.64696,-1.63426 -0.62003,-0.89883 -1.49353,-1.96389 -1.94113,-2.36678 l -0.81381,-0.73253 v 2.36678 2.36679 h -1.53813 -1.53812 z m 13.33139,6.85921 c -1.29792,-1.02095 -1.79069,-2.89165 -1.79333,-6.80792 l -0.001,-3.17237 h 1.53812 1.53813 v 3.62556 c 0,4.03537 0.44346,4.9694 2.25939,4.75884 l 1.00912,-0.11699 0.10914,-4.1337 0.10915,-4.1337 h 1.33285 1.33284 v 5.1463 c 0,5.91856 0.22745,5.60567 -4.08184,5.61529 -1.79216,0.004 -2.58929,-0.18184 -3.35139,-0.7813 z m 11.18241,0.52147 c -0.61159,-0.15982 -0.67293,-0.85295 -0.67293,-7.60485 0,-8.04323 -0.0401,-7.89582 2.14637,-7.89582 0.88971,0 0.92988,0.10988 0.92988,2.54225 v 2.54224 l 1.32559,-0.24868 c 3.15684,-0.59224 5.38369,1.62244 5.38369,5.35425 0,3.96836 -1.78486,5.60901 -6.01726,5.53108 -1.33233,-0.0246 -2.72523,-0.12368 -3.09534,-0.22047 z m 5.45165,-3.05529 c 1.64682,-2.09361 0.6118,-5.28371 -1.64328,-5.06478 l -1.21279,0.11772 -0.11234,2.98011 -0.11234,2.98011 h 1.14184 c 0.77557,0 1.39752,-0.32502 1.93884,-1.01319 z m 8.49912,2.82842 c -2.4218,-1.22543 -3.42937,-4.97547 -2.09334,-7.79096 1.11457,-2.34877 3.94155,-3.38707 6.41181,-2.35492 1.72226,0.71959 2.63105,2.07527 2.88166,4.29862 l 0.19441,1.72484 h -3.51078 c -2.83999,0 -3.51078,0.10857 -3.51078,0.56793 0,1.06858 1.76051,1.82103 3.92946,1.67951 1.89241,-0.12354 2.03959,-0.0701 2.16053,0.78531 0.0714,0.50482 -0.10159,1.06455 -0.38453,1.24384 -0.78294,0.49628 -5.00461,0.38921 -6.07844,-0.15417 z m 4.21828,-6.54496 c 0,-0.79965 -0.84204,-1.42275 -1.92264,-1.42275 -1.08062,0 -1.92266,0.6231 -1.92266,1.42275 0,0.34351 0.60144,0.49989 1.92266,0.49989 1.3212,0 1.92264,-0.15638 1.92264,-0.49989 z m 5.63978,6.78055 c -0.14097,-0.14097 -0.25635,-2.46267 -0.25635,-5.15929 v -4.90294 l 1.94563,-0.41727 c 2.14648,-0.46033 4.97887,-0.1761 4.97066,0.49882 -0.0199,1.63858 -0.40776,1.97291 -2.12968,1.83596 l -1.71037,-0.13603 v 4.26855 4.26856 h -1.28177 c -0.70498,0 -1.39713,-0.1154 -1.53812,-0.25636 z m 8.67297,-5.00707 0.10711,-5.31115 2.52223,-0.32421 c 1.97807,-0.25425 2.83142,-0.19501 3.95527,0.27456 1.99358,0.83297 2.55896,2.37045 2.55896,6.95884 v 3.66539 h -1.53813 -1.53812 v -3.7684 c 0,-4.1025 -0.24932,-4.69126 -1.98654,-4.69126 h -1.06369 l -0.10914,4.13369 -0.10915,4.1337 -1.45299,0.12005 -1.453,0.12005 z m 14.33475,4.89657 c -1.69198,-0.69985 -2.63718,-2.23987 -2.78715,-4.54117 -0.17484,-2.68293 0.67806,-4.49075 2.62459,-5.5632 3.34647,-1.84376 7.27636,0.68978 7.27636,4.69092 v 1.16594 h -3.46077 c -2.79588,0 -3.46077,0.10915 -3.46077,0.56793 0,1.106 1.79917,1.861 3.85467,1.61755 1.80696,-0.214 1.92096,-0.17389 2.1549,0.75821 0.16185,0.64485 0.0634,1.10047 -0.2857,1.32152 -0.66666,0.42222 -4.8831,0.40959 -5.91613,-0.0177 z m 4.03757,-6.67005 c 0,-0.79965 -0.84205,-1.42275 -1.92265,-1.42275 -1.08061,0 -1.92266,0.6231 -1.92266,1.42275 0,0.34351 0.60145,0.49989 1.92266,0.49989 1.3212,0 1.92265,-0.15638 1.92265,-0.49989 z m 6.65458,6.10979 -1.0789,-0.9271 -0.12296,-5.7503 c -0.1228,-5.73605 -0.12077,-5.75087 0.76907,-5.98918 1.93571,-0.51837 2.23794,-0.34434 2.23794,1.28873 v 1.53813 h 1.73038 c 1.6663,0 1.73039,0.0427 1.73039,1.15359 0,1.11086 -0.0641,1.15359 -1.73039,1.15359 h -1.73038 v 2.67817 c 0,2.96527 0.49535,3.61233 2.59707,3.3925 0.85939,-0.09 1.08014,0.0605 1.18575,0.80737 0.16811,1.18904 -0.483,1.56848 -2.70391,1.57573 -1.35859,0.004 -2.07195,-0.22344 -2.88399,-0.92123 z m 10.07248,0.56026 c -1.69198,-0.69985 -2.63718,-2.23987 -2.78715,-4.54117 -0.17506,-2.6862 0.68355,-4.50293 2.61859,-5.54071 1.57477,-0.84456 2.64521,-0.88315 4.38084,-0.15796 1.64605,0.68776 2.4454,1.90189 2.75914,4.1908 l 0.24692,1.80153 h -3.51303 c -2.84198,0 -3.51305,0.10842 -3.51305,0.56793 0,1.106 1.79916,1.861 3.85467,1.61755 1.80695,-0.214 1.92096,-0.17389 2.1549,0.75821 0.16184,0.64485 0.0634,1.10047 -0.2857,1.32152 -0.66666,0.42222 -4.8831,0.40959 -5.91613,-0.0177 z m 4.03757,-6.67005 c 0,-0.79965 -0.84205,-1.42275 -1.92266,-1.42275 -1.0806,0 -1.92265,0.6231 -1.92265,1.42275 0,0.34351 0.60145,0.49989 1.92265,0.49989 1.32121,0 1.92266,-0.15638 1.92266,-0.49989 z m 5.44591,6.72067 c -0.28287,-0.19114 -0.4559,-0.76056 -0.38453,-1.26538 0.12034,-0.85102 0.29772,-0.91783 2.43695,-0.91783 2.909,0 3.09927,-0.76611 0.49709,-2.00154 -2.25592,-1.07104 -3.1588,-2.3445 -2.80484,-3.95609 0.42181,-1.92044 2.61342,-2.93761 5.42197,-2.51644 1.57762,0.23657 1.69241,0.33387 1.69241,1.43445 0,1.16135 -0.026,1.17719 -1.58547,0.96801 -3.28354,-0.44042 -3.61291,0.84634 -0.56201,2.19559 2.93007,1.29582 3.76932,3.31448 2.18922,5.26582 -0.62196,0.76808 -1.13729,0.9158 -3.55691,1.01958 -1.55627,0.0667 -3.06102,-0.035 -3.34388,-0.22617 z"
       id="path150"
       inkscape:connector-curvature="0"
       inkscape:label="Kubernetes Text" />
  </g>
</svg>
