<?xml version="1.0" encoding="UTF-8"?>
<svg width="18px" height="18px" viewBox="0 0 13 10" version="1.1" xmlns="http://www.w3.org/2000/svg" xmlns:xlink="http://www.w3.org/1999/xlink">
    <!-- Generator: Sketch 41.2 (35397) - http://www.bohemiancoding.com/sketch -->
    <title>icon-twitter</title>
    <desc>Created with Sketch.</desc>
    <defs></defs>
    <g id="Symbols" stroke="none" stroke-width="1" fill="none" fill-rule="evenodd">
        <g id="Menu" transform="translate(-1120.000000, -8.000000)" fill="#FFFFFF">
            <g id="Group-36">
                <g id="Group-34" transform="translate(1049.000000, 6.000000)">
                    <path d="M82.0047245,4.67508696 C82.0123237,4.7816087 82.0123237,4.88782609 82.0123237,4.99434783 C82.0123237,8.24021739 79.5447126,11.9800435 75.0353493,11.9800435 C73.6459122,11.9800435 72.3552646,11.5773913 71.2697954,10.8776957 C71.4670705,10.9005217 71.6570504,10.9081304 71.8619248,10.9081304 C73.0081876,10.9081304 74.063564,10.5206957 74.9061629,9.85904348 C73.8282929,9.83652174 72.9245964,9.12952174 72.6136373,8.15652174 C72.7653173,8.17934783 72.9173012,8.19426087 73.0765804,8.19426087 C73.2969571,8.19426087 73.5170298,8.16413043 73.7219041,8.11086957 C72.5984389,7.88291304 71.755536,6.89469565 71.755536,5.70134783 L71.755536,5.67091304 C72.0819975,5.85321739 72.4616534,5.96734783 72.8641068,5.98256522 C72.2035846,5.54186957 71.7707344,4.78921739 71.7707344,3.93765217 C71.7707344,3.48173913 71.8920176,3.06356522 72.1047951,2.69895652 C73.3118515,4.18843478 75.1265397,5.16173913 77.1609966,5.26795652 C77.1230006,5.08565217 77.100203,4.89573913 77.100203,4.70552174 C77.100203,3.3523913 78.1932715,2.25034783 79.5526158,2.25034783 C80.2584291,2.25034783 80.8964577,2.54678261 81.3442024,3.02552174 C81.8983358,2.919 82.4296716,2.71417391 82.9005178,2.43265217 C82.7184411,3.003 82.331186,3.48173913 81.8223438,3.78578261 C82.3159876,3.73252174 82.7941291,3.59556522 83.2345785,3.40565217 C82.9005178,3.89230435 82.482866,4.32569565 82.0047245,4.67508696" id="icon-twitter"></path>
                </g>
            </g>
        </g>
    </g>
</svg>