<?xml version="1.0" encoding="UTF-8"?>
<svg width="18px" height="18px" viewBox="0 0 13 12" version="1.1" xmlns="http://www.w3.org/2000/svg" xmlns:xlink="http://www.w3.org/1999/xlink">
    <!-- Generator: Sketch 41.2 (35397) - http://www.bohemiancoding.com/sketch -->
    <title>icon-slideshare</title>
    <desc>Created with Sketch.</desc>
    <defs></defs>
    <g id="Symbols" stroke="none" stroke-width="1" fill="none" fill-rule="evenodd">
        <g id="Menu" transform="translate(-1096.000000, -7.000000)" fill="#FFFFFF">
            <g id="Group-36">
                <g id="Group-34" transform="translate(1049.000000, 6.000000)">
                    <path d="M55.1328405,7.41096087 C54.3689692,7.41096087 53.746443,6.8263087 53.746443,6.11291739 C53.746443,5.39313478 54.3689692,4.81517826 55.1328405,4.81517826 C55.903095,4.81517826 56.5192379,5.39313478 56.5192379,6.11291739 C56.5192379,6.8263087 55.903095,7.41096087 55.1328405,7.41096087 L55.1328405,7.41096087 Z M51.9110851,7.41096087 C51.1472138,7.41096087 50.5246876,6.8263087 50.5246876,6.11291739 C50.5246876,5.39313478 51.1472138,4.81517826 51.9110851,4.81517826 C52.6749563,4.81517826 53.2971785,5.39313478 53.2971785,6.11291739 C53.2971785,6.8263087 52.6749563,7.41096087 51.9110851,7.41096087 L51.9110851,7.41096087 Z M57.9630853,2.98361304 C57.9630853,2.24435217 57.7256864,1.95522174 57.0454063,1.95522174 L49.9085448,1.95522174 C49.196348,1.95522174 48.9972491,2.19961304 48.9972491,2.98361304 L48.9972491,7.3080913 C50.5183043,8.10487391 51.8211106,7.96365652 52.5336112,7.93778696 C52.8351474,7.93139565 53.027863,7.98922174 53.1433708,8.11156957 C53.1625208,8.13043913 53.1819747,8.14991739 53.207508,8.1690913 C53.3421658,8.29783043 53.4704402,8.4007 53.5990186,8.49687391 C53.6248559,8.14352609 53.8236509,7.91861304 54.3562026,7.93778696 C55.0814699,7.97004783 56.4164968,8.11156957 57.9630853,7.26943913 L57.9630853,2.98361304 Z M56.6216751,8.85661304 C57.8861814,13.168613 53.5348814,13.8561348 53.6054019,11.6456565 C53.6054019,11.6843087 53.5990186,10.4571783 53.5990186,9.54443913 C53.5026608,9.52496087 53.406303,9.49939565 53.2907952,9.47352609 C53.2907952,10.3926565 53.2844119,11.6843087 53.2844119,11.6456565 C53.3549324,13.8561348 49.0036324,13.168613 50.2681387,8.85661304 C49.0744569,8.36843913 48.2914357,7.74513478 47.8807751,7.23748261 C47.6752928,6.92917826 47.8999251,6.60139565 48.2400651,6.8390913 C48.2850524,6.87135217 48.336119,6.9033087 48.3811062,6.93556957 L48.3811062,2.47596087 C48.3811062,1.85904783 48.8434414,1.35778696 49.414597,1.35778696 L57.4819041,1.35778696 C58.0527558,1.35778696 58.5150909,1.85904783 58.5150909,2.47596087 L58.5150909,6.93556957 C58.5597742,6.9033087 58.6047614,6.87135217 58.6497487,6.8390913 C58.9898887,6.60139565 59.2148249,6.92917826 59.0093427,7.23748261 C58.5986821,7.74513478 57.8153569,8.36843913 56.6216751,8.85661304 L56.6216751,8.85661304 Z" id="icon-slideshare"></path>
                </g>
            </g>
        </g>
    </g>
</svg>