<?xml version="1.0" encoding="UTF-8"?>
<svg width="18px" height="18px" viewBox="0 0 12 14" version="1.1" xmlns="http://www.w3.org/2000/svg" xmlns:xlink="http://www.w3.org/1999/xlink">
    <!-- Generator: Sketch 41.2 (35397) - http://www.bohemiancoding.com/sketch -->
    <title>icon-youtube</title>
    <desc>Created with Sketch.</desc>
    <defs></defs>
    <g id="Symbols" stroke="none" stroke-width="1" fill="none" fill-rule="evenodd">
        <g id="Menu" transform="translate(-1073.000000, -6.000000)" fill="#FFFFFF">
            <g id="Group-36">
                <g id="Group-34" transform="translate(1049.000000, 6.000000)">
                    <path d="M33.7449319,10.1176783 L33.0616121,10.1176783 L33.0616121,9.76828696 C33.0616121,9.4262 33.1756001,9.25089565 33.403272,9.25089565 C33.6309439,9.25089565 33.7449319,9.4262 33.7449319,9.76828696 L33.7449319,10.1176783 Z M34.4206524,11.1363304 L33.7297335,11.1363304 C33.7297335,11.4099391 33.7221343,11.5618087 33.7145351,11.6001565 C33.6765391,11.7824609 33.5780535,11.8737652 33.4108712,11.8737652 C33.1756001,11.8737652 33.0616121,11.6987652 33.0616121,11.3490696 L33.0616121,10.6877217 L34.4206524,10.6877217 L34.4206524,9.90493913 C34.4206524,9.50228696 34.3522597,9.21315652 34.2154741,9.02293913 C34.018199,8.76485217 33.7525311,8.63550435 33.4108712,8.63550435 C33.0616121,8.63550435 32.7959442,8.76485217 32.5986691,9.02293913 C32.4542843,9.21315652 32.3858915,9.50228696 32.3858915,9.90493913 L32.3858915,11.2197217 C32.3858915,11.6226783 32.4618835,11.919113 32.6062683,12.1017217 C32.8035434,12.360113 33.0692113,12.4894609 33.4260696,12.4894609 C33.7829279,12.4894609 34.0637942,12.3528087 34.2458709,12.0865043 C34.3294621,11.9647652 34.3902557,11.8278087 34.4054541,11.6759391 C34.4206524,11.6077652 34.4206524,11.4555913 34.4206524,11.2352435 L34.4206524,11.1363304 Z M33.0388145,5.39724348 L32.3481995,5.39724348 L32.3481995,4.97906957 C32.0746285,5.29833043 31.8165597,5.45050435 31.5660902,5.45050435 C31.3457135,5.45050435 31.1864343,5.3592 31.1180416,5.16928696 C31.0800456,5.05515652 31.057552,4.87285217 31.057552,4.59893913 L31.057552,1.60415652 L31.748167,1.60415652 L31.748167,4.3938087 C31.748167,4.5535913 31.748167,4.64489565 31.7560701,4.6598087 C31.7709646,4.76633043 31.8241589,4.8272 31.9150453,4.8272 C32.0518309,4.8272 32.1962156,4.72098261 32.3481995,4.50033043 L32.3481995,1.60415652 L33.0388145,1.60415652 L33.0388145,5.39724348 Z M31.1788352,11.364287 C31.1788352,11.7063739 31.0800456,11.8737652 30.8827704,11.8737652 C30.7687825,11.8737652 30.6550985,11.8205043 30.5411106,11.7063739 L30.5411106,9.41828696 C30.6550985,9.30446087 30.7687825,9.25089565 30.8827704,9.25089565 C31.0800456,9.25089565 31.1788352,9.4262 31.1788352,9.76037391 L31.1788352,11.364287 Z M31.8545557,9.81363478 C31.8545557,9.46393913 31.8393573,9.21315652 31.7861629,9.06098261 C31.7028758,8.77976522 31.5128958,8.63550435 31.2472279,8.63550435 C30.9967584,8.63550435 30.7614873,8.77215652 30.5411106,9.04606957 L30.5411106,7.39650435 L29.86539,7.39650435 L29.86539,12.4358957 L30.5411106,12.4358957 L30.5411106,12.071287 C30.7687825,12.3528087 31.0043576,12.4894609 31.2472279,12.4894609 C31.5128958,12.4894609 31.7028758,12.3448957 31.7861629,12.071287 C31.8393573,11.9118087 31.8545557,11.6607217 31.8545557,11.3113304 L31.8545557,9.81363478 Z M29.8049004,2.69889565 C29.8049004,2.3492 29.7061108,2.1742 29.4781349,2.1742 C29.2580622,2.1742 29.1519774,2.3492 29.1519774,2.69889565 L29.1519774,4.29489565 C29.1519774,4.64489565 29.2580622,4.8272 29.4781349,4.8272 C29.7061108,4.8272 29.8049004,4.64489565 29.8049004,4.29489565 L29.8049004,2.69889565 Z M30.4955154,4.16554783 C30.4955154,4.5688087 30.4271226,4.87285217 30.2830418,5.06306957 C30.0930619,5.32115652 29.827394,5.45050435 29.4781349,5.45050435 C29.1364751,5.45050435 28.8708071,5.32115652 28.6811312,5.06306957 C28.5370504,4.86524348 28.4686577,4.5688087 28.4686577,4.16554783 L28.4686577,2.83554783 C28.4686577,2.4325913 28.5370504,2.13615652 28.6811312,1.94624348 C28.8708071,1.68785217 29.1364751,1.55850435 29.4781349,1.55850435 C29.827394,1.55850435 30.0930619,1.68785217 30.2830418,1.94624348 C30.4271226,2.13615652 30.4955154,2.4325913 30.4955154,2.83554783 L30.4955154,4.16554783 Z M29.2732606,12.4358957 L29.2732606,8.68085217 L28.59754,8.68085217 L28.59754,11.5545043 C28.4458601,11.7672435 28.3014753,11.8737652 28.1649938,11.8737652 C28.0738034,11.8737652 28.020609,11.8205043 28.0054106,11.7139826 C27.9978114,11.6911565 27.9978114,11.6077652 27.9978114,11.4479826 L27.9978114,8.68085217 L27.3223948,8.68085217 L27.3223948,11.653113 C27.3223948,11.919113 27.3448885,12.0938087 27.3828844,12.2082435 C27.443678,12.3981565 27.6032611,12.4894609 27.8233339,12.4894609 C28.0662042,12.4894609 28.3242729,12.337287 28.59754,12.0256348 L28.59754,12.4358957 L29.2732606,12.4358957 Z M28.4610585,0.304286957 L27.5424676,3.33741739 L27.5424676,5.39724348 L26.7831558,5.39724348 L26.7831558,3.33741739 C26.715067,2.96489565 26.5630831,2.4325913 26.3202128,1.72589565 C26.1530305,1.25446087 25.9861521,0.775721739 25.826569,0.304286957 L26.6314759,0.304286957 L27.1704109,2.30354783 L27.6865483,0.304286957 L28.4610585,0.304286957 Z M27.2236053,8.1108087 L27.2236053,7.39650435 L24.8547837,7.39650435 L24.8547837,8.1108087 L25.6517874,8.1108087 L25.6517874,12.4358957 L26.4114031,12.4358957 L26.4114031,8.1108087 L27.2236053,8.1108087 Z M35.0659762,12.6641565 C34.9218955,13.2646348 34.4358508,13.7056348 33.8513206,13.7665043 C32.4542843,13.9259826 31.0420496,13.9259826 29.6377181,13.9259826 C28.2333865,13.9259826 26.8211518,13.9259826 25.4241155,13.7665043 C24.8395853,13.7056348 24.3462455,13.2646348 24.2094599,12.6641565 C24.0121848,11.8128957 24.0121848,10.8776348 24.0121848,10.0035478 C24.0121848,9.12215652 24.019784,8.19450435 24.2094599,7.34324348 C24.3538447,6.74276522 24.8395853,6.30176522 25.4317147,6.23328696 C26.8211518,6.08141739 28.2333865,6.08141739 29.6377181,6.08141739 C31.0420496,6.08141739 32.4542843,6.08141739 33.8513206,6.23328696 C34.4358508,6.30176522 34.9291907,6.74276522 35.0659762,7.34324348 C35.2632514,8.19450435 35.2632514,9.12215652 35.2632514,10.0035478 C35.2632514,10.8776348 35.2559561,11.8128957 35.0659762,12.6641565 L35.0659762,12.6641565 Z" id="icon-youtube"></path>
                </g>
            </g>
        </g>
    </g>
</svg>