<?xml version="1.0" encoding="UTF-8"?>
<svg width="18px" height="18px" viewBox="0 0 14 14" version="1.1" xmlns="http://www.w3.org/2000/svg" xmlns:xlink="http://www.w3.org/1999/xlink">
    <!-- Generator: Sketch 41.2 (35397) - http://www.bohemiancoding.com/sketch -->
    <title>icon-slack</title>
    <desc>Created with Sketch.</desc>
    <defs></defs>
    <g id="Symbols" stroke="none" stroke-width="1" fill="none" fill-rule="evenodd">
        <g id="Menu" transform="translate(-1167.000000, -6.000000)" fill="#FFFFFF">
            <g id="Group-36">
                <g id="Group-34" transform="translate(1049.000000, 6.000000)">
                    <path d="M126.407803,7.88291304 L125.610496,5.4886087 L123.257176,6.30182609 L124.05418,8.68091304 L126.407803,7.88291304 Z M131.183138,7.76878261 C131.183138,8.25543478 130.932669,8.59752174 130.477021,8.757 L129.171175,9.2056087 L129.596122,10.4750435 C129.634118,10.5891739 129.649317,10.7106087 129.649317,10.8320435 C129.649317,11.4325217 129.163272,11.9346957 128.563847,11.9346957 C128.085706,11.9346957 127.660455,11.6379565 127.508471,11.1820435 L127.090819,9.92752174 L124.7375,10.7334348 L125.155152,11.9800435 C125.193148,12.0938696 125.215641,12.2156087 125.215641,12.3373478 C125.215641,12.9302174 124.729597,13.4396957 124.122269,13.4396957 C123.644127,13.4396957 123.22678,13.1429565 123.074796,12.6870435 L122.657144,11.4480435 L121.495683,11.8506957 C121.374095,11.8887391 121.245213,11.9191739 121.116331,11.9191739 C120.5011,11.9191739 120.038157,11.4632609 120.038157,10.8475652 C120.038157,10.3761304 120.341821,9.95034783 120.789869,9.79847826 L121.974128,9.39552174 L121.17682,7.01613043 L119.992561,7.42669565 C119.870974,7.46473913 119.749691,7.48756522 119.628104,7.48756522 C119.020776,7.48756522 118.54993,7.02404348 118.54993,6.41595652 C118.54993,5.94452174 118.853594,5.51873913 119.301643,5.36686957 L120.493501,4.96391304 L120.091351,3.75504348 C120.053355,3.64121739 120.030557,3.51978261 120.030557,3.39834783 C120.030557,2.79756522 120.516298,2.296 121.123626,2.296 C121.602071,2.296 122.019419,2.59243478 122.171403,3.04834783 L122.581456,4.26452174 L124.934775,3.46652174 L124.525026,2.25034783 C124.48703,2.13621739 124.463929,2.01478261 124.463929,1.89273913 C124.463929,1.29256522 124.957573,0.790695652 125.557301,0.790695652 C126.035747,0.790695652 126.460998,1.09473913 126.612678,1.54334783 L127.015131,2.76713043 L128.244985,2.34895652 C128.351374,2.31882609 128.457459,2.3036087 128.571447,2.3036087 C129.163272,2.3036087 129.672114,2.74430435 129.672114,3.3523913 C129.672114,3.82382609 129.307657,4.21917391 128.88271,4.36343478 L127.690852,4.77369565 L128.487855,7.17591304 L129.732604,6.75013043 C129.846592,6.71208696 129.968179,6.68956522 130.082167,6.68956522 C130.704693,6.68956522 131.183138,7.14547826 131.183138,7.76878261 L131.183138,7.76878261 Z" id="icon-slack"></path>
                </g>
            </g>
        </g>
    </g>
</svg>