<?xml version="1.0" encoding="UTF-8"?>
<svg width="423px" height="315px" viewBox="0 0 423 315" version="1.1" xmlns="http://www.w3.org/2000/svg" xmlns:xlink="http://www.w3.org/1999/xlink">
    <!-- Generator: Sketch 41.2 (35397) - http://www.bohemiancoding.com/sketch -->
    <title>illustration-integrator-third-party</title>
    <desc>Created with Sketch.</desc>
    <defs>
        <ellipse id="path-1" cx="155.5" cy="157.236854" rx="155.5" ry="157.236854"></ellipse>
        <mask id="mask-2" maskContentUnits="userSpaceOnUse" maskUnits="objectBoundingBox" x="0" y="0" width="311" height="314.473708" fill="white">
            <use xlink:href="#path-1"></use>
        </mask>
        <filter x="-50%" y="-50%" width="200%" height="200%" filterUnits="objectBoundingBox" id="filter-3">
            <feOffset dx="0" dy="2" in="SourceAlpha" result="shadowOffsetOuter1"></feOffset>
            <feGaussianBlur stdDeviation="9" in="shadowOffsetOuter1" result="shadowBlurOuter1"></feGaussianBlur>
            <feColorMatrix values="0 0 0 0 0.434836549   0 0 0 0 0.457723317   0 0 0 0 0.474888393  0 0 0 0.246150362 0" type="matrix" in="shadowBlurOuter1" result="shadowMatrixOuter1"></feColorMatrix>
            <feMerge>
                <feMergeNode in="shadowMatrixOuter1"></feMergeNode>
                <feMergeNode in="SourceGraphic"></feMergeNode>
            </feMerge>
        </filter>
        <ellipse id="path-4" cx="85.916638" cy="86.3107886" rx="84.9731617" ry="86.1223249"></ellipse>
        <filter x="-50%" y="-50%" width="200%" height="200%" filterUnits="objectBoundingBox" id="filter-5">
            <feOffset dx="0" dy="2" in="SourceAlpha" result="shadowOffsetOuter1"></feOffset>
            <feGaussianBlur stdDeviation="5" in="shadowOffsetOuter1" result="shadowBlurOuter1"></feGaussianBlur>
            <feColorMatrix values="0 0 0 0 0.239215686   0 0 0 0 0.439215686   0 0 0 0 0.698039216  0 0 0 0.140738225 0" type="matrix" in="shadowBlurOuter1"></feColorMatrix>
        </filter>
        <linearGradient x1="16.5377071%" y1="63.6647547%" x2="159.470346%" y2="19.9640064%" id="linearGradient-6">
            <stop stop-color="#F69923" offset="0%"></stop>
            <stop stop-color="#F79A23" offset="31.23%"></stop>
            <stop stop-color="#E97826" offset="83.83%"></stop>
        </linearGradient>
        <linearGradient x1="-217.759367%" y1="394.595728%" x2="74.7186183%" y2="13.7697558%" id="linearGradient-7">
            <stop stop-color="#9E2064" offset="32.33%"></stop>
            <stop stop-color="#C92037" offset="63.02%"></stop>
            <stop stop-color="#CD2335" offset="75.14%"></stop>
            <stop stop-color="#E97826" offset="100%"></stop>
        </linearGradient>
        <linearGradient x1="-20.6556056%" y1="192.491107%" x2="125.23272%" y2="-136.440038%" id="linearGradient-8">
            <stop stop-color="#282662" offset="0%"></stop>
            <stop stop-color="#662E8D" offset="9.54839%"></stop>
            <stop stop-color="#9F2064" offset="78.82%"></stop>
            <stop stop-color="#CD2032" offset="94.87%"></stop>
        </linearGradient>
        <linearGradient x1="-80.0336393%" y1="170.500916%" x2="146.227723%" y2="-44.3641683%" id="linearGradient-9">
            <stop stop-color="#9E2064" offset="32.33%"></stop>
            <stop stop-color="#C92037" offset="63.02%"></stop>
            <stop stop-color="#CD2335" offset="75.14%"></stop>
            <stop stop-color="#E97826" offset="100%"></stop>
        </linearGradient>
        <linearGradient x1="-18.3986495%" y1="77.3318733%" x2="164.8455%" y2="-41.423122%" id="linearGradient-10">
            <stop stop-color="#282662" offset="0%"></stop>
            <stop stop-color="#662E8D" offset="9.54839%"></stop>
            <stop stop-color="#9F2064" offset="78.82%"></stop>
            <stop stop-color="#CD2032" offset="94.87%"></stop>
        </linearGradient>
        <linearGradient x1="-34.7851483%" y1="187.748055%" x2="110.662055%" y2="-51.1460685%" id="linearGradient-11">
            <stop stop-color="#9E2064" offset="32.33%"></stop>
            <stop stop-color="#C92037" offset="63.02%"></stop>
            <stop stop-color="#CD2335" offset="75.14%"></stop>
            <stop stop-color="#E97826" offset="100%"></stop>
        </linearGradient>
        <linearGradient x1="-129.864594%" y1="465.605782%" x2="66.4177731%" y2="17.1797127%" id="linearGradient-12">
            <stop stop-color="#9E2064" offset="32.33%"></stop>
            <stop stop-color="#C92037" offset="63.02%"></stop>
            <stop stop-color="#CD2335" offset="75.14%"></stop>
            <stop stop-color="#E97826" offset="100%"></stop>
        </linearGradient>
        <linearGradient x1="-4549.16207%" y1="63127.309%" x2="2857.87143%" y2="-38452.9868%" id="linearGradient-13">
            <stop stop-color="#9E2064" offset="32.33%"></stop>
            <stop stop-color="#C92037" offset="63.02%"></stop>
            <stop stop-color="#CD2335" offset="75.14%"></stop>
            <stop stop-color="#E97826" offset="100%"></stop>
        </linearGradient>
        <linearGradient x1="-15880.8178%" y1="236118.014%" x2="7802.19722%" y2="-114795.735%" id="linearGradient-14">
            <stop stop-color="#9E2064" offset="32.33%"></stop>
            <stop stop-color="#C92037" offset="63.02%"></stop>
            <stop stop-color="#CD2335" offset="75.14%"></stop>
            <stop stop-color="#E97826" offset="100%"></stop>
        </linearGradient>
        <linearGradient x1="-19880.5881%" y1="42660.5669%" x2="19903.3013%" y2="-42659.2129%" id="linearGradient-15">
            <stop stop-color="#9E2064" offset="32.33%"></stop>
            <stop stop-color="#C92037" offset="63.02%"></stop>
            <stop stop-color="#CD2335" offset="75.14%"></stop>
            <stop stop-color="#E97826" offset="100%"></stop>
        </linearGradient>
    </defs>
    <g id="Service-Integrator" stroke="none" stroke-width="1" fill="none" fill-rule="evenodd">
        <g id="Service-Developer" transform="translate(-769.000000, -909.000000)">
            <g id="illustration-integrator-third-party" transform="translate(769.000000, 909.000000)">
                <use id="Oval-Copy-3" stroke="#FFFFFF" mask="url(#mask-2)" stroke-width="12" xlink:href="#path-1"></use>
                <g id="Group-25" filter="url(#filter-3)" transform="translate(30.000000, 50.000000)">
                    <polygon id="Rectangle-7" fill="#FFBE6F" points="72.1229789 0.193472218 250.859297 0.193472218 180.253731 62.3592969 0.258706468 62.3592969"></polygon>
                    <polygon id="Rectangle-7-Copy" fill="#FFFFFF" points="44.9658287 23.5672058 223.684898 23.5672058 205.089212 39.9461419 25.111436 40.2088532"></polygon>
                    <polygon id="Rectangle-2" fill="#FF991F" points="0.258706468 61.394372 180.253731 61.394372 179.829117 213.788029 0.258706468 213.788029"></polygon>
                    <polygon id="Rectangle-2-Copy" fill="#D4882D" points="180.253731 61.4766778 250.952354 -1.98951966e-13 250.952354 137.539626 179.841983 213.841839"></polygon>
                    <polygon id="Rectangle-2-Copy-2" fill="#FFFFFF" opacity="0.697407156" points="204.891736 39.8880243 224.486398 22.9121271 224.486398 104.866881 204.891736 122.820754"></polygon>
                </g>
                <path d="M105.013352,188.801103 L105.013352,180.552776 L115.901715,180.552776 L115.901715,172.606411 L105.013352,172.606411 L105.013352,162 L80.9841209,162 C71.5289899,162 63.7920728,169.753666 63.7920728,179.233679 L63.7920728,180.00845 L51,180.00845 L51,187.954815 L63.7920728,187.954815 L63.7920728,188.729586 C63.7920728,198.209599 71.5289899,205.963265 80.9841209,205.963265 L105.013352,205.963265 L105.013352,196.747468 L115.901715,196.747468 L115.901715,188.801103 L105.013352,188.801103 Z M164.440367,180.00845 L164.440367,179.233878 C164.440367,169.753864 156.705431,162.000199 147.248319,162.000199 L123.221069,162.000199 L123.221069,205.963464 L147.248319,205.963464 C156.705431,205.963464 164.440367,198.209798 164.440367,188.729784 L164.440367,187.954815 L179,187.954815 L179,180.00845 L164.440367,180.00845 Z" id="Combined-Shape" fill="#FFFFFF"></path>
                <g id="Group-27" transform="translate(242.000000, 71.000000)">
                    <g id="Oval-Copy">
                        <use fill="black" fill-opacity="1" filter="url(#filter-5)" xlink:href="#path-4"></use>
                        <use fill="#FFFFFF" fill-rule="evenodd" xlink:href="#path-4"></use>
                    </g>
                    <g id="feather" transform="translate(43.000000, 26.000000)">
                        <g id="Feather">
                            <path d="M67.0866869,0.791634624 C64.6141496,2.25859736 60.5081713,6.4156171 55.6041192,12.4372928 L60.1091344,20.9914489 C63.2715954,16.4404878 66.4825375,12.347249 69.7233141,8.85055013 C69.9731784,8.57291524 70.1037045,8.44160144 70.1037045,8.44160144 C69.9769077,8.57666706 69.8501109,8.71548451 69.7233141,8.85055013 C68.675376,10.0136152 65.4942684,13.746679 60.6946372,21.1602809 C65.3152612,20.9276679 72.4158811,19.9784567 78.2075107,18.9804719 C79.9304552,9.27075429 76.51813,4.8248442 76.51813,4.8248442 C76.51813,4.8248442 72.1809341,-2.23608643 67.0866869,0.791634624 Z" id="Shape" fill="url(#linearGradient-6)"></path>
                            <path d="M59.4602332,49.6095694 C59.4937971,49.5933751 59.5273609,49.585278 59.5609248,49.5690837 L58.9120236,49.7229294 C58.8710011,49.7634151 58.8374372,49.8039008 58.7964148,49.8362894 C59.0201738,49.7634151 59.2402035,49.6824437 59.4602332,49.6095694 Z" id="Shape"></path>
                            <path d="M54.8619851,64.9102874 C54.4927827,65.0191489 54.1161217,65.1032693 53.7357313,65.1774931 C54.1161217,65.1032693 54.4927827,65.0142007 54.8619851,64.9102874 Z" id="Shape"></path>
                            <path d="M23.6103071,99.2807366 C23.6587882,99.1531746 23.7072693,99.0256126 23.7520212,98.8980507 C24.7440195,96.264271 25.7248299,93.7055278 26.6981817,91.2105656 C27.7908717,88.4117058 28.8686443,85.7028897 29.9352291,83.0766137 C31.0577535,80.3077684 32.1653607,77.6327187 33.2580507,75.0477127 C34.402951,72.3351448 35.5329341,69.7238761 36.6405413,67.2101548 C37.5430361,65.1654113 38.4306136,63.1844488 39.3070031,61.2672674 C39.5978899,60.6294575 39.8887766,59.9953994 40.1796634,59.368845 C40.7539782,58.1269916 41.3245637,56.9076492 41.8839613,55.7183213 C42.4023364,54.6190372 42.9169822,53.5460159 43.4278986,52.4917537 C43.5957179,52.1390823 43.7672665,51.7939146 43.9350858,51.4449951 C43.961191,51.3887178 43.9910255,51.3324404 44.0171307,51.2761631 L43.4651918,51.3361922 L43.0251324,50.4657693 C42.9841099,50.5520613 42.9393581,50.6346014 42.8946063,50.7208933 C42.103991,52.3004107 41.3208344,53.8949354 40.5451364,55.5044674 C40.0976184,56.4349195 39.6501003,57.3691234 39.2063116,58.3070791 C37.9756369,60.9070924 36.7636088,63.5296165 35.5739566,66.1708998 C34.3693872,68.8384459 33.190923,71.5209992 32.0348346,74.2073044 C30.8973929,76.8448359 29.7860564,79.4861192 28.6933664,82.1198988 C27.6044058,84.7499267 26.5415504,87.3724508 25.5010709,89.9762159 C24.4158396,92.6962875 23.3604429,95.3900963 22.3386099,98.0538905 C22.1073923,98.6541822 21.8761746,99.2544738 21.6486863,99.8547655 C20.8282365,102.00456 20.0301626,104.12434 19.2507353,106.217857 L19.9443883,107.594776 L20.563455,107.527243 C20.5858309,107.463462 20.6082068,107.399681 20.6305827,107.339652 C21.633769,104.582062 22.6257674,101.895757 23.6103071,99.2807366 Z" id="Shape"></path>
                            <path d="M53.4485739,65.1808764 L53.4485739,65.1808764 C53.4751342,65.1808764 53.4751342,65.1541558 53.5016945,65.1541558 C53.5016945,65.1541558 53.4751342,65.1541558 53.4485739,65.1808764 Z" id="Shape"></path>
                            <path d="M51.956847,72.627787 C51.3825322,72.732838 50.7895708,72.8341372 50.1816921,72.9391883 C50.1779627,72.9391883 50.1742334,72.9429401 50.1705041,72.9429401 C50.4763081,72.8979182 50.7783828,72.8528964 51.0767282,72.8003708 C51.3750736,72.7478453 51.6659603,72.691568 51.956847,72.627787 Z" id="Shape" fill="#BE202E"></path>
                            <path d="M51.956847,72.627787 C51.3825322,72.732838 50.7895708,72.8341372 50.1816921,72.9391883 C50.1779627,72.9391883 50.1742334,72.9429401 50.1705041,72.9429401 C50.4763081,72.8979182 50.7783828,72.8528964 51.0767282,72.8003708 C51.3750736,72.7478453 51.6659603,72.691568 51.956847,72.627787 Z" id="Shape" fill="#BE202E" opacity="0.35"></path>
                            <path d="M53.4634912,65.1730232 C53.4634912,65.1730232 53.4597619,65.1730232 53.4597619,65.177134 C53.4560325,65.177134 53.4560325,65.1812449 53.4523032,65.1812449 C53.5492655,65.1689123 53.6424984,65.148358 53.7357313,65.1360255 C54.119851,65.0743626 54.496512,65.0003672 54.8619851,64.9140392 C54.4032791,64.9962563 53.9371145,65.0866952 53.4634912,65.1730232 L53.4634912,65.1730232 L53.4634912,65.1730232 Z" id="Shape" fill="#BE202E"></path>
                            <path d="M53.4634912,65.1730232 C53.4634912,65.1730232 53.4597619,65.1730232 53.4597619,65.177134 C53.4560325,65.177134 53.4560325,65.1812449 53.4523032,65.1812449 C53.5492655,65.1689123 53.6424984,65.148358 53.7357313,65.1360255 C54.119851,65.0743626 54.496512,65.0003672 54.8619851,64.9140392 C54.4032791,64.9962563 53.9371145,65.0866952 53.4634912,65.1730232 L53.4634912,65.1730232 L53.4634912,65.1730232 Z" id="Shape" fill="#BE202E" opacity="0.35"></path>
                            <path d="M46.8290359,43.0934374 C48.1976953,40.5196869 49.5850013,38.0022138 50.9872246,35.5522734 C52.4416583,33.0085375 53.9147386,30.5398381 55.4027361,28.1611824 C55.4885104,28.022365 55.578014,27.8797957 55.6637883,27.7372264 C57.1331393,25.396089 58.6174075,23.1449952 60.1128637,20.9914489 L55.6078486,12.4372928 C55.2684807,12.8537451 54.9291128,13.2777011 54.5822863,13.7091607 C53.2844839,15.3374519 51.9344711,17.0895531 50.5508945,18.9467055 C48.9920399,21.0402226 47.3884335,23.276309 45.7587219,25.6211983 C44.255807,27.7897519 42.7305163,30.0596048 41.2052256,32.4082459 C39.9074232,34.4079675 38.6021622,36.4677182 37.3080891,38.5799945 C37.259608,38.6587828 37.2111269,38.7375711 37.1626458,38.8163593 L43.0251324,50.4657693 C44.2781829,47.9708071 45.5461508,45.5096113 46.8290359,43.0934374 Z" id="Shape" fill="url(#linearGradient-7)"></path>
                            <path d="M20.1271249,108.731578 C19.3514269,110.877621 18.5719996,113.061182 17.788843,115.293517 C17.777655,115.327283 17.7664671,115.357298 17.7552791,115.391064 C17.6433996,115.706217 17.5352494,116.02137 17.4233699,116.336523 C16.8975362,117.841004 16.4388302,119.195412 15.390892,122.275659 C17.1175659,123.067294 18.5048719,125.153307 19.8175915,127.520707 C19.6796068,125.070767 18.6689618,122.767148 16.7558221,120.985032 C25.2698533,121.37147 32.6054202,119.206668 36.3981357,112.944875 C36.7375036,112.385854 37.0470369,111.800569 37.3267357,111.174015 C35.6037912,113.372583 33.4668924,114.306787 29.4429592,114.077926 C29.4355005,114.081678 29.4243126,114.08543 29.416854,114.089181 C29.4243126,114.08543 29.4355005,114.081678 29.4429592,114.077926 C35.3651149,111.41038 38.3373807,108.851637 40.96282,104.608325 C41.5856159,103.602837 42.1897653,102.503552 42.808832,101.28421 C37.6288104,106.634309 31.6283391,108.157549 25.3071464,107.001988 L20.5671843,107.523491 C20.4180116,107.924936 20.2725682,108.326382 20.1271249,108.731578 Z" id="Shape" fill="url(#linearGradient-8)"></path>
                            <path d="M22.3386099,98.0501387 C23.3641722,95.3863445 24.4195689,92.6925357 25.5010709,89.9724641 C26.5378211,87.368699 27.6044058,84.7499267 28.6933664,82.116147 C29.782327,79.4823674 30.8973929,76.8448359 32.0348346,74.2035526 C33.190923,71.5172474 34.3731165,68.8346941 35.5739566,66.167148 C36.7636088,63.5296165 37.9756369,60.9033405 39.2063116,58.3033273 C39.6501003,57.3653716 40.0976184,56.4311677 40.5451364,55.5007156 C41.3208344,53.8911836 42.103991,52.2966589 42.8946063,50.7171415 C42.9356288,50.6308495 42.9803806,50.5483094 43.0251324,50.4620175 L37.1626458,38.8126075 C37.0656835,38.9701841 36.9724506,39.1277606 36.8754883,39.2853372 C35.5105582,41.5289273 34.1493575,43.8250429 32.8142619,46.1699322 C31.4642491,48.5373324 30.1403415,50.9497545 28.8462684,53.395943 C27.7535785,55.4594456 26.6869938,57.5417072 25.6502436,59.6427281 C25.4414018,60.0704359 25.2362894,60.49064 25.031177,60.914596 C23.7520212,63.5596311 22.5996621,66.1146225 21.5554533,68.5720665 C20.3732598,71.355919 19.3327803,74.0159614 18.4228269,76.5371864 C17.8224068,78.1954921 17.2779265,79.7975205 16.778198,81.3357678 C16.3679731,82.6489058 15.9763948,83.9657957 15.6071924,85.2751819 C14.7308029,88.3629321 13.9774808,91.4431786 13.3584142,94.5121697 L19.2507353,106.214105 C20.0301626,104.120588 20.8282365,102.000808 21.6486863,99.8510137 C21.8761746,99.2544738 22.1073923,98.6504304 22.3386099,98.0501387 Z" id="Shape" fill="url(#linearGradient-9)"></path>
                            <path d="M13.2800985,94.9286221 C12.5416937,98.6729413 12.01586,102.402253 11.7510785,106.109054 C11.7436198,106.240368 11.7287025,106.36793 11.7212439,106.499244 C9.88269054,103.535304 4.95999186,100.642648 4.97117981,100.668911 C8.49538455,105.808908 11.169305,110.911387 11.5683419,115.920071 C9.68130741,116.310261 7.0968906,115.747487 4.10970754,114.640699 C7.22368739,117.518348 9.56196926,118.313734 10.4719227,118.527588 C7.61153638,118.707675 4.63181194,120.684886 1.62971161,122.962243 C6.01911794,121.161368 9.56569858,120.448521 12.1053636,121.026302 C8.07770102,132.499376 4.03885051,145.16553 0,158.612063 C1.23813331,158.244385 1.97653811,157.407728 2.39049232,156.274678 C3.11025053,153.839745 7.88750585,137.864483 15.3722454,116.86553 C15.5848165,116.268991 15.8011169,115.668699 16.0174173,115.064655 C16.0770864,114.895823 16.1404848,114.726991 16.2001539,114.561911 C16.9907691,112.359591 17.8112189,110.112249 18.6577739,107.819885 C18.8516984,107.298382 19.0456229,106.776879 19.2395474,106.251623 C19.2432767,106.240368 19.247006,106.229113 19.2507353,106.221609 L13.3658728,94.5234252 C13.3397676,94.654739 13.3062037,94.7898046 13.2800985,94.9286221 Z" id="Shape" fill="url(#linearGradient-10)"></path>
                            <path d="M43.9350858,51.4487469 C43.7672665,51.7939146 43.5994472,52.1428341 43.4278986,52.4955055 C42.9207115,53.5497677 42.4060657,54.6227891 41.8839613,55.7220732 C41.3208344,56.911401 40.7539782,58.1269916 40.1796634,59.3725968 C39.8887766,59.9991512 39.6016192,60.6294575 39.3070031,61.2710192 C38.4306136,63.1882007 37.5430361,65.1691631 36.6405413,67.2139066 C35.5329341,69.7276279 34.402951,72.3388966 33.2580507,75.0514646 C32.1653607,77.6364705 31.0577535,80.3115202 29.9352291,83.0803655 C28.8686443,85.7066415 27.7908717,88.4192094 26.6981817,91.2143174 C25.7248299,93.7092796 24.7440195,96.2680228 23.7520212,98.9018025 C23.70354,99.0293645 23.6550589,99.1569264 23.6103071,99.2844884 C22.6257674,101.899509 21.633769,104.585814 20.634312,107.339652 C20.6119361,107.403433 20.5895602,107.467214 20.5671843,107.527243 L25.3071464,107.00574 C25.2139135,106.986981 25.1169512,106.975725 25.0237183,106.956966 C30.6922804,106.247872 38.2255012,101.985801 43.0959894,96.7257452 C45.3410383,94.3020677 47.3772455,91.4431786 49.2605507,88.0965526 C50.662774,85.6053423 51.9792229,82.8440006 53.2322735,79.786265 C54.3286928,77.1149671 55.3803602,74.2223117 56.3947345,71.0857878 C55.0932028,71.7761232 53.6014759,72.2826193 51.956847,72.6352906 C51.6696896,72.6953198 51.3750736,72.755349 51.0767282,72.8078745 C50.7783828,72.8604 50.4763081,72.9091737 50.1705041,72.9504437 L50.1705041,72.9504437 L50.1705041,72.9504437 C50.1742334,72.9504437 50.1779627,72.9466919 50.1816921,72.9466919 C55.4661345,70.9019485 58.8001441,66.951279 61.2242002,62.1151793 C59.8331649,63.0681423 57.5731987,64.3174993 54.8657144,64.917791 C54.496512,65.0003311 54.119851,65.0641121 53.7394606,65.1203894 C53.6424984,65.1353967 53.5492655,65.150404 53.4560325,65.1616595 L53.4560325,65.1616595 L53.4560325,65.1616595 C53.4597619,65.1616595 53.4597619,65.1579077 53.4634912,65.1579077 C53.4634912,65.1579077 53.4672205,65.1579077 53.4672205,65.1541558 L53.4672205,65.1541558 C55.3020445,64.3812803 56.8497112,63.5183611 58.1922654,62.4978653 C58.4794228,62.2802595 58.7591216,62.0551502 59.0276324,61.8187853 C59.4378573,61.4623621 59.8257063,61.0871799 60.198638,60.6932385 C60.4373143,60.4418663 60.668532,60.1829905 60.892291,59.9128593 C61.4181247,59.2825531 61.9103946,58.6034731 62.3728299,57.864364 C62.514544,57.6392546 62.6525287,57.4103934 62.7905135,57.1740286 C62.9657914,56.8326127 63.1336106,56.4987005 63.2977006,56.1685401 C64.0361054,54.6753146 64.6253375,53.3434175 65.0952315,52.1728487 C65.3301785,51.5875644 65.5352909,51.0473019 65.7105688,50.5445576 C65.7814258,50.345711 65.8485535,50.1506162 65.9119519,49.9630251 C66.0984178,49.4002516 66.2513198,48.9012592 66.370658,48.4622959 C66.5496652,47.8057269 66.6578154,47.2842235 66.7174845,46.9052894 L66.7174845,46.9052894 L66.7174845,46.9052894 C66.5384772,47.0478587 66.3333648,47.190428 66.1021471,47.3292454 C64.5059994,48.2897121 61.7686805,49.160135 59.5609248,49.5690837 L63.9130379,49.0888503 L59.5609248,49.5690837 C59.5273609,49.5765873 59.4937971,49.5803391 59.4602332,49.5878428 C59.2402035,49.625361 59.0164445,49.6591274 58.7926854,49.6966456 C58.8337079,49.6778865 58.8672718,49.6591274 58.9082943,49.6441201 L44.0171307,51.2874185 C43.9910255,51.3399441 43.9649203,51.3924696 43.9350858,51.4487469 Z" id="Shape" fill="url(#linearGradient-11)"></path>
                            <path d="M60.6983665,21.1640328 C59.3744589,23.2087762 57.9274838,25.5311546 56.3723586,28.1611824 C56.2903136,28.296248 56.2082686,28.4388173 56.1262236,28.5776347 C54.7836695,30.8549912 53.355341,33.3537053 51.8561555,36.0925359 C50.5583531,38.4561843 49.2083403,40.9924166 47.806117,43.7199918 C46.582901,46.0948957 45.3186624,48.6161207 44.0208601,51.2836667 L58.9120236,49.6403683 C63.2492195,47.6331431 65.1884644,45.8172608 67.0717696,43.1909848 C67.5714981,42.466883 68.0749559,41.7090148 68.5746844,40.9248838 C70.1037045,38.5237172 71.60289,35.878682 72.9454442,33.2486542 C74.2395172,30.7086701 75.3806883,28.191197 76.2570778,25.9213442 C76.8127461,24.4768924 77.2602641,23.1337398 77.5697975,21.9556674 C77.8420376,20.9164125 78.0546087,19.929683 78.2186987,18.9879755 C72.4196104,19.9822086 65.3189905,20.9351716 60.6983665,21.1640328 Z" id="Shape" fill="url(#linearGradient-12)"></path>
                            <path d="M51.0767282,72.8003708 C50.7783828,72.898815 50.4763081,72.9902275 50.1705041,73.0675766 L50.1705041,73.0675766 C50.4763081,72.9902275 50.7783828,72.898815 51.0767282,72.8003708 Z" id="Shape" fill="#BE202E"></path>
                            <path d="M51.0767282,72.8003708 C50.7783828,72.898815 50.4763081,72.9902275 50.1705041,73.0675766 L50.1705041,73.0675766 C50.4763081,72.9902275 50.7783828,72.898815 51.0767282,72.8003708 Z" id="Shape" fill="#BE202E" opacity="0.35"></path>
                            <path d="M51.0767282,72.8003708 C50.7783828,72.898815 50.4763081,72.9902275 50.1705041,73.0675766 L50.1705041,73.0675766 C50.4763081,72.9902275 50.7783828,72.898815 51.0767282,72.8003708 Z" id="Shape" fill="url(#linearGradient-13)"></path>
                            <path d="M53.4485739,65.3838433 C53.5455362,65.310969 53.6387691,65.1895119 53.732002,65.1166376 C53.6387691,65.1895119 53.5455362,65.2866776 53.4485739,65.3838433 L53.4485739,65.3838433 Z" id="Shape" fill="#BE202E"></path>
                            <path d="M53.4485739,65.3838433 C53.5455362,65.310969 53.6387691,65.1895119 53.732002,65.1166376 C53.6387691,65.1895119 53.5455362,65.2866776 53.4485739,65.3838433 L53.4485739,65.3838433 Z" id="Shape" fill="#BE202E" opacity="0.35"></path>
                            <path d="M53.4485739,65.3838433 C53.5455362,65.310969 53.6387691,65.1895119 53.732002,65.1166376 C53.6387691,65.1895119 53.5455362,65.2866776 53.4485739,65.3838433 L53.4485739,65.3838433 Z" id="Shape" fill="url(#linearGradient-14)"></path>
                            <path d="M53.4597619,65.1771246 C53.4597619,65.1771246 53.4863221,65.1771246 53.4863221,65.150404 L53.4863221,65.150404 L53.4863221,65.150404 L53.4863221,65.150404 C53.4863221,65.150404 53.4597619,65.150404 53.4597619,65.1771246 Z" id="Shape" fill="#BE202E"></path>
                            <path d="M53.4597619,65.1771246 C53.4597619,65.1771246 53.4863221,65.1771246 53.4863221,65.150404 L53.4863221,65.150404 L53.4863221,65.150404 L53.4863221,65.150404 C53.4863221,65.150404 53.4597619,65.150404 53.4597619,65.1771246 Z" id="Shape" fill="#BE202E" opacity="0.35"></path>
                            <path d="M53.4597619,65.1771246 C53.4597619,65.1771246 53.4863221,65.1771246 53.4863221,65.150404 L53.4863221,65.150404 L53.4863221,65.150404 L53.4863221,65.150404 C53.4863221,65.150404 53.4597619,65.150404 53.4597619,65.1771246 Z" id="Shape" fill="url(#linearGradient-15)"></path>
                            <path d="M82.7423604,14.5570727 L82.7423604,14.996036 L83.7641933,14.996036 L83.7641933,17.8999469 L84.2378166,17.8999469 L84.2378166,14.996036 L85.2671081,14.996036 L85.2671081,14.5570727 L82.7423604,14.5570727 Z M88.6458695,14.5570727 L87.5046984,16.8907065 L86.3560688,14.5570727 L85.7854832,14.5570727 L85.7854832,17.8999469 L86.2218133,17.8999469 L86.2218133,15.2474081 L87.3517964,17.5472755 L87.6538711,17.5472755 L88.7838542,15.2474081 L88.7838542,17.8999469 L89.2201844,17.8999469 L89.2201844,14.5570727 L88.6458695,14.5570727 Z" id="Shape" fill="#6D6E71"></path>
                        </g>
                    </g>
                </g>
                <g id="Group-4" transform="translate(183.000000, 222.000000)">
                    <rect id="Rectangle-2" fill="#B4E051" x="0.949684213" y="0.670851331" width="47.8218613" height="48.8130271" rx="8"></rect>
                    <path d="M29.012961,21.18271 L29.012961,13.2888544 L21.0450424,13.2888544 L21.0450424,21.18271 L13.3114743,21.18271 L13.3114743,29.3157734 L21.0450424,29.3157734 L21.0450424,37.209629 L29.012961,37.209629 L29.012961,29.3157734 L36.7465291,29.3157734 L36.7465291,21.18271 L29.012961,21.18271 Z" id="Combined-Shape" fill="#FFFFFF"></path>
                </g>
            </g>
        </g>
    </g>
</svg>