<?xml version="1.0" encoding="UTF-8"?>
<svg width="300px" height="170px" viewBox="0 0 300 170" version="1.1" xmlns="http://www.w3.org/2000/svg" xmlns:xlink="http://www.w3.org/1999/xlink">
    <!-- Generator: Sketch 41.2 (35397) - http://www.bohemiancoding.com/sketch -->
    <title>illustration-cost-effective</title>
    <desc>Created with Sketch.</desc>
    <defs>
        <ellipse id="path-1" cx="164.941358" cy="60.1741525" rx="34.3787491" ry="34.3856814"></ellipse>
        <path d="M195.151278,62.53873 C195.187021,61.9356404 195.205146,61.3278089 195.205146,60.7157431 C195.205146,44.1439031 181.918071,30.6760517 165.418188,30.3884892 L165.239708,62.53873 L195.151278,62.53873 Z" id="path-3"></path>
    </defs>
    <g id="Home" stroke="none" stroke-width="1" fill="none" fill-rule="evenodd">
        <g transform="translate(-471.000000, -1372.000000)" id="illustration-cost-effective">
            <g transform="translate(470.000000, 1365.000000)">
                <g id="Group-10">
                    <g id="Group-3" fill="#325C80">
                        <path d="M118.583852,140.479926 L109.377908,140.479926 C107.187325,140.479926 105.386573,142.274635 105.386573,144.488521 L105.386573,149.95351 C105.386573,152.171776 107.173554,153.962105 109.377908,153.962105 L151.991611,153.962105 C154.182194,153.962105 155.982946,152.167396 155.982946,149.95351 L155.982946,144.488521 C155.982946,142.270255 154.195964,140.479926 151.991611,140.479926 L142.038188,140.479926 L137.810568,121.643838 L122.811472,121.643838 L118.583852,140.479926 Z" id="Combined-Shape"></path>
                        <ellipse id="Oval-2" cx="131.099556" cy="116.529494" rx="10.9288166" ry="11.0308739"></ellipse>
                        <path d="M54.8237889,60.9343158 L64.0511297,75.9759584 L19.3298938,123.093298 C32.4539483,135.987808 50.5989311,143.141596 70.2779225,142.798098 C89.9619728,142.454512 107.846239,134.671831 120.507227,121.327241 C133.178334,107.982475 140.193859,89.5312688 139.84429,69.5044586 C139.49481,49.4827954 131.839531,31.2825202 118.710418,18.3880987 L73.9891821,65.5054385 L59.0746259,56.7551745 C59.4486334,56.0767319 59.753096,55.3456854 59.9758495,54.5688517 C61.5617921,49.0380126 58.405304,43.280616 52.9256361,41.7093465 C47.4459682,40.138077 41.7181591,43.3479424 40.1322165,48.8787815 C38.5462739,54.4096206 41.702762,60.1670172 47.1824299,61.7382867 C49.8377958,62.4997006 52.5514309,62.138395 54.8237889,60.9343158 Z" id="Combined-Shape" transform="translate(79.593325, 80.599011) rotate(-22.000000) translate(-79.593325, -80.599011) "></path>
                    </g>
                    <mask id="mask-2" fill="white">
                        <use xlink:href="#path-1"></use>
                    </mask>
                    <use id="Oval-8" stroke="#51F1FA" stroke-width="10" fill="#FFFFFF" xlink:href="#path-1"></use>
                    <mask id="mask-4" fill="white">
                        <use xlink:href="#path-3"></use>
                    </mask>
                    <use id="Combined-Shape" fill="#FFE555" xlink:href="#path-3"></use>
                    <polyline id="Path-10" stroke="#325C80" stroke-width="5" stroke-linecap="round" points="184.23701 62.53873 165.47929 62.53873 165.618421 32.4332717"></polyline>
                    <g id="Group-8" transform="translate(165.847291, 69.640288)">
                        <path d="M71.3815199,59.9840557 L81.2875117,51.3089105 L72.8742542,37.4804701 L61.0617008,41.342667 C58.2126639,38.8625209 54.9359285,36.9231507 51.3921818,35.6196607 L48.772507,24.1810471 L32.5150047,24.1810471 L29.8953299,35.6196607 C26.3518057,36.9253163 23.0752331,38.8658437 20.2258109,41.3463664 L8.41325746,37.4804701 L0,51.3089105 L9.90229687,59.9877551 C9.65104457,61.5822061 9.48477466,63.2062525 9.48477466,64.8746919 C9.48477466,66.5431313 9.65104457,68.1671777 9.90229687,69.7616287 L0,78.4404733 L8.41695234,92.2689137 L20.2258109,88.4067168 C23.0752734,90.8881927 26.3534738,92.8276888 29.8990247,94.129723 L32.5150047,105.568337 L48.772507,105.568337 L51.3884869,94.129723 C54.9329101,92.8276612 58.2098925,90.8881448 61.0580059,88.4067168 L72.8668644,92.2689137 L81.2875117,78.4404733 L71.3815199,69.7653281 C71.6364671,68.1671777 71.802737,66.5431313 71.802737,64.8746919 C71.802737,63.2062525 71.6364671,61.5822061 71.3815199,59.9840557 Z M40.5970298,77.821253 C33.2282339,77.630742 27.3536088,71.5950645 27.3536088,64.2147644 C27.3536088,56.8344642 33.2282339,50.7987867 40.5970298,50.6082758 C47.9658256,50.7987867 53.8404507,56.8344642 53.8404507,64.2147644 C53.8404507,71.5950645 47.9658256,77.630742 40.5970298,77.821253 L40.5970298,77.821253 Z" id="Combined-Shape" stroke="#BBC6D2" stroke-width="2" stroke-linecap="square" stroke-dasharray="3,4"></path>
                        <g id="Group-18" transform="translate(59.878142, 0.000000)" font-size="27" font-family="HelvNeueBoldforIBM, HelvNeue Bold for IBM" fill="#CCD5DF" font-weight="bold">
                            <text id="z">
                                <tspan x="0" y="26.0661092">z</tspan>
                            </text>
                            <text id="z-copy">
                                <tspan x="15.4610253" y="19">z</tspan>
                            </text>
                        </g>
                    </g>
                </g>
            </g>
        </g>
    </g>
</svg>