<?xml version="1.0" encoding="UTF-8"?>
<svg width="479px" height="293px" viewBox="0 0 479 293" version="1.1" xmlns="http://www.w3.org/2000/svg" xmlns:xlink="http://www.w3.org/1999/xlink">
    <!-- Generator: Sketch 41.2 (35397) - http://www.bohemiancoding.com/sketch -->
    <title>illustration-developers-ecosystem</title>
    <desc>Created with Sketch.</desc>
    <defs>
        <circle id="path-1" cx="38" cy="7" r="7"></circle>
        <mask id="mask-2" maskContentUnits="userSpaceOnUse" maskUnits="objectBoundingBox" x="0" y="0" width="14" height="14" fill="white">
            <use xlink:href="#path-1"></use>
        </mask>
    </defs>
    <g id="Developers" stroke="none" stroke-width="1" fill="none" fill-rule="evenodd">
        <g id="Developer" transform="translate(-747.000000, -1447.000000)">
            <g id="illustration-developers-ecosystem" transform="translate(747.000000, 1447.000000)">
                <rect id="Rectangle-2" fill="#29648F" opacity="0.08" x="0" y="46" width="479" height="247"></rect>
                <path d="M479,67.5 L479,9.9933609 C479,4.47451676 474.52079,0 468.995404,0 L10.0045958,0 C4.47361356,0 0,4.47418008 0,9.9933609 L0,67.5 L0,46 L479,46 L479,67.5 Z" id="Combined-Shape" fill="#6EEDD8"></path>
                <circle id="Oval" fill="#FFFFFF" cx="32" cy="23" r="10"></circle>
                <circle id="Oval-Copy" fill="#FFFFFF" cx="62" cy="23" r="10"></circle>
                <circle id="Oval-Copy-2" fill="#FFFFFF" cx="92" cy="23" r="10"></circle>
                <rect id="Rectangle-3" fill="#5AAAFA" x="49" y="75" width="70" height="70" rx="10"></rect>
                <rect id="Rectangle-3-Copy" fill="#5AAAFA" x="152" y="75" width="70" height="70" rx="10"></rect>
                <rect id="Rectangle-3-Copy-2" fill="#5AAAFA" x="255" y="75" width="70" height="70" rx="10"></rect>
                <rect id="Rectangle-3-Copy-3" fill="#5AAAFA" x="358" y="75" width="70" height="70" rx="10"></rect>
                <rect id="Rectangle-3-Copy-7" fill="#5AAAFA" x="49" y="189" width="70" height="70" rx="10"></rect>
                <rect id="Rectangle-3-Copy-6" fill="#5AAAFA" x="152" y="189" width="70" height="70" rx="10"></rect>
                <rect id="Rectangle-3-Copy-5" fill="#5AAAFA" x="255" y="189" width="70" height="70" rx="10"></rect>
                <rect id="Rectangle-3-Copy-4" fill="#5AAAFA" x="358" y="189" width="70" height="70" rx="10"></rect>
                <rect id="Rectangle-4" fill="#B2B8BB" opacity="0.239583333" x="459" y="56" width="10" height="89" rx="5"></rect>
                <path d="M301.740516,118.816945 L299.722693,118.816945 L299.722693,117.79096 C299.722693,116.786424 300.059296,116.271645 300.731605,116.271645 C301.403913,116.271645 301.740516,116.786424 301.740516,117.79096 L301.740516,118.816945 Z M303.735899,121.808209 L301.695636,121.808209 C301.695636,122.611659 301.673196,123.057622 301.650755,123.17023 C301.538554,123.705566 301.247729,123.97368 300.754045,123.97368 C300.059296,123.97368 299.722693,123.459794 299.722693,122.432916 L299.722693,120.490873 L303.735899,120.490873 L303.735899,118.192238 C303.735899,117.009853 303.533937,116.160824 303.130014,115.602252 C302.547466,114.844382 301.762956,114.464553 300.754045,114.464553 C299.722693,114.464553 298.938183,114.844382 298.355636,115.602252 C297.929272,116.160824 297.72731,117.009853 297.72731,118.192238 L297.72731,122.053087 C297.72731,123.236365 297.951712,124.106844 298.378076,124.643073 C298.960624,125.401837 299.745133,125.781665 300.798925,125.781665 C301.852717,125.781665 302.682107,125.380387 303.219774,124.598387 C303.466617,124.240901 303.646138,123.838729 303.691019,123.392765 C303.735899,123.192573 303.735899,122.745716 303.735899,122.098666 L303.735899,121.808209 Z M299.655372,104.955426 L297.616007,104.955426 L297.616007,103.727462 C296.808159,104.664969 296.04609,105.111826 295.306461,105.111826 C294.655695,105.111826 294.185348,104.843712 293.983386,104.286033 C293.871185,103.95089 293.804762,103.415555 293.804762,102.611212 L293.804762,93.8170565 L295.844128,93.8170565 L295.844128,102.008848 C295.844128,102.478048 295.844128,102.746163 295.867466,102.789955 C295.911449,103.102755 296.06853,103.281498 296.336915,103.281498 C296.740839,103.281498 297.167202,102.969591 297.616007,102.321648 L297.616007,93.8170565 L299.655372,93.8170565 L299.655372,104.955426 Z M294.162908,122.477601 C294.162908,123.482137 293.871185,123.97368 293.288638,123.97368 C292.952035,123.97368 292.616329,123.81728 292.279726,123.482137 L292.279726,116.763188 C292.616329,116.428938 292.952035,116.271645 293.288638,116.271645 C293.871185,116.271645 294.162908,116.786424 294.162908,117.767723 L294.162908,122.477601 Z M296.158291,117.924124 C296.158291,116.897245 296.113411,116.160824 295.956329,115.713967 C295.710384,114.888174 295.149379,114.464553 294.36487,114.464553 C293.625241,114.464553 292.930492,114.865831 292.279726,115.670174 L292.279726,110.826239 L290.284343,110.826239 L290.284343,125.624372 L292.279726,125.624372 L292.279726,124.553701 C292.952035,125.380387 293.647681,125.781665 294.36487,125.781665 C295.149379,125.781665 295.710384,125.357151 295.956329,124.553701 C296.113411,124.085394 296.158291,123.34808 296.158291,122.322095 L296.158291,117.924124 Z M290.105719,97.0317492 C290.105719,96.0048707 289.813996,95.4909847 289.14079,95.4909847 C288.490922,95.4909847 288.177657,96.0048707 288.177657,97.0317492 L288.177657,101.71839 C288.177657,102.746163 288.490922,103.281498 289.14079,103.281498 C289.813996,103.281498 290.105719,102.746163 290.105719,101.71839 L290.105719,97.0317492 Z M292.145085,101.338562 C292.145085,102.522734 291.943123,103.415555 291.517657,103.974127 C290.956652,104.731997 290.172142,105.111826 289.14079,105.111826 C288.131879,105.111826 287.347369,104.731997 286.787262,103.974127 C286.361795,103.393212 286.159833,102.522734 286.159833,101.338562 L286.159833,97.4330272 C286.159833,96.2497486 286.361795,95.3792703 286.787262,94.8215922 C287.347369,94.0628282 288.131879,93.6829993 289.14079,93.6829993 C290.172142,93.6829993 290.956652,94.0628282 291.517657,94.8215922 C291.943123,95.3792703 292.145085,96.2497486 292.145085,97.4330272 L292.145085,101.338562 Z M288.535802,125.624372 L288.535802,114.597717 L286.540419,114.597717 L286.540419,123.036173 C286.092513,123.66088 285.666149,123.97368 285.263123,123.97368 C284.99384,123.97368 284.836759,123.81728 284.791879,123.50448 C284.769438,123.437451 284.769438,123.192573 284.769438,122.723373 L284.769438,114.597717 L282.774953,114.597717 L282.774953,123.325737 C282.774953,124.106844 282.841376,124.619836 282.953577,124.955873 C283.133099,125.513551 283.604343,125.781665 284.254211,125.781665 C284.9714,125.781665 285.73347,125.334808 286.540419,124.419644 L286.540419,125.624372 L288.535802,125.624372 Z M286.137393,90 L283.424821,98.9067632 L283.424821,104.955426 L281.182596,104.955426 L281.182596,98.9067632 C280.981532,97.8128561 280.532728,96.2497486 279.815539,94.1745425 C279.321854,92.7901781 278.829067,91.3843645 278.357823,90 L280.73469,90 L282.326149,95.8708135 L283.850288,90 L286.137393,90 Z M282.48323,112.923788 L282.48323,110.826239 L275.48817,110.826239 L275.48817,112.923788 L277.841698,112.923788 L277.841698,125.624372 L280.084821,125.624372 L280.084821,112.923788 L282.48323,112.923788 Z M305.641521,126.294658 C305.216055,128.057957 303.78078,129.35295 302.054679,129.531693 C297.929272,130 293.758984,130 289.612034,130 C285.465085,130 281.294797,130 277.16939,129.531693 C275.443289,129.35295 273.986471,128.057957 273.582548,126.294658 C273,123.794937 273,121.048551 273,118.481802 C273,115.893603 273.02244,113.16956 273.582548,110.669839 C274.008912,108.90654 275.443289,107.611547 277.19183,107.410461 C281.294797,106.964497 285.465085,106.964497 289.612034,106.964497 C293.758984,106.964497 297.929272,106.964497 302.054679,107.410461 C303.78078,107.611547 305.237598,108.90654 305.641521,110.669839 C306.224069,113.16956 306.224069,115.893603 306.224069,118.481802 C306.224069,121.048551 306.202526,123.794937 305.641521,126.294658 L305.641521,126.294658 Z" id="Fill-8" fill="#FFFFFF"></path>
                <path d="M397.882239,112.33244 L395.357536,104.793097 L387.905665,107.353809 L390.429407,114.845235 L397.882239,112.33244 Z M413.00351,111.973058 C413.00351,113.505461 412.21039,114.582647 410.767564,115.084822 L406.632556,116.497431 L407.978166,120.49471 C408.098482,120.854092 408.146608,121.236474 408.146608,121.618855 C408.146608,123.509681 406.60753,125.090959 404.709431,125.090959 C403.195378,125.090959 401.848806,124.156567 401.367543,122.720958 L400.045033,118.770638 L392.593163,121.30835 L393.915673,125.233753 C394.035989,125.592176 394.107215,125.975516 394.107215,126.358857 C394.107215,128.225723 392.568138,129.830002 390.645012,129.830002 C389.13096,129.830002 387.809413,128.89561 387.32815,127.460001 L386.005641,123.558557 L382.327832,124.826454 C381.942822,124.946248 381.534711,125.042083 381.1266,125.042083 C379.178449,125.042083 377.712523,123.606474 377.712523,121.667731 C377.712523,120.183246 378.674086,118.842514 380.092848,118.364297 L383.842847,117.095441 L381.318143,109.603058 L377.568145,110.895873 C377.183135,111.015666 376.799087,111.087543 376.414077,111.087543 C374.490952,111.087543 373,109.627975 373,107.713191 C373,106.228706 373.961563,104.887974 375.380325,104.409757 L379.154386,103.140901 L377.880965,99.3343331 C377.76065,98.97591 377.68846,98.5935282 377.68846,98.2111464 C377.68846,96.3193627 379.226576,94.7400012 381.149701,94.7400012 C382.664716,94.7400012 383.986263,95.6734345 384.467525,97.1090434 L385.765972,100.938612 L393.217842,98.4258169 L391.920358,94.5962486 C391.800042,94.2368672 391.726891,93.8544854 391.726891,93.4701869 C391.726891,91.5803198 393.290031,90 395.189094,90 C396.704108,90 398.050681,90.9573921 398.530981,92.3700006 L399.805365,96.2235276 L403.699742,94.9067542 C404.036625,94.8118775 404.372547,94.7639599 404.733494,94.7639599 C406.60753,94.7639599 408.218798,96.1516513 408.218798,98.0664355 C408.218798,99.5509203 407.06473,100.795817 405.71912,101.250076 L401.945058,102.541932 L404.468799,110.106192 L408.41034,108.76546 C408.771287,108.645666 409.156297,108.574748 409.517244,108.574748 C411.488496,108.574748 413.00351,110.010357 413.00351,111.973058 L413.00351,111.973058 Z" id="Fill-11" fill="#FFFFFF"></path>
                <g id="Group-7" transform="translate(167.000000, 90.000000)">
                    <g id="Page-1">
                        <path d="M40.0024382,19.2848732 C40.0024382,29.935583 31.0475174,38.56956 20.0012191,38.56956 C8.95492082,38.56956 0,29.935583 0,19.2848732 C0,8.63416339 8.95492082,3.10624995e-05 20.0012191,3.10624995e-05 C31.0475174,3.10624995e-05 40.0024382,8.63416339 40.0024382,19.2848732" id="Fill-1" stroke="#FFFFFF" stroke-width="3"></path>
                        <path d="M7.17627157,17.79684 L7.17627157,17.3206205 C7.17627157,17.3206205 7.00864231,17.4940044 7.17627157,17.79684" id="Fill-3" fill="#FFFFFF"></path>
                        <path d="M17.8454002,19.7610458 C23.953585,23.8084894 32.0378278,19.1062483 31.9779804,17.3801052 C31.9779804,17.3801052 32.5469213,14.9545899 29.043739,13.749365 C33.7744961,6.94419258 14.811309,7.06316196 14.4769137,12.4101053 C6.31766633,13.3179068 7.12615311,17.3206205 7.12615311,17.3206205 C7.12615311,17.3206205 8.7429704,21.7847676 17.8454002,19.7610458" id="Fill-5" fill="#FFFFFF"></path>
                        <path d="M31.9779648,17.3801052 L31.9779648,17.8563247 C32.0074904,17.5591849 31.9779648,17.3801052 31.9779648,17.3801052" id="Fill-7" fill="#FFFFFF"></path>
                        <path d="M17.8454002,21.1810457 C8.7429704,23.2047676 7.12615311,18.7406205 7.12615311,18.7406205 L7.12615311,19.2137023 L7.12615311,24.9309107 C7.12615311,24.9309107 7.54539741,30.5257327 17.7855528,28.3235569 C21.8575198,31.2994996 31.2593428,29.3949025 31.9779804,25.8831316 L31.9779804,19.0788911 L31.9779804,18.8001052 C32.0378278,20.5262483 23.953585,25.2284894 17.8454002,21.1810457" id="Fill-9" fill="#FFFFFF"></path>
                    </g>
                </g>
                <g id="ibm_watson_logo" transform="translate(64.000000, 90.000000)" fill="#FFFFFF">
                    <path d="M24.5028261,10.8232609 C24.7356522,11.2278261 24.9095652,11.7352174 25.0308696,12.3280435 C25.8678261,12.2269565 26.7143478,12.1871739 27.5663043,12.2152174 L27.5691304,12.215 C26.6147826,11.6369565 25.5869565,11.1673913 24.5028261,10.8232609 Z M21.9591304,19.9891304 C22.213913,19.9891304 22.4432609,20.1015217 22.6028261,20.2808696 C23.1008696,20.233913 23.5973913,20.1945652 24.0904348,20.1634783 C24.2226087,19.3143478 24.3293478,18.4845652 24.4069565,17.6869565 C23.1004348,16.6126087 21.6986957,15.6863043 20.2858696,14.9545652 C19.7432609,16.2021739 19.2128261,17.6373913 18.7193478,19.1732609 C19.2156522,19.5073913 19.58,20.026087 19.7171739,20.6328261 C20.2121739,20.5593478 20.7095652,20.4919565 21.2069565,20.4315217 C21.3586957,20.1667391 21.6386957,19.9891304 21.9591304,19.9891304 Z M22.818913,21.0373913 C22.748913,21.4604348 22.3906522,21.7826087 21.9591304,21.7826087 C21.5917391,21.7826087 21.2776087,21.5491304 21.148913,21.2186957 C20.6858696,21.2776087 20.223913,21.3428261 19.7643478,21.4141304 C19.6454348,22.5991304 18.6736957,23.5284783 17.4806522,23.5626087 C17.1773913,24.7971739 16.9080435,26.0436957 16.6832609,27.2654348 C17.1630435,27.2373913 17.6493478,27.2032609 18.1406522,27.1632609 C18.2665217,26.3821739 18.903913,25.7880435 19.6717391,25.7880435 C20.3319565,25.7880435 20.8958696,26.2278261 21.1208696,26.8480435 C21.6513043,26.7786957 22.1826087,26.7019565 22.7123913,26.6173913 C22.8958696,25.9297826 23.07,25.2341304 23.2328261,24.5369565 C22.88,24.3278261 22.6436957,23.9445652 22.6436957,23.5065217 C22.6436957,22.891087 23.1102174,22.3841304 23.7106522,22.3154348 C23.8006522,21.8571739 23.8843478,21.4015217 23.9617391,20.95 C23.5817391,20.9736957 23.2004348,21.0030435 22.818913,21.0373913 Z M5.89717391,24.8691304 C6.3926087,24.456087 7.25717391,23.9984783 8.38956522,23.5345652 C7.63434783,21.5017391 7.35304348,19.3976087 7.72804348,17.3863043 C6.55717391,19.4493478 5.88869565,21.8328261 5.88869565,24.3719565 C5.88869565,24.5382609 5.89152174,24.703913 5.89717391,24.8691304 Z M10.0545652,22.9141304 C11.5091304,22.4173913 13.2232609,21.9332609 15.0721739,21.5097826 C15.0565217,21.3984783 15.0484783,21.2847826 15.0484783,21.168913 C15.0484783,19.8484783 16.1034783,18.7776087 17.4063043,18.7743478 C17.8908696,17.2932609 18.4095652,15.9067391 18.9391304,14.6928261 C17.3193478,15.523913 15.7628261,16.6282609 14.3504348,17.8941304 C14.4334783,18.056087 14.4804348,18.2402174 14.4804348,18.4354348 C14.4804348,19.0836957 13.9621739,19.6093478 13.3230435,19.6093478 C13.1167391,19.6093478 12.9230435,19.5545652 12.7554348,19.4586957 C11.7295652,20.5554348 10.8158696,21.7263043 10.0545652,22.9141304 Z M24.7626087,20.1265217 C25.1521739,20.1080435 25.5391304,20.0952174 25.9221739,20.0882609 C25.9565217,19.806087 26.0528261,19.5436957 26.1969565,19.3154348 C25.8213043,18.9371739 25.4319565,18.5713043 25.0321739,18.2191304 C24.958913,18.838913 24.8682609,19.4765217 24.7626087,20.1265217 Z M29.5580435,20.2271739 C30.3571739,20.3108696 31.1193478,20.4323913 31.8321739,20.5965217 C32.308913,18.3808696 31.9773913,16.3643478 30.5306522,14.9504348 C28.8658696,13.6780435 27.0330435,13.1091304 25.1513043,13.0773913 C25.2845652,14.1695652 25.278913,15.4769565 25.1630435,16.916087 C25.7978261,17.4530435 26.4113043,18.0223913 26.9954348,18.6191304 C27.2213043,18.5171739 27.4713043,18.4604348 27.7341304,18.4604348 C28.7123913,18.4604348 29.511087,19.2434783 29.5580435,20.2271739 Z M33.2052174,20.9897826 C33.5243478,21.1015217 33.8276087,21.2256522 34.1169565,21.3606522 C33.9534783,20.6067391 33.7302174,19.8752174 33.4519565,19.1708696 C33.4252174,19.7623913 33.3413043,20.3708696 33.2052174,20.9897826 Z M34.2984783,22.3776087 C33.8828261,22.1752174 33.4454348,21.9952174 32.9880435,21.8373913 C32.7897826,22.5180435 32.5319565,23.2073913 32.221087,23.8967391 C32.991087,23.5241304 33.7017391,23.1176087 34.3371739,22.6747826 C34.3252174,22.5754348 34.3123913,22.4763043 34.2984783,22.3776087 Z M31.6152174,21.4395652 C30.9119565,21.2713043 30.1745652,21.1445652 29.4119565,21.053913 C29.3745652,21.1419565 29.3308696,21.2265217 29.281087,21.3071739 C29.8269565,22.0536957 30.3217391,22.8256522 30.7534783,23.6154348 C31.1113043,22.8836957 31.4019565,22.1541304 31.6152174,21.4395652 Z M25.9919565,20.8771739 C25.5408696,20.8802174 25.0856522,20.8930435 24.6280435,20.913913 C24.54,21.4080435 24.4436957,21.9076087 24.3402174,22.4104348 C24.7623913,22.5969565 25.0567391,23.0176087 25.0567391,23.5065217 C25.0567391,24.168913 24.5165217,24.7058696 23.8504348,24.7058696 L23.8230435,24.7054348 C23.6756522,25.3093478 23.5195652,25.9123913 23.3565217,26.5104348 C25.7271739,26.1028261 28.0471739,25.5367391 30.1047826,24.7856522 C29.6621739,23.8304348 29.1134783,22.9026087 28.4823913,22.015 C28.2541304,22.1195652 28.0008696,22.1778261 27.7341304,22.1778261 C26.9167391,22.1778261 26.2247826,21.6308696 25.9919565,20.8771739 Z M15.3232609,22.2906522 C13.1276087,22.8158696 11.1282609,23.4306522 9.52630435,24.0315217 C9.95326087,25.1723913 10.5143478,26.2832609 11.1893478,27.3304348 C12.4119565,27.3815217 13.7828261,27.3854348 15.2404348,27.3336957 C15.4863043,25.9704348 15.7904348,24.5706522 16.1376087,23.186087 C15.7958696,22.963913 15.5145652,22.6552174 15.3232609,22.2906522 Z M8.56608696,24.4095652 C7.31413043,24.9278261 6.40130435,25.4182609 5.96108696,25.8115217 C5.98304348,26.0297826 6.01021739,26.2465217 6.04195652,26.4617391 C6.33391304,26.6504348 6.83978261,26.8154348 7.51956522,26.951087 C7.79543478,26.0976087 8.14695652,25.2469565 8.56608696,24.4095652 Z M21.133913,28.0082609 C20.9182609,28.6478261 20.345,29.1052174 19.6717391,29.1052174 C19.1056522,29.1052174 18.6104348,28.7821739 18.3386957,28.2993478 C17.7108696,28.3504348 17.0906522,28.3915217 16.4823913,28.4232609 C16.2606522,29.7876087 16.1006522,31.1052174 16.0180435,32.3230435 C16.965,32.9913043 18.0565217,33.6547826 19.2165217,34.2291304 C19.5897826,34.0902174 19.9613043,33.936087 20.3295652,33.7678261 C21.0473913,32.0567391 21.7526087,30.0078261 22.375,27.8369565 C21.9613043,27.8986957 21.5471739,27.9556522 21.133913,28.0082609 Z M8.07913043,27.05 C8.73108696,27.1521739 9.49913043,27.2323913 10.3595652,27.2867391 C9.82391304,26.5047826 9.35065217,25.6923913 8.95282609,24.8615217 C8.59065217,25.6008696 8.29630435,26.335 8.07913043,27.05 Z M34.43,23.8956522 C33.6013043,24.4582609 32.6504348,24.9615217 31.6097826,25.4091304 C32.3986957,27.3382609 32.7882609,29.3371739 32.6256522,31.3080435 C33.7793478,29.256087 34.4378261,26.8908696 34.4378261,24.3719565 C34.4378261,24.2123913 34.4352174,24.0536957 34.43,23.8956522 Z M29.1271739,26.3265217 C27.2143478,26.9334783 25.1252174,27.3978261 23.0095652,27.7384783 C22.4113043,29.7843478 21.738913,31.7354348 21.051087,33.4182609 C22.1686957,32.8458696 23.2528261,32.1473913 24.2769565,31.3576087 C24.2004348,31.146087 24.1584783,30.9182609 24.1584783,30.6804348 C24.1584783,29.5773913 25.0569565,28.6830435 26.165,28.6830435 C26.4721739,28.6830435 26.7634783,28.7519565 27.0236957,28.8747826 C27.7958696,28.0615217 28.5030435,27.2043478 29.1271739,26.3265217 Z M15.0458696,28.4806522 C13.9706522,28.5113043 12.9465217,28.5119565 11.9995652,28.485 C12.2347826,28.7936957 12.4804348,29.0952174 12.7354348,29.3882609 C12.8880435,29.3028261 13.0656522,29.253913 13.2552174,29.253913 C13.8226087,29.253913 14.2826087,29.6919565 14.2826087,30.2319565 C14.2826087,30.4391304 14.2147826,30.6313043 14.0995652,30.7893478 C14.2919565,30.9658696 14.4884783,31.1380435 14.6884783,31.3052174 C14.7704348,30.4043478 14.8915217,29.456087 15.0458696,28.4806522 Z M11.2245652,28.4563043 C9.86586957,28.3934783 8.7,28.2708696 7.81391304,28.1004348 C7.51673913,29.5943478 7.6026087,30.9684783 8.17043478,32.085 C8.35413043,32.3676087 8.54782609,32.6430435 8.75043478,32.9115217 C10.5504348,34.3815217 12.5556522,35.0352174 14.6128261,35.0745652 C14.541087,34.1286957 14.555,33.0447826 14.6419565,31.8678261 C14.5204348,31.7708696 14.4030435,31.6754348 14.2897826,31.5815217 C14.1006522,31.4245652 13.913913,31.263913 13.7295652,31.1 C13.5876087,31.1704348 13.4265217,31.2102174 13.2552174,31.2102174 C12.6880435,31.2102174 12.2282609,30.7723913 12.2282609,30.2319565 C12.2282609,30.0615217 12.273913,29.901087 12.3545652,29.7615217 C11.9597826,29.3415217 11.5821739,28.9054348 11.2245652,28.4563043 Z M7.22673913,27.9693478 C6.79891304,27.8586957 6.47043478,27.7328261 6.2573913,27.5943478 C6.42217391,28.3023913 6.64,28.9897826 6.90652174,29.6528261 C6.97782609,29.0943478 7.08521739,28.5321739 7.22673913,27.9693478 Z M20.1886957,35.3684783 C19.4991304,36.7958696 18.8191304,37.8821739 18.2073913,38.4569565 C18.8467391,38.5443478 19.4997826,38.5893478 20.1632609,38.5893478 C22.5641304,38.5893478 24.826087,37.9986957 26.8115217,36.9558696 C24.7715217,37.1523913 22.4065217,36.4332609 20.1886957,35.3684783 Z M17.4969565,38.3417391 C18.1102174,37.9591304 18.805,36.9597826 19.5134783,35.5521739 C18.3893478,35.9158696 17.2419565,36.1495652 16.088913,36.2265217 C16.2006522,37.0080435 16.3865217,37.6617391 16.6552174,38.1567391 C16.9326087,38.2265217 17.2132609,38.2882609 17.4969565,38.3417391 Z M24.5076087,16.3791304 C24.5765217,15.1626087 24.5636957,14.0480435 24.4508696,13.09 C23.23,13.1534783 21.9947826,13.4321739 20.7776087,13.8813043 L20.7656522,13.9063043 C22.0441304,14.5926087 23.3080435,15.4276087 24.5076087,16.3791304 Z M24.3513043,12.4241304 C24.2147826,11.6834783 24.0030435,11.0652174 23.7084783,10.5963043 C23.5663043,10.56 23.4234783,10.526087 23.2797826,10.4941304 C22.593913,10.8334783 21.841087,11.8319565 21.0869565,13.2686957 C22.1484783,12.89 23.2402174,12.6034783 24.3513043,12.4241304 Z M15.9856522,32.876087 C15.9482609,33.6380435 15.9441304,34.3545652 15.9765217,35.0136957 C16.8165217,34.923913 17.6593478,34.7406522 18.4952174,34.4769565 C17.5978261,33.9641304 16.748913,33.4156522 15.9856522,32.876087 Z M15.2306522,37.7173913 C15.0234783,37.3191304 14.8682609,36.8234783 14.7608696,36.2443478 C13.6413043,36.198913 12.5232609,35.9965217 11.4232609,35.6132609 C12.5667391,36.4965217 13.8482609,37.2104348 15.2306522,37.7173913 Z M19.5828261,13.3163043 C20.343913,11.8041304 21.1078261,10.7078261 21.8078261,10.2476087 C21.2682609,10.186087 20.7193478,10.1543478 20.1632609,10.1543478 C17.7282609,10.1543478 15.4363043,10.7619565 13.4306522,11.8326087 L13.4428261,11.8315217 C15.3367391,11.7919565 17.458913,12.3367391 19.5828261,13.3163043 Z M9.22608696,15.2356522 C8.31804348,17.7271739 8.40456522,20.5128261 9.23543478,23.1808696 C10.0882609,21.733913 11.1395652,20.3441304 12.3480435,19.0686957 C12.2323913,18.8858696 12.1654348,18.6686957 12.1654348,18.4354348 C12.1654348,17.7869565 12.6836957,17.2615217 13.3230435,17.2615217 C13.5758696,17.2615217 13.8097826,17.3436957 14.0002174,17.4832609 C15.4502174,16.2186957 17.0636957,15.1176087 18.7878261,14.2530435 C15.3906522,12.835 12.1,12.6386957 10.0913043,14.3084783 L10.0845652,14.303913 C9.78478261,14.6015217 9.49847826,14.9126087 9.22608696,15.2356522 Z M20.9717391,35.0030435 C24.7354348,36.4532609 28.7995652,36.6334783 30.8719565,32.9904348 L30.8730435,32.9904348 C31.5473913,30.8278261 31.4393478,28.6295652 30.7797826,26.5217391 C30.001087,27.7232609 29.0773913,28.89 28.0421739,29.9736957 C28.1256522,30.1934783 28.1715217,30.4315217 28.1715217,30.6804348 C28.1715217,31.7834783 27.2730435,32.6776087 26.165,32.6776087 C25.841087,32.6776087 25.535,32.601087 25.263913,32.4652174 C23.9234783,33.4880435 22.4771739,34.3565217 20.9717391,35.0030435 Z M20.1878261,39.8936957 C28.7693478,39.8936957 35.7258696,32.9882609 35.7258696,24.4697826 C35.7258696,15.9513043 28.7693478,9.04586957 20.1878261,9.04586957 C11.606087,9.04586957 4.64956522,15.9513043 4.64956522,24.4697826 C4.64956522,32.9882609 11.606087,39.8936957 20.1878261,39.8936957 Z" id="Fill-1"></path>
                    <path d="M0.265337052,10.1273913 L0.265554444,10.1271739 C0.545989226,9.67826087 1.14272836,9.54065217 1.5916414,9.82108696 L5.5066414,12.2673913 C5.95555444,12.5478261 6.09338053,13.1447826 5.81272836,13.5936957 C5.53229357,14.0426087 4.93555444,14.1804348 4.48642401,13.8997826 L0.5716414,11.4534783 C0.122728357,11.1730435 -0.0150977302,10.5763043 0.265337052,10.1273913" id="Fill-3"></path>
                    <path d="M9.22195652,2.57021739 L9.22195652,2.57 C9.70173913,2.34630435 10.2771739,2.55586957 10.501087,3.03565217 L12.4519565,7.21956522 C12.6756522,7.69934783 12.4663043,8.27478261 11.9865217,8.49847826 L11.9863043,8.49869565 C11.5065217,8.7223913 10.931087,8.51282609 10.7073913,8.03304348 L8.75630435,3.84913043 C8.5326087,3.36934783 8.74217391,2.79391304 9.22195652,2.57021739" id="Fill-4"></path>
                    <path d="M20.0932609,0.0463043478 L20.0934783,0.0463043478 C20.6228261,0.0463043478 21.0558696,0.479347826 21.0558696,1.00891304 L21.0558696,5.62521739 C21.0558696,6.15456522 20.6228261,6.5876087 20.0934783,6.5876087 L20.0932609,6.5876087 C19.563913,6.5876087 19.1308696,6.15456522 19.1308696,5.62521739 L19.1308696,1.00891304 C19.1308696,0.479347826 19.563913,0.0463043478 20.0932609,0.0463043478" id="Fill-5"></path>
                    <path d="M30.9436957,2.57826087 L30.943913,2.57826087 C31.4234783,2.80195652 31.6330435,3.3776087 31.4093478,3.8573913 L29.4584783,8.04130435 C29.2345652,8.52108696 28.6591304,8.73043478 28.1793478,8.50673913 L28.1791304,8.50673913 C27.6995652,8.28304348 27.49,7.7076087 27.7136957,7.2276087 L29.6647826,3.04391304 C29.8884783,2.56391304 30.463913,2.35456522 30.9436957,2.57826087" id="Fill-6"></path>
                    <path d="M39.6719565,10.1615217 L39.6721739,10.1615217 C39.9526087,10.6104348 39.8147826,11.2071739 39.3658696,11.4878261 L35.4508696,13.9341304 C35.0019565,14.2145652 34.4052174,14.0769565 34.1247826,13.6280435 L34.1245652,13.6278261 C33.8441304,13.178913 33.9819565,12.5821739 34.4308696,12.3015217 L38.3458696,9.85521739 C38.7947826,9.57478261 39.3915217,9.7126087 39.6719565,10.1615217" id="Fill-7"></path>
                </g>
                <g id="Group-8" transform="translate(61.000000, 206.000000)" stroke="#FFFFFF" stroke-width="2" fill="#FFFFFF">
                    <path d="M15.869005,4.7573077 C16.4031715,4.7573077 16.8366887,4.33151581 16.8366887,3.80598889 L16.8366887,0.951318806 C16.8366887,0.425791885 16.4031715,0 15.869005,0 C15.3348385,0 14.9020466,0.425791885 14.9020466,0.951318806 L14.9020466,3.80598889 C14.9020466,4.33151581 15.3348385,4.7573077 15.869005,4.7573077 Z" id="Shape"></path>
                    <path d="M4.86987398,5.56636829 L6.91994536,7.58328191 L6.92067076,7.58399558 C7.29824151,7.95545953 7.91029785,7.95545953 8.28859401,7.58399558 C8.66616476,7.21253164 8.66616476,6.61037466 8.28859401,6.23819705 L8.28859401,6.23819705 L6.23634643,4.21985609 L6.23634643,4.21985609 L6.23634643,4.21985609 C5.85877568,3.84839215 5.24671934,3.84839215 4.86842318,4.21985609 C4.49085243,4.59132004 4.49085243,5.19419068 4.86842318,5.56565462 C4.86842318,5.56565462 4.86914858,5.56636829 4.86987398,5.56636829 Z" id="Shape"></path>
                    <path d="M3.86855877,15.9792732 C4.40272527,15.9792732 4.83624251,15.5534813 4.83624251,15.0279544 C4.83624251,14.5024275 4.40345067,14.0766356 3.86855877,14.0766356 L3.86855877,14.0766356 L0.966958341,14.0759219 L0.966958341,14.0766356 L0.966958341,14.0766356 C0.432791838,14.0766356 0,14.5024275 0,15.0279544 C0,15.5534813 0.432791838,15.9792732 0.966958341,15.9792732 L0.967683741,15.9792732 L3.86855877,15.9792732 L3.86855877,15.9792732 L3.86855877,15.9792732 L3.86855877,15.9792732 L3.86855877,15.9792732 Z" id="Shape"></path>
                    <path d="M8.28859401,22.2370364 C7.91029785,21.8662861 7.29824151,21.8648588 6.92067076,22.2370364 L6.91994536,22.2370364 L4.86842318,24.2553774 L4.86842318,24.2553774 L4.86842318,24.2553774 C4.49085243,24.6261276 4.49085243,25.2297119 4.86842318,25.6018896 C5.24671934,25.9726398 5.85877568,25.9726398 6.23634643,25.6018896 L6.23707183,25.6004622 L8.28859401,23.5821213 L8.28859401,23.5821213 C8.66616476,23.2099436 8.66616476,22.6077867 8.28859401,22.2370364 Z" id="Shape"></path>
                    <path d="M24.5773269,7.58399558 L24.5773269,7.58399558 L24.5773269,7.58399558 L26.6281237,5.56565462 L26.6281237,5.56565462 L26.6281237,5.56565462 C27.0078706,5.19419068 27.0078706,4.59132004 26.6281237,4.21985609 C26.2512783,3.84839215 25.639222,3.84839215 25.2623766,4.21985609 L25.2609258,4.21985609 L23.210129,6.23748338 L23.2094036,6.23819705 C22.8318329,6.61037466 22.8318329,7.21253164 23.2094036,7.58399558 C23.5869744,7.95545953 24.1997561,7.95545953 24.5773269,7.58399558 Z" id="Shape"></path>
                    <path d="M35.2009346,11.1020577 C31.8204794,11.1020577 28.774343,12.509856 26.6335966,14.761031 C26.3119724,14.397239 25.9492723,14.071093 25.5497582,13.7901756 C24.88103,9.17711793 20.8502536,5.63036876 15.9764716,5.63036876 C10.6351693,5.63036876 6.30471203,9.89007178 6.30471203,15.1456978 C6.30471203,18.3237485 7.88798844,21.1365798 10.3198923,22.8636552 C9.73331563,23.9438802 9.40035698,25.1761164 9.40035698,26.4849827 C9.40035698,30.7321073 12.9005938,34.1777833 17.218266,34.1777833 L35.2009346,34.1777833 C41.6756746,34.1777833 46.9263019,29.0120793 46.9263019,22.6392068 C46.9263019,16.2670479 41.6756746,11.1020577 35.2009346,11.1020577 Z M10.5054134,20.5288919 C9.04400418,19.0904058 8.23926344,17.178669 8.23926344,15.1456978 C8.23926344,13.112013 9.04400418,11.2002761 10.5054134,9.76250371 C11.9668226,8.32473128 13.9099881,7.53300638 15.976381,7.53300638 C18.0434992,7.53300638 19.9866648,8.32473128 21.448074,9.76250371 C22.328619,10.6295205 22.9704168,11.6686205 23.3416403,12.8025489 C22.8811926,12.6965693 22.4023378,12.6401896 21.9092471,12.6401896 C18.4550731,12.6401896 15.6547567,15.3952138 15.6547567,18.7935202 C15.6547567,18.8450826 15.6554821,18.895307 15.6568422,18.9468695 C13.9992123,19.2772083 12.5320906,20.1246885 11.435467,21.3094658 C11.1082209,21.0752936 10.7972962,20.8160539 10.5054134,20.5288919 Z M42.1233371,29.4525014 C40.2758337,31.2715507 37.816274,32.2737183 35.2008439,32.2737183 L17.2181753,32.2737183 C13.974458,32.2737183 11.3349084,29.6769499 11.3349084,26.4848934 C11.3349084,25.142574 11.8130377,23.8323697 12.6808883,22.8008525 C13.5387646,21.7791482 14.7316851,21.072439 16.0408509,20.8131992 L17.6304746,20.4954388 L17.5907589,18.9008379 C17.5893081,18.8646193 17.5893081,18.8284007 17.5893081,18.7935202 C17.5893081,16.4497468 19.5267611,14.5435409 21.9091564,14.5435409 C23.1615597,14.5435409 24.3510345,15.0773642 25.1727315,16.0092355 L26.5810051,17.6045501 L28.0459506,16.060798 C28.9541516,15.1060001 30.0266556,14.3539729 31.236623,13.8271079 C32.4862154,13.2814198 33.8194101,13.0054089 35.2008439,13.0054089 C37.816274,13.0054089 40.2758337,14.0069521 42.1233371,15.8266258 C43.9736514,17.6462996 44.9923852,20.0660786 44.9923852,22.6392068 C44.9923852,25.212335 43.9737421,27.632114 42.1233371,29.4525014 Z" id="Shape"></path>
                </g>
                <g id="Group" transform="translate(167.000000, 204.000000)" fill="#FFFFFF">
                    <path d="M19.8285714,0 C8.89510204,0 0,8.89510204 0,19.8285714 C0,30.7620408 8.89510204,39.6571429 19.8285714,39.6571429 C30.7620408,39.6571429 39.6571429,30.7620408 39.6571429,19.8285714 C39.6571429,8.89510204 30.7620408,0 19.8285714,0 Z M19.8285714,35.4379592 C11.2216327,35.4379592 4.21877551,28.4359184 4.21877551,19.8285714 C4.21877551,11.2212245 11.2216327,4.21918367 19.8285714,4.21918367 C28.4355102,4.21918367 35.4383673,11.2212245 35.4383673,19.8285714 C35.4383673,28.4359184 28.4355102,35.4379592 19.8285714,35.4379592 Z" id="Shape"></path>
                    <path d="M30.162449,19.2163265 L21.2514286,19.2163265 L21.2514286,8.50204082 C21.2514286,7.60040816 20.5204082,6.86938776 19.6187755,6.86938776 C18.7171429,6.86938776 17.9861224,7.60040816 17.9861224,8.50204082 L17.9861224,20.8489796 C17.9861224,21.7506122 18.7171429,22.4816327 19.6187755,22.4816327 L30.162449,22.4816327 C31.0640816,22.4816327 31.795102,21.7506122 31.795102,20.8489796 C31.795102,19.9473469 31.0640816,19.2163265 30.162449,19.2163265 Z" id="Shape"></path>
                </g>
                <path d="M284.426776,236.202238 C284.192169,236.254438 284.035765,236.411038 284.061832,236.593739 C284.087899,236.750339 284.296439,236.854739 284.531046,236.802539 C284.765654,236.750339 284.922058,236.593739 284.894948,236.437138 C284.869923,236.280538 284.661384,236.177182 284.426776,236.202238 M282.941974,236.411038 C282.708409,236.411038 282.525937,236.541539 282.525937,236.698139 C282.525937,236.879795 282.708409,237.010295 282.969084,236.985239 C283.202648,236.985239 283.385121,236.854739 283.385121,236.698139 C283.385121,236.515438 283.176581,236.385982 282.941974,236.411038 M281.406079,236.151082 C281.197539,236.097838 280.962932,236.177182 280.910797,236.332738 C280.858662,236.489338 281.01611,236.670995 281.249674,236.724239 C281.458214,236.802539 281.691778,236.724239 281.743913,236.568683 C281.797091,236.411038 281.640686,236.228338 281.406079,236.151082 M280.155883,235.42028 C279.973411,235.23758 279.738804,235.212524 279.635577,235.34198 C279.50524,235.446381 279.557374,235.681281 279.738804,235.836837 C279.921276,236.019538 280.155883,236.046682 280.260153,235.917225 C280.364423,235.811781 280.312288,235.576881 280.155883,235.42028 M279.166363,234.325123 C279.062093,234.142422 278.853553,234.065166 278.723216,234.168522 C278.593921,234.247866 278.593921,234.455623 278.723216,234.638323 C278.853553,234.821023 279.062093,234.899324 279.166363,234.821023 C279.2967,234.716623 279.2967,234.507823 279.166363,234.325123 M278.333246,233.229965 C278.202909,233.099464 278.020437,233.048308 277.916167,233.151664 C277.811897,233.229965 277.837965,233.412665 277.968302,233.570309 C278.098639,233.699765 278.280069,233.750921 278.385381,233.647565 C278.489651,233.570309 278.463584,233.386565 278.333246,233.229965 M277.394818,232.448007 C277.238413,232.395807 277.108076,232.421907 277.056983,232.499163 C277.004849,232.604607 277.083051,232.735108 277.238413,232.813408 C277.36875,232.891708 277.525155,232.865608 277.57729,232.760164 C277.629425,232.656808 277.552265,232.526307 277.394818,232.448007 M310,224.026044 C310,232.865608 304.271414,240.374069 296.328137,243.034186 C295.312549,243.216887 294.947604,242.591529 294.947604,242.069528 C294.947604,241.418071 294.973672,239.253855 294.973672,236.568683 C294.973672,234.690523 294.349095,233.490965 293.619207,232.865608 C298.072572,232.369707 302.760544,230.674248 302.760544,222.983086 C302.760544,220.79277 301.97852,219.019011 300.7033,217.610652 C300.91184,217.089696 301.588551,215.05598 300.49476,212.292507 C298.828528,211.770506 294.999739,214.351279 294.999739,214.351279 C293.41171,213.908622 291.6923,213.673721 290,213.673721 C288.3077,213.673721 286.58829,213.908622 284.999218,214.351279 C284.999218,214.351279 281.171472,211.770506 279.50524,212.292507 C278.410406,215.05598 279.08816,217.089696 279.2967,217.610652 C278.020437,219.019011 277.238413,220.79277 277.238413,222.983086 C277.238413,230.649192 281.900318,232.369707 286.354726,232.865608 C285.781242,233.386565 285.259893,234.272922 285.078463,235.550781 C283.932537,236.072782 281.01611,236.959139 279.270632,233.881422 C278.176842,231.978206 276.196757,231.82265 276.196757,231.82265 C274.243783,231.795506 276.06642,233.048308 276.06642,233.048308 C277.36875,233.647565 278.280069,235.967337 278.280069,235.967337 C279.452062,239.539912 285.025285,238.340354 285.025285,238.340354 C285.025285,240.008669 285.052396,241.574672 285.052396,242.069528 C285.052396,242.591529 284.687451,243.216887 283.671863,243.034186 C275.728586,240.374069 270,232.865608 270,224.026044 C270,212.970064 278.957823,204 290,204 C301.042177,204 310,212.970064 310,224.026044" id="Fill-3" fill="#FFFFFF"></path>
                <g id="Group-9" transform="translate(370.000000, 208.000000)" fill="#FFFFFF">
                    <ellipse id="Oval-3" cx="22.5" cy="15.5" rx="18.5" ry="15.5"></ellipse>
                    <use id="Oval-3-Copy" stroke="#5AAAFA" mask="url(#mask-2)" stroke-width="4" xlink:href="#path-1"></use>
                    <polygon id="Triangle" transform="translate(11.313708, 24.313708) rotate(-135.000000) translate(-11.313708, -24.313708) " points="11.3137085 16.3137085 19.3137085 32.3137085 3.3137085 32.3137085"></polygon>
                </g>
            </g>
        </g>
    </g>
</svg>