<?xml version="1.0" encoding="UTF-8"?>
<svg width="398px" height="398px" viewBox="0 0 398 398" version="1.1" xmlns="http://www.w3.org/2000/svg" xmlns:xlink="http://www.w3.org/1999/xlink">
    <!-- Generator: Sketch 41.2 (35397) - http://www.bohemiancoding.com/sketch -->
    <title>Group 39</title>
    <desc>Created with Sketch.</desc>
    <defs></defs>
    <g id="Contributor" stroke="none" stroke-width="1" fill="none" fill-rule="evenodd">
        <g transform="translate(-769.000000, -936.000000)" id="Group-39">
            <g transform="translate(769.000000, 936.000000)">
                <g id="Group-38" opacity="0.206578351">
                    <g id="Group-37" transform="translate(178.876404, 0.000000)">
                        <path d="M20.1235955,23.8629607 L20.1235955,384.027367" id="Line" stroke="#5AAAFA" stroke-width="10" stroke-linecap="square"></path>
                        <ellipse id="Oval-10" fill="#5AAAFA" cx="20.1235955" cy="20.1235955" rx="20.1235955" ry="20.1235955"></ellipse>
                        <circle id="Oval-10-Copy" fill="#5AAAFA" cx="20.1235955" cy="377.876404" r="20.1235955"></circle>
                    </g>
                    <g id="Group-37-Copy" transform="translate(199.266158, 198.733842) rotate(-45.000000) translate(-199.266158, -198.733842) translate(178.766158, -0.266158)">
                        <path d="M20.1235955,23.8629607 L20.1235955,384.027367" id="Line" stroke="#5AAAFA" stroke-width="10" stroke-linecap="square"></path>
                        <ellipse id="Oval-10" fill="#5AAAFA" cx="20.1235955" cy="20.1235955" rx="20.1235955" ry="20.1235955"></ellipse>
                        <circle id="Oval-10-Copy" fill="#5AAAFA" cx="20.1235955" cy="377.876404" r="20.1235955"></circle>
                    </g>
                    <g id="Group-37-Copy-2" transform="translate(199.000000, 198.623596) rotate(-90.000000) translate(-199.000000, -198.623596) translate(178.500000, -0.376404)">
                        <path d="M20.1235955,23.8629607 L20.1235955,384.027367" id="Line" stroke="#5AAAFA" stroke-width="10" stroke-linecap="square"></path>
                        <ellipse id="Oval-10" fill="#5AAAFA" cx="20.1235955" cy="20.1235955" rx="20.1235955" ry="20.1235955"></ellipse>
                        <circle id="Oval-10-Copy" fill="#5AAAFA" cx="20.1235955" cy="377.876404" r="20.1235955"></circle>
                    </g>
                    <g id="Group-37-Copy-3" transform="translate(198.733842, 198.733842) rotate(-135.000000) translate(-198.733842, -198.733842) translate(178.233842, -0.266158)">
                        <path d="M20.1235955,23.8629607 L20.1235955,384.027367" id="Line" stroke="#5AAAFA" stroke-width="10" stroke-linecap="square"></path>
                        <ellipse id="Oval-10" fill="#5AAAFA" cx="20.1235955" cy="20.1235955" rx="20.1235955" ry="20.1235955"></ellipse>
                        <circle id="Oval-10-Copy" fill="#5AAAFA" cx="20.1235955" cy="377.876404" r="20.1235955"></circle>
                    </g>
                </g>
                <g id="Group-36" transform="translate(51.000000, 68.000000)">
                    <polygon id="Fill-1" fill="#3CC25F" points="151.0906 52.0321543 41.9444444 101.56173 151.0906 151.090466 260.235917 101.56173"></polygon>
                    <path d="M151.419444,53.2909968 L151.419444,151.495052" id="Line" stroke="#81EA9C" stroke-linecap="square"></path>
                    <g id="Group-19" transform="translate(69.627778, 0.000000)">
                        <ellipse id="Oval-9" fill="#FFFFFF" cx="80.9527778" cy="80.9855305" rx="80.9527778" ry="80.9855305"></ellipse>
                        <path d="M129.290977,73.4393718 L144.765241,59.9559619 L131.622795,38.4630042 L113.170268,44.4658527 C108.719755,40.611067 103.601129,37.5967863 98.065401,35.5708271 L93.9731767,17.7922757 L68.5771445,17.7922757 L64.4849202,35.5708271 C58.9495402,37.6001521 53.8311682,40.6162315 49.3800528,44.4716026 L30.9275267,38.4630042 L17.78508,59.9559619 L33.2535723,73.4451216 C32.8610882,75.9233091 32.6013561,78.4474954 32.6013561,81.04068 C32.6013561,83.6338646 32.8610882,86.1580509 33.2535723,88.6362384 L17.78508,102.125398 L30.9332985,123.618356 L49.3800528,117.615507 C53.8312312,121.47236 58.9521459,124.486836 64.490692,126.510533 L68.5771445,144.289084 L93.9731767,144.289084 L98.0596292,126.510533 C103.596414,124.486793 108.715426,121.472285 113.164497,117.615507 L131.611251,123.618356 L144.765241,102.125398 L129.290977,88.6419882 C129.689233,86.1580509 129.948965,83.6338646 129.948965,81.04068 C129.948965,78.4474954 129.689233,75.9233091 129.290977,73.4393718 Z M81.2021692,101.16297 C69.6912881,100.866867 60.5144684,91.4858698 60.5144684,80.0149826 C60.5144684,68.5440955 69.6912881,59.1630981 81.2021692,58.8669951 C92.7130504,59.1630981 101.88987,68.5440955 101.88987,80.0149826 C101.88987,91.4858698 92.7130504,100.866867 81.2021692,101.16297 Z" id="Combined-Shape" fill="#5BB9FF"></path>
                    </g>
                    <polygon id="Fill-2" fill="#44E06C" points="41.9444444 210.144444 151.0906 260.498141 151.0906 151.061093 41.9444444 101.546624"></polygon>
                    <polygon id="Fill-3" fill="#81EA9C" points="0 141.948752 108.920494 192.084251 150.974833 151.056058 41.8353889 101.546624"></polygon>
                    <polygon id="Fill-4" fill="#3BC75F" points="151 151.060254 151 260.498141 260.145317 210.143605 260.145317 101.546624"></polygon>
                    <polygon id="Fill-5" fill="#81EA9C" points="151 151.055219 193.0535 193.762707 301.973994 143.62637 260.138606 101.546624"></polygon>
                    <g id="Group-20" transform="translate(114.927778, 176.237942)">
                        <path d="M71.3008627,35.6625349 C71.3008627,55.3587369 55.3388596,71.3250697 35.6499864,71.3250697 C15.9611132,71.3250697 0,55.3587369 0,35.6625349 C0,15.967223 15.9611132,0 35.6499864,0 C55.3388596,0 71.3008627,15.967223 71.3008627,35.6625349" id="Fill-58" fill="#FFFFFF"></path>
                        <path d="M35.5290407,14.957214 C24.1642227,14.957214 14.9511649,24.1741748 14.9511649,35.5418192 C14.9511649,43.8819493 19.9114261,51.0577192 27.0403555,54.2926463 L31.0057168,42.8324228 C28.5700808,41.3164402 26.9433572,38.6227446 26.9433572,35.5418192 C26.9433572,30.7989211 30.7876931,26.953328 35.5290407,26.953328 C40.2712783,26.953328 44.1147243,30.7989211 44.1147243,35.5418192 C44.1147243,38.6227446 42.4880007,41.3164402 40.0523647,42.8324228 L44.017726,54.2926463 C51.1466554,51.0577192 56.1069166,43.8819493 56.1069166,35.5418192 C56.1069166,24.1741748 46.8938588,14.957214 35.5290407,14.957214" id="Fill-59" fill="#44E06C"></path>
                    </g>
                </g>
            </g>
        </g>
    </g>
</svg>