<?xml version="1.0" encoding="UTF-8"?>
<svg width="333px" height="342px" viewBox="0 0 333 342" version="1.1" xmlns="http://www.w3.org/2000/svg" xmlns:xlink="http://www.w3.org/1999/xlink">
    <!-- Generator: Sketch 41.2 (35397) - http://www.bohemiancoding.com/sketch -->
    <title>illustration-contributors-share</title>
    <desc>Created with Sketch.</desc>
    <defs>
        <ellipse id="path-1" cx="177.688144" cy="188.9801" rx="124.646907" ry="124.514925"></ellipse>
        <mask id="mask-2" maskContentUnits="userSpaceOnUse" maskUnits="objectBoundingBox" x="0" y="0" width="249.293814" height="249.029851" fill="white">
            <use xlink:href="#path-1"></use>
        </mask>
    </defs>
    <g id="Contributor" stroke="none" stroke-width="1" fill="none" fill-rule="evenodd">
        <g transform="translate(-302.000000, -465.000000)" id="illustration-contributors-share">
            <g transform="translate(294.000000, 452.000000)">
                <use id="Oval" stroke="#90E5FD" mask="url(#mask-2)" stroke-width="28" opacity="0.410609149" xlink:href="#path-1"></use>
                <g id="Group-32" transform="translate(10.608247, 22.077114)">
                    <g id="Group-15">
                        <g id="Group-14">
                            <g id="Group-4">
                                <path d="M1.09572068,75.2962373 C0.767391456,71.7590937 0.252324991,60.7465998 0.252324991,60.7465998 C-2.62260775,29.8039381 19.6148568,8.86393856 39.170282,10.7100583 L34.0750229,16.3112759 C35.2494838,16.2429517 31.8546965,23.2625796 30.9442669,24.5081297 L24.4276159,33.4292199 C18.1059104,42.0838458 19.8337429,53.4338611 15.8924242,65.9829662 L14.4081025,114.842965 C13.3683933,118.152589 3.74492708,103.822272 1.09572068,75.2962373" id="Fill-3" fill="#EB672D"></path>
                                <path d="M114.257898,74.4856038 C114.54245,70.9778396 114.920712,60.0637326 114.920712,60.0637326 C118.26625,22.1431208 92.8911896,11.1272107 81.3298969,10.5970149 L84.6159252,20.6037766 C83.4400962,20.5504838 82.8538917,23.2971164 83.7786857,24.5208028 L90.4061478,33.2826976 C96.8345603,41.7829108 95.2496878,53.044788 99.3469629,65.4299149 L101.440062,113.809595 C102.520812,117.075491 111.964381,102.771138 114.257898,74.4856038" id="Fill-5" fill="#EB672D" transform="translate(98.275945, 62.432411) rotate(2.000000) translate(-98.275945, -62.432411) "></path>
                                <path d="M110.241744,96.2790554 L110.241744,96.2790554 C112.251393,96.4997425 114.076356,95.0376048 114.297978,93.0295566 L115.631132,80.9020119 C115.85207,78.894647 114.388269,77.0717575 112.377936,76.8503871 C110.368288,76.6296999 108.543324,78.092521 108.321702,80.0998858 L106.988549,92.2274306 C106.767611,94.2354787 108.232096,96.0590515 110.241744,96.2790554" id="Fill-11" fill="#F8D5BF"></path>
                                <path d="M5.41212533,96.2790554 L5.41212533,96.2790554 C3.40247689,96.4997425 1.57682962,95.0376048 1.35589141,93.0295566 L0.0220539517,80.9020119 C-0.198884253,78.894647 1.26560088,77.0717575 3.27524931,76.8503871 C5.28489775,76.6296999 7.11054502,78.092521 7.33148323,80.0998858 L8.66532069,92.2274306 C8.88557487,94.2354787 7.42177376,96.0590515 5.41212533,96.2790554" id="Fill-13" fill="#F8D5BF"></path>
                                <path d="M111.849545,56.3496137 L110.177803,108.778356 C109.995853,114.474761 106.618167,119.60969 101.39226,122.129975 L74.8967757,134.910079 C72.2797182,136.308081 69.3459598,137.041546 66.3643201,137.041546 L57.7265255,137.041546 L49.0880469,137.041546 C46.1064071,137.041546 43.1726488,136.308081 40.5555913,134.910079 L14.0628432,122.131313 C8.83625246,119.61036 5.45788158,114.474092 5.27730051,108.775679 L3.63155029,56.6748549 C2.73411709,46.3989739 8.22405527,36.5982395 17.5602335,31.8092975 L58.9146669,10.5970149 L98.3312738,31.6988761 C107.430781,36.5701322 112.732614,46.238361 111.849545,56.3496137" id="Fill-18" fill="#FFDBC2"></path>
                                <path d="M31.2494024,20.9991892 C34.5867321,7.77982379 46.155549,-0.494919551 63.746471,0.0229778528 C81.3380771,0.540192014 95.3536307,9.24606103 94.9521114,22.8726386 C76.8707476,22.3410764 76.9788226,33.8140753 62.5631178,40.147045 C44.2026741,48.2140828 28.5276899,31.7759646 31.2494024,20.9991892" id="Fill-28" fill="#EB672D"></path>
                            </g>
                        </g>
                    </g>
                    <g id="Group-28" transform="translate(20.332474, 45.803483)">
                        <g id="Group-26" transform="translate(4.420103, 15.129353)">
                            <g id="Group-24">
                                <path d="M15.5545968,7.76846105 C15.5545968,12.0585373 12.072255,15.5369221 7.77729842,15.5369221 C3.48165778,15.5369221 0,12.0585373 0,7.76846105 C0,3.47770156 3.48165778,0 7.77729842,0 C12.072255,0 15.5545968,3.47770156 15.5545968,7.76846105" id="Fill-34" fill="#FFFFFF"></path>
                                <path d="M10.9031178,7.84975554 C9.22111455,7.84975554 7.85786426,6.48805432 7.85786426,4.80796235 C7.85786426,3.57197765 8.59865707,2.51295261 9.65888684,2.03741621 C9.08978286,1.86113979 8.48510988,1.76616915 7.85786426,1.76616915 C4.49454181,1.76616915 1.76804124,4.48957159 1.76804124,7.84975554 C1.76804124,11.2092562 4.49454181,13.9326587 7.85786426,13.9326587 C11.2211867,13.9326587 13.9483713,11.2092562 13.9483713,7.84975554 C13.9483713,7.22322266 13.8526086,6.61923677 13.6768157,6.05077947 C13.2000543,7.10912126 12.1405085,7.84975554 10.9031178,7.84975554" id="Fill-36" fill="#5AAAFA"></path>
                            </g>
                            <g id="Group-25" transform="translate(52.157216, 0.000000)">
                                <path d="M15.5545968,7.76846105 C15.5545968,12.0585373 12.072255,15.5369221 7.77729842,15.5369221 C3.48165778,15.5369221 0,12.0585373 0,7.76846105 C0,3.47770156 3.48165778,0 7.77729842,0 C12.072255,0 15.5545968,3.47770156 15.5545968,7.76846105" id="Fill-38" fill="#FFFFFF"></path>
                                <path d="M10.3846394,7.8063028 C9.13083221,7.59928048 8.10822349,6.578517 7.90096567,5.32545125 C7.66087493,3.87287885 8.45365319,2.57881858 9.65889504,2.03769095 C8.87295697,1.79445682 8.019301,1.70495212 7.1328121,1.8088049 C4.30370865,2.13676104 2.03071281,4.4843804 1.79062207,7.31846804 C1.46981706,11.0974793 4.61151729,14.2335599 8.39551156,13.9097032 C11.2314552,13.6671523 13.5796932,11.3953728 13.9059703,8.5701673 C14.0085732,7.68536897 13.9196507,6.83404949 13.6768239,6.05105421 C13.1350807,7.2542433 11.8388643,8.04680397 10.3846394,7.8063028" id="Fill-40" fill="#5AAAFA"></path>
                            </g>
                        </g>
                        <path d="M16.0671563,62.586583 C16.0671563,62.586583 23.9121906,69.0028038 31.2350503,68.9766788 C38.55791,68.9505537 45.5770423,68.9766788 45.5770423,68.9766788" id="Path-6" stroke="#785842" stroke-width="4"></path>
                        <polygon id="Fill-44" fill="#785842" points="30.9407216 53.8689461 43.1210517 53.8689461 43.1210517 50.4527363 30.9407216 50.4527363"></polygon>
                        <g id="Group-27" stroke="#785842" stroke-width="4">
                            <path d="M56.619221,3.21397872 C56.619221,3.21397872 60.1922102,5.88261262 65.6542402,5.86312625 C71.1162703,5.84363988 76.6263427,3.67851655 76.6263427,3.67851655" id="Path-6-Copy" transform="translate(66.622782, 4.538606) scale(-1, -1) rotate(13.000000) translate(-66.622782, -4.538606) "></path>
                            <path d="M0.0419014394,3.21397872 C0.0419014394,3.21397872 3.61489059,5.88261262 9.07692065,5.86312625 C14.5389507,5.84363988 20.0490231,3.67851655 20.0490231,3.67851655" id="Path-6-Copy-2" transform="translate(10.045462, 4.538606) scale(1, -1) rotate(13.000000) translate(-10.045462, -4.538606) "></path>
                        </g>
                    </g>
                </g>
                <g id="Group-29" transform="translate(0.000000, 207.524876)">
                    <g id="Group-22">
                        <g id="Group-11">
                            <path d="M125.781754,73.6712374 C130.646726,34.8730336 96.0322131,13.080993 69.961554,28.1212363 C43.8908949,43.1614796 81.7135236,33.2980647 81.7135236,33.2980647 C80.0036714,33.2435384 79.1512321,36.0537361 80.4960372,37.305742 L90.133476,46.2704123 C99.4814633,54.9673449 97.1767936,66.4898543 103.134917,79.1616087 L106.178633,128.660933 C107.750225,132.002412 121.482754,117.367015 124.817911,88.4268722 C125.231697,84.8379283 125.781754,73.6712374 125.781754,73.6712374 Z" id="Fill-5" fill="#958076" transform="translate(93.518997, 76.230191) rotate(13.000000) translate(-93.518997, -76.230191) "></path>
                            <path d="M105.44928,57.7757151 C110.314252,18.9775112 75.6997389,-2.81452935 49.6290798,12.2257139 C23.5584207,27.2659572 61.3810493,17.4025423 61.3810493,17.4025423 C59.6711972,17.348016 58.8187579,20.1582137 60.163563,21.4102197 L69.8010018,30.3748899 C79.1489891,39.0718225 76.8443193,50.5943319 82.8024428,63.2660863 L85.8461586,112.765411 C87.4177504,116.10689 101.15028,101.471492 104.485437,72.5313498 C104.899223,68.9424059 105.44928,57.7757151 105.44928,57.7757151 Z" id="Fill-5-Copy-2" fill="#958076" transform="translate(73.186523, 60.334669) rotate(-16.000000) translate(-73.186523, -60.334669) "></path>
                            <path d="M76.2765996,73.6712374 C81.1415715,34.8730336 46.5270585,13.080993 20.4563994,28.1212363 C-5.61425973,43.1614796 32.2083689,33.2980647 32.2083689,33.2980647 C30.4985168,33.2435384 29.6460774,36.0537361 30.9908826,37.305742 L40.6283214,46.2704123 C49.9763087,54.9673449 47.6716389,66.4898543 53.6297624,79.1616087 L56.6734782,128.660933 C58.24507,132.002412 71.9775996,117.367015 75.3127562,88.4268722 C75.7265424,84.8379283 76.2765996,73.6712374 76.2765996,73.6712374 Z" id="Fill-5-Copy" fill="#958076" transform="translate(44.013842, 76.230191) scale(-1, 1) rotate(13.000000) translate(-44.013842, -76.230191) "></path>
                            <g id="Group-2-Copy" transform="translate(11.645219, 20.427861)">
                                <path d="M108.473703,77.6173638 L108.473703,77.6173638 C110.483351,77.838051 112.308315,76.3759132 112.529937,74.3678651 L113.86309,62.2403204 C114.084028,60.2329555 112.620227,58.410066 110.609895,58.1886956 C108.600246,57.9680084 106.775283,59.4308294 106.553661,61.4381943 L105.220508,73.565739 C104.999569,75.5737872 106.464054,77.3973599 108.473703,77.6173638" id="Fill-11-Copy" fill="#B79278"></path>
                                <path d="M3.27524931,77.6173638 L3.27524931,77.6173638 C5.28489775,77.838051 7.109861,76.3759132 7.33148323,74.3678651 L8.66463667,62.2403204 C8.88557487,60.2329555 7.42177376,58.410066 5.41144131,58.1886956 C3.40179287,57.9680084 1.57682962,59.4308294 1.35520739,61.4381943 L0.0220539517,73.565739 C-0.198884253,75.5737872 1.26560088,77.3973599 3.27524931,77.6173638" id="Fill-11-Copy-3" fill="#B79278" transform="translate(4.343350, 67.903034) scale(-1, 1) translate(-4.343350, -67.903034) "></path>
                                <path d="M109.293782,92.1737509 C109.111833,97.9895064 105.734146,103.232022 100.508239,105.805111 L74.0127551,118.852983 C71.3956976,120.280275 68.4619392,121.029108 65.4802994,121.029108 L56.8425049,121.029108 L48.2040263,121.029108 C45.2223865,121.029108 42.2886281,120.280275 39.6715706,118.852983 L13.1788226,105.806478 C7.95223184,103.232705 4.57386097,97.9888232 4.39327989,92.1710179 L2.74752968,38.9785818 C1.85009647,28.4874016 7.34003465,18.4813231 16.6762128,13.5920437 L31.460132,5.84991848 C46.1346218,-1.83490019 69.8168788,-1.62266038 84.3494751,6.32043942 L97.4472532,13.4793088 C106.546761,18.452627 111.848594,28.3234235 110.965525,38.6465263 L109.293782,92.1737509 Z" id="Fill-18-Copy" fill="#D1A88B"></path>
                            </g>
                        </g>
                    </g>
                    <g id="Group-28-Copy-2" transform="translate(30.940722, 50.218905)">
                        <g id="Group-26" transform="translate(4.420103, 15.129353)">
                            <g id="Group-24">
                                <path d="M15.5545968,7.76846105 C15.5545968,12.0585373 12.072255,15.5369221 7.77729842,15.5369221 C3.48165778,15.5369221 0,12.0585373 0,7.76846105 C0,3.47770156 3.48165778,0 7.77729842,0 C12.072255,0 15.5545968,3.47770156 15.5545968,7.76846105" id="Fill-34" fill="#FFFFFF"></path>
                                <path d="M10.9031178,7.84975554 C9.22111455,7.84975554 7.85786426,6.48805432 7.85786426,4.80796235 C7.85786426,3.57197765 8.59865707,2.51295261 9.65888684,2.03741621 C9.08978286,1.86113979 8.48510988,1.76616915 7.85786426,1.76616915 C4.49454181,1.76616915 1.76804124,4.48957159 1.76804124,7.84975554 C1.76804124,11.2092562 4.49454181,13.9326587 7.85786426,13.9326587 C11.2211867,13.9326587 13.9483713,11.2092562 13.9483713,7.84975554 C13.9483713,7.22322266 13.8526086,6.61923677 13.6768157,6.05077947 C13.2000543,7.10912126 12.1405085,7.84975554 10.9031178,7.84975554" id="Fill-36" fill="#6C4938"></path>
                            </g>
                            <g id="Group-25" transform="translate(52.157216, 0.000000)">
                                <path d="M15.5545968,7.76846105 C15.5545968,12.0585373 12.072255,15.5369221 7.77729842,15.5369221 C3.48165778,15.5369221 0,12.0585373 0,7.76846105 C0,3.47770156 3.48165778,0 7.77729842,0 C12.072255,0 15.5545968,3.47770156 15.5545968,7.76846105" id="Fill-38" fill="#FFFFFF"></path>
                                <path d="M10.3846394,7.8063028 C9.13083221,7.59928048 8.10822349,6.578517 7.90096567,5.32545125 C7.66087493,3.87287885 8.45365319,2.57881858 9.65889504,2.03769095 C8.87295697,1.79445682 8.019301,1.70495212 7.1328121,1.8088049 C4.30370865,2.13676104 2.03071281,4.4843804 1.79062207,7.31846804 C1.46981706,11.0974793 4.61151729,14.2335599 8.39551156,13.9097032 C11.2314552,13.6671523 13.5796932,11.3953728 13.9059703,8.5701673 C14.0085732,7.68536897 13.9196507,6.83404949 13.6768239,6.05105421 C13.1350807,7.2542433 11.8388643,8.04680397 10.3846394,7.8063028" id="Fill-40" fill="#6C4938"></path>
                            </g>
                        </g>
                        <path d="M16.0671563,62.586583 C16.0671563,62.586583 23.9121906,69.0028038 31.2350503,68.9766788 C38.55791,68.9505537 45.5770423,68.9766788 45.5770423,68.9766788" id="Path-6" stroke="#785842" stroke-width="4"></path>
                        <polygon id="Fill-44" fill="#785842" points="30.9407216 53.8689461 43.1210517 53.8689461 43.1210517 50.4527363 30.9407216 50.4527363"></polygon>
                        <g id="Group-27" stroke="#785842" stroke-width="4">
                            <path d="M56.619221,3.21397872 C56.619221,3.21397872 60.1922102,5.88261262 65.6542402,5.86312625 C71.1162703,5.84363988 76.6263427,3.67851655 76.6263427,3.67851655" id="Path-6-Copy" transform="translate(66.622782, 4.538606) scale(-1, -1) rotate(13.000000) translate(-66.622782, -4.538606) "></path>
                            <path d="M0.0419014394,3.21397872 C0.0419014394,3.21397872 3.61489059,5.88261262 9.07692065,5.86312625 C14.5389507,5.84363988 20.0490231,3.67851655 20.0490231,3.67851655" id="Path-6-Copy-2" transform="translate(10.045462, 4.538606) scale(1, -1) rotate(13.000000) translate(-10.045462, -4.538606) "></path>
                        </g>
                    </g>
                </g>
                <g id="Group-30" transform="translate(221.005155, 207.524876)">
                    <g id="Group-23">
                        <g id="Group-13">
                            <g id="Group-7">
                                <path d="M109.357724,103.343732 L109.357724,103.343732 C111.367372,103.564419 113.192335,102.102281 113.413957,100.094233 L114.747111,87.9666885 C114.968049,85.9593237 113.504248,84.1364341 111.493916,83.9150637 C109.484267,83.6943766 107.659304,85.1571976 107.437682,87.1645625 L106.104528,99.2921072 C105.88359,101.300155 107.348075,103.123728 109.357724,103.343732" id="Fill-11-Copy-2" fill="#F8D5BF"></path>
                                <path d="M5.41212533,103.343732 L5.41212533,103.343732 C3.40247689,103.564419 1.57682962,102.102281 1.35589141,100.094233 L0.0220539517,87.9666885 C-0.198884253,85.9593237 1.26560088,84.1364341 3.27524931,83.9150637 C5.28489775,83.6943766 7.11054502,85.1571976 7.33148323,87.1645625 L8.66532069,99.2921072 C8.88557487,101.300155 7.42177376,103.123728 5.41212533,103.343732" id="Fill-13-Copy-2" fill="#F8D5BF"></path>
                                <path d="M111.849545,64.3728944 L110.177803,117.900119 C109.995853,123.715875 106.618167,128.95839 101.39226,131.531479 L74.8967757,144.579351 C72.2797182,146.006643 69.3459598,146.755477 66.3643201,146.755477 L57.7265255,146.755477 L49.0880469,146.755477 C46.1064071,146.755477 43.1726488,146.006643 40.5555913,144.579351 L14.0628432,131.532846 C8.83625246,128.959073 5.45788158,123.715191 5.27730051,117.897386 L3.63155029,64.70495 C2.73411709,54.2137698 8.22405527,44.2076913 17.5602335,39.3184119 L58.9146669,17.6616915 L98.3312738,39.2056769 C107.430781,44.1789951 112.732614,54.0497917 111.849545,64.3728944" id="Fill-18-Copy-2" fill="#FFDDC4"></path>
                                <path d="M30.6003894,32.052805 C34.2765244,17.4914115 47.0198059,8.37661736 66.3965558,8.94709164 C85.7740592,9.51681331 101.21247,19.1065009 100.770188,34.1164467 C80.8532071,33.5309204 80.9722539,46.1686565 65.0930687,53.1445484 C44.8686755,62.0305507 27.6023691,43.923637 30.6003894,32.052805" id="Fill-28-Copy-2" fill="#4A4A4A" transform="translate(65.519915, 32.218502) rotate(-16.000000) translate(-65.519915, -32.218502) "></path>
                                <path d="M69.507415,35.4980594 C71.3179625,28.3263709 77.5942057,23.8372082 87.1375242,24.1181747 C96.6812138,24.3987705 104.284845,29.1218249 104.067016,36.5144317 C94.2576257,36.2260518 94.3162579,42.4503124 86.4955387,45.886036 C76.5347441,50.2625156 68.0308484,41.3446091 69.507415,35.4980594" id="Fill-28-Copy-3" fill="#4A4A4A" transform="translate(86.705767, 35.579667) rotate(-7.000000) translate(-86.705767, -35.579667) "></path>
                                <path d="M16.7089732,34.5251355 C18.5195207,27.353447 24.7957639,22.8642842 34.3390824,23.1452508 C43.8827719,23.4258466 51.4864036,28.1489009 51.2685739,35.5415077 C41.4591839,35.2531279 41.5178161,41.4773885 33.6970969,44.9131121 C23.7363023,49.2895917 15.2324065,40.3716852 16.7089732,34.5251355" id="Fill-28-Copy-4" fill="#4A4A4A" transform="translate(33.907325, 34.606743) rotate(-77.000000) translate(-33.907325, -34.606743) "></path>
                            </g>
                        </g>
                    </g>
                    <g id="Group-28-Copy-3" transform="translate(19.448454, 55.517413)">
                        <g id="Group-26" transform="translate(4.420103, 15.129353)">
                            <g id="Group-24">
                                <path d="M15.5545968,7.76846105 C15.5545968,12.0585373 12.072255,15.5369221 7.77729842,15.5369221 C3.48165778,15.5369221 0,12.0585373 0,7.76846105 C0,3.47770156 3.48165778,0 7.77729842,0 C12.072255,0 15.5545968,3.47770156 15.5545968,7.76846105" id="Fill-34" fill="#FFFFFF"></path>
                                <path d="M10.9031178,7.84975554 C9.22111455,7.84975554 7.85786426,6.48805432 7.85786426,4.80796235 C7.85786426,3.57197765 8.59865707,2.51295261 9.65888684,2.03741621 C9.08978286,1.86113979 8.48510988,1.76616915 7.85786426,1.76616915 C4.49454181,1.76616915 1.76804124,4.48957159 1.76804124,7.84975554 C1.76804124,11.2092562 4.49454181,13.9326587 7.85786426,13.9326587 C11.2211867,13.9326587 13.9483713,11.2092562 13.9483713,7.84975554 C13.9483713,7.22322266 13.8526086,6.61923677 13.6768157,6.05077947 C13.2000543,7.10912126 12.1405085,7.84975554 10.9031178,7.84975554" id="Fill-36" fill="#7C9065"></path>
                            </g>
                            <g id="Group-25" transform="translate(52.157216, 0.000000)">
                                <path d="M15.5545968,7.76846105 C15.5545968,12.0585373 12.072255,15.5369221 7.77729842,15.5369221 C3.48165778,15.5369221 0,12.0585373 0,7.76846105 C0,3.47770156 3.48165778,0 7.77729842,0 C12.072255,0 15.5545968,3.47770156 15.5545968,7.76846105" id="Fill-38" fill="#FFFFFF"></path>
                                <path d="M10.3846394,7.8063028 C9.13083221,7.59928048 8.10822349,6.578517 7.90096567,5.32545125 C7.66087493,3.87287885 8.45365319,2.57881858 9.65889504,2.03769095 C8.87295697,1.79445682 8.019301,1.70495212 7.1328121,1.8088049 C4.30370865,2.13676104 2.03071281,4.4843804 1.79062207,7.31846804 C1.46981706,11.0974793 4.61151729,14.2335599 8.39551156,13.9097032 C11.2314552,13.6671523 13.5796932,11.3953728 13.9059703,8.5701673 C14.0085732,7.68536897 13.9196507,6.83404949 13.6768239,6.05105421 C13.1350807,7.2542433 11.8388643,8.04680397 10.3846394,7.8063028" id="Fill-40" fill="#7C9065"></path>
                            </g>
                        </g>
                        <path d="M16.0671563,62.586583 C16.0671563,62.586583 23.9121906,69.0028038 31.2350503,68.9766788 C38.55791,68.9505537 45.5770423,68.9766788 45.5770423,68.9766788" id="Path-6" stroke="#785842" stroke-width="4"></path>
                        <polygon id="Fill-44" fill="#785842" points="30.9407216 53.8689461 43.1210517 53.8689461 43.1210517 50.4527363 30.9407216 50.4527363"></polygon>
                        <g id="Group-27" stroke="#785842" stroke-width="4">
                            <path d="M56.619221,3.21397872 C56.619221,3.21397872 60.1922102,5.88261262 65.6542402,5.86312625 C71.1162703,5.84363988 76.6263427,3.67851655 76.6263427,3.67851655" id="Path-6-Copy" transform="translate(66.622782, 4.538606) scale(-1, -1) rotate(13.000000) translate(-66.622782, -4.538606) "></path>
                            <path d="M0.0419014394,6.74631703 C0.0419014394,6.74631703 3.61489059,9.41495093 9.07692065,9.39546456 C14.5389507,9.37597819 20.0490231,7.21085486 20.0490231,7.21085486" id="Path-6-Copy-2" transform="translate(10.045462, 8.070944) scale(1, -1) rotate(13.000000) translate(-10.045462, -8.070944) "></path>
                        </g>
                    </g>
                </g>
                <g id="Group-31" transform="translate(213.048969, 0.000000)">
                    <g id="Group-21">
                        <path d="M14.2523315,104.226817 L14.2523315,104.226817 C12.2426831,104.447504 10.4170358,102.985366 10.1960976,100.977318 L8.86226014,88.8497731 C8.64132193,86.8424082 10.1058071,85.0195187 12.1154555,84.7981483 C14.1251039,84.5774611 15.9507512,86.0402822 16.1716894,88.047647 L17.5055269,100.175192 C17.7257811,102.18324 16.2619799,104.006813 14.2523315,104.226817" id="Fill-13-Copy" fill="#F8D5BF"></path>
                        <g id="Group-2">
                            <path d="M118.19793,104.226817 L118.19793,104.226817 C120.207578,104.447504 122.032541,102.985366 122.254164,100.977318 L123.587317,88.8497731 C123.808255,86.8424082 122.344454,85.0195187 120.334122,84.7981483 C118.324473,84.5774611 116.49951,86.0402822 116.277888,88.047647 L114.944734,100.175192 C114.723796,102.18324 116.188281,104.006813 118.19793,104.226817" id="Fill-11-Copy" fill="#F8D5BF"></path>
                            <path d="M106.640301,124.518546 L75.8201467,138.986918 C68.3218055,142.506978 56.2057878,142.42981 48.7475148,138.809339 L19.3108847,124.519912 C14.0842939,121.94614 8.87959172,50.62734 8.87959172,50.62734 C7.98215851,40.1361598 22.7189721,57.6128185 22.7189721,41.2675808 L64.8952607,34.4402985 L103.490012,41.1548459 C106.550998,62.1869206 119.191617,64.297544 118.308548,74.6206468 C118.308548,74.6206468 111.866208,121.945457 106.640301,124.518546 Z" id="Fill-18-Copy" fill="#F1CCB2"></path>
                            <g id="Group" transform="translate(0.000000, 21.194030)">
                                <path d="M51.831462,17.7077066 C33.9801159,17.7077066 9.75587907,41.4000153 31.8788404,124.219989 C8.84595941,121.793724 2.53177308,106.292381 2.53177308,106.292381 C2.53177308,106.292381 -6.57540192,57.424168 9.75587907,26.0658731 C26.0871601,-5.29242189 51.1552203,0.632219998 54.4679844,0.16651793 C57.7807485,-0.299184138 62.1047485,11.9541521 51.831462,17.7077066 Z" id="Path-2" fill="#9B3C4F"></path>
                                <path d="M75.3858441,17.7077066 C93.2371901,17.7077066 117.461427,41.4000153 95.3384657,124.219989 C118.371347,121.793724 124.685533,106.292381 124.685533,106.292381 C124.685533,106.292381 133.792708,57.424168 117.461427,26.0658731 C101.130146,-5.29242189 76.0620858,0.632219998 72.7493217,0.16651793" id="Path-2-Copy" fill="#CA3D58"></path>
                            </g>
                            <path d="M44.7933622,44.0150715 C48.8405022,27.9841044 62.8698688,17.9494216 84.2021706,18.5774696 C105.535302,19.2046891 122.531797,29.7621928 122.044879,46.2869813 C100.117825,45.6423621 100.248886,59.5555314 82.7671322,67.2354484 C60.5016407,77.0182492 41.4927739,57.0839388 44.7933622,44.0150715" id="Fill-28-Copy" fill="#9B3C4F" transform="translate(83.237057, 44.197491) rotate(-323.000000) translate(-83.237057, -44.197491) "></path>
                        </g>
                    </g>
                    <g id="Group-28-Copy" transform="translate(28.288660, 57.283582)">
                        <g id="Group-26" transform="translate(1.768041, 17.778607)">
                            <g id="Group-24">
                                <path d="M15.5545968,7.76846105 C15.5545968,12.0585373 12.072255,15.5369221 7.77729842,15.5369221 C3.48165778,15.5369221 0,12.0585373 0,7.76846105 C0,3.47770156 3.48165778,0 7.77729842,0 C12.072255,0 15.5545968,3.47770156 15.5545968,7.76846105" id="Fill-34" fill="#FFFFFF"></path>
                                <path d="M10.9031178,7.84975554 C9.22111455,7.84975554 7.85786426,6.48805432 7.85786426,4.80796235 C7.85786426,3.57197765 8.59865707,2.51295261 9.65888684,2.03741621 C9.08978286,1.86113979 8.48510988,1.76616915 7.85786426,1.76616915 C4.49454181,1.76616915 1.76804124,4.48957159 1.76804124,7.84975554 C1.76804124,11.2092562 4.49454181,13.9326587 7.85786426,13.9326587 C11.2211867,13.9326587 13.9483713,11.2092562 13.9483713,7.84975554 C13.9483713,7.22322266 13.8526086,6.61923677 13.6768157,6.05077947 C13.2000543,7.10912126 12.1405085,7.84975554 10.9031178,7.84975554" id="Fill-36" fill="#434343"></path>
                            </g>
                            <g id="Group-25" transform="translate(52.157216, 0.000000)">
                                <path d="M15.5545968,7.76846105 C15.5545968,12.0585373 12.072255,15.5369221 7.77729842,15.5369221 C3.48165778,15.5369221 0,12.0585373 0,7.76846105 C0,3.47770156 3.48165778,0 7.77729842,0 C12.072255,0 15.5545968,3.47770156 15.5545968,7.76846105" id="Fill-38" fill="#FFFFFF"></path>
                                <path d="M10.3846394,7.8063028 C9.13083221,7.59928048 8.10822349,6.578517 7.90096567,5.32545125 C7.66087493,3.87287885 8.45365319,2.57881858 9.65889504,2.03769095 C8.87295697,1.79445682 8.019301,1.70495212 7.1328121,1.8088049 C4.30370865,2.13676104 2.03071281,4.4843804 1.79062207,7.31846804 C1.46981706,11.0974793 4.61151729,14.2335599 8.39551156,13.9097032 C11.2314552,13.6671523 13.5796932,11.3953728 13.9059703,8.5701673 C14.0085732,7.68536897 13.9196507,6.83404949 13.6768239,6.05105421 C13.1350807,7.2542433 11.8388643,8.04680397 10.3846394,7.8063028" id="Fill-40" fill="#434343"></path>
                            </g>
                        </g>
                        <path d="M19.9782996,60.1666667 C19.9782996,60.1666667 25.3735078,64.5792475 30.4096048,64.5612807 C35.4457018,64.5433139 40.2729186,64.5612807 40.2729186,64.5612807" id="Path-6" stroke="#964555" stroke-width="4"></path>
                        <polygon id="Fill-44" fill="#AF8465" points="29.1726804 52.9858615 41.3530105 52.9858615 41.3530105 49.5696517 29.1726804 49.5696517"></polygon>
                        <g id="Group-27" stroke="#B08465" stroke-width="4">
                            <path d="M0.0419014394,3.21397872 C0.0419014394,3.21397872 3.61489059,5.88261262 9.07692065,5.86312625 C14.5389507,5.84363988 20.0490231,3.67851655 20.0490231,3.67851655" id="Path-6-Copy-2" transform="translate(10.045462, 4.538606) scale(1, -1) rotate(13.000000) translate(-10.045462, -4.538606) "></path>
                        </g>
                    </g>
                </g>
                <g id="Group-33" transform="translate(106.966495, 128.047264)">
                    <path d="M13.9439309,60.3314233 C5.63106962,54.2170146 0.42992409,45.4861786 0.42992409,35.7934168 C0.42992409,17.3009221 19.3618558,2.30979324 42.715577,2.30979324 C66.0692983,2.30979324 85.0012299,17.3009221 85.0012299,35.7934168 C85.0012299,54.2859114 66.0692983,69.2770403 42.715577,69.2770403 C35.6328263,69.2770403 28.9567902,67.8981616 23.0922396,65.4609194 L13.2513464,71.9524205 L13.9439309,60.3314233 Z" id="Combined-Shape-Copy-3" fill="#64DDFF" transform="translate(42.715577, 37.131107) scale(-1, 1) rotate(-180.000000) translate(-42.715577, -37.131107) "></path>
                    <path d="M16.1660687,109.829259 C7.85320738,103.71485 2.65206186,94.9840139 2.65206186,85.2912521 C2.65206186,66.7987574 21.5839935,51.8076285 44.9377148,51.8076285 C68.291436,51.8076285 87.2233677,66.7987574 87.2233677,85.2912521 C87.2233677,103.783747 68.291436,118.774876 44.9377148,118.774876 C37.854964,118.774876 31.178928,117.395997 25.3143774,114.958755 L15.4734842,121.450256 L16.1660687,109.829259 Z" id="Combined-Shape" fill="#9DE8FE"></path>
                    <path d="M70.3859999,108.357451 C62.0731387,102.243042 56.8719931,93.5122062 56.8719931,83.8194444 C56.8719931,65.3269498 75.8039248,50.3358209 99.157646,50.3358209 C122.511367,50.3358209 141.443299,65.3269498 141.443299,83.8194444 C141.443299,102.311939 122.511367,117.303068 99.157646,117.303068 C92.0748953,117.303068 85.3988592,115.924189 79.5343086,113.486947 L69.6934154,119.978448 L70.3859999,108.357451 Z" id="Combined-Shape-Copy-3" fill="#64DDFF" transform="translate(99.157646, 85.157135) scale(-1, 1) translate(-99.157646, -85.157135) "></path>
                    <path d="M68.1638622,58.8596157 C59.8510009,52.745207 54.6498554,44.014371 54.6498554,34.3216092 C54.6498554,15.8291145 73.581787,0.837985614 96.9355083,0.837985614 C120.28923,0.837985614 139.221161,15.8291145 139.221161,34.3216092 C139.221161,52.8141038 120.28923,67.8052327 96.9355083,67.8052327 C89.8527576,67.8052327 83.1767215,66.426354 77.3121709,63.9891118 L67.4712777,70.4806129 L68.1638622,58.8596157 Z" id="Combined-Shape" fill="#9DE8FE" transform="translate(96.935508, 35.659299) rotate(-180.000000) translate(-96.935508, -35.659299) "></path>
                </g>
            </g>
        </g>
    </g>
</svg>