<?xml version="1.0" encoding="UTF-8"?>
<svg width="299px" height="294px" viewBox="0 0 299 294" version="1.1" xmlns="http://www.w3.org/2000/svg" xmlns:xlink="http://www.w3.org/1999/xlink">
    <!-- Generator: Sketch 41.2 (35397) - http://www.bohemiancoding.com/sketch -->
    <title>illustration-integrators</title>
    <desc>Created with Sketch.</desc>
    <defs>
        <circle id="path-1" cx="50" cy="26" r="7"></circle>
        <mask id="mask-2" maskContentUnits="userSpaceOnUse" maskUnits="objectBoundingBox" x="0" y="0" width="14" height="14" fill="white">
            <use xlink:href="#path-1"></use>
        </mask>
    </defs>
    <g id="Home" stroke="none" stroke-width="1" fill="none" fill-rule="evenodd">
        <g transform="translate(-891.000000, -2388.000000)" id="illustration-integrators">
            <g transform="translate(891.000000, 2388.000000)">
                <path d="M108,63 L191.367386,222.530182" id="Line" stroke="#79848C" stroke-width="10" stroke-linecap="square" opacity="0.204710145"></path>
                <path d="M200.833136,63 L99,223.405774" id="Line-Copy" stroke="#79848C" stroke-width="10" stroke-linecap="square" opacity="0.204710145"></path>
                <path d="M59.5,178 L235.013532,178" id="Line" stroke="#79848C" stroke-width="10" stroke-linecap="square" opacity="0.204710145"></path>
                <path d="M59.5,128 L235.013532,128" id="Line-Copy-2" stroke="#79848C" stroke-width="10" stroke-linecap="square" opacity="0.204710145"></path>
                <g id="Group-24">
                    <g id="Group-17" transform="translate(156.000000, 0.000000)">
                        <g id="Group-6">
                            <rect id="Rectangle-3-Copy-2" fill="#5AAAFA" x="0" y="0" width="70" height="70" rx="10"></rect>
                            <path d="M46.7405161,43.8169448 L44.722693,43.8169448 L44.722693,42.7909601 C44.722693,41.7864245 45.059296,41.2716447 45.7316046,41.2716447 C46.4039131,41.2716447 46.7405161,41.7864245 46.7405161,42.7909601 L46.7405161,43.8169448 Z M48.7358991,46.8082088 L46.6956357,46.8082088 C46.6956357,47.6116585 46.6731955,48.0576223 46.6507553,48.1702304 C46.5385543,48.7055656 46.2477293,48.9736801 45.7540448,48.9736801 C45.059296,48.9736801 44.722693,48.459794 44.722693,47.4329155 L44.722693,45.4908729 L48.7358991,45.4908729 L48.7358991,43.1922381 C48.7358991,42.0098532 48.5339373,41.160824 48.1300136,40.6022522 C47.5474659,39.8443819 46.7629564,39.464553 45.7540448,39.464553 C44.722693,39.464553 43.9381834,39.8443819 43.3556357,40.6022522 C42.9292718,41.160824 42.72731,42.0098532 42.72731,43.1922381 L42.72731,47.0530867 C42.72731,48.2363653 42.951712,49.1068436 43.3780759,49.6430726 C43.9606236,50.4018366 44.7451332,50.7816654 45.7989252,50.7816654 C46.8527172,50.7816654 47.6821071,50.3803874 48.2197744,49.5983868 C48.4666167,49.2409009 48.6461383,48.8387291 48.6910187,48.3927654 C48.7358991,48.1925732 48.7358991,47.7457158 48.7358991,47.0986661 L48.7358991,46.8082088 Z M44.6553724,29.955426 L42.6160066,29.955426 L42.6160066,28.7274616 C41.8081592,29.6649686 41.0460899,30.1118261 40.3064608,30.1118261 C39.6556948,30.1118261 39.1853481,29.8437116 38.9833863,29.2860335 C38.8711853,28.9508904 38.8047623,28.4155551 38.8047623,27.6112117 L38.8047623,18.8170565 L40.844128,18.8170565 L40.844128,27.0088478 C40.844128,27.4780481 40.844128,27.7461626 40.8674659,27.7899546 C40.9114487,28.1027549 41.0685301,28.2814979 41.3369149,28.2814979 C41.7408386,28.2814979 42.1672025,27.9695913 42.6160066,27.321648 L42.6160066,18.8170565 L44.6553724,18.8170565 L44.6553724,29.955426 Z M39.1629079,47.4776013 C39.1629079,48.4821369 38.8711853,48.9736801 38.2886376,48.9736801 C37.9520345,48.9736801 37.6163291,48.81728 37.279726,48.4821369 L37.279726,41.7631879 C37.6163291,41.4289385 37.9520345,41.2716447 38.2886376,41.2716447 C38.8711853,41.2716447 39.1629079,41.7864245 39.1629079,42.7677235 L39.1629079,47.4776013 Z M41.1582909,42.9241236 C41.1582909,41.8972451 41.1134105,41.160824 40.9563291,40.7139665 C40.7103844,39.8881739 40.1493793,39.464553 39.3648698,39.464553 C38.6252406,39.464553 37.9304919,39.865831 37.279726,40.6701745 L37.279726,35.8262395 L35.284343,35.8262395 L35.284343,50.6243716 L37.279726,50.6243716 L37.279726,49.5537011 C37.9520345,50.3803874 38.6476808,50.7816654 39.3648698,50.7816654 C40.1493793,50.7816654 40.7103844,50.3571508 40.9563291,49.5537011 C41.1134105,49.0853945 41.1582909,48.3480796 41.1582909,47.3220949 L41.1582909,42.9241236 Z M35.105719,22.0317492 C35.105719,21.0048707 34.8139963,20.4909847 34.1407902,20.4909847 C33.4909219,20.4909847 33.1776566,21.0048707 33.1776566,22.0317492 L33.1776566,26.7183904 C33.1776566,27.7461626 33.4909219,28.2814979 34.1407902,28.2814979 C34.8139963,28.2814979 35.105719,27.7461626 35.105719,26.7183904 L35.105719,22.0317492 Z M37.1450848,26.3385616 C37.1450848,27.5227339 36.9431229,28.4155551 36.5176566,28.974127 C35.9566515,29.7319972 35.172142,30.1118261 34.1407902,30.1118261 C33.1318786,30.1118261 32.3473691,29.7319972 31.7872616,28.974127 C31.3617953,28.3932122 31.1598335,27.5227339 31.1598335,26.3385616 L31.1598335,22.4330272 C31.1598335,21.2497486 31.3617953,20.3792703 31.7872616,19.8215922 C32.3473691,19.0628282 33.1318786,18.6829993 34.1407902,18.6829993 C35.172142,18.6829993 35.9566515,19.0628282 36.5176566,19.8215922 C36.9431229,20.3792703 37.1450848,21.2497486 37.1450848,22.4330272 L37.1450848,26.3385616 Z M33.5358023,50.6243716 L33.5358023,39.5977166 L31.5404193,39.5977166 L31.5404193,48.0361731 C31.0925128,48.6608799 30.666149,48.9736801 30.2631229,48.9736801 C29.9938404,48.9736801 29.836759,48.81728 29.7918786,48.5044797 C29.7694384,48.4374511 29.7694384,48.1925732 29.7694384,47.7233729 L29.7694384,39.5977166 L27.774953,39.5977166 L27.774953,48.3257368 C27.774953,49.1068436 27.841376,49.619836 27.9535771,49.9558728 C28.1330987,50.513551 28.604343,50.7816654 29.2542113,50.7816654 C29.9714002,50.7816654 30.7334696,50.334808 31.5404193,49.4196439 L31.5404193,50.6243716 L33.5358023,50.6243716 Z M31.1373932,15 L28.4248213,23.9067632 L28.4248213,29.955426 L26.1825961,29.955426 L26.1825961,23.9067632 C25.9815319,22.8128561 25.5327278,21.2497486 24.8155389,19.1745425 C24.3218544,17.7901781 23.8290675,16.3843645 23.3578232,15 L25.7346896,15 L27.3261489,20.8708135 L28.8502876,15 L31.1373932,15 Z M27.4832304,37.9237885 L27.4832304,35.8262395 L20.4881699,35.8262395 L20.4881699,37.9237885 L22.8416985,37.9237885 L22.8416985,50.6243716 L25.0848213,50.6243716 L25.0848213,37.9237885 L27.4832304,37.9237885 Z M50.6415213,51.2946578 C50.216055,53.0579574 48.7807795,54.3529504 47.054679,54.5316934 C42.9292718,55 38.7589843,55 34.6120345,55 C30.4650847,55 26.2947971,55 22.16939,54.5316934 C20.4432895,54.3529504 18.9864714,53.0579574 18.5825477,51.2946578 C18,48.7949371 18,46.0485511 18,43.4818017 C18,40.8936032 18.0224402,38.1695601 18.5825477,35.6698394 C19.0089116,33.9065398 20.4432895,32.6115468 22.1918302,32.4104609 C26.2947971,31.9644972 30.4650847,31.9644972 34.6120345,31.9644972 C38.7589843,31.9644972 42.9292718,31.9644972 47.054679,32.4104609 C48.7807795,32.6115468 50.2375976,33.9065398 50.6415213,35.6698394 C51.224069,38.1695601 51.224069,40.8936032 51.224069,43.4818017 C51.224069,46.0485511 51.2025264,48.7949371 50.6415213,51.2946578 L50.6415213,51.2946578 Z" id="Fill-8" fill="#FFFFFF"></path>
                        </g>
                    </g>
                    <g id="Group-18" transform="translate(229.000000, 70.000000)">
                        <g id="Group-11">
                            <rect id="Rectangle-3-Copy-3" fill="#5AAAFA" x="0" y="0" width="70" height="70" rx="10"></rect>
                            <path d="M39.8822393,37.3324399 L37.3575356,29.7930971 L29.9056654,32.3538094 L32.4294065,39.8452347 L39.8822393,37.3324399 Z M55.0035104,36.9730584 C55.0035104,38.5054608 54.2103896,39.5826466 52.7675643,40.0848223 L48.632556,41.4974308 L49.9781662,45.4947104 C50.0984819,45.8540918 50.1466081,46.2364736 50.1466081,46.6188554 C50.1466081,48.5096808 48.6075303,50.090959 46.7094306,50.090959 C45.1953784,50.090959 43.8488057,49.1565673 43.3675431,47.7209584 L42.0450334,43.770638 L34.5931632,46.3083499 L35.9156729,50.2337532 C36.0359885,50.5921763 36.1072154,50.9755164 36.1072154,51.3588566 C36.1072154,53.2257232 34.5681376,54.8300018 32.6450122,54.8300018 C31.13096,54.8300018 29.8094129,53.8956102 29.3281503,52.4600012 L28.0056407,48.5585567 L24.3278318,49.8264543 C23.9428218,49.9462481 23.5347111,50.0420831 23.1266004,50.0420831 C21.1784493,50.0420831 19.7125234,48.6064742 19.7125234,46.6677313 C19.7125234,45.1832465 20.6740861,43.8425143 22.0928483,43.3642974 L25.8428465,42.0954414 L23.3181429,34.6030579 L19.5681447,35.8958726 C19.1831346,36.0156664 18.799087,36.0875427 18.4140769,36.0875427 C16.4909516,36.0875427 15,34.627975 15,32.7131908 C15,31.228706 15.9615627,29.8879738 17.3803249,29.4097569 L21.1543862,28.140901 L19.8809654,24.3343331 C19.7606497,23.97591 19.6884603,23.5935282 19.6884603,23.2111464 C19.6884603,21.3193627 21.2265756,19.7400012 23.149701,19.7400012 C24.6647157,19.7400012 25.9862628,20.6734345 26.4675254,22.1090434 L27.7659719,25.9386117 L35.2178421,23.4258169 L33.9203581,19.5962486 C33.8000425,19.2368672 33.7268905,18.8544854 33.7268905,18.4701869 C33.7268905,16.5803198 35.2900315,15 37.1890937,15 C38.7041084,15 40.0506812,15.9573921 40.5309813,17.3700006 L41.8053646,21.2235276 L45.6997417,19.9067542 C46.0366255,19.8118775 46.3725468,19.7639599 46.7334937,19.7639599 C48.6075303,19.7639599 50.2187975,21.1516513 50.2187975,23.0664355 C50.2187975,24.5509203 49.0647298,25.7958175 47.7191196,26.2500756 L43.9450582,27.541932 L46.4687993,35.1061918 L50.41034,33.7654596 C50.771287,33.6456658 51.1562971,33.5747479 51.517244,33.5747479 C53.4884957,33.5747479 55.0035104,35.0103568 55.0035104,36.9730584 L55.0035104,36.9730584 Z" id="Fill-11" fill="#FFFFFF"></path>
                        </g>
                    </g>
                    <rect id="Rectangle-3-Copy-8" fill="#50E3C2" x="93" y="91" width="111" height="111" rx="10"></rect>
                    <g id="Group-5" transform="translate(73.000000, 0.000000)">
                        <rect id="Rectangle-3-Copy" fill="#5AAAFA" x="0" y="0" width="70" height="70" rx="10"></rect>
                        <g id="Group-7" transform="translate(15.000000, 15.000000)">
                            <g id="Page-1">
                                <path d="M40.0024382,19.2848732 C40.0024382,29.935583 31.0475174,38.56956 20.0012191,38.56956 C8.95492082,38.56956 0,29.935583 0,19.2848732 C0,8.63416339 8.95492082,3.10624995e-05 20.0012191,3.10624995e-05 C31.0475174,3.10624995e-05 40.0024382,8.63416339 40.0024382,19.2848732" id="Fill-1" stroke="#FFFFFF" stroke-width="3"></path>
                                <path d="M7.17627157,17.79684 L7.17627157,17.3206205 C7.17627157,17.3206205 7.00864231,17.4940044 7.17627157,17.79684" id="Fill-3" fill="#FFFFFF"></path>
                                <path d="M17.8454002,19.7610458 C23.953585,23.8084894 32.0378278,19.1062483 31.9779804,17.3801052 C31.9779804,17.3801052 32.5469213,14.9545899 29.043739,13.749365 C33.7744961,6.94419258 14.811309,7.06316196 14.4769137,12.4101053 C6.31766633,13.3179068 7.12615311,17.3206205 7.12615311,17.3206205 C7.12615311,17.3206205 8.7429704,21.7847676 17.8454002,19.7610458" id="Fill-5" fill="#FFFFFF"></path>
                                <path d="M31.9779648,17.3801052 L31.9779648,17.8563247 C32.0074904,17.5591849 31.9779648,17.3801052 31.9779648,17.3801052" id="Fill-7" fill="#FFFFFF"></path>
                                <path d="M17.8454002,21.1810457 C8.7429704,23.2047676 7.12615311,18.7406205 7.12615311,18.7406205 L7.12615311,19.2137023 L7.12615311,24.9309107 C7.12615311,24.9309107 7.54539741,30.5257327 17.7855528,28.3235569 C21.8575198,31.2994996 31.2593428,29.3949025 31.9779804,25.8831316 L31.9779804,19.0788911 L31.9779804,18.8001052 C32.0378278,20.5262483 23.953585,25.2284894 17.8454002,21.1810457" id="Fill-9" fill="#FFFFFF"></path>
                            </g>
                        </g>
                    </g>
                    <path d="M25.0932609,85.0463043 L25.0934783,85.0463043 C25.6228261,85.0463043 26.0558696,85.4793478 26.0558696,86.008913 L26.0558696,90.6252174 C26.0558696,91.1545652 25.6228261,91.5876087 25.0934783,91.5876087 L25.0932609,91.5876087 C24.563913,91.5876087 24.1308696,91.1545652 24.1308696,90.6252174 L24.1308696,86.008913 C24.1308696,85.4793478 24.563913,85.0463043 25.0932609,85.0463043" id="Fill-5" fill="#FFFFFF"></path>
                    <path d="M35.9436957,87.5782609 L35.943913,87.5782609 C36.4234783,87.8019565 36.6330435,88.3776087 36.4093478,88.8573913 L34.4584783,93.0413043 C34.2345652,93.521087 33.6591304,93.7304348 33.1793478,93.5067391 L33.1791304,93.5067391 C32.6995652,93.2830435 32.49,92.7076087 32.7136957,92.2276087 L34.6647826,88.043913 C34.8884783,87.563913 35.463913,87.3545652 35.9436957,87.5782609" id="Fill-6" fill="#FFFFFF"></path>
                    <path d="M44.6719565,95.1615217 L44.6721739,95.1615217 C44.9526087,95.6104348 44.8147826,96.2071739 44.3658696,96.4878261 L40.4508696,98.9341304 C40.0019565,99.2145652 39.4052174,99.0769565 39.1247826,98.6280435 L39.1245652,98.6278261 C38.8441304,98.178913 38.9819565,97.5821739 39.4308696,97.3015217 L43.3458696,94.8552174 C43.7947826,94.5747826 44.3915217,94.7126087 44.6719565,95.1615217" id="Fill-7" fill="#FFFFFF"></path>
                    <g id="Group-23" transform="translate(0.000000, 70.000000)">
                        <rect id="Rectangle-3" fill="#5AAAFA" x="0" y="0" width="70" height="70" rx="10"></rect>
                        <path d="M39.5028261,25.8232609 C39.7356522,26.2278261 39.9095652,26.7352174 40.0308696,27.3280435 C40.8678261,27.2269565 41.7143478,27.1871739 42.5663043,27.2152174 L42.5691304,27.215 C41.6147826,26.6369565 40.5869565,26.1673913 39.5028261,25.8232609 Z M36.9591304,34.9891304 C37.213913,34.9891304 37.4432609,35.1015217 37.6028261,35.2808696 C38.1008696,35.233913 38.5973913,35.1945652 39.0904348,35.1634783 C39.2226087,34.3143478 39.3293478,33.4845652 39.4069565,32.6869565 C38.1004348,31.6126087 36.6986957,30.6863043 35.2858696,29.9545652 C34.7432609,31.2021739 34.2128261,32.6373913 33.7193478,34.1732609 C34.2156522,34.5073913 34.58,35.026087 34.7171739,35.6328261 C35.2121739,35.5593478 35.7095652,35.4919565 36.2069565,35.4315217 C36.3586957,35.1667391 36.6386957,34.9891304 36.9591304,34.9891304 Z M37.818913,36.0373913 C37.748913,36.4604348 37.3906522,36.7826087 36.9591304,36.7826087 C36.5917391,36.7826087 36.2776087,36.5491304 36.148913,36.2186957 C35.6858696,36.2776087 35.223913,36.3428261 34.7643478,36.4141304 C34.6454348,37.5991304 33.6736957,38.5284783 32.4806522,38.5626087 C32.1773913,39.7971739 31.9080435,41.0436957 31.6832609,42.2654348 C32.1630435,42.2373913 32.6493478,42.2032609 33.1406522,42.1632609 C33.2665217,41.3821739 33.903913,40.7880435 34.6717391,40.7880435 C35.3319565,40.7880435 35.8958696,41.2278261 36.1208696,41.8480435 C36.6513043,41.7786957 37.1826087,41.7019565 37.7123913,41.6173913 C37.8958696,40.9297826 38.07,40.2341304 38.2328261,39.5369565 C37.88,39.3278261 37.6436957,38.9445652 37.6436957,38.5065217 C37.6436957,37.891087 38.1102174,37.3841304 38.7106522,37.3154348 C38.8006522,36.8571739 38.8843478,36.4015217 38.9617391,35.95 C38.5817391,35.9736957 38.2004348,36.0030435 37.818913,36.0373913 Z M20.8971739,39.8691304 C21.3926087,39.456087 22.2571739,38.9984783 23.3895652,38.5345652 C22.6343478,36.5017391 22.3530435,34.3976087 22.7280435,32.3863043 C21.5571739,34.4493478 20.8886957,36.8328261 20.8886957,39.3719565 C20.8886957,39.5382609 20.8915217,39.703913 20.8971739,39.8691304 Z M25.0545652,37.9141304 C26.5091304,37.4173913 28.2232609,36.9332609 30.0721739,36.5097826 C30.0565217,36.3984783 30.0484783,36.2847826 30.0484783,36.168913 C30.0484783,34.8484783 31.1034783,33.7776087 32.4063043,33.7743478 C32.8908696,32.2932609 33.4095652,30.9067391 33.9391304,29.6928261 C32.3193478,30.523913 30.7628261,31.6282609 29.3504348,32.8941304 C29.4334783,33.056087 29.4804348,33.2402174 29.4804348,33.4354348 C29.4804348,34.0836957 28.9621739,34.6093478 28.3230435,34.6093478 C28.1167391,34.6093478 27.9230435,34.5545652 27.7554348,34.4586957 C26.7295652,35.5554348 25.8158696,36.7263043 25.0545652,37.9141304 Z M39.7626087,35.1265217 C40.1521739,35.1080435 40.5391304,35.0952174 40.9221739,35.0882609 C40.9565217,34.806087 41.0528261,34.5436957 41.1969565,34.3154348 C40.8213043,33.9371739 40.4319565,33.5713043 40.0321739,33.2191304 C39.958913,33.838913 39.8682609,34.4765217 39.7626087,35.1265217 Z M44.5580435,35.2271739 C45.3571739,35.3108696 46.1193478,35.4323913 46.8321739,35.5965217 C47.308913,33.3808696 46.9773913,31.3643478 45.5306522,29.9504348 C43.8658696,28.6780435 42.0330435,28.1091304 40.1513043,28.0773913 C40.2845652,29.1695652 40.278913,30.4769565 40.1630435,31.916087 C40.7978261,32.4530435 41.4113043,33.0223913 41.9954348,33.6191304 C42.2213043,33.5171739 42.4713043,33.4604348 42.7341304,33.4604348 C43.7123913,33.4604348 44.511087,34.2434783 44.5580435,35.2271739 Z M48.2052174,35.9897826 C48.5243478,36.1015217 48.8276087,36.2256522 49.1169565,36.3606522 C48.9534783,35.6067391 48.7302174,34.8752174 48.4519565,34.1708696 C48.4252174,34.7623913 48.3413043,35.3708696 48.2052174,35.9897826 Z M49.2984783,37.3776087 C48.8828261,37.1752174 48.4454348,36.9952174 47.9880435,36.8373913 C47.7897826,37.5180435 47.5319565,38.2073913 47.221087,38.8967391 C47.991087,38.5241304 48.7017391,38.1176087 49.3371739,37.6747826 C49.3252174,37.5754348 49.3123913,37.4763043 49.2984783,37.3776087 Z M46.6152174,36.4395652 C45.9119565,36.2713043 45.1745652,36.1445652 44.4119565,36.053913 C44.3745652,36.1419565 44.3308696,36.2265217 44.281087,36.3071739 C44.8269565,37.0536957 45.3217391,37.8256522 45.7534783,38.6154348 C46.1113043,37.8836957 46.4019565,37.1541304 46.6152174,36.4395652 Z M40.9919565,35.8771739 C40.5408696,35.8802174 40.0856522,35.8930435 39.6280435,35.913913 C39.54,36.4080435 39.4436957,36.9076087 39.3402174,37.4104348 C39.7623913,37.5969565 40.0567391,38.0176087 40.0567391,38.5065217 C40.0567391,39.168913 39.5165217,39.7058696 38.8504348,39.7058696 L38.8230435,39.7054348 C38.6756522,40.3093478 38.5195652,40.9123913 38.3565217,41.5104348 C40.7271739,41.1028261 43.0471739,40.5367391 45.1047826,39.7856522 C44.6621739,38.8304348 44.1134783,37.9026087 43.4823913,37.015 C43.2541304,37.1195652 43.0008696,37.1778261 42.7341304,37.1778261 C41.9167391,37.1778261 41.2247826,36.6308696 40.9919565,35.8771739 Z M30.3232609,37.2906522 C28.1276087,37.8158696 26.1282609,38.4306522 24.5263043,39.0315217 C24.9532609,40.1723913 25.5143478,41.2832609 26.1893478,42.3304348 C27.4119565,42.3815217 28.7828261,42.3854348 30.2404348,42.3336957 C30.4863043,40.9704348 30.7904348,39.5706522 31.1376087,38.186087 C30.7958696,37.963913 30.5145652,37.6552174 30.3232609,37.2906522 Z M23.566087,39.4095652 C22.3141304,39.9278261 21.4013043,40.4182609 20.961087,40.8115217 C20.9830435,41.0297826 21.0102174,41.2465217 21.0419565,41.4617391 C21.333913,41.6504348 21.8397826,41.8154348 22.5195652,41.951087 C22.7954348,41.0976087 23.1469565,40.2469565 23.566087,39.4095652 Z M36.133913,43.0082609 C35.9182609,43.6478261 35.345,44.1052174 34.6717391,44.1052174 C34.1056522,44.1052174 33.6104348,43.7821739 33.3386957,43.2993478 C32.7108696,43.3504348 32.0906522,43.3915217 31.4823913,43.4232609 C31.2606522,44.7876087 31.1006522,46.1052174 31.0180435,47.3230435 C31.965,47.9913043 33.0565217,48.6547826 34.2165217,49.2291304 C34.5897826,49.0902174 34.9613043,48.936087 35.3295652,48.7678261 C36.0473913,47.0567391 36.7526087,45.0078261 37.375,42.8369565 C36.9613043,42.8986957 36.5471739,42.9556522 36.133913,43.0082609 Z M23.0791304,42.05 C23.731087,42.1521739 24.4991304,42.2323913 25.3595652,42.2867391 C24.823913,41.5047826 24.3506522,40.6923913 23.9528261,39.8615217 C23.5906522,40.6008696 23.2963043,41.335 23.0791304,42.05 Z M49.43,38.8956522 C48.6013043,39.4582609 47.6504348,39.9615217 46.6097826,40.4091304 C47.3986957,42.3382609 47.7882609,44.3371739 47.6256522,46.3080435 C48.7793478,44.256087 49.4378261,41.8908696 49.4378261,39.3719565 C49.4378261,39.2123913 49.4352174,39.0536957 49.43,38.8956522 Z M44.1271739,41.3265217 C42.2143478,41.9334783 40.1252174,42.3978261 38.0095652,42.7384783 C37.4113043,44.7843478 36.738913,46.7354348 36.051087,48.4182609 C37.1686957,47.8458696 38.2528261,47.1473913 39.2769565,46.3576087 C39.2004348,46.146087 39.1584783,45.9182609 39.1584783,45.6804348 C39.1584783,44.5773913 40.0569565,43.6830435 41.165,43.6830435 C41.4721739,43.6830435 41.7634783,43.7519565 42.0236957,43.8747826 C42.7958696,43.0615217 43.5030435,42.2043478 44.1271739,41.3265217 Z M30.0458696,43.4806522 C28.9706522,43.5113043 27.9465217,43.5119565 26.9995652,43.485 C27.2347826,43.7936957 27.4804348,44.0952174 27.7354348,44.3882609 C27.8880435,44.3028261 28.0656522,44.253913 28.2552174,44.253913 C28.8226087,44.253913 29.2826087,44.6919565 29.2826087,45.2319565 C29.2826087,45.4391304 29.2147826,45.6313043 29.0995652,45.7893478 C29.2919565,45.9658696 29.4884783,46.1380435 29.6884783,46.3052174 C29.7704348,45.4043478 29.8915217,44.456087 30.0458696,43.4806522 Z M26.2245652,43.4563043 C24.8658696,43.3934783 23.7,43.2708696 22.813913,43.1004348 C22.5167391,44.5943478 22.6026087,45.9684783 23.1704348,47.085 C23.3541304,47.3676087 23.5478261,47.6430435 23.7504348,47.9115217 C25.5504348,49.3815217 27.5556522,50.0352174 29.6128261,50.0745652 C29.541087,49.1286957 29.555,48.0447826 29.6419565,46.8678261 C29.5204348,46.7708696 29.4030435,46.6754348 29.2897826,46.5815217 C29.1006522,46.4245652 28.913913,46.263913 28.7295652,46.1 C28.5876087,46.1704348 28.4265217,46.2102174 28.2552174,46.2102174 C27.6880435,46.2102174 27.2282609,45.7723913 27.2282609,45.2319565 C27.2282609,45.0615217 27.273913,44.901087 27.3545652,44.7615217 C26.9597826,44.3415217 26.5821739,43.9054348 26.2245652,43.4563043 Z M22.2267391,42.9693478 C21.798913,42.8586957 21.4704348,42.7328261 21.2573913,42.5943478 C21.4221739,43.3023913 21.64,43.9897826 21.9065217,44.6528261 C21.9778261,44.0943478 22.0852174,43.5321739 22.2267391,42.9693478 Z M35.1886957,50.3684783 C34.4991304,51.7958696 33.8191304,52.8821739 33.2073913,53.4569565 C33.8467391,53.5443478 34.4997826,53.5893478 35.1632609,53.5893478 C37.5641304,53.5893478 39.826087,52.9986957 41.8115217,51.9558696 C39.7715217,52.1523913 37.4065217,51.4332609 35.1886957,50.3684783 Z M32.4969565,53.3417391 C33.1102174,52.9591304 33.805,51.9597826 34.5134783,50.5521739 C33.3893478,50.9158696 32.2419565,51.1495652 31.088913,51.2265217 C31.2006522,52.0080435 31.3865217,52.6617391 31.6552174,53.1567391 C31.9326087,53.2265217 32.2132609,53.2882609 32.4969565,53.3417391 Z M39.5076087,31.3791304 C39.5765217,30.1626087 39.5636957,29.0480435 39.4508696,28.09 C38.23,28.1534783 36.9947826,28.4321739 35.7776087,28.8813043 L35.7656522,28.9063043 C37.0441304,29.5926087 38.3080435,30.4276087 39.5076087,31.3791304 Z M39.3513043,27.4241304 C39.2147826,26.6834783 39.0030435,26.0652174 38.7084783,25.5963043 C38.5663043,25.56 38.4234783,25.526087 38.2797826,25.4941304 C37.593913,25.8334783 36.841087,26.8319565 36.0869565,28.2686957 C37.1484783,27.89 38.2402174,27.6034783 39.3513043,27.4241304 Z M30.9856522,47.876087 C30.9482609,48.6380435 30.9441304,49.3545652 30.9765217,50.0136957 C31.8165217,49.923913 32.6593478,49.7406522 33.4952174,49.4769565 C32.5978261,48.9641304 31.748913,48.4156522 30.9856522,47.876087 Z M30.2306522,52.7173913 C30.0234783,52.3191304 29.8682609,51.8234783 29.7608696,51.2443478 C28.6413043,51.198913 27.5232609,50.9965217 26.4232609,50.6132609 C27.5667391,51.4965217 28.8482609,52.2104348 30.2306522,52.7173913 Z M34.5828261,28.3163043 C35.343913,26.8041304 36.1078261,25.7078261 36.8078261,25.2476087 C36.2682609,25.186087 35.7193478,25.1543478 35.1632609,25.1543478 C32.7282609,25.1543478 30.4363043,25.7619565 28.4306522,26.8326087 L28.4428261,26.8315217 C30.3367391,26.7919565 32.458913,27.3367391 34.5828261,28.3163043 Z M24.226087,30.2356522 C23.3180435,32.7271739 23.4045652,35.5128261 24.2354348,38.1808696 C25.0882609,36.733913 26.1395652,35.3441304 27.3480435,34.0686957 C27.2323913,33.8858696 27.1654348,33.6686957 27.1654348,33.4354348 C27.1654348,32.7869565 27.6836957,32.2615217 28.3230435,32.2615217 C28.5758696,32.2615217 28.8097826,32.3436957 29.0002174,32.4832609 C30.4502174,31.2186957 32.0636957,30.1176087 33.7878261,29.2530435 C30.3906522,27.835 27.1,27.6386957 25.0913043,29.3084783 L25.0845652,29.303913 C24.7847826,29.6015217 24.4984783,29.9126087 24.226087,30.2356522 Z M35.9717391,50.0030435 C39.7354348,51.4532609 43.7995652,51.6334783 45.8719565,47.9904348 L45.8730435,47.9904348 C46.5473913,45.8278261 46.4393478,43.6295652 45.7797826,41.5217391 C45.001087,42.7232609 44.0773913,43.89 43.0421739,44.9736957 C43.1256522,45.1934783 43.1715217,45.4315217 43.1715217,45.6804348 C43.1715217,46.7834783 42.2730435,47.6776087 41.165,47.6776087 C40.841087,47.6776087 40.535,47.601087 40.263913,47.4652174 C38.9234783,48.4880435 37.4771739,49.3565217 35.9717391,50.0030435 Z M35.1878261,54.8936957 C43.7693478,54.8936957 50.7258696,47.9882609 50.7258696,39.4697826 C50.7258696,30.9513043 43.7693478,24.0458696 35.1878261,24.0458696 C26.606087,24.0458696 19.6495652,30.9513043 19.6495652,39.4697826 C19.6495652,47.9882609 26.606087,54.8936957 35.1878261,54.8936957 Z" id="Fill-1" fill="#FFFFFF"></path>
                        <path d="M15.2653371,25.1273913 L15.2655544,25.1271739 C15.5459892,24.6782609 16.1427284,24.5406522 16.5916414,24.821087 L20.5066414,27.2673913 C20.9555544,27.5478261 21.0933805,28.1447826 20.8127284,28.5936957 C20.5322936,29.0426087 19.9355544,29.1804348 19.486424,28.8997826 L15.5716414,26.4534783 C15.1227284,26.1730435 14.9849023,25.5763043 15.2653371,25.1273913" id="Fill-3" fill="#FFFFFF"></path>
                        <path d="M24.2219565,17.5702174 L24.2219565,17.57 C24.7017391,17.3463043 25.2771739,17.5558696 25.501087,18.0356522 L27.4519565,22.2195652 C27.6756522,22.6993478 27.4663043,23.2747826 26.9865217,23.4984783 L26.9863043,23.4986957 C26.5065217,23.7223913 25.931087,23.5128261 25.7073913,23.0330435 L23.7563043,18.8491304 C23.5326087,18.3693478 23.7421739,17.793913 24.2219565,17.5702174" id="Fill-4" fill="#FFFFFF"></path>
                    </g>
                    <g id="Group-22" transform="translate(0.000000, 154.000000)">
                        <g id="Group-15">
                            <rect id="Rectangle-3-Copy-7" fill="#5AAAFA" x="0" y="0" width="70" height="70" rx="10"></rect>
                            <g id="Group-8" transform="translate(12.000000, 17.000000)" stroke="#FFFFFF" stroke-width="2" fill="#FFFFFF">
                                <path d="M15.869005,4.7573077 C16.4031715,4.7573077 16.8366887,4.33151581 16.8366887,3.80598889 L16.8366887,0.951318806 C16.8366887,0.425791885 16.4031715,0 15.869005,0 C15.3348385,0 14.9020466,0.425791885 14.9020466,0.951318806 L14.9020466,3.80598889 C14.9020466,4.33151581 15.3348385,4.7573077 15.869005,4.7573077 Z" id="Shape"></path>
                                <path d="M4.86987398,5.56636829 L6.91994536,7.58328191 L6.92067076,7.58399558 C7.29824151,7.95545953 7.91029785,7.95545953 8.28859401,7.58399558 C8.66616476,7.21253164 8.66616476,6.61037466 8.28859401,6.23819705 L8.28859401,6.23819705 L6.23634643,4.21985609 L6.23634643,4.21985609 L6.23634643,4.21985609 C5.85877568,3.84839215 5.24671934,3.84839215 4.86842318,4.21985609 C4.49085243,4.59132004 4.49085243,5.19419068 4.86842318,5.56565462 C4.86842318,5.56565462 4.86914858,5.56636829 4.86987398,5.56636829 Z" id="Shape"></path>
                                <path d="M3.86855877,15.9792732 C4.40272527,15.9792732 4.83624251,15.5534813 4.83624251,15.0279544 C4.83624251,14.5024275 4.40345067,14.0766356 3.86855877,14.0766356 L3.86855877,14.0766356 L0.966958341,14.0759219 L0.966958341,14.0766356 L0.966958341,14.0766356 C0.432791838,14.0766356 0,14.5024275 0,15.0279544 C0,15.5534813 0.432791838,15.9792732 0.966958341,15.9792732 L0.967683741,15.9792732 L3.86855877,15.9792732 L3.86855877,15.9792732 L3.86855877,15.9792732 L3.86855877,15.9792732 L3.86855877,15.9792732 Z" id="Shape"></path>
                                <path d="M8.28859401,22.2370364 C7.91029785,21.8662861 7.29824151,21.8648588 6.92067076,22.2370364 L6.91994536,22.2370364 L4.86842318,24.2553774 L4.86842318,24.2553774 L4.86842318,24.2553774 C4.49085243,24.6261276 4.49085243,25.2297119 4.86842318,25.6018896 C5.24671934,25.9726398 5.85877568,25.9726398 6.23634643,25.6018896 L6.23707183,25.6004622 L8.28859401,23.5821213 L8.28859401,23.5821213 C8.66616476,23.2099436 8.66616476,22.6077867 8.28859401,22.2370364 Z" id="Shape"></path>
                                <path d="M24.5773269,7.58399558 L24.5773269,7.58399558 L24.5773269,7.58399558 L26.6281237,5.56565462 L26.6281237,5.56565462 L26.6281237,5.56565462 C27.0078706,5.19419068 27.0078706,4.59132004 26.6281237,4.21985609 C26.2512783,3.84839215 25.639222,3.84839215 25.2623766,4.21985609 L25.2609258,4.21985609 L23.210129,6.23748338 L23.2094036,6.23819705 C22.8318329,6.61037466 22.8318329,7.21253164 23.2094036,7.58399558 C23.5869744,7.95545953 24.1997561,7.95545953 24.5773269,7.58399558 Z" id="Shape"></path>
                                <path d="M35.2009346,11.1020577 C31.8204794,11.1020577 28.774343,12.509856 26.6335966,14.761031 C26.3119724,14.397239 25.9492723,14.071093 25.5497582,13.7901756 C24.88103,9.17711793 20.8502536,5.63036876 15.9764716,5.63036876 C10.6351693,5.63036876 6.30471203,9.89007178 6.30471203,15.1456978 C6.30471203,18.3237485 7.88798844,21.1365798 10.3198923,22.8636552 C9.73331563,23.9438802 9.40035698,25.1761164 9.40035698,26.4849827 C9.40035698,30.7321073 12.9005938,34.1777833 17.218266,34.1777833 L35.2009346,34.1777833 C41.6756746,34.1777833 46.9263019,29.0120793 46.9263019,22.6392068 C46.9263019,16.2670479 41.6756746,11.1020577 35.2009346,11.1020577 Z M10.5054134,20.5288919 C9.04400418,19.0904058 8.23926344,17.178669 8.23926344,15.1456978 C8.23926344,13.112013 9.04400418,11.2002761 10.5054134,9.76250371 C11.9668226,8.32473128 13.9099881,7.53300638 15.976381,7.53300638 C18.0434992,7.53300638 19.9866648,8.32473128 21.448074,9.76250371 C22.328619,10.6295205 22.9704168,11.6686205 23.3416403,12.8025489 C22.8811926,12.6965693 22.4023378,12.6401896 21.9092471,12.6401896 C18.4550731,12.6401896 15.6547567,15.3952138 15.6547567,18.7935202 C15.6547567,18.8450826 15.6554821,18.895307 15.6568422,18.9468695 C13.9992123,19.2772083 12.5320906,20.1246885 11.435467,21.3094658 C11.1082209,21.0752936 10.7972962,20.8160539 10.5054134,20.5288919 Z M42.1233371,29.4525014 C40.2758337,31.2715507 37.816274,32.2737183 35.2008439,32.2737183 L17.2181753,32.2737183 C13.974458,32.2737183 11.3349084,29.6769499 11.3349084,26.4848934 C11.3349084,25.142574 11.8130377,23.8323697 12.6808883,22.8008525 C13.5387646,21.7791482 14.7316851,21.072439 16.0408509,20.8131992 L17.6304746,20.4954388 L17.5907589,18.9008379 C17.5893081,18.8646193 17.5893081,18.8284007 17.5893081,18.7935202 C17.5893081,16.4497468 19.5267611,14.5435409 21.9091564,14.5435409 C23.1615597,14.5435409 24.3510345,15.0773642 25.1727315,16.0092355 L26.5810051,17.6045501 L28.0459506,16.060798 C28.9541516,15.1060001 30.0266556,14.3539729 31.236623,13.8271079 C32.4862154,13.2814198 33.8194101,13.0054089 35.2008439,13.0054089 C37.816274,13.0054089 40.2758337,14.0069521 42.1233371,15.8266258 C43.9736514,17.6462996 44.9923852,20.0660786 44.9923852,22.6392068 C44.9923852,25.212335 43.9737421,27.632114 42.1233371,29.4525014 Z" id="Shape"></path>
                            </g>
                        </g>
                    </g>
                    <g id="Group-21" transform="translate(73.000000, 224.000000)">
                        <g id="Group-14">
                            <rect id="Rectangle-3-Copy-6" fill="#5AAAFA" x="0" y="0" width="70" height="70" rx="10"></rect>
                            <g id="Group" transform="translate(15.000000, 15.000000)" fill="#FFFFFF">
                                <path d="M19.8285714,0 C8.89510204,0 0,8.89510204 0,19.8285714 C0,30.7620408 8.89510204,39.6571429 19.8285714,39.6571429 C30.7620408,39.6571429 39.6571429,30.7620408 39.6571429,19.8285714 C39.6571429,8.89510204 30.7620408,0 19.8285714,0 Z M19.8285714,35.4379592 C11.2216327,35.4379592 4.21877551,28.4359184 4.21877551,19.8285714 C4.21877551,11.2212245 11.2216327,4.21918367 19.8285714,4.21918367 C28.4355102,4.21918367 35.4383673,11.2212245 35.4383673,19.8285714 C35.4383673,28.4359184 28.4355102,35.4379592 19.8285714,35.4379592 Z" id="Shape"></path>
                                <path d="M30.162449,19.2163265 L21.2514286,19.2163265 L21.2514286,8.50204082 C21.2514286,7.60040816 20.5204082,6.86938776 19.6187755,6.86938776 C18.7171429,6.86938776 17.9861224,7.60040816 17.9861224,8.50204082 L17.9861224,20.8489796 C17.9861224,21.7506122 18.7171429,22.4816327 19.6187755,22.4816327 L30.162449,22.4816327 C31.0640816,22.4816327 31.795102,21.7506122 31.795102,20.8489796 C31.795102,19.9473469 31.0640816,19.2163265 30.162449,19.2163265 Z" id="Shape"></path>
                            </g>
                        </g>
                    </g>
                    <g id="Group-20" transform="translate(156.000000, 224.000000)">
                        <g id="Group-13">
                            <rect id="Rectangle-3-Copy-5" fill="#5AAAFA" x="0" y="0" width="70" height="70" rx="10"></rect>
                            <path d="M29.4267765,47.2022379 C29.1921693,47.254438 29.0357646,47.4110383 29.061832,47.5937386 C29.0878995,47.7503389 29.2964392,47.8547391 29.5310463,47.802539 C29.7656535,47.7503389 29.9220583,47.5937386 29.8949481,47.4371383 C29.8699234,47.280538 29.6613837,47.1771818 29.4267765,47.2022379 M27.9419738,47.4110383 C27.7084094,47.4110383 27.5259371,47.5415385 27.5259371,47.6981388 C27.5259371,47.8797951 27.7084094,48.0102953 27.969084,47.9852393 C28.2026485,47.9852393 28.3851207,47.8547391 28.3851207,47.6981388 C28.3851207,47.5154385 28.176581,47.3859822 27.9419738,47.4110383 M26.4060789,47.1510818 C26.1975392,47.0978377 25.9629321,47.1771818 25.9107971,47.3327381 C25.8586622,47.4893384 26.0161097,47.6709947 26.2496742,47.7242388 C26.4582139,47.802539 26.6917783,47.7242388 26.7439132,47.5686826 C26.7970909,47.4110383 26.6406861,47.2283379 26.4060789,47.1510818 M25.1558834,46.4202805 C24.9734112,46.2375802 24.738804,46.2125241 24.6355769,46.3419803 C24.5052396,46.4463805 24.5573745,46.681281 24.738804,46.8368372 C24.9212763,47.0195376 25.1558834,47.0466816 25.2601533,46.9172254 C25.3644231,46.8117812 25.3122882,46.5768808 25.1558834,46.4202805 M24.1663625,45.3251225 C24.0620927,45.1424222 23.853553,45.065166 23.7232157,45.1685222 C23.5939211,45.2478664 23.5939211,45.4556228 23.7232157,45.6383231 C23.853553,45.8210234 24.0620927,45.8993235 24.1663625,45.8210234 C24.2966999,45.7166232 24.2966999,45.5078228 24.1663625,45.3251225 M23.3332464,44.2299645 C23.2029091,44.0994643 23.0204369,44.0483082 22.916167,44.1516644 C22.8118972,44.2299645 22.8379647,44.4126649 22.968302,44.5703092 C23.0986393,44.6997654 23.2800688,44.7509215 23.3853814,44.6475653 C23.4896512,44.5703092 23.4635838,44.3865648 23.3332464,44.2299645 M22.3948178,43.4480071 C22.238413,43.395807 22.1080757,43.4219071 22.0569835,43.4991632 C22.0048485,43.6046074 22.0830509,43.7351077 22.238413,43.8134078 C22.3687503,43.8917079 22.5251551,43.8656079 22.57729,43.7601637 C22.629425,43.6568075 22.5522653,43.5263073 22.3948178,43.4480071 M55,35.026044 C55,43.8656079 49.2714144,51.3740694 41.3281372,54.0341862 C40.3125489,54.2168865 39.9476044,53.5915294 39.9476044,53.0695284 C39.9476044,52.4180713 39.9736719,50.2538554 39.9736719,47.5686826 C39.9736719,45.6905232 39.3490955,44.490965 38.6192065,43.8656079 C43.0725718,43.369707 47.7605443,41.674248 47.7605443,33.9830861 C47.7605443,31.7927702 46.9785204,30.019011 45.7033001,28.6106525 C45.9118398,28.0896955 46.5885512,26.0559799 45.4947604,23.2925069 C43.8285282,22.770506 39.9997393,25.3512786 39.9997393,25.3512786 C38.4117095,24.9086218 36.6922997,24.6737214 35,24.6737214 C33.3077003,24.6737214 31.5882905,24.9086218 29.999218,25.3512786 C29.999218,25.3512786 26.1714718,22.770506 24.5052396,23.2925069 C23.4104061,26.0559799 24.0881602,28.0896955 24.2966999,28.6106525 C23.0204369,30.019011 22.238413,31.7927702 22.238413,33.9830861 C22.238413,41.6491919 26.900318,43.369707 31.354726,43.8656079 C30.7812419,44.3865648 30.2598926,45.2729224 30.0784631,46.5507807 C28.9325374,47.0727817 26.0161097,47.9591393 24.2706324,44.8814217 C23.1768417,42.9782063 21.1967572,42.82265 21.1967572,42.82265 C19.2437829,42.795506 21.0664199,44.0483082 21.0664199,44.0483082 C22.3687503,44.6475653 23.2800688,46.9673375 23.2800688,46.9673375 C24.4520619,50.5399119 30.0252854,49.3403537 30.0252854,49.3403537 C30.0252854,51.0086687 30.0523956,52.5746715 30.0523956,53.0695284 C30.0523956,53.5915294 29.6874511,54.2168865 28.6718628,54.0341862 C20.7285856,51.3740694 15,43.8656079 15,35.026044 C15,23.9700641 23.9578228,15 35,15 C46.0421772,15 55,23.9700641 55,35.026044" id="Fill-3" fill="#FFFFFF"></path>
                        </g>
                    </g>
                    <g id="Group-19" transform="translate(229.000000, 154.000000)">
                        <g id="Group-12">
                            <rect id="Rectangle-3-Copy-4" fill="#5AAAFA" x="0" y="0" width="70" height="70" rx="10"></rect>
                            <ellipse id="Oval-3" fill="#FFFFFF" cx="34.5" cy="34.5" rx="18.5" ry="15.5"></ellipse>
                            <use id="Oval-3-Copy" stroke="#5AAAFA" mask="url(#mask-2)" stroke-width="4" fill="#FFFFFF" xlink:href="#path-1"></use>
                            <polygon id="Triangle" fill="#FFFFFF" transform="translate(23.313708, 43.313708) rotate(-135.000000) translate(-23.313708, -43.313708) " points="23.3137085 35.3137085 31.3137085 51.3137085 15.3137085 51.3137085"></polygon>
                        </g>
                    </g>
                    <text id="Your-Service" font-family="Lato-Black, Lato" font-size="24" font-weight="700" line-spacing="24" fill="#29558F">
                        <tspan x="122.532" y="143">Your</tspan>
                        <tspan x="108" y="167">Service</tspan>
                    </text>
                </g>
            </g>
        </g>
    </g>
</svg>