<?xml version="1.0" encoding="UTF-8"?>
<svg width="300px" height="170px" viewBox="0 0 300 170" version="1.1" xmlns="http://www.w3.org/2000/svg" xmlns:xlink="http://www.w3.org/1999/xlink">
    <!-- Generator: Sketch 41.2 (35397) - http://www.bohemiancoding.com/sketch -->
    <title>illustration-languages-and-integrations</title>
    <desc>Created with Sketch.</desc>
    <defs></defs>
    <g id="Home" stroke="none" stroke-width="1" fill="none" fill-rule="evenodd">
        <g transform="translate(-890.000000, -1371.000000)" id="illustration-languages-and-integrations">
            <g transform="translate(890.000000, 1371.000000)">
                <path d="M224.976,146.058 C224.333997,146.088 223.794002,146.1435 223.356,146.2245 C222.917998,146.3055 222.567001,146.408999 222.303,146.535 C222.038999,146.661001 221.850001,146.807999 221.736,146.976 C221.621999,147.144001 221.565,147.326999 221.565,147.525 C221.565,147.915002 221.680499,148.193999 221.9115,148.362 C222.142501,148.530001 222.443998,148.614 222.816,148.614 C223.272002,148.614 223.666498,148.531501 223.9995,148.3665 C224.332502,148.201499 224.657998,147.951002 224.976,147.615 L224.976,146.058 Z M219.882,142.053 C220.944005,141.080995 222.221993,140.595 223.716,140.595 C224.256003,140.595 224.738998,140.683499 225.165,140.8605 C225.591002,141.037501 225.950999,141.283498 226.245,141.5985 C226.539001,141.913502 226.762499,142.289998 226.9155,142.728 C227.068501,143.166002 227.145,143.645997 227.145,144.168 L227.145,150 L226.137,150 C225.926999,150 225.765001,149.9685 225.651,149.9055 C225.536999,149.8425 225.447,149.715001 225.381,149.523 L225.183,148.857 C224.948999,149.067001 224.721001,149.251499 224.499,149.4105 C224.276999,149.569501 224.046001,149.702999 223.806,149.811 C223.565999,149.919001 223.309501,150.0015 223.0365,150.0585 C222.763499,150.1155 222.462002,150.144 222.132,150.144 C221.741998,150.144 221.382002,150.091501 221.052,149.9865 C220.721998,149.881499 220.437001,149.724001 220.197,149.514 C219.956999,149.303999 219.771001,149.043002 219.639,148.731 C219.506999,148.418998 219.441,148.056002 219.441,147.642 C219.441,147.407999 219.48,147.175501 219.558,146.9445 C219.636,146.713499 219.763499,146.493001 219.9405,146.283 C220.117501,146.072999 220.346999,145.875001 220.629,145.689 C220.911001,145.502999 221.257498,145.341001 221.6685,145.203 C222.079502,145.064999 222.557997,144.9525 223.104,144.8655 C223.650003,144.7785 224.273996,144.726 224.976,144.708 L224.976,144.168 C224.976,143.549997 224.844001,143.092501 224.58,142.7955 C224.315999,142.498499 223.935002,142.35 223.437,142.35 C223.076998,142.35 222.778501,142.392 222.5415,142.476 C222.304499,142.56 222.096001,142.654499 221.916,142.7595 C221.735999,142.864501 221.572501,142.959 221.4255,143.043 C221.278499,143.127 221.115001,143.169 220.935,143.169 C220.778999,143.169 220.647001,143.1285 220.539,143.0475 C220.430999,142.9665 220.344,142.872001 220.278,142.764 L219.882,142.053 Z M231.312,141.9 C231.498001,141.713999 231.694499,141.541501 231.9015,141.3825 C232.108501,141.223499 232.327499,141.088501 232.5585,140.9775 C232.789501,140.866499 233.036999,140.7795 233.301,140.7165 C233.565001,140.6535 233.852998,140.622 234.165,140.622 C234.669003,140.622 235.115998,140.707499 235.506,140.8785 C235.896002,141.049501 236.221499,141.289498 236.4825,141.5985 C236.743501,141.907502 236.941499,142.276498 237.0765,142.7055 C237.211501,143.134502 237.279,143.606997 237.279,144.123 L237.279,150 L235.056,150 L235.056,144.123 C235.056,143.558997 234.927001,143.122502 234.669,142.8135 C234.410999,142.504498 234.018003,142.35 233.49,142.35 C233.105998,142.35 232.746002,142.436999 232.41,142.611 C232.073998,142.785001 231.756002,143.021998 231.456,143.322 L231.456,150 L229.233,150 L229.233,140.766 L230.592,140.766 C230.880001,140.766 231.069,140.900999 231.159,141.171 L231.312,141.9 Z M245.181,143.124 C244.928999,142.817998 244.654501,142.602001 244.3575,142.476 C244.060499,142.349999 243.741002,142.287 243.399,142.287 C243.062998,142.287 242.760001,142.349999 242.49,142.476 C242.219999,142.602001 241.989001,142.792499 241.797,143.0475 C241.604999,143.302501 241.458001,143.626498 241.356,144.0195 C241.253999,144.412502 241.203,144.875997 241.203,145.41 C241.203,145.950003 241.2465,146.407498 241.3335,146.7825 C241.4205,147.157502 241.544999,147.463499 241.707,147.7005 C241.869001,147.937501 242.066999,148.108499 242.301,148.2135 C242.535001,148.318501 242.795999,148.371 243.084,148.371 C243.546002,148.371 243.938998,148.275001 244.263,148.083 C244.587002,147.890999 244.892999,147.618002 245.181,147.264 L245.181,143.124 Z M247.404,136.626 L247.404,150 L246.045,150 C245.750999,150 245.565,149.865001 245.487,149.595 L245.298,148.704 C244.925998,149.130002 244.498502,149.474999 244.0155,149.739 C243.532498,150.003001 242.970003,150.135 242.328,150.135 C241.823997,150.135 241.362002,150.030001 240.942,149.82 C240.521998,149.609999 240.160502,149.305502 239.8575,148.9065 C239.554498,148.507498 239.320501,148.014003 239.1555,147.426 C238.990499,146.837997 238.908,146.166004 238.908,145.41 C238.908,144.725997 239.000999,144.090003 239.187,143.502 C239.373001,142.913997 239.639998,142.404002 239.988,141.972 C240.336002,141.539998 240.752998,141.202501 241.239,140.9595 C241.725002,140.716499 242.270997,140.595 242.877,140.595 C243.393003,140.595 243.833998,140.675999 244.2,140.838 C244.566002,141.000001 244.892999,141.218999 245.181,141.495 L245.181,136.626 L247.404,136.626 Z M253.974,150 L253.974,140.766 L255.333,140.766 C255.621001,140.766 255.81,140.900999 255.9,141.171 L256.044,141.855 C256.206001,141.674999 256.375499,141.510001 256.5525,141.36 C256.729501,141.209999 256.918499,141.081001 257.1195,140.973 C257.320501,140.864999 257.536499,140.7795 257.7675,140.7165 C257.998501,140.6535 258.251999,140.622 258.528,140.622 C259.110003,140.622 259.588498,140.779498 259.9635,141.0945 C260.338502,141.409502 260.618999,141.827997 260.805,142.35 C260.949001,142.043998 261.128999,141.781501 261.345,141.5625 C261.561001,141.343499 261.797999,141.165001 262.056,141.027 C262.314001,140.888999 262.588499,140.787 262.8795,140.721 C263.170501,140.655 263.462999,140.622 263.757,140.622 C264.267003,140.622 264.719998,140.699999 265.116,140.856 C265.512002,141.012001 265.844999,141.239998 266.115,141.54 C266.385001,141.840001 266.590499,142.205998 266.7315,142.638 C266.872501,143.070002 266.943,143.564997 266.943,144.123 L266.943,150 L264.72,150 L264.72,144.123 C264.72,143.534997 264.591001,143.092501 264.333,142.7955 C264.074999,142.498499 263.697002,142.35 263.199,142.35 C262.970999,142.35 262.759501,142.389 262.5645,142.467 C262.369499,142.545 262.198501,142.657499 262.0515,142.8045 C261.904499,142.951501 261.789,143.135999 261.705,143.358 C261.621,143.580001 261.579,143.834999 261.579,144.123 L261.579,150 L259.347,150 L259.347,144.123 C259.347,143.504997 259.222501,143.055001 258.9735,142.773 C258.724499,142.490999 258.360002,142.35 257.88,142.35 C257.555998,142.35 257.254501,142.429499 256.9755,142.5885 C256.696499,142.747501 256.437001,142.964999 256.197,143.241 L256.197,150 L253.974,150 Z M273.135,140.622 C273.819003,140.622 274.441497,140.732999 275.0025,140.955 C275.563503,141.177001 276.043498,141.491998 276.4425,141.9 C276.841502,142.308002 277.148999,142.805997 277.365,143.394 C277.581001,143.982003 277.689,144.638996 277.689,145.365 C277.689,146.097004 277.581001,146.756997 277.365,147.345 C277.148999,147.933003 276.841502,148.433998 276.4425,148.848 C276.043498,149.262002 275.563503,149.579999 275.0025,149.802 C274.441497,150.024001 273.819003,150.135 273.135,150.135 C272.444997,150.135 271.818003,150.024001 271.254,149.802 C270.689997,149.579999 270.208502,149.262002 269.8095,148.848 C269.410498,148.433998 269.101501,147.933003 268.8825,147.345 C268.663499,146.756997 268.554,146.097004 268.554,145.365 C268.554,144.638996 268.663499,143.982003 268.8825,143.394 C269.101501,142.805997 269.410498,142.308002 269.8095,141.9 C270.208502,141.491998 270.689997,141.177001 271.254,140.955 C271.818003,140.732999 272.444997,140.622 273.135,140.622 Z M273.135,148.425 C273.903004,148.425 274.471498,148.167003 274.8405,147.651 C275.209502,147.134997 275.394,146.379005 275.394,145.383 C275.394,144.386995 275.209502,143.628003 274.8405,143.106 C274.471498,142.583997 273.903004,142.323 273.135,142.323 C272.354996,142.323 271.777502,142.585497 271.4025,143.1105 C271.027498,143.635503 270.84,144.392995 270.84,145.383 C270.84,146.373005 271.027498,147.127497 271.4025,147.6465 C271.777502,148.165503 272.354996,148.425 273.135,148.425 Z M281.487,142.368 C281.775001,141.815997 282.116998,141.382502 282.513,141.0675 C282.909002,140.752498 283.376997,140.595 283.917,140.595 C284.343002,140.595 284.684999,140.687999 284.943,140.874 L284.799,142.539 C284.769,142.647001 284.7255,142.7235 284.6685,142.7685 C284.6115,142.8135 284.535,142.836 284.439,142.836 C284.349,142.836 284.215501,142.821 284.0385,142.791 C283.861499,142.761 283.689001,142.746 283.521,142.746 C283.274999,142.746 283.056001,142.782 282.864,142.854 C282.671999,142.926 282.499501,143.029499 282.3465,143.1645 C282.193499,143.299501 282.058501,143.462999 281.9415,143.655 C281.824499,143.847001 281.715001,144.065999 281.613,144.312 L281.613,150 L279.39,150 L279.39,140.766 L280.695,140.766 C280.923001,140.766 281.082,140.8065 281.172,140.8875 C281.262,140.9685 281.322,141.113999 281.352,141.324 L281.487,142.368 Z M291.792,144.321 C291.792,144.032999 291.7515,143.761501 291.6705,143.5065 C291.5895,143.251499 291.468001,143.028001 291.306,142.836 C291.143999,142.643999 290.938501,142.492501 290.6895,142.3815 C290.440499,142.270499 290.151002,142.215 289.821,142.215 C289.178997,142.215 288.673502,142.397998 288.3045,142.764 C287.935498,143.130002 287.700001,143.648997 287.598,144.321 L291.792,144.321 Z M287.553,145.662 C287.589,146.136002 287.672999,146.545498 287.805,146.8905 C287.937001,147.235502 288.110999,147.520499 288.327,147.7455 C288.543001,147.970501 288.799499,148.138499 289.0965,148.2495 C289.393501,148.360501 289.721998,148.416 290.082,148.416 C290.442002,148.416 290.752499,148.374 291.0135,148.29 C291.274501,148.206 291.502499,148.113001 291.6975,148.011 C291.892501,147.908999 292.063499,147.816 292.2105,147.732 C292.357501,147.648 292.499999,147.606 292.638,147.606 C292.824001,147.606 292.962,147.674999 293.052,147.813 L293.691,148.623 C293.444999,148.911001 293.169002,149.152499 292.863,149.3475 C292.556998,149.542501 292.237502,149.698499 291.9045,149.8155 C291.571498,149.932501 291.232502,150.015 290.8875,150.063 C290.542498,150.111 290.208002,150.135 289.884,150.135 C289.241997,150.135 288.645003,150.028501 288.093,149.8155 C287.540997,149.602499 287.061002,149.287502 286.653,148.8705 C286.244998,148.453498 285.924001,147.937503 285.69,147.3225 C285.455999,146.707497 285.339,145.995004 285.339,145.185 C285.339,144.554997 285.440999,143.962503 285.645,143.4075 C285.849001,142.852497 286.141498,142.369502 286.5225,141.9585 C286.903502,141.547498 287.368497,141.222001 287.9175,140.982 C288.466503,140.741999 289.085997,140.622 289.776,140.622 C290.358003,140.622 290.894998,140.714999 291.387,140.901 C291.879002,141.087001 292.301998,141.358498 292.656,141.7155 C293.010002,142.072502 293.287499,142.510497 293.4885,143.0295 C293.689501,143.548503 293.79,144.140997 293.79,144.807 C293.79,145.143002 293.754,145.369499 293.682,145.4865 C293.61,145.603501 293.472001,145.662 293.268,145.662 L287.553,145.662 Z" id="and-more" fill="#29558F"></path>
                <rect id="Rectangle-3" fill="#FF813A" x="0" y="5" width="90" height="45"></rect>
                <path d="M11.322,34.776 C11.322,34.5899991 11.3564997,34.4130008 11.4255,34.245 C11.4945003,34.0769992 11.5889994,33.9330006 11.709,33.813 C11.8290006,33.6929994 11.9729992,33.5970004 12.141,33.525 C12.3090008,33.4529996 12.488999,33.417 12.681,33.417 C12.873001,33.417 13.0514992,33.4529996 13.2165,33.525 C13.3815008,33.5970004 13.5254994,33.6929994 13.6485,33.813 C13.7715006,33.9330006 13.8689996,34.0769992 13.941,34.245 C14.0130004,34.4130008 14.049,34.5899991 14.049,34.776 C14.049,34.968001 14.0130004,35.1464992 13.941,35.3115 C13.8689996,35.4765008 13.7715006,35.6189994 13.6485,35.739 C13.5254994,35.8590006 13.3815008,35.9534997 13.2165,36.0225 C13.0514992,36.0915003 12.873001,36.126 12.681,36.126 C12.488999,36.126 12.3090008,36.0915003 12.141,36.0225 C11.9729992,35.9534997 11.8290006,35.8590006 11.709,35.739 C11.5889994,35.6189994 11.4945003,35.4765008 11.4255,35.3115 C11.3564997,35.1464992 11.322,34.968001 11.322,34.776 Z M18.225,26.766 L18.225,36.315 C18.225,36.717002 18.1725005,37.0949982 18.0675,37.449 C17.9624995,37.8030018 17.7945012,38.1134987 17.5635,38.3805 C17.3324988,38.6475013 17.0295019,38.8574992 16.6545,39.0105 C16.2794981,39.1635008 15.8220027,39.24 15.282,39.24 C15.071999,39.24 14.8770009,39.2265001 14.697,39.1995 C14.5169991,39.1724999 14.331001,39.1290003 14.139,39.069 L14.22,37.872 C14.2380001,37.7519994 14.2859996,37.6755002 14.364,37.6425 C14.4420004,37.6094998 14.5919989,37.593 14.814,37.593 C15.0360011,37.593 15.2234992,37.5705002 15.3765,37.5255 C15.5295008,37.4804998 15.6509996,37.4085005 15.741,37.3095 C15.8310005,37.2104995 15.8954998,37.0800008 15.9345,36.918 C15.9735002,36.7559992 15.993,36.5550012 15.993,36.315 L15.993,26.766 L18.225,26.766 Z M18.531,24.075 C18.531,24.267001 18.4920004,24.4469992 18.414,24.615 C18.3359996,24.7830008 18.2325006,24.9299994 18.1035,25.056 C17.9744994,25.1820006 17.8215009,25.2824996 17.6445,25.3575 C17.4674991,25.4325004 17.280001,25.47 17.082,25.47 C16.889999,25.47 16.7100008,25.4325004 16.542,25.3575 C16.3739992,25.2824996 16.2270006,25.1820006 16.101,25.056 C15.9749994,24.9299994 15.8745004,24.7830008 15.7995,24.615 C15.7244996,24.4469992 15.687,24.267001 15.687,24.075 C15.687,23.876999 15.7244996,23.6910009 15.7995,23.517 C15.8745004,23.3429991 15.9749994,23.1930006 16.101,23.067 C16.2270006,22.9409994 16.3739992,22.8405004 16.542,22.7655 C16.7100008,22.6904996 16.889999,22.653 17.082,22.653 C17.280001,22.653 17.4674991,22.6904996 17.6445,22.7655 C17.8215009,22.8405004 17.9744994,22.9409994 18.1035,23.067 C18.2325006,23.1930006 18.3359996,23.3429991 18.414,23.517 C18.4920004,23.6910009 18.531,23.876999 18.531,24.075 Z M26.127,28.566 C26.0669997,28.6620005 26.0040003,28.7294998 25.938,28.7685 C25.8719997,28.8075002 25.7880005,28.827 25.686,28.827 C25.5779995,28.827 25.4625006,28.7970003 25.3395,28.737 C25.2164994,28.6769997 25.0740008,28.6095004 24.912,28.5345 C24.7499992,28.4594996 24.565501,28.3920003 24.3585,28.332 C24.151499,28.2719997 23.9070014,28.242 23.625,28.242 C23.1869978,28.242 22.8435012,28.3349991 22.5945,28.521 C22.3454988,28.7070009 22.221,28.9499985 22.221,29.25 C22.221,29.448001 22.2854994,29.6144993 22.4145,29.7495 C22.5435006,29.8845007 22.7144989,30.0029995 22.9275,30.105 C23.1405011,30.2070005 23.3819987,30.2984996 23.652,30.3795 C23.9220014,30.4605004 24.1964986,30.5489995 24.4755,30.645 C24.7545014,30.7410005 25.0289987,30.8504994 25.299,30.9735 C25.5690014,31.0965006 25.8104989,31.2524991 26.0235,31.4415 C26.2365011,31.6305009 26.4074994,31.8569987 26.5365,32.121 C26.6655006,32.3850013 26.73,32.7029981 26.73,33.075 C26.73,33.5190022 26.6505008,33.9284981 26.4915,34.3035 C26.3324992,34.6785019 26.0970016,35.0024986 25.785,35.2755 C25.4729984,35.5485014 25.0875023,35.7614992 24.6285,35.9145 C24.1694977,36.0675008 23.640003,36.144 23.04,36.144 C22.7219984,36.144 22.4115015,36.1155003 22.1085,36.0585 C21.8054985,36.0014997 21.5145014,35.9220005 21.2355,35.82 C20.9564986,35.7179995 20.6985012,35.5980007 20.4615,35.46 C20.2244988,35.3219993 20.0160009,35.1720008 19.836,35.01 L20.349,34.164 C20.4150003,34.0619995 20.4929996,33.9840003 20.583,33.93 C20.6730005,33.8759997 20.7869993,33.849 20.925,33.849 C21.0630007,33.849 21.1934994,33.8879996 21.3165,33.966 C21.4395006,34.0440004 21.5819992,34.1279995 21.744,34.218 C21.9060008,34.3080004 22.0964989,34.3919996 22.3155,34.47 C22.5345011,34.5480004 22.8119983,34.587 23.148,34.587 C23.4120013,34.587 23.6384991,34.5555003 23.8275,34.4925 C24.0165009,34.4294997 24.1724994,34.3470005 24.2955,34.245 C24.4185006,34.1429995 24.5084997,34.0245007 24.5655,33.8895 C24.6225003,33.7544993 24.651,33.6150007 24.651,33.471 C24.651,33.2549989 24.5865006,33.0780007 24.4575,32.94 C24.3284994,32.8019993 24.1575011,32.6820005 23.9445,32.58 C23.7314989,32.4779995 23.4885014,32.3865004 23.2155,32.3055 C22.9424986,32.2244996 22.6635014,32.1360005 22.3785,32.04 C22.0934986,31.9439995 21.8145014,31.8315006 21.5415,31.7025 C21.2684986,31.5734994 21.0255011,31.410001 20.8125,31.212 C20.5994989,31.013999 20.4285006,30.7710014 20.2995,30.483 C20.1704994,30.1949986 20.106,29.847002 20.106,29.439 C20.106,29.0609981 20.1809993,28.7010017 20.331,28.359 C20.4810008,28.0169983 20.7014985,27.7185013 20.9925,27.4635 C21.2835015,27.2084987 21.6464978,27.0045008 22.0815,26.8515 C22.5165022,26.6984992 23.0189972,26.622 23.589,26.622 C24.2250032,26.622 24.8039974,26.7269989 25.326,26.937 C25.8480026,27.147001 26.2829983,27.4229983 26.631,27.765 L26.127,28.566 Z M29.952,36.027 C29.8499995,36.3030014 29.6865011,36.5099993 29.4615,36.648 C29.2364989,36.7860007 29.0070012,36.855 28.773,36.855 L27.828,36.855 L33.084,23.409 C33.1800005,23.1569987 33.326999,22.9635007 33.525,22.8285 C33.723001,22.6934993 33.9539987,22.626 34.218,22.626 L35.172,22.626 L29.952,36.027 Z M48.114,22.986 L48.114,36 L46.872,36 C46.679999,36 46.5195006,35.9685003 46.3905,35.9055 C46.2614994,35.8424997 46.1370006,35.7360007 46.017,35.586 L39.222,26.91 C39.2580002,27.306002 39.276,27.6719983 39.276,28.008 L39.276,36 L37.143,36 L37.143,22.986 L38.412,22.986 C38.5140005,22.986 38.6024996,22.9905 38.6775,22.9995 C38.7525004,23.0085 38.8184997,23.0264999 38.8755,23.0535 C38.9325003,23.0805001 38.9879997,23.1194997 39.042,23.1705 C39.0960003,23.2215003 39.1559997,23.2889996 39.222,23.373 L46.044,32.085 C46.0259999,31.8749989 46.0110001,31.668001 45.999,31.464 C45.9869999,31.259999 45.981,31.0710009 45.981,30.897 L45.981,22.986 L48.114,22.986 Z M54.468,26.622 C55.1520034,26.622 55.7744972,26.7329989 56.3355,26.955 C56.8965028,27.1770011 57.376498,27.491998 57.7755,27.9 C58.174502,28.308002 58.4819989,28.8059971 58.698,29.394 C58.9140011,29.9820029 59.022,30.6389964 59.022,31.365 C59.022,32.0970037 58.9140011,32.7569971 58.698,33.345 C58.4819989,33.9330029 58.174502,34.4339979 57.7755,34.848 C57.376498,35.2620021 56.8965028,35.5799989 56.3355,35.802 C55.7744972,36.0240011 55.1520034,36.135 54.468,36.135 C53.7779966,36.135 53.1510028,36.0240011 52.587,35.802 C52.0229972,35.5799989 51.541502,35.2620021 51.1425,34.848 C50.743498,34.4339979 50.4345011,33.9330029 50.2155,33.345 C49.9964989,32.7569971 49.887,32.0970037 49.887,31.365 C49.887,30.6389964 49.9964989,29.9820029 50.2155,29.394 C50.4345011,28.8059971 50.743498,28.308002 51.1425,27.9 C51.541502,27.491998 52.0229972,27.1770011 52.587,26.955 C53.1510028,26.7329989 53.7779966,26.622 54.468,26.622 Z M54.468,34.425 C55.2360038,34.425 55.8044982,34.1670026 56.1735,33.651 C56.5425018,33.1349974 56.727,32.379005 56.727,31.383 C56.727,30.386995 56.5425018,29.6280026 56.1735,29.106 C55.8044982,28.5839974 55.2360038,28.323 54.468,28.323 C53.6879961,28.323 53.1105019,28.5854974 52.7355,29.1105 C52.3604981,29.6355026 52.173,30.392995 52.173,31.383 C52.173,32.3730049 52.3604981,33.1274974 52.7355,33.6465 C53.1105019,34.1655026 53.6879961,34.425 54.468,34.425 Z M66.519,29.124 C66.2669987,28.8179985 65.9925015,28.6020006 65.6955,28.476 C65.3984985,28.3499994 65.0790017,28.287 64.737,28.287 C64.4009983,28.287 64.0980014,28.3499994 63.828,28.476 C63.5579987,28.6020006 63.327001,28.7924987 63.135,29.0475 C62.942999,29.3025013 62.7960005,29.626498 62.694,30.0195 C62.5919995,30.412502 62.541,30.8759973 62.541,31.41 C62.541,31.9500027 62.5844996,32.4074981 62.6715,32.7825 C62.7585004,33.1575019 62.8829992,33.4634988 63.045,33.7005 C63.2070008,33.9375012 63.4049988,34.1084995 63.639,34.2135 C63.8730012,34.3185005 64.1339986,34.371 64.422,34.371 C64.8840023,34.371 65.2769984,34.275001 65.601,34.083 C65.9250016,33.890999 66.2309986,33.6180018 66.519,33.264 L66.519,29.124 Z M68.742,22.626 L68.742,36 L67.383,36 C67.0889985,36 66.9030004,35.8650013 66.825,35.595 L66.636,34.704 C66.2639981,35.1300021 65.8365024,35.4749987 65.3535,35.739 C64.8704976,36.0030013 64.3080032,36.135 63.666,36.135 C63.1619975,36.135 62.7000021,36.030001 62.28,35.82 C61.8599979,35.6099989 61.4985015,35.305502 61.1955,34.9065 C60.8924985,34.507498 60.6585008,34.0140029 60.4935,33.426 C60.3284992,32.8379971 60.246,32.1660038 60.246,31.41 C60.246,30.7259966 60.3389991,30.0900029 60.525,29.502 C60.7110009,28.9139971 60.9779983,28.4040022 61.326,27.972 C61.6740017,27.5399978 62.0909976,27.2025012 62.577,26.9595 C63.0630024,26.7164988 63.608997,26.595 64.215,26.595 C64.7310026,26.595 65.1719982,26.6759992 65.538,26.838 C65.9040018,27.0000008 66.2309986,27.2189986 66.519,27.495 L66.519,22.626 L68.742,22.626 Z M76.887,30.321 C76.887,30.0329986 76.8465004,29.7615013 76.7655,29.5065 C76.6844996,29.2514987 76.5630008,29.028001 76.401,28.836 C76.2389992,28.643999 76.0335012,28.4925006 75.7845,28.3815 C75.5354988,28.2704994 75.2460017,28.215 74.916,28.215 C74.2739968,28.215 73.7685018,28.3979982 73.3995,28.764 C73.0304982,29.1300018 72.7950005,29.6489966 72.693,30.321 L76.887,30.321 Z M72.648,31.662 C72.6840002,32.1360024 72.7679993,32.5454983 72.9,32.8905 C73.0320007,33.2355017 73.2059989,33.5204989 73.422,33.7455 C73.6380011,33.9705011 73.8944985,34.1384994 74.1915,34.2495 C74.4885015,34.3605006 74.8169982,34.416 75.177,34.416 C75.5370018,34.416 75.8474987,34.3740004 76.1085,34.29 C76.3695013,34.2059996 76.597499,34.1130005 76.7925,34.011 C76.987501,33.9089995 77.1584993,33.8160004 77.3055,33.732 C77.4525007,33.6479996 77.5949993,33.606 77.733,33.606 C77.9190009,33.606 78.0569996,33.6749993 78.147,33.813 L78.786,34.623 C78.5399988,34.9110014 78.2640015,35.152499 77.958,35.3475 C77.6519985,35.542501 77.3325017,35.6984994 76.9995,35.8155 C76.6664983,35.9325006 76.3275017,36.0149998 75.9825,36.063 C75.6374983,36.1110002 75.3030016,36.135 74.979,36.135 C74.3369968,36.135 73.7400028,36.0285011 73.188,35.8155 C72.6359972,35.6024989 72.156002,35.2875021 71.748,34.8705 C71.339998,34.4534979 71.0190012,33.9375031 70.785,33.3225 C70.5509988,32.7074969 70.434,31.995004 70.434,31.185 C70.434,30.5549968 70.535999,29.9625028 70.74,29.4075 C70.944001,28.8524972 71.2364981,28.3695021 71.6175,27.9585 C71.9985019,27.5474979 72.4634973,27.2220012 73.0125,26.982 C73.5615027,26.7419988 74.1809966,26.622 74.871,26.622 C75.4530029,26.622 75.9899975,26.7149991 76.482,26.901 C76.9740025,27.0870009 77.3969982,27.3584982 77.751,27.7155 C78.1050018,28.0725018 78.382499,28.5104974 78.5835,29.0295 C78.784501,29.5485026 78.885,30.1409967 78.885,30.807 C78.885,31.1430017 78.8490004,31.3694994 78.777,31.4865 C78.7049996,31.6035006 78.567001,31.662 78.363,31.662 L72.648,31.662 Z" id=".js/Node" fill="#FFFFFF"></path>
                <rect id="Rectangle-3-Copy" fill="#5AC9B7" x="105" y="5" width="90" height="45"></rect>
                <path d="M138.206,25.353 C138.134,25.4790006 138.0575,25.5704997 137.9765,25.6275 C137.8955,25.6845003 137.795001,25.713 137.675,25.713 C137.548999,25.713 137.412501,25.6665005 137.2655,25.5735 C137.118499,25.4804995 136.943001,25.3770006 136.739,25.263 C136.534999,25.1489994 136.296501,25.0455005 136.0235,24.9525 C135.750499,24.8594995 135.428002,24.813 135.056,24.813 C134.719998,24.813 134.426001,24.8534996 134.174,24.9345 C133.921999,25.0155004 133.710501,25.1279993 133.5395,25.272 C133.368499,25.4160007 133.241,25.588499 133.157,25.7895 C133.073,25.990501 133.031,26.2109988 133.031,26.451 C133.031,26.7570015 133.116499,27.011999 133.2875,27.216 C133.458501,27.420001 133.684999,27.5939993 133.967,27.738 C134.249001,27.8820007 134.569998,28.0109994 134.93,28.125 C135.290002,28.2390006 135.658998,28.3604994 136.037,28.4895 C136.415002,28.6185006 136.783998,28.7684991 137.144,28.9395 C137.504002,29.1105009 137.824999,29.3264987 138.107,29.5875 C138.389001,29.8485013 138.615499,30.1679981 138.7865,30.546 C138.957501,30.9240019 139.043,31.3829973 139.043,31.923 C139.043,32.5110029 138.942501,33.0614974 138.7415,33.5745 C138.540499,34.0875026 138.246502,34.5344981 137.8595,34.9155 C137.472498,35.2965019 137.000003,35.5964989 136.442,35.8155 C135.883997,36.0345011 135.245004,36.144 134.525,36.144 C134.110998,36.144 133.703002,36.1035004 133.301,36.0225 C132.898998,35.9414996 132.513502,35.8260008 132.1445,35.676 C131.775498,35.5259993 131.429002,35.3460011 131.105,35.136 C130.780998,34.925999 130.493001,34.6920013 130.241,34.434 L130.952,33.273 C131.012,33.1889996 131.09,33.1185003 131.186,33.0615 C131.282,33.0044997 131.383999,32.976 131.492,32.976 C131.642001,32.976 131.803999,33.0374994 131.978,33.1605 C132.152001,33.2835006 132.358999,33.4199993 132.599,33.57 C132.839001,33.7200008 133.119498,33.8564994 133.4405,33.9795 C133.761502,34.1025006 134.146998,34.164 134.597,34.164 C135.287003,34.164 135.820998,34.0005016 136.199,33.6735 C136.577002,33.3464984 136.766,32.8770031 136.766,32.265 C136.766,31.9229983 136.680501,31.6440011 136.5095,31.428 C136.338499,31.2119989 136.112001,31.0305007 135.83,30.8835 C135.547999,30.7364993 135.227002,30.6120005 134.867,30.51 C134.506998,30.4079995 134.141002,30.2970006 133.769,30.177 C133.396998,30.0569994 133.031002,29.9130008 132.671,29.745 C132.310998,29.5769992 131.990001,29.3580014 131.708,29.088 C131.425999,28.8179987 131.199501,28.480502 131.0285,28.0755 C130.857499,27.670498 130.772,27.171003 130.772,26.577 C130.772,26.1029976 130.866499,25.6410023 131.0555,25.191 C131.244501,24.7409978 131.518998,24.3420017 131.879,23.994 C132.239002,23.6459983 132.682997,23.3670011 133.211,23.157 C133.739003,22.946999 134.344997,22.842 135.029,22.842 C135.797004,22.842 136.504997,22.9619988 137.153,23.202 C137.801003,23.4420012 138.352998,23.7779978 138.809,24.21 L138.206,25.353 Z M153.704,26.766 L150.77,36 L148.988,36 C148.783999,36 148.643,35.8680013 148.565,35.604 L146.909,30.267 C146.855,30.0869991 146.8055,29.9085009 146.7605,29.7315 C146.7155,29.5544991 146.678,29.3760009 146.648,29.196 C146.612,29.3760009 146.5715,29.5574991 146.5265,29.7405 C146.4815,29.9235009 146.432,30.1049991 146.378,30.285 L144.695,35.604 C144.623,35.8680013 144.464001,36 144.218,36 L142.508,36 L139.583,26.766 L141.356,26.766 C141.518001,26.766 141.655999,26.8049996 141.77,26.883 C141.884001,26.9610004 141.959,27.0599994 141.995,27.18 L143.318,32.112 C143.384,32.3820014 143.4425,32.6459987 143.4935,32.904 C143.5445,33.1620013 143.588,33.4199987 143.624,33.678 C143.69,33.4199987 143.7605,33.1620013 143.8355,32.904 C143.9105,32.6459987 143.99,32.3820014 144.074,32.112 L145.604,27.162 C145.64,27.0419994 145.710499,26.9430004 145.8155,26.865 C145.920501,26.7869996 146.047999,26.748 146.198,26.748 L147.179,26.748 C147.335001,26.748 147.468499,26.7869996 147.5795,26.865 C147.690501,26.9430004 147.764,27.0419994 147.8,27.162 L149.285,32.112 C149.363,32.3820014 149.4365,32.6474987 149.5055,32.9085 C149.5745,33.1695013 149.642,33.4289987 149.708,33.687 C149.786,33.1769975 149.896999,32.6520027 150.041,32.112 L151.4,27.18 C151.442,27.0599994 151.516999,26.9610004 151.625,26.883 C151.733001,26.8049996 151.861999,26.766 152.012,26.766 L153.704,26.766 Z M157.268,26.766 L157.268,36 L155.036,36 L155.036,26.766 L157.268,26.766 Z M157.574,24.075 C157.574,24.267001 157.535,24.4469992 157.457,24.615 C157.379,24.7830008 157.275501,24.9299994 157.1465,25.056 C157.017499,25.1820006 156.866001,25.2824996 156.692,25.3575 C156.517999,25.4325004 156.332001,25.47 156.134,25.47 C155.941999,25.47 155.760501,25.4325004 155.5895,25.3575 C155.418499,25.2824996 155.270001,25.1820006 155.144,25.056 C155.017999,24.9299994 154.9175,24.7830008 154.8425,24.615 C154.7675,24.4469992 154.73,24.267001 154.73,24.075 C154.73,23.876999 154.7675,23.6910009 154.8425,23.517 C154.9175,23.3429991 155.017999,23.1930006 155.144,23.067 C155.270001,22.9409994 155.418499,22.8405004 155.5895,22.7655 C155.760501,22.6904996 155.941999,22.653 156.134,22.653 C156.332001,22.653 156.517999,22.6904996 156.692,22.7655 C156.866001,22.8405004 157.017499,22.9409994 157.1465,23.067 C157.275501,23.1930006 157.379,23.3429991 157.457,23.517 C157.535,23.6910009 157.574,23.876999 157.574,24.075 Z M168.383,28.431 L168.383,33.435 C168.383,33.7230014 168.454999,33.9479992 168.599,34.11 C168.743001,34.2720008 168.934999,34.353 169.175,34.353 C169.313001,34.353 169.4285,34.3365002 169.5215,34.3035 C169.6145,34.2704998 169.6955,34.2360002 169.7645,34.2 C169.8335,34.1639998 169.895,34.1295002 169.949,34.0965 C170.003,34.0634998 170.057,34.047 170.111,34.047 C170.177,34.047 170.231,34.0634998 170.273,34.0965 C170.315,34.1295002 170.36,34.1789997 170.408,34.245 L171.074,35.325 C170.749998,35.5950014 170.379502,35.7989993 169.9625,35.937 C169.545498,36.0750007 169.112002,36.144 168.662,36.144 C167.857996,36.144 167.240002,35.9175023 166.808,35.4645 C166.375998,35.0114977 166.16,34.386004 166.16,33.588 L166.16,28.431 L162.407,28.431 L162.407,36 L160.184,36 L160.184,28.44 L159.383,28.314 C159.208999,28.2779998 159.069501,28.2165004 158.9645,28.1295 C158.859499,28.0424996 158.807,27.9180008 158.807,27.756 L158.807,26.847 L160.184,26.847 L160.184,26.163 C160.184,25.6349974 160.263499,25.1610021 160.4225,24.741 C160.581501,24.3209979 160.809499,23.9640015 161.1065,23.67 C161.403501,23.3759985 161.764998,23.1510008 162.191,22.995 C162.617002,22.8389992 163.096997,22.761 163.631,22.761 C164.057002,22.761 164.452998,22.8179994 164.819,22.932 L164.774,24.048 C164.768,24.1320004 164.744,24.1994997 164.702,24.2505 C164.66,24.3015003 164.6045,24.3404999 164.5355,24.3675 C164.4665,24.3945001 164.387,24.4125 164.297,24.4215 C164.207,24.4305 164.111001,24.435 164.009,24.435 C163.744999,24.435 163.509501,24.4634997 163.3025,24.5205 C163.095499,24.5775003 162.920001,24.6764993 162.776,24.8175 C162.631999,24.9585007 162.5225,25.1444988 162.4475,25.3755 C162.3725,25.6065012 162.335,25.8929983 162.335,26.235 L162.335,26.847 L166.259,26.847 L166.736,24.318 C166.766,24.1979994 166.823,24.1050003 166.907,24.039 C166.991,23.9729997 167.098999,23.94 167.231,23.94 L168.383,23.94 L168.383,26.847 L170.849,26.847 L170.849,28.431 L168.383,28.431 Z" id="Swift" fill="#FFFFFF"></path>
                <rect id="Rectangle-3-Copy-2" fill="#FFC01E" x="210" y="5" width="90" height="45"></rect>
                <path d="M231.69,26.529 C232.134002,26.529 232.520998,26.4735006 232.851,26.3625 C233.181002,26.2514994 233.455499,26.092501 233.6745,25.8855 C233.893501,25.678499 234.056999,25.4265015 234.165,25.1295 C234.273001,24.8324985 234.327,24.5010018 234.327,24.135 C234.327,23.7869983 234.273001,23.4720014 234.165,23.19 C234.056999,22.9079986 233.895001,22.668001 233.679,22.47 C233.462999,22.271999 233.190002,22.1205005 232.86,22.0155 C232.529998,21.9104995 232.140002,21.858 231.69,21.858 L229.881,21.858 L229.881,26.529 L231.69,26.529 Z M231.69,19.986 C232.560004,19.986 233.312997,20.087999 233.949,20.292 C234.585003,20.496001 235.109998,20.7809982 235.524,21.147 C235.938002,21.5130018 236.245499,21.9509974 236.4465,22.461 C236.647501,22.9710025 236.748,23.528997 236.748,24.135 C236.748,24.7650031 236.643001,25.3424974 236.433,25.8675 C236.222999,26.3925026 235.908002,26.8439981 235.488,27.222 C235.067998,27.6000019 234.541503,27.8939989 233.9085,28.104 C233.275497,28.314001 232.536004,28.419 231.69,28.419 L229.881,28.419 L229.881,33 L227.46,33 L227.46,19.986 L231.69,19.986 Z M246.639,23.766 L241.608,35.538 C241.542,35.6940008 241.456501,35.8124996 241.3515,35.8935 C241.246499,35.9745004 241.086001,36.015 240.87,36.015 L239.214,36.015 L240.942,32.307 L237.207,23.766 L239.16,23.766 C239.334001,23.766 239.4705,23.8079996 239.5695,23.892 C239.6685,23.9760004 239.742,24.0719995 239.79,24.18 L241.752,28.968 C241.818,29.1300008 241.8735,29.2919992 241.9185,29.454 C241.9635,29.6160008 242.007,29.7809992 242.049,29.949 C242.103,29.7809992 242.157,29.6145008 242.211,29.4495 C242.265,29.2844992 242.325,29.1210008 242.391,28.959 L244.245,24.18 C244.293,24.0599994 244.372499,23.9610004 244.4835,23.883 C244.594501,23.8049996 244.718999,23.766 244.857,23.766 L246.639,23.766 Z M250.824,33.144 C250.019996,33.144 249.403502,32.9175023 248.9745,32.4645 C248.545498,32.0114977 248.331,31.386004 248.331,30.588 L248.331,25.431 L247.386,25.431 C247.265999,25.431 247.164,25.3920004 247.08,25.314 C246.996,25.2359996 246.954,25.1190008 246.954,24.963 L246.954,24.081 L248.439,23.838 L248.907,21.318 C248.937,21.1979994 248.994,21.1050003 249.078,21.039 C249.162,20.9729997 249.269999,20.94 249.402,20.94 L250.554,20.94 L250.554,23.847 L253.02,23.847 L253.02,25.431 L250.554,25.431 L250.554,30.435 C250.554,30.7230014 250.624499,30.9479992 250.7655,31.11 C250.906501,31.2720008 251.099999,31.353 251.346,31.353 C251.484001,31.353 251.5995,31.3365002 251.6925,31.3035 C251.7855,31.2704998 251.8665,31.2360002 251.9355,31.2 C252.0045,31.1639998 252.066,31.1295002 252.12,31.0965 C252.174,31.0634998 252.228,31.047 252.282,31.047 C252.348,31.047 252.402,31.0634998 252.444,31.0965 C252.486,31.1295002 252.531,31.1789997 252.579,31.245 L253.245,32.325 C252.920998,32.5950013 252.549002,32.7989993 252.129,32.937 C251.708998,33.0750007 251.274002,33.144 250.824,33.144 Z M256.665,24.756 C257.025002,24.4199983 257.420998,24.147001 257.853,23.937 C258.285002,23.7269989 258.791997,23.622 259.374,23.622 C259.878003,23.622 260.324998,23.7074991 260.715,23.8785 C261.105002,24.0495009 261.430499,24.2894985 261.6915,24.5985 C261.952501,24.9075015 262.150499,25.2764979 262.2855,25.7055 C262.420501,26.1345021 262.488,26.6069974 262.488,27.123 L262.488,33 L260.265,33 L260.265,27.123 C260.265,26.5589972 260.136001,26.1225015 259.878,25.8135 C259.619999,25.5044985 259.227003,25.35 258.699,25.35 C258.314998,25.35 257.955002,25.4369991 257.619,25.611 C257.282998,25.7850009 256.965002,26.0219985 256.665,26.322 L256.665,33 L254.442,33 L254.442,19.626 L256.665,19.626 L256.665,24.756 Z M268.68,23.622 C269.364003,23.622 269.986497,23.7329989 270.5475,23.955 C271.108503,24.1770011 271.588498,24.491998 271.9875,24.9 C272.386502,25.308002 272.693999,25.8059971 272.91,26.394 C273.126001,26.9820029 273.234,27.6389964 273.234,28.365 C273.234,29.0970037 273.126001,29.7569971 272.91,30.345 C272.693999,30.9330029 272.386502,31.4339979 271.9875,31.848 C271.588498,32.2620021 271.108503,32.5799989 270.5475,32.802 C269.986497,33.0240011 269.364003,33.135 268.68,33.135 C267.989997,33.135 267.363003,33.0240011 266.799,32.802 C266.234997,32.5799989 265.753502,32.2620021 265.3545,31.848 C264.955498,31.4339979 264.646501,30.9330029 264.4275,30.345 C264.208499,29.7569971 264.099,29.0970037 264.099,28.365 C264.099,27.6389964 264.208499,26.9820029 264.4275,26.394 C264.646501,25.8059971 264.955498,25.308002 265.3545,24.9 C265.753502,24.491998 266.234997,24.1770011 266.799,23.955 C267.363003,23.7329989 267.989997,23.622 268.68,23.622 Z M268.68,31.425 C269.448004,31.425 270.016498,31.1670026 270.3855,30.651 C270.754502,30.1349974 270.939,29.379005 270.939,28.383 C270.939,27.386995 270.754502,26.6280026 270.3855,26.106 C270.016498,25.5839974 269.448004,25.323 268.68,25.323 C267.899996,25.323 267.322502,25.5854974 266.9475,26.1105 C266.572498,26.6355026 266.385,27.392995 266.385,28.383 C266.385,29.3730049 266.572498,30.1274974 266.9475,30.6465 C267.322502,31.1655026 267.899996,31.425 268.68,31.425 Z M277.014,24.9 C277.200001,24.7139991 277.396499,24.5415008 277.6035,24.3825 C277.810501,24.2234992 278.029499,24.0885006 278.2605,23.9775 C278.491501,23.8664994 278.738999,23.7795003 279.003,23.7165 C279.267001,23.6534997 279.554998,23.622 279.867,23.622 C280.371003,23.622 280.817998,23.7074991 281.208,23.8785 C281.598002,24.0495009 281.923499,24.2894985 282.1845,24.5985 C282.445501,24.9075015 282.643499,25.2764979 282.7785,25.7055 C282.913501,26.1345021 282.981,26.6069974 282.981,27.123 L282.981,33 L280.758,33 L280.758,27.123 C280.758,26.5589972 280.629001,26.1225015 280.371,25.8135 C280.112999,25.5044985 279.720003,25.35 279.192,25.35 C278.807998,25.35 278.448002,25.4369991 278.112,25.611 C277.775998,25.7850009 277.458002,26.0219985 277.158,26.322 L277.158,33 L274.935,33 L274.935,23.766 L276.294,23.766 C276.582001,23.766 276.771,23.9009986 276.861,24.171 L277.014,24.9 Z" id="Python" fill="#FFFFFF"></path>
                <rect id="Rectangle-3-Copy-2" fill-opacity="0.730949955" fill="#FD2796" x="210" y="62" width="90" height="45"></rect>
                <path d="M242.553,79.353 C242.481,79.4790006 242.4045,79.5704997 242.3235,79.6275 C242.2425,79.6845003 242.142001,79.713 242.022,79.713 C241.895999,79.713 241.759501,79.6665005 241.6125,79.5735 C241.465499,79.4804995 241.290001,79.3770006 241.086,79.263 C240.881999,79.1489994 240.643501,79.0455005 240.3705,78.9525 C240.097499,78.8594995 239.775002,78.813 239.403,78.813 C239.066998,78.813 238.773001,78.8534996 238.521,78.9345 C238.268999,79.0155004 238.057501,79.1279993 237.8865,79.272 C237.715499,79.4160007 237.588,79.588499 237.504,79.7895 C237.42,79.990501 237.378,80.2109988 237.378,80.451 C237.378,80.7570015 237.463499,81.011999 237.6345,81.216 C237.805501,81.420001 238.031999,81.5939993 238.314,81.738 C238.596001,81.8820007 238.916998,82.0109994 239.277,82.125 C239.637002,82.2390006 240.005998,82.3604994 240.384,82.4895 C240.762002,82.6185006 241.130998,82.7684991 241.491,82.9395 C241.851002,83.1105009 242.171999,83.3264987 242.454,83.5875 C242.736001,83.8485013 242.962499,84.1679981 243.1335,84.546 C243.304501,84.9240019 243.39,85.3829973 243.39,85.923 C243.39,86.5110029 243.289501,87.0614974 243.0885,87.5745 C242.887499,88.0875026 242.593502,88.5344981 242.2065,88.9155 C241.819498,89.2965019 241.347003,89.5964989 240.789,89.8155 C240.230997,90.0345011 239.592004,90.144 238.872,90.144 C238.457998,90.144 238.050002,90.1035004 237.648,90.0225 C237.245998,89.9414996 236.860502,89.8260007 236.4915,89.676 C236.122498,89.5259992 235.776002,89.346001 235.452,89.136 C235.127998,88.9259989 234.840001,88.6920013 234.588,88.434 L235.299,87.273 C235.359,87.1889996 235.437,87.1185003 235.533,87.0615 C235.629,87.0044997 235.730999,86.976 235.839,86.976 C235.989001,86.976 236.150999,87.0374994 236.325,87.1605 C236.499001,87.2835006 236.705999,87.4199992 236.946,87.57 C237.186001,87.7200007 237.466498,87.8564994 237.7875,87.9795 C238.108502,88.1025006 238.493998,88.164 238.944,88.164 C239.634003,88.164 240.167998,88.0005016 240.546,87.6735 C240.924002,87.3464984 241.113,86.8770031 241.113,86.265 C241.113,85.9229983 241.027501,85.6440011 240.8565,85.428 C240.685499,85.2119989 240.459001,85.0305007 240.177,84.8835 C239.894999,84.7364993 239.574002,84.6120005 239.214,84.51 C238.853998,84.4079995 238.488002,84.2970006 238.116,84.177 C237.743998,84.0569994 237.378002,83.9130008 237.018,83.745 C236.657998,83.5769992 236.337001,83.3580013 236.055,83.088 C235.772999,82.8179986 235.546501,82.480502 235.3755,82.0755 C235.204499,81.670498 235.119,81.171003 235.119,80.577 C235.119,80.1029976 235.213499,79.6410022 235.4025,79.191 C235.591501,78.7409977 235.865998,78.3420017 236.226,77.994 C236.586002,77.6459983 237.029997,77.367001 237.558,77.157 C238.086003,76.9469989 238.691997,76.842 239.376,76.842 C240.144004,76.842 240.851997,76.9619988 241.5,77.202 C242.148003,77.4420012 242.699998,77.7779978 243.156,78.21 L242.553,79.353 Z M247.269,76.626 L247.269,90 L245.046,90 L245.046,76.626 L247.269,76.626 Z M254.37,86.058 C253.727997,86.0880001 253.188002,86.1434996 252.75,86.2245 C252.311998,86.3055004 251.961001,86.4089994 251.697,86.535 C251.432999,86.6610006 251.244001,86.8079992 251.13,86.976 C251.015999,87.1440008 250.959,87.326999 250.959,87.525 C250.959,87.9150019 251.074499,88.1939992 251.3055,88.362 C251.536501,88.5300008 251.837998,88.614 252.21,88.614 C252.666002,88.614 253.060498,88.5315008 253.3935,88.3665 C253.726502,88.2014992 254.051998,87.9510017 254.37,87.615 L254.37,86.058 Z M249.276,82.053 C250.338005,81.0809951 251.615993,80.595 253.11,80.595 C253.650003,80.595 254.132998,80.6834991 254.559,80.8605 C254.985002,81.0375009 255.344999,81.2834984 255.639,81.5985 C255.933001,81.9135016 256.156499,82.2899978 256.3095,82.728 C256.462501,83.1660022 256.539,83.6459974 256.539,84.168 L256.539,90 L255.531,90 C255.320999,90 255.159001,89.9685003 255.045,89.9055 C254.930999,89.8424997 254.841,89.715001 254.775,89.523 L254.577,88.857 C254.342999,89.067001 254.115001,89.2514992 253.893,89.4105 C253.670999,89.5695008 253.440001,89.7029995 253.2,89.811 C252.959999,89.9190005 252.703501,90.0014997 252.4305,90.0585 C252.157499,90.1155003 251.856002,90.144 251.526,90.144 C251.135998,90.144 250.776002,90.0915005 250.446,89.9865 C250.115998,89.8814995 249.831001,89.724001 249.591,89.514 C249.350999,89.3039989 249.165001,89.0430016 249.033,88.731 C248.900999,88.4189984 248.835,88.0560021 248.835,87.642 C248.835,87.4079988 248.874,87.1755012 248.952,86.9445 C249.03,86.7134988 249.157499,86.493001 249.3345,86.283 C249.511501,86.0729989 249.740999,85.8750009 250.023,85.689 C250.305001,85.5029991 250.651498,85.3410007 251.0625,85.203 C251.473502,85.0649993 251.951997,84.9525004 252.498,84.8655 C253.044003,84.7784996 253.667996,84.7260001 254.37,84.708 L254.37,84.168 C254.37,83.5499969 254.238001,83.0925015 253.974,82.7955 C253.709999,82.4984985 253.329002,82.35 252.831,82.35 C252.470998,82.35 252.172501,82.3919996 251.9355,82.476 C251.698499,82.5600004 251.490001,82.6544995 251.31,82.7595 C251.129999,82.8645005 250.966501,82.9589996 250.8195,83.043 C250.672499,83.1270004 250.509001,83.169 250.329,83.169 C250.172999,83.169 250.041001,83.1285004 249.933,83.0475 C249.824999,82.9664996 249.738,82.8720005 249.672,82.764 L249.276,82.053 Z M265.242,82.719 C265.176,82.8030004 265.1115,82.8689998 265.0485,82.917 C264.9855,82.9650002 264.894001,82.989 264.774,82.989 C264.659999,82.989 264.549001,82.9545003 264.441,82.8855 C264.332999,82.8164997 264.204001,82.7385004 264.054,82.6515 C263.903999,82.5644996 263.725501,82.4865003 263.5185,82.4175 C263.311499,82.3484997 263.055002,82.314 262.749,82.314 C262.358998,82.314 262.017001,82.3844993 261.723,82.5255 C261.428999,82.6665007 261.184501,82.8689987 260.9895,83.133 C260.794499,83.3970013 260.649,83.7164981 260.553,84.0915 C260.457,84.4665019 260.409,84.8909976 260.409,85.365 C260.409,85.8570025 260.461499,86.2949981 260.5665,86.679 C260.671501,87.0630019 260.822999,87.3854987 261.021,87.6465 C261.219001,87.9075013 261.458999,88.1054993 261.741,88.2405 C262.023001,88.3755007 262.340998,88.443 262.695,88.443 C263.049002,88.443 263.335499,88.3995004 263.5545,88.3125 C263.773501,88.2254996 263.957999,88.1295005 264.108,88.0245 C264.258001,87.9194995 264.388499,87.8235004 264.4995,87.7365 C264.610501,87.6494996 264.734999,87.606 264.873,87.606 C265.053001,87.606 265.188,87.6749993 265.278,87.813 L265.917,88.623 C265.670999,88.9110014 265.404001,89.152499 265.116,89.3475 C264.827999,89.542501 264.529502,89.6984994 264.2205,89.8155 C263.911498,89.9325006 263.593502,90.0149998 263.2665,90.063 C262.939498,90.1110002 262.614002,90.135 262.29,90.135 C261.719997,90.135 261.183003,90.0285011 260.679,89.8155 C260.174997,89.6024989 259.734002,89.292002 259.356,88.884 C258.977998,88.475998 258.679501,87.976503 258.4605,87.3855 C258.241499,86.794497 258.132,86.1210038 258.132,85.365 C258.132,84.6869966 258.229499,84.0585029 258.4245,83.4795 C258.619501,82.9004971 258.905998,82.3995021 259.284,81.9765 C259.662002,81.5534979 260.129997,81.2220012 260.688,80.982 C261.246003,80.7419988 261.887996,80.622 262.614,80.622 C263.304003,80.622 263.908497,80.7329989 264.4275,80.955 C264.946503,81.1770011 265.412998,81.4949979 265.827,81.909 L265.242,82.719 Z M269.526,76.626 L269.526,84.285 L269.94,84.285 C270.090001,84.285 270.2085,84.2655002 270.2955,84.2265 C270.3825,84.1874998 270.471,84.1080006 270.561,83.988 L272.856,81.153 C272.952,81.0269994 273.058499,80.9310003 273.1755,80.865 C273.292501,80.7989997 273.443999,80.766 273.63,80.766 L275.664,80.766 L272.793,84.195 C272.588999,84.4650013 272.367001,84.6719993 272.127,84.816 C272.253001,84.9060004 272.3655,85.0109994 272.4645,85.131 C272.5635,85.2510006 272.658,85.3799993 272.748,85.518 L275.826,90 L273.819,90 C273.644999,90 273.495001,89.9715003 273.369,89.9145 C273.242999,89.8574997 273.138,89.7540007 273.054,89.604 L270.696,86.103 C270.612,85.9649993 270.525,85.8750002 270.435,85.833 C270.345,85.7909998 270.210001,85.77 270.03,85.77 L269.526,85.77 L269.526,90 L267.303,90 L267.303,76.626 L269.526,76.626 Z" id="Slack" fill="#FFFFFF"></path>
                <rect id="Rectangle-3-Copy-2" fill="#5AAAFA" x="0" y="120" width="106" height="45"></rect>
                <path d="M27.4135,144.931 C27.5455007,144.931 27.6624995,144.981999 27.7645,145.084 L28.7185,146.119 C28.1904974,146.773003 27.5410039,147.273998 26.77,147.622 C25.9989961,147.970002 25.0735054,148.144 23.9935,148.144 C23.0274952,148.144 22.1590039,147.979002 21.388,147.649 C20.6169961,147.318998 19.9585027,146.860003 19.4125,146.272 C18.8664973,145.683997 18.4480015,144.982004 18.157,144.166 C17.8659985,143.349996 17.7205,142.459005 17.7205,141.493 C17.7205,140.514995 17.8764984,139.619504 18.1885,138.8065 C18.5005016,137.993496 18.9399972,137.293003 19.507,136.705 C20.0740028,136.116997 20.7504961,135.659502 21.5365,135.3325 C22.3225039,135.005498 23.1924952,134.842 24.1465,134.842 C25.0945047,134.842 25.9359963,134.997998 26.671,135.31 C27.4060037,135.622002 28.0314974,136.029997 28.5475,136.534 L27.7375,137.659 C27.6894998,137.731 27.6280004,137.794 27.553,137.848 C27.4779996,137.902 27.3745007,137.929 27.2425,137.929 C27.1524995,137.929 27.0595005,137.9035 26.9635,137.8525 C26.8674995,137.8015 26.7625006,137.7385 26.6485,137.6635 C26.5344994,137.5885 26.4025007,137.506 26.2525,137.416 C26.1024992,137.326 25.928501,137.2435 25.7305,137.1685 C25.532499,137.0935 25.3030013,137.0305 25.042,136.9795 C24.7809987,136.9285 24.4795017,136.903 24.1375,136.903 C23.5554971,136.903 23.0230024,137.006499 22.54,137.2135 C22.0569976,137.420501 21.6415017,137.720498 21.2935,138.1135 C20.9454983,138.506502 20.675501,138.986497 20.4835,139.5535 C20.291499,140.120503 20.1955,140.766996 20.1955,141.493 C20.1955,142.225004 20.298999,142.875997 20.506,143.446 C20.713001,144.016003 20.9934982,144.495998 21.3475,144.886 C21.7015018,145.276002 22.1184976,145.574499 22.5985,145.7815 C23.0785024,145.988501 23.5944972,146.092 24.1465,146.092 C24.4765016,146.092 24.7749987,146.074 25.042,146.038 C25.3090013,146.002 25.5549989,145.945 25.78,145.867 C26.0050011,145.789 26.217999,145.688501 26.419,145.5655 C26.620001,145.442499 26.819499,145.291001 27.0175,145.111 C27.0775003,145.057 27.1404997,145.0135 27.2065,144.9805 C27.2725003,144.9475 27.3414996,144.931 27.4135,144.931 Z M32.2825,134.626 L32.2825,148 L30.0595,148 L30.0595,134.626 L32.2825,134.626 Z M38.5915,138.622 C39.2755034,138.622 39.8979972,138.732999 40.459,138.955 C41.0200028,139.177001 41.499998,139.491998 41.899,139.9 C42.298002,140.308002 42.6054989,140.805997 42.8215,141.394 C43.0375011,141.982003 43.1455,142.638996 43.1455,143.365 C43.1455,144.097004 43.0375011,144.756997 42.8215,145.345 C42.6054989,145.933003 42.298002,146.433998 41.899,146.848 C41.499998,147.262002 41.0200028,147.579999 40.459,147.802 C39.8979972,148.024001 39.2755034,148.135 38.5915,148.135 C37.9014965,148.135 37.2745028,148.024001 36.7105,147.802 C36.1464972,147.579999 35.665002,147.262002 35.266,146.848 C34.866998,146.433998 34.5580011,145.933003 34.339,145.345 C34.1199989,144.756997 34.0105,144.097004 34.0105,143.365 C34.0105,142.638996 34.1199989,141.982003 34.339,141.394 C34.5580011,140.805997 34.866998,140.308002 35.266,139.9 C35.665002,139.491998 36.1464972,139.177001 36.7105,138.955 C37.2745028,138.732999 37.9014965,138.622 38.5915,138.622 Z M38.5915,146.425 C39.3595038,146.425 39.9279982,146.167003 40.297,145.651 C40.6660018,145.134997 40.8505,144.379005 40.8505,143.383 C40.8505,142.386995 40.6660018,141.628003 40.297,141.106 C39.9279982,140.583997 39.3595038,140.323 38.5915,140.323 C37.8114961,140.323 37.2340019,140.585497 36.859,141.1105 C36.4839981,141.635503 36.2965,142.392995 36.2965,143.383 C36.2965,144.373005 36.4839981,145.127497 36.859,145.6465 C37.2340019,146.165503 37.8114961,146.425 38.5915,146.425 Z M52.8025,138.766 L52.8025,148 L51.4435,148 C51.1494985,148 50.9635004,147.865001 50.8855,147.595 L50.7325,146.857 C50.3544981,147.241002 49.9375023,147.551499 49.4815,147.7885 C49.0254977,148.025501 48.4885031,148.144 47.8705,148.144 C47.3664975,148.144 46.9210019,148.058501 46.534,147.8875 C46.1469981,147.716499 45.8215013,147.475002 45.5575,147.163 C45.2934987,146.850998 45.0940007,146.480502 44.959,146.0515 C44.8239993,145.622498 44.7565,145.150003 44.7565,144.634 L44.7565,138.766 L46.9795,138.766 L46.9795,144.634 C46.9795,145.198003 47.1099987,145.634498 47.371,145.9435 C47.6320013,146.252502 48.0234974,146.407 48.5455,146.407 C48.9295019,146.407 49.2894983,146.321501 49.6255,146.1505 C49.9615017,145.979499 50.2794985,145.744001 50.5795,145.444 L50.5795,138.766 L52.8025,138.766 Z M60.7945,141.124 C60.5424987,140.817998 60.2680015,140.602001 59.971,140.476 C59.6739985,140.349999 59.3545017,140.287 59.0125,140.287 C58.6764983,140.287 58.3735013,140.349999 58.1035,140.476 C57.8334986,140.602001 57.602501,140.792499 57.4105,141.0475 C57.218499,141.302501 57.0715005,141.626498 56.9695,142.0195 C56.8674995,142.412502 56.8165,142.875997 56.8165,143.41 C56.8165,143.950003 56.8599996,144.407498 56.947,144.7825 C57.0340004,145.157502 57.1584992,145.463499 57.3205,145.7005 C57.4825008,145.937501 57.6804988,146.108499 57.9145,146.2135 C58.1485012,146.318501 58.4094986,146.371 58.6975,146.371 C59.1595023,146.371 59.5524984,146.275001 59.8765,146.083 C60.2005016,145.890999 60.5064986,145.618002 60.7945,145.264 L60.7945,141.124 Z M63.0175,134.626 L63.0175,148 L61.6585,148 C61.3644985,148 61.1785004,147.865001 61.1005,147.595 L60.9115,146.704 C60.5394981,147.130002 60.1120024,147.474999 59.629,147.739 C59.1459976,148.003001 58.5835032,148.135 57.9415,148.135 C57.4374975,148.135 56.9755021,148.030001 56.5555,147.82 C56.1354979,147.609999 55.7740015,147.305502 55.471,146.9065 C55.1679985,146.507498 54.9340008,146.014003 54.769,145.426 C54.6039992,144.837997 54.5215,144.166004 54.5215,143.41 C54.5215,142.725997 54.6144991,142.090003 54.8005,141.502 C54.9865009,140.913997 55.2534983,140.404002 55.6015,139.972 C55.9495017,139.539998 56.3664976,139.202501 56.8525,138.9595 C57.3385024,138.716499 57.884497,138.595 58.4905,138.595 C59.0065026,138.595 59.4474982,138.675999 59.8135,138.838 C60.1795018,139.000001 60.5064986,139.218999 60.7945,139.495 L60.7945,134.626 L63.0175,134.626 Z M70.0915,144.058 C69.4494968,144.088 68.9095022,144.1435 68.4715,144.2245 C68.0334978,144.3055 67.6825013,144.408999 67.4185,144.535 C67.1544987,144.661001 66.9655006,144.807999 66.8515,144.976 C66.7374994,145.144001 66.6805,145.326999 66.6805,145.525 C66.6805,145.915002 66.7959988,146.193999 67.027,146.362 C67.2580012,146.530001 67.5594981,146.614 67.9315,146.614 C68.3875023,146.614 68.7819983,146.531501 69.115,146.3665 C69.4480017,146.201499 69.7734984,145.951002 70.0915,145.615 L70.0915,144.058 Z M64.9975,140.053 C66.0595053,139.080995 67.3374925,138.595 68.8315,138.595 C69.3715027,138.595 69.8544979,138.683499 70.2805,138.8605 C70.7065021,139.037501 71.0664985,139.283498 71.3605,139.5985 C71.6545015,139.913502 71.8779992,140.289998 72.031,140.728 C72.1840008,141.166002 72.2605,141.645997 72.2605,142.168 L72.2605,148 L71.2525,148 C71.0424989,148 70.8805006,147.9685 70.7665,147.9055 C70.6524994,147.8425 70.5625003,147.715001 70.4965,147.523 L70.2985,146.857 C70.0644988,147.067001 69.8365011,147.251499 69.6145,147.4105 C69.3924989,147.569501 69.1615012,147.702999 68.9215,147.811 C68.6814988,147.919001 68.4250014,148.0015 68.152,148.0585 C67.8789986,148.1155 67.5775016,148.144 67.2475,148.144 C66.857498,148.144 66.4975016,148.091501 66.1675,147.9865 C65.8374983,147.881499 65.5525012,147.724001 65.3125,147.514 C65.0724988,147.303999 64.8865007,147.043002 64.7545,146.731 C64.6224993,146.418998 64.5565,146.056002 64.5565,145.642 C64.5565,145.407999 64.5954996,145.175501 64.6735,144.9445 C64.7515004,144.713499 64.8789991,144.493001 65.056,144.283 C65.2330009,144.072999 65.4624986,143.875001 65.7445,143.689 C66.0265014,143.502999 66.3729979,143.341001 66.784,143.203 C67.1950021,143.064999 67.6734973,142.9525 68.2195,142.8655 C68.7655027,142.7785 69.3894965,142.726 70.0915,142.708 L70.0915,142.168 C70.0915,141.549997 69.9595013,141.092501 69.6955,140.7955 C69.4314987,140.498499 69.0505025,140.35 68.5525,140.35 C68.1924982,140.35 67.8940012,140.392 67.657,140.476 C67.4199988,140.56 67.2115009,140.654499 67.0315,140.7595 C66.8514991,140.864501 66.6880007,140.959 66.541,141.043 C66.3939993,141.127 66.2305009,141.169 66.0505,141.169 C65.8944992,141.169 65.7625005,141.1285 65.6545,141.0475 C65.5464995,140.9665 65.4595003,140.872001 65.3935,140.764 L64.9975,140.053 Z M76.4275,139.9 C76.6135009,139.713999 76.809999,139.541501 77.017,139.3825 C77.224001,139.223499 77.4429988,139.088501 77.674,138.9775 C77.9050012,138.866499 78.1524987,138.7795 78.4165,138.7165 C78.6805013,138.6535 78.9684984,138.622 79.2805,138.622 C79.7845025,138.622 80.231498,138.707499 80.6215,138.8785 C81.0115019,139.049501 81.3369987,139.289498 81.598,139.5985 C81.8590013,139.907502 82.0569993,140.276498 82.192,140.7055 C82.3270007,141.134502 82.3945,141.606997 82.3945,142.123 L82.3945,148 L80.1715,148 L80.1715,142.123 C80.1715,141.558997 80.0425013,141.122502 79.7845,140.8135 C79.5264987,140.504498 79.1335026,140.35 78.6055,140.35 C78.2214981,140.35 77.8615017,140.436999 77.5255,140.611 C77.1894983,140.785001 76.8715015,141.021998 76.5715,141.322 L76.5715,148 L74.3485,148 L74.3485,138.766 L75.7075,138.766 C75.9955014,138.766 76.1844995,138.900999 76.2745,139.171 L76.4275,139.9 Z M87.4525,148.144 C86.648496,148.144 86.0320021,147.917502 85.603,147.4645 C85.1739979,147.011498 84.9595,146.386004 84.9595,145.588 L84.9595,140.431 L84.0145,140.431 C83.8944994,140.431 83.7925004,140.392 83.7085,140.314 C83.6244996,140.236 83.5825,140.119001 83.5825,139.963 L83.5825,139.081 L85.0675,138.838 L85.5355,136.318 C85.5655001,136.197999 85.6224996,136.105 85.7065,136.039 C85.7905004,135.973 85.8984993,135.94 86.0305,135.94 L87.1825,135.94 L87.1825,138.847 L89.6485,138.847 L89.6485,140.431 L87.1825,140.431 L87.1825,145.435 C87.1825,145.723001 87.2529993,145.947999 87.394,146.11 C87.5350007,146.272001 87.7284988,146.353 87.9745,146.353 C88.1125007,146.353 88.2279995,146.3365 88.321,146.3035 C88.4140005,146.2705 88.4949997,146.236 88.564,146.2 C88.6330003,146.164 88.6944997,146.1295 88.7485,146.0965 C88.8025003,146.0635 88.8564997,146.047 88.9105,146.047 C88.9765003,146.047 89.0304998,146.0635 89.0725,146.0965 C89.1145002,146.1295 89.1594998,146.179 89.2075,146.245 L89.8735,147.325 C89.5494984,147.595001 89.1775021,147.798999 88.7575,147.937 C88.3374979,148.075001 87.9025022,148.144 87.4525,148.144 Z" id="Cloudant" fill="#FFFFFF"></path>
                <rect id="Rectangle-3-Copy-2" fill="#E12C2C" x="119" y="120" width="90" height="45"></rect>
                <path d="M137.306,142.96 L137.306,148 L134.894,148 L134.894,142.96 L130.151,134.986 L132.284,134.986 C132.494001,134.986 132.660499,135.036999 132.7835,135.139 C132.906501,135.241001 133.01,135.369999 133.094,135.526 L135.47,139.873 C135.608001,140.131001 135.729499,140.373999 135.8345,140.602 C135.939501,140.830001 136.034,141.057999 136.118,141.286 C136.196,141.057999 136.285999,140.830001 136.388,140.602 C136.490001,140.373999 136.606999,140.131001 136.739,139.873 L139.106,135.526 C139.172,135.393999 139.270999,135.271001 139.403,135.157 C139.535001,135.042999 139.702999,134.986 139.907,134.986 L142.049,134.986 L137.306,142.96 Z M145.082,138.622 C145.766003,138.622 146.388497,138.732999 146.9495,138.955 C147.510503,139.177001 147.990498,139.491998 148.3895,139.9 C148.788502,140.308002 149.095999,140.805997 149.312,141.394 C149.528001,141.982003 149.636,142.638996 149.636,143.365 C149.636,144.097004 149.528001,144.756997 149.312,145.345 C149.095999,145.933003 148.788502,146.433998 148.3895,146.848 C147.990498,147.262002 147.510503,147.579999 146.9495,147.802 C146.388497,148.024001 145.766003,148.135 145.082,148.135 C144.391997,148.135 143.765003,148.024001 143.201,147.802 C142.636997,147.579999 142.155502,147.262002 141.7565,146.848 C141.357498,146.433998 141.048501,145.933003 140.8295,145.345 C140.610499,144.756997 140.501,144.097004 140.501,143.365 C140.501,142.638996 140.610499,141.982003 140.8295,141.394 C141.048501,140.805997 141.357498,140.308002 141.7565,139.9 C142.155502,139.491998 142.636997,139.177001 143.201,138.955 C143.765003,138.732999 144.391997,138.622 145.082,138.622 Z M145.082,146.425 C145.850004,146.425 146.418498,146.167003 146.7875,145.651 C147.156502,145.134997 147.341,144.379005 147.341,143.383 C147.341,142.386995 147.156502,141.628003 146.7875,141.106 C146.418498,140.583997 145.850004,140.323 145.082,140.323 C144.301996,140.323 143.724502,140.585497 143.3495,141.1105 C142.974498,141.635503 142.787,142.392995 142.787,143.383 C142.787,144.373005 142.974498,145.127497 143.3495,145.6465 C143.724502,146.165503 144.301996,146.425 145.082,146.425 Z M159.293,138.766 L159.293,148 L157.934,148 C157.639999,148 157.454,147.865001 157.376,147.595 L157.223,146.857 C156.844998,147.241002 156.428002,147.551499 155.972,147.7885 C155.515998,148.025501 154.979003,148.144 154.361,148.144 C153.856997,148.144 153.411502,148.058501 153.0245,147.8875 C152.637498,147.716499 152.312001,147.475002 152.048,147.163 C151.783999,146.850998 151.584501,146.480502 151.4495,146.0515 C151.314499,145.622498 151.247,145.150003 151.247,144.634 L151.247,138.766 L153.47,138.766 L153.47,144.634 C153.47,145.198003 153.600499,145.634498 153.8615,145.9435 C154.122501,146.252502 154.513997,146.407 155.036,146.407 C155.420002,146.407 155.779998,146.321501 156.116,146.1505 C156.452002,145.979499 156.769998,145.744001 157.07,145.444 L157.07,138.766 L159.293,138.766 Z M169.166,136.975 L165.242,136.975 L165.242,148 L162.821,148 L162.821,136.975 L158.897,136.975 L158.897,134.986 L169.166,134.986 L169.166,136.975 Z M176.807,138.766 L176.807,148 L175.448,148 C175.153999,148 174.968,147.865001 174.89,147.595 L174.737,146.857 C174.358998,147.241002 173.942002,147.551499 173.486,147.7885 C173.029998,148.025501 172.493003,148.144 171.875,148.144 C171.370997,148.144 170.925502,148.058501 170.5385,147.8875 C170.151498,147.716499 169.826001,147.475002 169.562,147.163 C169.297999,146.850998 169.098501,146.480502 168.9635,146.0515 C168.828499,145.622498 168.761,145.150003 168.761,144.634 L168.761,138.766 L170.984,138.766 L170.984,144.634 C170.984,145.198003 171.114499,145.634498 171.3755,145.9435 C171.636501,146.252502 172.027997,146.407 172.55,146.407 C172.934002,146.407 173.293998,146.321501 173.63,146.1505 C173.966002,145.979499 174.283998,145.744001 174.584,145.444 L174.584,138.766 L176.807,138.766 Z M181.226,145.606 C181.478001,145.912002 181.752499,146.127999 182.0495,146.254 C182.346501,146.380001 182.659998,146.443 182.99,146.443 C183.332002,146.443 183.639499,146.381501 183.9125,146.2585 C184.185501,146.135499 184.417999,145.943501 184.61,145.6825 C184.802001,145.421499 184.948999,145.088502 185.051,144.6835 C185.153001,144.278498 185.204,143.794003 185.204,143.23 C185.204,142.215995 185.036002,141.482502 184.7,141.0295 C184.363998,140.576498 183.881003,140.35 183.251,140.35 C182.824998,140.35 182.453002,140.447499 182.135,140.6425 C181.816998,140.837501 181.514001,141.111998 181.226,141.466 L181.226,145.606 Z M181.226,139.9 C181.598002,139.509998 182.010498,139.199501 182.4635,138.9685 C182.916502,138.737499 183.433997,138.622 184.016,138.622 C184.550003,138.622 185.031498,138.726999 185.4605,138.937 C185.889502,139.147001 186.255498,139.448498 186.5585,139.8415 C186.861502,140.234502 187.093999,140.709997 187.256,141.268 C187.418001,141.826003 187.499,142.452997 187.499,143.149 C187.499,143.899004 187.406001,144.579997 187.22,145.192 C187.033999,145.804003 186.768502,146.327498 186.4235,146.7625 C186.078498,147.197502 185.663002,147.534999 185.177,147.775 C184.690998,148.015001 184.151003,148.135 183.557,148.135 C183.268999,148.135 183.008001,148.1065 182.774,148.0495 C182.539999,147.9925 182.324001,147.913001 182.126,147.811 C181.927999,147.708999 181.746501,147.584501 181.5815,147.4375 C181.416499,147.290499 181.259001,147.127001 181.109,146.947 L181.01,147.568 C180.974,147.724001 180.9125,147.835 180.8255,147.901 C180.7385,147.967 180.620001,148 180.47,148 L179.003,148 L179.003,134.626 L181.226,134.626 L181.226,139.9 Z M195.167,142.321 C195.167,142.032999 195.1265,141.761501 195.0455,141.5065 C194.9645,141.251499 194.843001,141.028001 194.681,140.836 C194.518999,140.643999 194.313501,140.492501 194.0645,140.3815 C193.815499,140.270499 193.526002,140.215 193.196,140.215 C192.553997,140.215 192.048502,140.397998 191.6795,140.764 C191.310498,141.130002 191.075001,141.648997 190.973,142.321 L195.167,142.321 Z M190.928,143.662 C190.964,144.136002 191.047999,144.545498 191.18,144.8905 C191.312001,145.235502 191.485999,145.520499 191.702,145.7455 C191.918001,145.970501 192.174499,146.138499 192.4715,146.2495 C192.768501,146.360501 193.096998,146.416 193.457,146.416 C193.817002,146.416 194.127499,146.374 194.3885,146.29 C194.649501,146.206 194.877499,146.113001 195.0725,146.011 C195.267501,145.908999 195.438499,145.816 195.5855,145.732 C195.732501,145.648 195.874999,145.606 196.013,145.606 C196.199001,145.606 196.337,145.674999 196.427,145.813 L197.066,146.623 C196.819999,146.911001 196.544002,147.152499 196.238,147.3475 C195.931998,147.542501 195.612502,147.698499 195.2795,147.8155 C194.946498,147.932501 194.607502,148.015 194.2625,148.063 C193.917498,148.111 193.583002,148.135 193.259,148.135 C192.616997,148.135 192.020003,148.028501 191.468,147.8155 C190.915997,147.602499 190.436002,147.287502 190.028,146.8705 C189.619998,146.453498 189.299001,145.937503 189.065,145.3225 C188.830999,144.707497 188.714,143.995004 188.714,143.185 C188.714,142.554997 188.815999,141.962503 189.02,141.4075 C189.224001,140.852497 189.516498,140.369502 189.8975,139.9585 C190.278502,139.547498 190.743497,139.222001 191.2925,138.982 C191.841503,138.741999 192.460997,138.622 193.151,138.622 C193.733003,138.622 194.269998,138.714999 194.762,138.901 C195.254002,139.087001 195.676998,139.358498 196.031,139.7155 C196.385002,140.072502 196.662499,140.510497 196.8635,141.0295 C197.064501,141.548503 197.165,142.140997 197.165,142.807 C197.165,143.143002 197.129,143.369499 197.057,143.4865 C196.985,143.603501 196.847001,143.662 196.643,143.662 L190.928,143.662 Z" id="YouTube" fill="#FFFFFF"></path>
                <rect id="Rectangle-3-Copy-4" fill="#FF8888" x="0" y="62" width="90" height="45"></rect>
                <path d="M34.038,85.374 C34.038,86.1060037 33.9480009,86.7659971 33.768,87.354 C33.5879991,87.9420029 33.3195018,88.4429979 32.9625,88.857 C32.6054982,89.2710021 32.1600027,89.5889989 31.626,89.811 C31.0919973,90.0330011 30.4710035,90.144 29.763,90.144 C29.4389984,90.144 29.1210016,90.1245002 28.809,90.0855 C28.4969984,90.0464998 28.1700017,89.9850004 27.828,89.901 C27.8460001,89.6609988 27.8669999,89.4210012 27.891,89.181 C27.9150001,88.9409988 27.9359999,88.7010012 27.954,88.461 C27.9720001,88.3289993 28.0244996,88.2225004 28.1115,88.1415 C28.1985004,88.0604996 28.3229992,88.02 28.485,88.02 C28.5870005,88.02 28.7204992,88.0409998 28.8855,88.083 C29.0505008,88.1250002 29.2589987,88.146 29.511,88.146 C29.8530017,88.146 30.1559987,88.0965005 30.42,87.9975 C30.6840013,87.8984995 30.9044991,87.7410011 31.0815,87.525 C31.2585009,87.3089989 31.3919995,87.0285017 31.482,86.6835 C31.5720004,86.3384983 31.617,85.9200025 31.617,85.428 L31.617,76.986 L34.038,76.986 L34.038,85.374 Z M41.013,86.058 C40.3709968,86.0880001 39.8310022,86.1434996 39.393,86.2245 C38.9549978,86.3055004 38.6040013,86.4089994 38.34,86.535 C38.0759987,86.6610006 37.8870006,86.8079992 37.773,86.976 C37.6589994,87.1440008 37.602,87.326999 37.602,87.525 C37.602,87.9150019 37.7174988,88.1939992 37.9485,88.362 C38.1795012,88.5300008 38.4809981,88.614 38.853,88.614 C39.3090023,88.614 39.7034983,88.5315008 40.0365,88.3665 C40.3695017,88.2014992 40.6949984,87.9510017 41.013,87.615 L41.013,86.058 Z M35.919,82.053 C36.9810053,81.0809951 38.2589925,80.595 39.753,80.595 C40.2930027,80.595 40.7759979,80.6834991 41.202,80.8605 C41.6280021,81.0375009 41.9879985,81.2834984 42.282,81.5985 C42.5760015,81.9135016 42.7994992,82.2899978 42.9525,82.728 C43.1055008,83.1660022 43.182,83.6459974 43.182,84.168 L43.182,90 L42.174,90 C41.9639989,90 41.8020006,89.9685003 41.688,89.9055 C41.5739994,89.8424997 41.4840003,89.715001 41.418,89.523 L41.22,88.857 C40.9859988,89.067001 40.7580011,89.2514992 40.536,89.4105 C40.3139989,89.5695008 40.0830012,89.7029995 39.843,89.811 C39.6029988,89.9190005 39.3465014,90.0014997 39.0735,90.0585 C38.8004986,90.1155003 38.4990016,90.144 38.169,90.144 C37.778998,90.144 37.4190016,90.0915005 37.089,89.9865 C36.7589983,89.8814995 36.4740012,89.724001 36.234,89.514 C35.9939988,89.3039989 35.8080007,89.0430016 35.676,88.731 C35.5439993,88.4189984 35.478,88.0560021 35.478,87.642 C35.478,87.4079988 35.5169996,87.1755012 35.595,86.9445 C35.6730004,86.7134988 35.8004991,86.493001 35.9775,86.283 C36.1545009,86.0729989 36.3839986,85.8750009 36.666,85.689 C36.9480014,85.5029991 37.2944979,85.3410007 37.7055,85.203 C38.1165021,85.0649993 38.5949973,84.9525004 39.141,84.8655 C39.6870027,84.7784996 40.3109965,84.7260001 41.013,84.708 L41.013,84.168 C41.013,83.5499969 40.8810013,83.0925015 40.617,82.7955 C40.3529987,82.4984985 39.9720025,82.35 39.474,82.35 C39.1139982,82.35 38.8155012,82.3919996 38.5785,82.476 C38.3414988,82.5600004 38.1330009,82.6544995 37.953,82.7595 C37.7729991,82.8645005 37.6095007,82.9589996 37.4625,83.043 C37.3154993,83.1270004 37.1520009,83.169 36.972,83.169 C36.8159992,83.169 36.6840005,83.1285004 36.576,83.0475 C36.4679995,82.9664996 36.3810003,82.8720005 36.315,82.764 L35.919,82.053 Z M53.379,80.766 L49.716,90 L47.7,90 L44.037,80.766 L45.873,80.766 C46.0410008,80.766 46.1804994,80.8049996 46.2915,80.883 C46.4025006,80.9610004 46.4759998,81.0599994 46.512,81.18 L48.294,86.112 C48.3900005,86.4000014 48.4739996,86.6819986 48.546,86.958 C48.6180004,87.2340014 48.6809997,87.5099986 48.735,87.786 C48.7950003,87.5099986 48.8609996,87.2340014 48.933,86.958 C49.0050004,86.6819986 49.0919995,86.4000014 49.194,86.112 L51.012,81.18 C51.0540002,81.0599994 51.1289995,80.9610004 51.237,80.883 C51.3450005,80.8049996 51.4739992,80.766 51.624,80.766 L53.379,80.766 Z M59.211,86.058 C58.5689968,86.0880001 58.0290022,86.1434996 57.591,86.2245 C57.1529978,86.3055004 56.8020013,86.4089994 56.538,86.535 C56.2739987,86.6610006 56.0850006,86.8079992 55.971,86.976 C55.8569994,87.1440008 55.8,87.326999 55.8,87.525 C55.8,87.9150019 55.9154988,88.1939992 56.1465,88.362 C56.3775012,88.5300008 56.6789981,88.614 57.051,88.614 C57.5070023,88.614 57.9014983,88.5315008 58.2345,88.3665 C58.5675017,88.2014992 58.8929984,87.9510017 59.211,87.615 L59.211,86.058 Z M54.117,82.053 C55.1790053,81.0809951 56.4569925,80.595 57.951,80.595 C58.4910027,80.595 58.9739979,80.6834991 59.4,80.8605 C59.8260021,81.0375009 60.1859985,81.2834984 60.48,81.5985 C60.7740015,81.9135016 60.9974992,82.2899978 61.1505,82.728 C61.3035008,83.1660022 61.38,83.6459974 61.38,84.168 L61.38,90 L60.372,90 C60.1619989,90 60.0000006,89.9685003 59.886,89.9055 C59.7719994,89.8424997 59.6820003,89.715001 59.616,89.523 L59.418,88.857 C59.1839988,89.067001 58.9560011,89.2514992 58.734,89.4105 C58.5119989,89.5695008 58.2810012,89.7029995 58.041,89.811 C57.8009988,89.9190005 57.5445014,90.0014997 57.2715,90.0585 C56.9984986,90.1155003 56.6970016,90.144 56.367,90.144 C55.976998,90.144 55.6170016,90.0915005 55.287,89.9865 C54.9569983,89.8814995 54.6720012,89.724001 54.432,89.514 C54.1919988,89.3039989 54.0060007,89.0430016 53.874,88.731 C53.7419993,88.4189984 53.676,88.0560021 53.676,87.642 C53.676,87.4079988 53.7149996,87.1755012 53.793,86.9445 C53.8710004,86.7134988 53.9984991,86.493001 54.1755,86.283 C54.3525009,86.0729989 54.5819986,85.8750009 54.864,85.689 C55.1460014,85.5029991 55.4924979,85.3410007 55.9035,85.203 C56.3145021,85.0649993 56.7929973,84.9525004 57.339,84.8655 C57.8850027,84.7784996 58.5089965,84.7260001 59.211,84.708 L59.211,84.168 C59.211,83.5499969 59.0790013,83.0925015 58.815,82.7955 C58.5509987,82.4984985 58.1700025,82.35 57.672,82.35 C57.3119982,82.35 57.0135012,82.3919996 56.7765,82.476 C56.5394988,82.5600004 56.3310009,82.6544995 56.151,82.7595 C55.9709991,82.8645005 55.8075007,82.9589996 55.6605,83.043 C55.5134993,83.1270004 55.3500009,83.169 55.17,83.169 C55.0139992,83.169 54.8820005,83.1285004 54.774,83.0475 C54.6659995,82.9664996 54.5790003,82.8720005 54.513,82.764 L54.117,82.053 Z" id="Java" fill="#FFFFFF"></path>
                <rect id="Rectangle-3-Copy-5" fill="#5BB9FF" x="105" y="62" width="90" height="45"></rect>
                <path d="M134.471,83.493 C134.471,84.4470048 134.312002,85.322996 133.994,86.121 C133.675998,86.919004 133.229003,87.6059971 132.653,88.182 C132.076997,88.7580029 131.384004,89.2049984 130.574,89.523 C129.763996,89.8410016 128.864005,90 127.874,90 L122.915,90 L122.915,76.986 L127.874,76.986 C128.864005,76.986 129.763996,77.1464984 130.574,77.4675 C131.384004,77.7885016 132.076997,78.2354971 132.653,78.8085 C133.229003,79.3815029 133.675998,80.066996 133.994,80.865 C134.312002,81.663004 134.471,82.5389952 134.471,83.493 Z M131.987,83.493 C131.987,82.7789964 131.892501,82.1385028 131.7035,81.5715 C131.514499,81.0044972 131.241502,80.524502 130.8845,80.1315 C130.527498,79.738498 130.095503,79.437001 129.5885,79.227 C129.081497,79.0169989 128.510003,78.912 127.874,78.912 L125.345,78.912 L125.345,88.074 L127.874,88.074 C128.510003,88.074 129.081497,87.969001 129.5885,87.759 C130.095503,87.5489989 130.527498,87.247502 130.8845,86.8545 C131.241502,86.461498 131.514499,85.9815028 131.7035,85.4145 C131.892501,84.8474972 131.987,84.2070036 131.987,83.493 Z M140.222,80.622 C140.906003,80.622 141.528497,80.7329989 142.0895,80.955 C142.650503,81.1770011 143.130498,81.491998 143.5295,81.9 C143.928502,82.308002 144.235999,82.8059971 144.452,83.394 C144.668001,83.9820029 144.776,84.6389964 144.776,85.365 C144.776,86.0970037 144.668001,86.7569971 144.452,87.345 C144.235999,87.9330029 143.928502,88.4339979 143.5295,88.848 C143.130498,89.2620021 142.650503,89.5799989 142.0895,89.802 C141.528497,90.0240011 140.906003,90.135 140.222,90.135 C139.531997,90.135 138.905003,90.0240011 138.341,89.802 C137.776997,89.5799989 137.295502,89.2620021 136.8965,88.848 C136.497498,88.4339979 136.188501,87.9330029 135.9695,87.345 C135.750499,86.7569971 135.641,86.0970037 135.641,85.365 C135.641,84.6389964 135.750499,83.9820029 135.9695,83.394 C136.188501,82.8059971 136.497498,82.308002 136.8965,81.9 C137.295502,81.491998 137.776997,81.1770011 138.341,80.955 C138.905003,80.7329989 139.531997,80.622 140.222,80.622 Z M140.222,88.425 C140.990004,88.425 141.558498,88.1670026 141.9275,87.651 C142.296502,87.1349974 142.481,86.379005 142.481,85.383 C142.481,84.386995 142.296502,83.6280026 141.9275,83.106 C141.558498,82.5839974 140.990004,82.323 140.222,82.323 C139.441996,82.323 138.864502,82.5854974 138.4895,83.1105 C138.114498,83.6355026 137.927,84.392995 137.927,85.383 C137.927,86.3730049 138.114498,87.1274974 138.4895,87.6465 C138.864502,88.1655026 139.441996,88.425 140.222,88.425 Z M153.092,82.719 C153.026,82.8030004 152.9615,82.8689998 152.8985,82.917 C152.8355,82.9650002 152.744001,82.989 152.624,82.989 C152.509999,82.989 152.399001,82.9545003 152.291,82.8855 C152.182999,82.8164997 152.054001,82.7385004 151.904,82.6515 C151.753999,82.5644996 151.575501,82.4865003 151.3685,82.4175 C151.161499,82.3484997 150.905002,82.314 150.599,82.314 C150.208998,82.314 149.867001,82.3844993 149.573,82.5255 C149.278999,82.6665007 149.034501,82.8689987 148.8395,83.133 C148.644499,83.3970013 148.499,83.7164981 148.403,84.0915 C148.307,84.4665019 148.259,84.8909976 148.259,85.365 C148.259,85.8570025 148.311499,86.2949981 148.4165,86.679 C148.521501,87.0630019 148.672999,87.3854987 148.871,87.6465 C149.069001,87.9075013 149.308999,88.1054993 149.591,88.2405 C149.873001,88.3755007 150.190998,88.443 150.545,88.443 C150.899002,88.443 151.185499,88.3995004 151.4045,88.3125 C151.623501,88.2254996 151.807999,88.1295005 151.958,88.0245 C152.108001,87.9194995 152.238499,87.8235004 152.3495,87.7365 C152.460501,87.6494996 152.584999,87.606 152.723,87.606 C152.903001,87.606 153.038,87.6749993 153.128,87.813 L153.767,88.623 C153.520999,88.9110014 153.254001,89.152499 152.966,89.3475 C152.677999,89.542501 152.379502,89.6984994 152.0705,89.8155 C151.761498,89.9325006 151.443502,90.0149998 151.1165,90.063 C150.789498,90.1110002 150.464002,90.135 150.14,90.135 C149.569997,90.135 149.033003,90.0285011 148.529,89.8155 C148.024997,89.6024989 147.584002,89.292002 147.206,88.884 C146.827998,88.475998 146.529501,87.976503 146.3105,87.3855 C146.091499,86.794497 145.982,86.1210038 145.982,85.365 C145.982,84.6869966 146.079499,84.0585029 146.2745,83.4795 C146.469501,82.9004971 146.755998,82.3995021 147.134,81.9765 C147.512002,81.5534979 147.979997,81.2220012 148.538,80.982 C149.096003,80.7419988 149.737996,80.622 150.464,80.622 C151.154003,80.622 151.758497,80.7329989 152.2775,80.955 C152.796503,81.1770011 153.262998,81.4949979 153.677,81.909 L153.092,82.719 Z M157.376,76.626 L157.376,84.285 L157.79,84.285 C157.940001,84.285 158.0585,84.2655002 158.1455,84.2265 C158.2325,84.1874998 158.321,84.1080006 158.411,83.988 L160.706,81.153 C160.802,81.0269994 160.908499,80.9310003 161.0255,80.865 C161.142501,80.7989997 161.293999,80.766 161.48,80.766 L163.514,80.766 L160.643,84.195 C160.438999,84.4650013 160.217001,84.6719993 159.977,84.816 C160.103001,84.9060004 160.2155,85.0109994 160.3145,85.131 C160.4135,85.2510006 160.508,85.3799993 160.598,85.518 L163.676,90 L161.669,90 C161.494999,90 161.345001,89.9715003 161.219,89.9145 C161.092999,89.8574997 160.988,89.7540007 160.904,89.604 L158.546,86.103 C158.462,85.9649993 158.375,85.8750002 158.285,85.833 C158.195,85.7909998 158.060001,85.77 157.88,85.77 L157.376,85.77 L157.376,90 L155.153,90 L155.153,76.626 L157.376,76.626 Z M170.255,84.321 C170.255,84.0329986 170.2145,83.7615013 170.1335,83.5065 C170.0525,83.2514987 169.931001,83.028001 169.769,82.836 C169.606999,82.643999 169.401501,82.4925006 169.1525,82.3815 C168.903499,82.2704994 168.614002,82.215 168.284,82.215 C167.641997,82.215 167.136502,82.3979982 166.7675,82.764 C166.398498,83.1300018 166.163001,83.6489966 166.061,84.321 L170.255,84.321 Z M166.016,85.662 C166.052,86.1360024 166.135999,86.5454983 166.268,86.8905 C166.400001,87.2355017 166.573999,87.5204989 166.79,87.7455 C167.006001,87.9705011 167.262499,88.1384994 167.5595,88.2495 C167.856501,88.3605006 168.184998,88.416 168.545,88.416 C168.905002,88.416 169.215499,88.3740004 169.4765,88.29 C169.737501,88.2059996 169.965499,88.1130005 170.1605,88.011 C170.355501,87.9089995 170.526499,87.8160004 170.6735,87.732 C170.820501,87.6479996 170.962999,87.606 171.101,87.606 C171.287001,87.606 171.425,87.6749993 171.515,87.813 L172.154,88.623 C171.907999,88.9110014 171.632002,89.152499 171.326,89.3475 C171.019998,89.542501 170.700502,89.6984994 170.3675,89.8155 C170.034498,89.9325006 169.695502,90.0149998 169.3505,90.063 C169.005498,90.1110002 168.671002,90.135 168.347,90.135 C167.704997,90.135 167.108003,90.0285011 166.556,89.8155 C166.003997,89.6024989 165.524002,89.2875021 165.116,88.8705 C164.707998,88.4534979 164.387001,87.9375031 164.153,87.3225 C163.918999,86.7074969 163.802,85.995004 163.802,85.185 C163.802,84.5549968 163.903999,83.9625028 164.108,83.4075 C164.312001,82.8524972 164.604498,82.3695021 164.9855,81.9585 C165.366502,81.5474979 165.831497,81.2220012 166.3805,80.982 C166.929503,80.7419988 167.548997,80.622 168.239,80.622 C168.821003,80.622 169.357998,80.7149991 169.85,80.901 C170.342002,81.0870009 170.764998,81.3584982 171.119,81.7155 C171.473002,82.0725018 171.750499,82.5104974 171.9515,83.0295 C172.152501,83.5485026 172.253,84.1409967 172.253,84.807 C172.253,85.1430017 172.217,85.3694994 172.145,85.4865 C172.073,85.6035006 171.935001,85.662 171.731,85.662 L166.016,85.662 Z M176.015,82.368 C176.303001,81.8159972 176.644998,81.3825016 177.041,81.0675 C177.437002,80.7524984 177.904997,80.595 178.445,80.595 C178.871002,80.595 179.212999,80.6879991 179.471,80.874 L179.327,82.539 C179.297,82.6470005 179.2535,82.7234998 179.1965,82.7685 C179.1395,82.8135002 179.063,82.836 178.967,82.836 C178.877,82.836 178.743501,82.8210001 178.5665,82.791 C178.389499,82.7609998 178.217001,82.746 178.049,82.746 C177.802999,82.746 177.584001,82.7819996 177.392,82.854 C177.199999,82.9260004 177.027501,83.0294993 176.8745,83.1645 C176.721499,83.2995007 176.586501,83.462999 176.4695,83.655 C176.352499,83.847001 176.243001,84.0659988 176.141,84.312 L176.141,90 L173.918,90 L173.918,80.766 L175.223,80.766 C175.451001,80.766 175.61,80.8064996 175.7,80.8875 C175.79,80.9685004 175.85,81.1139989 175.88,81.324 L176.015,82.368 Z" id="Docker" fill="#FFFFFF"></path>
            </g>
        </g>
    </g>
</svg>