<?xml version="1.0" encoding="UTF-8"?>
<svg width="419px" height="297px" viewBox="0 0 419 297" version="1.1" xmlns="http://www.w3.org/2000/svg" xmlns:xlink="http://www.w3.org/1999/xlink">
    <!-- Generator: Sketch 41.2 (35397) - http://www.bohemiancoding.com/sketch -->
    <title>illustration-contributors-skill</title>
    <desc>Created with Sketch.</desc>
    <defs>
        <path d="M273.738151,33.4531745 C285.057193,30.5898727 297.397357,36.4382694 302.138853,47.3061433 L395.054554,260.276077 L393.62178,260.623468 L339.455347,287.838668 L107.734372,278.686631 L107.825633,278.2324 C86.8485577,276.045559 67.6620351,262.826275 58.8378388,242.037771 C45.9096822,211.580943 60.1194782,176.410464 90.5763065,163.482307 C119.057334,151.392828 151.66028,163.034513 166.342283,189.501468 C172.891102,175.659451 184.348183,164.075028 199.552822,157.621042 C230.56284,144.45807 266.095409,157.332831 281.778604,186.398427 L263.667557,76.0868249 L221.238527,97.510622 C218.779748,98.7521391 214.860325,98.5976434 212.498,97.1586031 L203.821844,91.8734125 L195.122505,91.8734125 C192.914174,91.8734125 190.543443,90.1779298 189.83043,88.0864459 L178.363439,54.4503123 C177.831832,52.8909489 177.91188,50.3749687 178.54521,48.8394493 L191.723079,16.8894868 C194.248612,10.7662915 201.358443,7.60427133 207.600604,9.83352902 L273.738151,33.4531745 Z" id="path-1"></path>
        <mask id="mask-2" maskContentUnits="userSpaceOnUse" maskUnits="objectBoundingBox" x="-11" y="-11" width="362.994686" height="300.71961">
            <rect x="43.059868" y="-1.88094195" width="362.994686" height="300.71961" fill="white"></rect>
            <use xlink:href="#path-1" fill="black"></use>
        </mask>
    </defs>
    <g id="Contributor" stroke="none" stroke-width="1" fill="none" fill-rule="evenodd">
        <g transform="translate(-743.000000, -930.000000)" id="illustration-contributors-skill">
            <g transform="translate(750.000000, 931.000000)">
                <g id="Combined-Shape" transform="translate(224.557211, 148.478863) rotate(-3.000000) translate(-224.557211, -148.478863) ">
                    <use fill-opacity="0.816887455" fill="#FEFEFE" fill-rule="evenodd" xlink:href="#path-1"></use>
                    <use stroke="#6EEDD8" mask="url(#mask-2)" stroke-width="22" stroke-linejoin="round" xlink:href="#path-1"></use>
                </g>
                <g id="Group-6" transform="translate(162.000000, 167.386904)">
                    <g id="Group-6-Copy-6" transform="translate(0.000000, 27.479642)">
                        <ellipse id="Oval-6" fill="#FFA573" cx="26.8673238" cy="26.887906" rx="26.8673238" ry="26.887906"></ellipse>
                        <path d="M8.95577461,25.925805 L19.5693069,20.3658234 L19.5693069,23.1851537 C19.5693069,23.3862232 19.516895,23.5719912 19.4120694,23.7424632 C19.3072439,23.9129352 19.1412726,24.059364 18.9141506,24.1817542 L15.1928627,26.1880683 C14.9657407,26.3104585 14.7255192,26.4131772 14.4721908,26.4962277 C14.2188624,26.5792781 13.9524348,26.6557708 13.6729001,26.725708 C13.9524348,26.7956453 14.2188624,26.867767 14.4721908,26.9420753 C14.7255192,27.0163836 14.9657407,27.1147313 15.1928627,27.2371215 L18.9141506,29.2565487 C19.1412726,29.3789389 19.3072439,29.5231822 19.4120694,29.6892832 C19.516895,29.8553841 19.5693069,30.0389665 19.5693069,30.2400361 L19.5693069,33.0593664 L8.95577461,27.5124979 L8.95577461,25.925805 Z M24.9947528,35.4066227 C24.8986627,35.6426609 24.7741842,35.8524694 24.6213137,36.0360546 C24.4684431,36.2196398 24.2981042,36.3726252 24.1102917,36.4950154 C23.9224793,36.6174055 23.7215667,36.7091967 23.5075479,36.7703918 C23.2935291,36.8315869 23.0816974,36.862184 22.8720463,36.862184 L21.1424336,36.862184 L28.5850094,17.3104562 C28.7597186,16.8646063 29.0261462,16.5236675 29.3843001,16.2876293 C29.742454,16.0515912 30.1573822,15.9335739 30.6290971,15.9335739 L32.3587098,15.9335739 L24.9947528,35.4066227 Z M44.4405438,27.5124979 L33.8270115,33.0593664 L33.8270115,30.2400361 C33.8270115,30.0389665 33.8794234,29.8553841 33.984249,29.6892832 C34.0890745,29.5231822 34.2550458,29.3789389 34.4821678,29.2565487 L38.2034556,27.2371215 C38.4218422,27.1147313 38.6598799,27.0163836 38.917576,26.9420753 C39.1752721,26.867767 39.4438835,26.7956453 39.7234183,26.725708 C39.4438835,26.6557708 39.1752721,26.5792781 38.917576,26.4962277 C38.6598799,26.4131772 38.4218422,26.3104585 38.2034556,26.1880683 L34.4821678,24.1817542 C34.2550458,24.059364 34.0890745,23.9129352 33.984249,23.7424632 C33.8794234,23.5719912 33.8270115,23.3862232 33.8270115,23.1851537 L33.8270115,20.3658234 L44.4405438,25.925805 L44.4405438,27.5124979 Z" id="&lt;/&gt;" fill="#FFFFFF"></path>
                    </g>
                    <g id="Group-6-Copy-4" transform="translate(40.432594, 0.000000)">
                        <ellipse id="Oval-6" fill="#6EEDD8" cx="26.8673238" cy="26.887906" rx="26.8673238" ry="26.887906"></ellipse>
                        <path d="M8.95577461,25.925805 L19.5693069,20.3658234 L19.5693069,23.1851537 C19.5693069,23.3862232 19.516895,23.5719912 19.4120694,23.7424632 C19.3072439,23.9129352 19.1412726,24.059364 18.9141506,24.1817542 L15.1928627,26.1880683 C14.9657407,26.3104585 14.7255192,26.4131772 14.4721908,26.4962277 C14.2188624,26.5792781 13.9524348,26.6557708 13.6729001,26.725708 C13.9524348,26.7956453 14.2188624,26.867767 14.4721908,26.9420753 C14.7255192,27.0163836 14.9657407,27.1147313 15.1928627,27.2371215 L18.9141506,29.2565487 C19.1412726,29.3789389 19.3072439,29.5231822 19.4120694,29.6892832 C19.516895,29.8553841 19.5693069,30.0389665 19.5693069,30.2400361 L19.5693069,33.0593664 L8.95577461,27.5124979 L8.95577461,25.925805 Z M24.9947528,35.4066227 C24.8986627,35.6426609 24.7741842,35.8524694 24.6213137,36.0360546 C24.4684431,36.2196398 24.2981042,36.3726252 24.1102917,36.4950154 C23.9224793,36.6174055 23.7215667,36.7091967 23.5075479,36.7703918 C23.2935291,36.8315869 23.0816974,36.862184 22.8720463,36.862184 L21.1424336,36.862184 L28.5850094,17.3104562 C28.7597186,16.8646063 29.0261462,16.5236675 29.3843001,16.2876293 C29.742454,16.0515912 30.1573822,15.9335739 30.6290971,15.9335739 L32.3587098,15.9335739 L24.9947528,35.4066227 Z M44.4405438,27.5124979 L33.8270115,33.0593664 L33.8270115,30.2400361 C33.8270115,30.0389665 33.8794234,29.8553841 33.984249,29.6892832 C34.0890745,29.5231822 34.2550458,29.3789389 34.4821678,29.2565487 L38.2034556,27.2371215 C38.4218422,27.1147313 38.6598799,27.0163836 38.917576,26.9420753 C39.1752721,26.867767 39.4438835,26.7956453 39.7234183,26.725708 C39.4438835,26.6557708 39.1752721,26.5792781 38.917576,26.4962277 C38.6598799,26.4131772 38.4218422,26.3104585 38.2034556,26.1880683 L34.4821678,24.1817542 C34.2550458,24.059364 34.0890745,23.9129352 33.984249,23.7424632 C33.8794234,23.5719912 33.8270115,23.3862232 33.8270115,23.1851537 L33.8270115,20.3658234 L44.4405438,25.925805 L44.4405438,27.5124979 Z" id="&lt;/&gt;" fill="#FFFFFF"></path>
                    </g>
                    <g id="Group-6-Copy-5" transform="translate(80.865188, 27.479642)">
                        <ellipse id="Oval-6" fill="#FF9EEE" cx="26.8673238" cy="26.887906" rx="26.8673238" ry="26.887906"></ellipse>
                        <path d="M8.95577461,25.925805 L19.5693069,20.3658234 L19.5693069,23.1851537 C19.5693069,23.3862232 19.516895,23.5719912 19.4120694,23.7424632 C19.3072439,23.9129352 19.1412726,24.059364 18.9141506,24.1817542 L15.1928627,26.1880683 C14.9657407,26.3104585 14.7255192,26.4131772 14.4721908,26.4962277 C14.2188624,26.5792781 13.9524348,26.6557708 13.6729001,26.725708 C13.9524348,26.7956453 14.2188624,26.867767 14.4721908,26.9420753 C14.7255192,27.0163836 14.9657407,27.1147313 15.1928627,27.2371215 L18.9141506,29.2565487 C19.1412726,29.3789389 19.3072439,29.5231822 19.4120694,29.6892832 C19.516895,29.8553841 19.5693069,30.0389665 19.5693069,30.2400361 L19.5693069,33.0593664 L8.95577461,27.5124979 L8.95577461,25.925805 Z M24.9947528,35.4066227 C24.8986627,35.6426609 24.7741842,35.8524694 24.6213137,36.0360546 C24.4684431,36.2196398 24.2981042,36.3726252 24.1102917,36.4950154 C23.9224793,36.6174055 23.7215667,36.7091967 23.5075479,36.7703918 C23.2935291,36.8315869 23.0816974,36.862184 22.8720463,36.862184 L21.1424336,36.862184 L28.5850094,17.3104562 C28.7597186,16.8646063 29.0261462,16.5236675 29.3843001,16.2876293 C29.742454,16.0515912 30.1573822,15.9335739 30.6290971,15.9335739 L32.3587098,15.9335739 L24.9947528,35.4066227 Z M44.4405438,27.5124979 L33.8270115,33.0593664 L33.8270115,30.2400361 C33.8270115,30.0389665 33.8794234,29.8553841 33.984249,29.6892832 C34.0890745,29.5231822 34.2550458,29.3789389 34.4821678,29.2565487 L38.2034556,27.2371215 C38.4218422,27.1147313 38.6598799,27.0163836 38.917576,26.9420753 C39.1752721,26.867767 39.4438835,26.7956453 39.7234183,26.725708 C39.4438835,26.6557708 39.1752721,26.5792781 38.917576,26.4962277 C38.6598799,26.4131772 38.4218422,26.3104585 38.2034556,26.1880683 L34.4821678,24.1817542 C34.2550458,24.059364 34.0890745,23.9129352 33.984249,23.7424632 C33.8794234,23.5719912 33.8270115,23.3862232 33.8270115,23.1851537 L33.8270115,20.3658234 L44.4405438,25.925805 L44.4405438,27.5124979 Z" id="&lt;/&gt;" fill="#FFFFFF"></path>
                    </g>
                    <g id="Group-6-Copy-2" transform="translate(40.432594, 54.959284)">
                        <ellipse id="Oval-6" fill="#5AAAFA" cx="26.8673238" cy="26.887906" rx="26.8673238" ry="26.887906"></ellipse>
                        <path d="M8.95577461,25.925805 L19.5693069,20.3658234 L19.5693069,23.1851537 C19.5693069,23.3862232 19.516895,23.5719912 19.4120694,23.7424632 C19.3072439,23.9129352 19.1412726,24.059364 18.9141506,24.1817542 L15.1928627,26.1880683 C14.9657407,26.3104585 14.7255192,26.4131772 14.4721908,26.4962277 C14.2188624,26.5792781 13.9524348,26.6557708 13.6729001,26.725708 C13.9524348,26.7956453 14.2188624,26.867767 14.4721908,26.9420753 C14.7255192,27.0163836 14.9657407,27.1147313 15.1928627,27.2371215 L18.9141506,29.2565487 C19.1412726,29.3789389 19.3072439,29.5231822 19.4120694,29.6892832 C19.516895,29.8553841 19.5693069,30.0389665 19.5693069,30.2400361 L19.5693069,33.0593664 L8.95577461,27.5124979 L8.95577461,25.925805 Z M24.9947528,35.4066227 C24.8986627,35.6426609 24.7741842,35.8524694 24.6213137,36.0360546 C24.4684431,36.2196398 24.2981042,36.3726252 24.1102917,36.4950154 C23.9224793,36.6174055 23.7215667,36.7091967 23.5075479,36.7703918 C23.2935291,36.8315869 23.0816974,36.862184 22.8720463,36.862184 L21.1424336,36.862184 L28.5850094,17.3104562 C28.7597186,16.8646063 29.0261462,16.5236675 29.3843001,16.2876293 C29.742454,16.0515912 30.1573822,15.9335739 30.6290971,15.9335739 L32.3587098,15.9335739 L24.9947528,35.4066227 Z M44.4405438,27.5124979 L33.8270115,33.0593664 L33.8270115,30.2400361 C33.8270115,30.0389665 33.8794234,29.8553841 33.984249,29.6892832 C34.0890745,29.5231822 34.2550458,29.3789389 34.4821678,29.2565487 L38.2034556,27.2371215 C38.4218422,27.1147313 38.6598799,27.0163836 38.917576,26.9420753 C39.1752721,26.867767 39.4438835,26.7956453 39.7234183,26.725708 C39.4438835,26.6557708 39.1752721,26.5792781 38.917576,26.4962277 C38.6598799,26.4131772 38.4218422,26.3104585 38.2034556,26.1880683 L34.4821678,24.1817542 C34.2550458,24.059364 34.0890745,23.9129352 33.984249,23.7424632 C33.8794234,23.5719912 33.8270115,23.3862232 33.8270115,23.1851537 L33.8270115,20.3658234 L44.4405438,25.925805 L44.4405438,27.5124979 Z" id="&lt;/&gt;" fill="#FFFFFF"></path>
                    </g>
                </g>
                <g id="Group-8" transform="translate(0.000000, 47.386904)" stroke="#6EEDD8" stroke-width="14" stroke-linecap="square">
                    <path d="M0.401785714,20 L44.6055189,20" id="Line"></path>
                    <path d="M22,40.2469558 L22,0" id="Line-Copy"></path>
                </g>
                <g id="Group-8-Copy" transform="translate(40.000000, 98.386904)" stroke="#6EEDD8" stroke-width="14" stroke-linecap="square">
                    <path d="M0.401785714,20 L44.6055189,20" id="Line"></path>
                    <path d="M22,40.2469558 L22,0" id="Line-Copy"></path>
                </g>
                <g id="Group-8-Copy-2" transform="translate(87.000000, 48.386904)" stroke="#6EEDD8" stroke-width="14" stroke-linecap="square">
                    <path d="M0.401785714,20 L44.6055189,20" id="Line"></path>
                    <path d="M22,40.2469558 L22,0" id="Line-Copy"></path>
                </g>
            </g>
        </g>
    </g>
</svg>