<?xml version="1.0" encoding="UTF-8"?>
<svg width="434px" height="322px" viewBox="0 0 434 322" version="1.1" xmlns="http://www.w3.org/2000/svg" xmlns:xlink="http://www.w3.org/1999/xlink">
    <!-- Generator: Sketch 41.2 (35397) - http://www.bohemiancoding.com/sketch -->
    <title>illustration-developers-scaling</title>
    <desc>Created with Sketch.</desc>
    <defs></defs>
    <g id="Developers" stroke="none" stroke-width="1" fill="none" fill-rule="evenodd">
        <g id="Developer" transform="translate(-251.000000, -487.000000)">
            <g id="illustration-developers-scaling" transform="translate(251.000000, 486.000000)">
                <path d="M209.826987,124.713325 L243.664652,124.541382 C262.628446,124.445019 278.088654,108.997847 278.196061,90.0272042 L278.531885,30.7124219" id="Path-6-Copy" stroke="#CCD5DF" stroke-width="12" stroke-linecap="round" transform="translate(244.179436, 77.712873) scale(-1, 1) rotate(-90.000000) translate(-244.179436, -77.712873) "></path>
                <polygon id="Triangle-Copy" fill="#D3DBE3" transform="translate(273.925431, 43.475632) scale(1, -1) translate(-273.925431, -43.475632) " points="293.600437 7.34541952 293.600437 79.6058449 254.250424 43.4756322"></polygon>
                <g id="Group">
                    <g id="Group-20-Copy-3" transform="translate(95.916168, 101.332791)">
                        <path d="M176.762434,88.3510773 L201.292694,66.9434232 L180.4589,32.8189836 L151.207412,42.3497259 C144.152327,36.22947 136.03813,31.4436866 127.262731,28.2270646 L120.775617,2.84217094e-13 L80.5170777,2.84217094e-13 L74.0299631,28.2270646 C65.2551156,31.4490305 57.1413215,36.2376697 50.0852822,42.358855 L20.8337938,32.8189836 L-1.42108547e-14,66.9434232 L24.52111,88.3602064 C23.8989326,92.2948328 23.4871975,96.3024917 23.4871975,100.419699 C23.4871975,104.536907 23.8989326,108.544566 24.52111,112.479192 L-1.42108547e-14,133.895975 L20.8429435,168.020415 L50.0852822,158.489673 C57.1414214,164.61321 65.2592463,169.399305 74.0391128,172.612334 L80.5170777,200.839399 L120.775617,200.839399 L127.253581,172.612334 C136.030655,169.399236 144.145464,164.613092 151.198262,158.489673 L180.440601,168.020415 L201.292694,133.895975 L176.762434,112.488321 C177.393762,108.544566 177.805497,104.536907 177.805497,100.419699 C177.805497,96.3024917 177.393762,92.2948328 176.762434,88.3510773 Z" id="Combined-Shape" fill="#58C0AF"></path>
                        <path d="M103.858115,129.50664 C88.9744527,129.123179 77.1087508,116.974545 77.1087508,102.11945 C77.1087508,87.2643543 88.9744527,75.11572 103.858115,74.732259 C118.741777,75.11572 130.607479,87.2643543 130.607479,102.11945 C130.607479,116.974545 118.741777,129.123179 103.858115,129.50664 L103.858115,129.50664 Z" id="Path" fill="#008571"></path>
                    </g>
                    <g id="Group-2" transform="translate(0.000000, 105.394692)">
                        <path d="M143.275265,132.999839 L93.4737329,132.980126 C70.2725152,132.970942 51.4957611,114.161149 51.5346824,90.9651988 L51.7015635,-8.49111316" id="Path-6" stroke="#CCD5DF" stroke-width="12" stroke-linecap="round" transform="translate(97.404944, 62.254363) scale(-1, 1) rotate(-90.000000) translate(-97.404944, -62.254363) "></path>
                        <ellipse id="Oval-5-Copy-17" fill="#CCD5DF" cx="26.5984597" cy="26.6290801" rx="26.5984597" ry="26.6290801"></ellipse>
                        <ellipse id="Oval-5-Copy-18" fill="#CCD5DF" cx="45.253168" cy="94.6167085" rx="26.5984597" ry="26.6290801"></ellipse>
                    </g>
                    <g id="Group-20-Copy-4" transform="translate(105.906040, 111.326498)">
                        <path d="M176.762434,88.3510773 L201.292694,66.9434232 L180.4589,32.8189836 L151.207412,42.3497259 C144.152327,36.22947 136.03813,31.4436866 127.262731,28.2270646 L120.775617,5.1159077e-13 L80.5170777,5.1159077e-13 L74.0299631,28.2270646 C65.2551156,31.4490305 57.1413215,36.2376697 50.0852822,42.358855 L20.8337938,32.8189836 L-1.42108547e-14,66.9434232 L24.52111,88.3602064 C23.8989326,92.2948328 23.4871975,96.3024917 23.4871975,100.419699 C23.4871975,104.536907 23.8989326,108.544566 24.52111,112.479192 L-1.42108547e-14,133.895975 L20.8429435,168.020415 L50.0852822,158.489673 C57.1414214,164.61321 65.2592463,169.399305 74.0391128,172.612334 L80.5170777,200.839399 L120.775617,200.839399 L127.253581,172.612334 C136.030655,169.399236 144.145464,164.613092 151.198262,158.489673 L180.440601,168.020415 L201.292694,133.895975 L176.762434,112.488321 C177.393762,108.544566 177.805497,104.536907 177.805497,100.419699 C177.805497,96.3024917 177.393762,92.2948328 176.762434,88.3510773 Z" id="Combined-Shape" fill="#60D1BF"></path>
                        <path d="M100.530639,126.178387 C85.6469768,125.794926 73.7812749,113.646292 73.7812749,98.7911963 C73.7812749,83.9361008 85.6469768,71.7874666 100.530639,71.4040056 C115.414301,71.7874666 127.280003,83.9361008 127.280003,98.7911963 C127.280003,113.646292 115.414301,125.794926 100.530639,126.178387 L100.530639,126.178387 Z" id="Path" fill="#008571"></path>
                    </g>
                    <g id="Group-20-Copy-5" transform="translate(115.895911, 121.320205)">
                        <path d="M176.762434,88.3510773 L201.292694,66.9434232 L180.4589,32.8189836 L151.207412,42.3497259 C144.152327,36.22947 136.03813,31.4436866 127.262731,28.2270646 L120.775617,2.84217094e-13 L80.5170777,2.84217094e-13 L74.0299631,28.2270646 C65.2551156,31.4490305 57.1413215,36.2376697 50.0852822,42.358855 L20.8337938,32.8189836 L-1.42108547e-14,66.9434232 L24.52111,88.3602064 C23.8989326,92.2948328 23.4871975,96.3024917 23.4871975,100.419699 C23.4871975,104.536907 23.8989326,108.544566 24.52111,112.479192 L-1.42108547e-14,133.895975 L20.8429435,168.020415 L50.0852822,158.489673 C57.1414214,164.61321 65.2592463,169.399305 74.0391128,172.612334 L80.5170777,200.839399 L120.775617,200.839399 L127.253581,172.612334 C136.030655,169.399236 144.145464,164.613092 151.198262,158.489673 L180.440601,168.020415 L201.292694,133.895975 L176.762434,112.488321 C177.393762,108.544566 177.805497,104.536907 177.805497,100.419699 C177.805497,96.3024917 177.393762,92.2948328 176.762434,88.3510773 Z" id="Combined-Shape" fill="#6EEDD8"></path>
                        <path d="M100.530639,126.178387 C85.6469768,125.794926 73.7812749,113.646292 73.7812749,98.7911963 C73.7812749,83.9361008 85.6469768,71.7874666 100.530639,71.4040056 C115.414301,71.7874666 127.280003,83.9361008 127.280003,98.7911963 C127.280003,113.646292 115.414301,125.794926 100.530639,126.178387 L100.530639,126.178387 Z" id="Path" fill="#008571"></path>
                    </g>
                    <g id="Group-3" transform="translate(309.544587, 155.989512)">
                        <g id="Group-20-Copy-8">
                            <path d="M97.1102264,49.6243628 L110.586727,37.9232848 L99.1410008,19.2714172 L83.0707387,24.480767 C79.1947968,21.135534 74.7369971,18.519702 69.9159448,16.7615484 L66.3520362,1.33309075 L44.2346908,1.33309075 L40.6707822,16.7615484 C35.8500327,18.522623 31.3924544,21.1400158 27.5159884,24.4857568 L11.4457262,19.2714172 L5.68434189e-14,37.9232848 L13.471474,49.6293526 C13.1296605,51.7799559 12.9034604,53.9704775 12.9034604,56.2208767 C12.9034604,58.471276 13.1296605,60.6617976 13.471474,62.8124008 L5.68434189e-14,74.5184687 L11.4507529,93.1703363 L27.5159884,87.9609864 C31.3925093,91.3080131 35.852302,93.924015 40.6758089,95.680205 L44.2346908,111.108663 L66.3520362,111.108663 L69.9109182,95.680205 C74.7328908,93.9239777 79.1910266,91.3079486 83.065712,87.9609864 L99.1309475,93.1703363 L110.586727,74.5184687 L97.1102264,62.8173906 C97.4570665,60.6617976 97.6832667,58.471276 97.6832667,56.2208767 C97.6832667,53.9704775 97.4570665,51.7799559 97.1102264,49.6243628 Z" id="Combined-Shape" fill="#58C0AF" transform="translate(55.293364, 56.220877) rotate(-90.000000) translate(-55.293364, -56.220877) "></path>
                            <path d="M58.5572714,73.6284129 C50.3804446,73.4188192 43.8616331,66.778572 43.8616331,58.6590167 C43.8616331,50.5394614 50.3804446,43.8992141 58.5572714,43.6896205 C66.7340982,43.8992141 73.2529098,50.5394614 73.2529098,58.6590167 C73.2529098,66.778572 66.7340982,73.4188192 58.5572714,73.6284129 L58.5572714,73.6284129 Z" id="Path" fill="#008571"></path>
                        </g>
                        <g id="Group-20-Copy-7" transform="translate(6.987681, 6.971483)">
                            <path d="M97.1102264,49.6243628 L110.586727,37.9232848 L99.1410008,19.2714172 L83.0707387,24.480767 C79.1947968,21.135534 74.7369971,18.519702 69.9159448,16.7615484 L66.3520362,1.33309075 L44.2346908,1.33309075 L40.6707822,16.7615484 C35.8500327,18.522623 31.3924544,21.1400158 27.5159884,24.4857568 L11.4457262,19.2714172 L-4.26325641e-14,37.9232848 L13.471474,49.6293526 C13.1296605,51.7799559 12.9034604,53.9704775 12.9034604,56.2208767 C12.9034604,58.471276 13.1296605,60.6617976 13.471474,62.8124008 L-4.26325641e-14,74.5184687 L11.4507529,93.1703363 L27.5159884,87.9609864 C31.3925093,91.3080131 35.852302,93.924015 40.6758089,95.680205 L44.2346908,111.108663 L66.3520362,111.108663 L69.9109182,95.680205 C74.7328908,93.9239777 79.1910266,91.3079486 83.065712,87.9609864 L99.1309475,93.1703363 L110.586727,74.5184687 L97.1102264,62.8173906 C97.4570665,60.6617976 97.6832667,58.471276 97.6832667,56.2208767 C97.6832667,53.9704775 97.4570665,51.7799559 97.1102264,49.6243628 Z" id="Combined-Shape" fill="#60D1BF" transform="translate(55.293364, 56.220877) rotate(-90.000000) translate(-55.293364, -56.220877) "></path>
                            <path d="M55.2297955,70.3001594 C47.0529687,70.0905658 40.5341572,63.4503185 40.5341572,55.3307633 C40.5341572,47.211208 47.0529687,40.5709607 55.2297955,40.3613671 C63.4066223,40.5709607 69.9254339,47.211208 69.9254339,55.3307633 C69.9254339,63.4503185 63.4066223,70.0905658 55.2297955,70.3001594 L55.2297955,70.3001594 Z" id="Path" fill="#008571"></path>
                        </g>
                        <g id="Group-20-Copy-6" transform="translate(13.975362, 13.942966)">
                            <path d="M97.1102264,49.6243628 L110.586727,37.9232848 L99.1410008,19.2714172 L83.0707387,24.480767 C79.1947968,21.135534 74.7369971,18.519702 69.9159448,16.7615484 L66.3520362,1.33309075 L44.2346908,1.33309075 L40.6707822,16.7615484 C35.8500327,18.522623 31.3924544,21.1400158 27.5159884,24.4857568 L11.4457262,19.2714172 L0,37.9232848 L13.471474,49.6293526 C13.1296605,51.7799559 12.9034604,53.9704775 12.9034604,56.2208767 C12.9034604,58.471276 13.1296605,60.6617976 13.471474,62.8124008 L0,74.5184687 L11.4507529,93.1703363 L27.5159884,87.9609864 C31.3925093,91.3080131 35.852302,93.924015 40.6758089,95.680205 L44.2346908,111.108663 L66.3520362,111.108663 L69.9109182,95.680205 C74.7328908,93.9239777 79.1910266,91.3079486 83.065712,87.9609864 L99.1309475,93.1703363 L110.586727,74.5184687 L97.1102264,62.8173906 C97.4570665,60.6617976 97.6832667,58.471276 97.6832667,56.2208767 C97.6832667,53.9704775 97.4570665,51.7799559 97.1102264,49.6243628 Z" id="Combined-Shape" fill="#6EEDD8" transform="translate(55.293364, 56.220877) rotate(-90.000000) translate(-55.293364, -56.220877) "></path>
                            <path d="M55.2297955,70.3001594 C47.0529687,70.0905658 40.5341572,63.4503185 40.5341572,55.3307633 C40.5341572,47.211208 47.0529687,40.5709607 55.2297955,40.3613671 C63.4066223,40.5709607 69.9254339,47.211208 69.9254339,55.3307633 C69.9254339,63.4503185 63.4066223,70.0905658 55.2297955,70.3001594 L55.2297955,70.3001594 Z" id="Path" fill="#008571"></path>
                        </g>
                    </g>
                    <g id="Group-3-Copy" transform="translate(47.693821, 0.146959)">
                        <g id="Group-20-Copy-8">
                            <path d="M101.581957,51.8036351 L115.679023,39.5886999 L103.706244,20.1177286 L86.8959789,25.555849 C82.8415577,22.0637088 78.1784853,19.3330016 73.1354333,17.497638 L69.4074138,1.39163393 L46.2716092,1.39163393 L42.5435898,17.497638 C37.5008544,19.3360508 32.8380137,22.0683874 28.7830442,25.5610579 L11.9727789,20.1177286 L1.42108547e-13,39.5886999 L14.0918083,51.808844 C13.7342549,54.0538918 13.4976387,56.340611 13.4976387,58.6898373 C13.4976387,61.0390637 13.7342549,63.3257829 14.0918083,65.5708307 L1.42108547e-13,77.7909748 L11.978037,97.2619461 L28.7830442,91.8238257 C32.8380711,95.3178383 37.5032282,98.0487228 42.5488479,99.8820366 L46.2716092,115.988041 L69.4074138,115.988041 L73.1301751,99.8820366 C78.1741899,98.0486839 82.8376138,95.3177709 86.8907207,91.8238257 L103.695728,97.2619461 L115.679023,77.7909748 L101.581957,65.5760396 C101.944768,63.3257829 102.181384,61.0390637 102.181384,58.6898373 C102.181384,56.340611 101.944768,54.0538918 101.581957,51.8036351 Z" id="Combined-Shape" fill="#58C0AF" transform="translate(57.839512, 58.689837) rotate(-90.000000) translate(-57.839512, -58.689837) "></path>
                            <path d="M60.6150554,76.23012 C52.0617022,76.011322 45.2427125,69.0794658 45.2427125,60.6033373 C45.2427125,52.1272087 52.0617022,45.1953526 60.6150554,44.9765545 C69.1684086,45.1953526 75.9873982,52.1272087 75.9873982,60.6033373 C75.9873982,69.0794658 69.1684086,76.011322 60.6150554,76.23012 L60.6150554,76.23012 Z" id="Path" fill="#008571"></path>
                        </g>
                        <g id="Group-20-Copy-7" transform="translate(6.670789, 6.645926)">
                            <path d="M101.581957,51.8036351 L115.679023,39.5886999 L103.706244,20.1177286 L86.8959789,25.555849 C82.8415577,22.0637088 78.1784853,19.3330016 73.1354333,17.497638 L69.4074138,1.39163393 L46.2716092,1.39163393 L42.5435898,17.497638 C37.5008544,19.3360508 32.8380137,22.0683874 28.7830442,25.5610579 L11.9727789,20.1177286 L2.84217094e-14,39.5886999 L14.0918083,51.808844 C13.7342549,54.0538918 13.4976387,56.340611 13.4976387,58.6898373 C13.4976387,61.0390637 13.7342549,63.3257829 14.0918083,65.5708307 L2.84217094e-14,77.7909748 L11.978037,97.2619461 L28.7830442,91.8238257 C32.8380711,95.3178383 37.5032282,98.0487228 42.5488479,99.8820366 L46.2716092,115.988041 L69.4074138,115.988041 L73.1301751,99.8820366 C78.1741899,98.0486839 82.8376138,95.3177709 86.8907207,91.8238257 L103.695728,97.2619461 L115.679023,77.7909748 L101.581957,65.5760396 C101.944768,63.3257829 102.181384,61.0390637 102.181384,58.6898373 C102.181384,56.340611 101.944768,54.0538918 101.581957,51.8036351 Z" id="Combined-Shape" fill="#60D1BF" transform="translate(57.839512, 58.689837) rotate(-90.000000) translate(-57.839512, -58.689837) "></path>
                            <path d="M57.7730164,73.3874169 C49.2196632,73.1686189 42.4006735,66.2367627 42.4006735,57.7606342 C42.4006735,49.2845056 49.2196632,42.3526494 57.7730164,42.1338514 C66.3263696,42.3526494 73.1453592,49.2845056 73.1453592,57.7606342 C73.1453592,66.2367627 66.3263696,73.1686189 57.7730164,73.3874169 L57.7730164,73.3874169 Z" id="Path" fill="#008571"></path>
                        </g>
                        <g id="Group-20-Copy-6" transform="translate(13.341578, 13.291853)">
                            <path d="M101.581957,51.8036351 L115.679023,39.5886999 L103.706244,20.1177286 L86.8959789,25.555849 C82.8415577,22.0637088 78.1784853,19.3330016 73.1354333,17.497638 L69.4074138,1.39163393 L46.2716092,1.39163393 L42.5435898,17.497638 C37.5008544,19.3360508 32.8380137,22.0683874 28.7830442,25.5610579 L11.9727789,20.1177286 L-5.68434189e-14,39.5886999 L14.0918083,51.808844 C13.7342549,54.0538918 13.4976387,56.340611 13.4976387,58.6898373 C13.4976387,61.0390637 13.7342549,63.3257829 14.0918083,65.5708307 L-5.68434189e-14,77.7909748 L11.978037,97.2619461 L28.7830442,91.8238257 C32.8380711,95.3178383 37.5032282,98.0487228 42.5488479,99.8820366 L46.2716092,115.988041 L69.4074138,115.988041 L73.1301751,99.8820366 C78.1741899,98.0486839 82.8376138,95.3177709 86.8907207,91.8238257 L103.695728,97.2619461 L115.679023,77.7909748 L101.581957,65.5760396 C101.944768,63.3257829 102.181384,61.0390637 102.181384,58.6898373 C102.181384,56.340611 101.944768,54.0538918 101.581957,51.8036351 Z" id="Combined-Shape" fill="#6EEDD8" transform="translate(57.839512, 58.689837) rotate(-90.000000) translate(-57.839512, -58.689837) "></path>
                            <path d="M57.7730164,73.3874169 C49.2196632,73.1686189 42.4006735,66.2367627 42.4006735,57.7606342 C42.4006735,49.2845056 49.2196632,42.3526494 57.7730164,42.1338514 C66.3263696,42.3526494 73.1453592,49.2845056 73.1453592,57.7606342 C73.1453592,66.2367627 66.3263696,73.1686189 57.7730164,73.3874169 L57.7730164,73.3874169 Z" id="Path" fill="#008571"></path>
                        </g>
                    </g>
                </g>
                <g id="Group-10" transform="translate(306.209667, 0.679966)" fill="#CCD5DF">
                    <polygon id="Star-Copy-4" opacity="0.472939312" transform="translate(23.160863, 48.040978) rotate(-270.000000) translate(-23.160863, -48.040978) " points="23.1608633 63.4993089 8.84666255 70.3800243 10.8759554 54.4474766 -1.95399252e-14 42.7674449 15.5683726 39.8013043 23.1608633 25.7019323 30.7533539 39.8013043 46.3217265 42.7674449 35.4457711 54.4474766 37.4750639 70.3800243"></polygon>
                    <polygon id="Star-Copy-6" transform="translate(61.166130, 23.774332) rotate(-90.000000) translate(-61.166130, -23.774332) " points="61.1661301 39.2326624 46.8519294 46.1133777 48.8812222 30.1808301 38.0052669 18.5007984 53.5736395 15.5346578 61.1661301 1.4352858 68.7586207 15.5346578 84.3269934 18.5007984 73.451038 30.1808301 75.4803308 46.1133777"></polygon>
                    <polygon id="Star-Copy-7" transform="translate(63.683035, 73.059565) rotate(-300.000000) translate(-63.683035, -73.059565) " points="63.6830352 88.5178959 49.3688345 95.3986113 51.3981273 79.4660636 40.522172 67.7860319 56.0905446 64.8198913 63.6830352 50.7205193 71.2755258 64.8198913 86.8438985 67.7860319 75.9679431 79.4660636 77.9972359 95.3986113"></polygon>
                </g>
            </g>
        </g>
    </g>
</svg>