<?xml version="1.0" encoding="UTF-8"?>
<svg width="112px" height="22px" viewBox="0 0 112 22" version="1.1" xmlns="http://www.w3.org/2000/svg" xmlns:xlink="http://www.w3.org/1999/xlink">
    <!-- Generator: Sketch 41.2 (35397) - http://www.bohemiancoding.com/sketch -->
    <title>openwhisk</title>
    <desc>Created with Sketch.</desc>
    <defs></defs>
    <g id="Symbols" stroke="none" stroke-width="1" fill="none" fill-rule="evenodd">
        <g id="Menu" transform="translate(-268.000000, -33.000000)">
            <g id="Group-36">
                <g id="openwhisk" transform="translate(268.000000, 33.000000)">
                    <g id="Group-23">
                        <polygon id="Fill-1" fill="#008571" points="25.2758696 -0.000123046875 15.5374551 0.002953125 25.2704439 17.2264395 30.1426654 8.61192773"></polygon>
                        <polygon id="Fill-2" fill="#6EEDD8" points="15.537636 0.00313769531 10.7582532 8.61334277 20.4055143 8.60877604"></polygon>
                        <polygon id="Fill-3" fill="#325C80" points="0 11.0757568 4.82037648 19.6878076 14.4659522 19.6841162 4.82580212 2.46124512"></polygon>
                        <polygon id="Fill-4" fill="#5AAAFA" points="9.64569633 11.077418 14.4660728 19.6845469 19.2912721 11.0743418"></polygon>
                    </g>
                    <path d="M43.624,17.7365735 C42.8679962,17.7365735 42.1726698,17.6035748 41.538,17.3375735 C40.9033302,17.0715722 40.3596689,16.7052425 39.907,16.2385735 C39.4543311,15.7719045 39.099668,15.2212433 38.843,14.5865735 C38.5863321,13.9519037 38.458,13.2659105 38.458,12.5285735 C38.458,11.7912365 38.5863321,11.1052433 38.843,10.4705735 C39.099668,9.83590366 39.4543311,9.2852425 39.907,8.8185735 C40.3596689,8.3519045 40.9033302,7.98557483 41.538,7.7195735 C42.1726698,7.45357217 42.8679962,7.3205735 43.624,7.3205735 C44.3800038,7.3205735 45.0753302,7.45357217 45.71,7.7195735 C46.3446698,7.98557483 46.8883311,8.3519045 47.341,8.8185735 C47.7936689,9.2852425 48.1483321,9.83590366 48.405,10.4705735 C48.661668,11.1052433 48.79,11.7912365 48.79,12.5285735 C48.79,13.2659105 48.661668,13.9519037 48.405,14.5865735 C48.1483321,15.2212433 47.7936689,15.7719045 47.341,16.2385735 C46.8883311,16.7052425 46.3446698,17.0715722 45.71,17.3375735 C45.0753302,17.6035748 44.3800038,17.7365735 43.624,17.7365735 Z M43.624,16.4765735 C44.1933362,16.4765735 44.7066644,16.3715746 45.164,16.1615735 C45.6213356,15.9515725 46.0133317,15.6692419 46.34,15.3145735 C46.6666683,14.9599051 46.9186658,14.5422426 47.096,14.0615735 C47.2733342,13.5809044 47.362,13.0699095 47.362,12.5285735 C47.362,11.9872375 47.2733342,11.4762426 47.096,10.9955735 C46.9186658,10.5149044 46.6666683,10.0972419 46.34,9.7425735 C46.0133317,9.38790506 45.6213356,9.10557455 45.164,8.8955735 C44.7066644,8.68557245 44.1933362,8.5805735 43.624,8.5805735 C43.0546638,8.5805735 42.5413356,8.68557245 42.084,8.8955735 C41.6266644,9.10557455 41.2346683,9.38790506 40.908,9.7425735 C40.5813317,10.0972419 40.3293342,10.5149044 40.152,10.9955735 C39.9746658,11.4762426 39.886,11.9872375 39.886,12.5285735 C39.886,13.0699095 39.9746658,13.5809044 40.152,14.0615735 C40.3293342,14.5422426 40.5813317,14.9599051 40.908,15.3145735 C41.2346683,15.6692419 41.6266644,15.9515725 42.084,16.1615735 C42.5413356,16.3715746 43.0546638,16.4765735 43.624,16.4765735 Z M50.4,10.8485735 L51.66,10.8485735 L51.66,11.8005735 L51.688,11.8005735 C51.9306679,11.4459051 52.2643312,11.1705745 52.689,10.9745735 C53.1136688,10.7785725 53.5499978,10.6805735 53.998,10.6805735 C54.5113359,10.6805735 54.9756646,10.7692393 55.391,10.9465735 C55.8063354,11.1239077 56.1609985,11.3712386 56.455,11.6885735 C56.7490015,12.0059084 56.9753325,12.3769047 57.134,12.8015735 C57.2926675,13.2262423 57.372,13.6812377 57.372,14.1665735 C57.372,14.6612426 57.2926675,15.1209047 57.134,15.5455735 C56.9753325,15.9702423 56.7490015,16.3389053 56.455,16.6515735 C56.1609985,16.9642417 55.8063354,17.2092393 55.391,17.3865735 C54.9756646,17.5639077 54.5113359,17.6525735 53.998,17.6525735 C53.5219976,17.6525735 53.0740021,17.5522412 52.654,17.3515735 C52.2339979,17.1509058 51.9120011,16.8779086 51.688,16.5325735 L51.66,16.5325735 L51.66,21.4325735 L50.4,21.4325735 L50.4,10.8485735 Z M53.844,11.8565735 C53.5079983,11.8565735 53.204668,11.9149063 52.934,12.0315735 C52.663332,12.1482408 52.4346676,12.3069058 52.248,12.5075735 C52.0613324,12.7082412 51.9166672,12.9509054 51.814,13.2355735 C51.7113328,13.5202416 51.66,13.8305718 51.66,14.1665735 C51.66,14.5025752 51.7113328,14.8129054 51.814,15.0975735 C51.9166672,15.3822416 52.0613324,15.6249058 52.248,15.8255735 C52.4346676,16.0262412 52.663332,16.1849063 52.934,16.3015735 C53.204668,16.4182408 53.5079983,16.4765735 53.844,16.4765735 C54.1800017,16.4765735 54.483332,16.4182408 54.754,16.3015735 C55.024668,16.1849063 55.2533324,16.0262412 55.44,15.8255735 C55.6266676,15.6249058 55.7713328,15.3822416 55.874,15.0975735 C55.9766672,14.8129054 56.028,14.5025752 56.028,14.1665735 C56.028,13.8305718 55.9766672,13.5202416 55.874,13.2355735 C55.7713328,12.9509054 55.6266676,12.7082412 55.44,12.5075735 C55.2533324,12.3069058 55.024668,12.1482408 54.754,12.0315735 C54.483332,11.9149063 54.1800017,11.8565735 53.844,11.8565735 Z M59.906,14.6285735 C59.906,14.9179083 59.9689994,15.1815723 60.095,15.4195735 C60.2210006,15.6575747 60.3866656,15.8605727 60.592,16.0285735 C60.7973344,16.1965743 61.035332,16.3272397 61.306,16.4205735 C61.576668,16.5139073 61.8566652,16.5605735 62.146,16.5605735 C62.538002,16.5605735 62.8786652,16.4695744 63.168,16.2875735 C63.4573348,16.1055726 63.7233321,15.8652417 63.966,15.5665735 L64.918,16.2945735 C64.2179965,17.1999114 63.2380063,17.6525735 61.978,17.6525735 C61.4553307,17.6525735 60.9816688,17.5639077 60.557,17.3865735 C60.1323312,17.2092393 59.7730015,16.9642417 59.479,16.6515735 C59.1849985,16.3389053 58.9586675,15.9702423 58.8,15.5455735 C58.6413325,15.1209047 58.562,14.6612426 58.562,14.1665735 C58.562,13.6719044 58.6483325,13.2122423 58.821,12.7875735 C58.9936675,12.3629047 59.2316652,11.9942417 59.535,11.6815735 C59.8383349,11.3689053 60.1999979,11.1239077 60.62,10.9465735 C61.0400021,10.7692393 61.4973309,10.6805735 61.992,10.6805735 C62.5800029,10.6805735 63.076998,10.7832391 63.483,10.9885735 C63.889002,11.1939079 64.2226654,11.4622385 64.484,11.7935735 C64.7453346,12.1249085 64.9343328,12.4982381 65.051,12.9135735 C65.1676673,13.3289089 65.226,13.751238 65.226,14.1805735 L65.226,14.6285735 L59.906,14.6285735 Z M63.882,13.6205735 C63.8726666,13.3405721 63.8283337,13.083908 63.749,12.8505735 C63.6696663,12.617239 63.5506675,12.414241 63.392,12.2415735 C63.2333325,12.068906 63.0350012,11.933574 62.797,11.8355735 C62.5589988,11.737573 62.2813349,11.6885735 61.964,11.6885735 C61.6559985,11.6885735 61.373668,11.7469063 61.117,11.8635735 C60.8603321,11.9802408 60.6433342,12.1319059 60.466,12.3185735 C60.2886658,12.5052411 60.1510005,12.7129057 60.053,12.9415735 C59.9549995,13.1702413 59.906,13.3965724 59.906,13.6205735 L63.882,13.6205735 Z M66.738,10.8485735 L67.998,10.8485735 L67.998,11.8705735 L68.026,11.8705735 C68.1846675,11.5159051 68.459998,11.2289079 68.852,11.0095735 C69.244002,10.7902391 69.6966641,10.6805735 70.21,10.6805735 C70.5273349,10.6805735 70.8329985,10.729573 71.127,10.8275735 C71.4210015,10.925574 71.6776656,11.0772391 71.897,11.2825735 C72.1163344,11.4879079 72.2913327,11.7515719 72.422,12.0735735 C72.5526673,12.3955751 72.618,12.7759046 72.618,13.2145735 L72.618,17.4845735 L71.358,17.4845735 L71.358,13.5645735 C71.358,13.256572 71.3160004,12.9929079 71.232,12.7735735 C71.1479996,12.5542391 71.0360007,12.3769075 70.896,12.2415735 C70.7559993,12.1062395 70.5950009,12.0082405 70.413,11.9475735 C70.2309991,11.8869065 70.042001,11.8565735 69.846,11.8565735 C69.5846654,11.8565735 69.3420011,11.8985731 69.118,11.9825735 C68.8939989,12.0665739 68.6980008,12.1995726 68.53,12.3815735 C68.3619992,12.5635744 68.2313338,12.7945721 68.138,13.0745735 C68.0446662,13.3545749 67.998,13.6859049 67.998,14.0685735 L67.998,17.4845735 L66.738,17.4845735 L66.738,10.8485735 Z M73.584,7.5725735 L74.984,7.5725735 L77.168,15.4965735 L77.196,15.4965735 L79.534,7.5725735 L81.074,7.5725735 L83.412,15.4965735 L83.44,15.4965735 L85.624,7.5725735 L87.024,7.5725735 L84.14,17.4845735 L82.726,17.4845735 L80.318,9.3925735 L80.29,9.3925735 L77.896,17.4845735 L76.482,17.4845735 L73.584,7.5725735 Z M87.99,6.9005735 L89.25,6.9005735 L89.25,11.8705735 L89.278,11.8705735 C89.4366675,11.5159051 89.711998,11.2289079 90.104,11.0095735 C90.496002,10.7902391 90.9486641,10.6805735 91.462,10.6805735 C91.7793349,10.6805735 92.0849985,10.729573 92.379,10.8275735 C92.6730015,10.925574 92.9296656,11.0772391 93.149,11.2825735 C93.3683344,11.4879079 93.5433327,11.7515719 93.674,12.0735735 C93.8046673,12.3955751 93.87,12.7759046 93.87,13.2145735 L93.87,17.4845735 L92.61,17.4845735 L92.61,13.5645735 C92.61,13.256572 92.5680004,12.9929079 92.484,12.7735735 C92.3999996,12.5542391 92.2880007,12.3769075 92.148,12.2415735 C92.0079993,12.1062395 91.8470009,12.0082405 91.665,11.9475735 C91.4829991,11.8869065 91.294001,11.8565735 91.098,11.8565735 C90.8366654,11.8565735 90.5940011,11.8985731 90.37,11.9825735 C90.1459989,12.0665739 89.9500008,12.1995726 89.782,12.3815735 C89.6139992,12.5635744 89.4833338,12.7945721 89.39,13.0745735 C89.2966662,13.3545749 89.25,13.6859049 89.25,14.0685735 L89.25,17.4845735 L87.99,17.4845735 L87.99,6.9005735 Z M95.872,10.8485735 L97.132,10.8485735 L97.132,17.4845735 L95.872,17.4845735 L95.872,10.8485735 Z M95.578,8.4685735 C95.578,8.21657224 95.6689991,7.99957441 95.851,7.8175735 C96.0330009,7.63557259 96.2499987,7.5445735 96.502,7.5445735 C96.7540013,7.5445735 96.9709991,7.63557259 97.153,7.8175735 C97.3350009,7.99957441 97.426,8.21657224 97.426,8.4685735 C97.426,8.72057476 97.3350009,8.93757259 97.153,9.1195735 C96.9709991,9.30157441 96.7540013,9.3925735 96.502,9.3925735 C96.2499987,9.3925735 96.0330009,9.30157441 95.851,9.1195735 C95.6689991,8.93757259 95.578,8.72057476 95.578,8.4685735 Z M102.662,12.5145735 C102.512666,12.3279059 102.328334,12.1715741 102.109,12.0455735 C101.889666,11.9195729 101.621335,11.8565735 101.304,11.8565735 C101.005332,11.8565735 100.746334,11.9195729 100.527,12.0455735 C100.307666,12.1715741 100.198,12.3559056 100.198,12.5985735 C100.198,12.7945745 100.260999,12.9532396 100.387,13.0745735 C100.513001,13.1959074 100.662332,13.2939065 100.835,13.3685735 C101.007668,13.4432405 101.191999,13.49924 101.388,13.5365735 C101.584001,13.573907 101.751999,13.6065734 101.892,13.6345735 C102.162668,13.6999072 102.416999,13.7792397 102.655,13.8725735 C102.893001,13.9659073 103.098332,14.0872394 103.271,14.2365735 C103.443668,14.3859076 103.579,14.5679058 103.677,14.7825735 C103.775,14.9972412 103.824,15.258572 103.824,15.5665735 C103.824,15.9399087 103.744667,16.2595722 103.586,16.5255735 C103.427333,16.7915748 103.222001,17.0085727 102.97,17.1765735 C102.717999,17.3445743 102.431002,17.4659065 102.109,17.5405735 C101.786998,17.6152405 101.462668,17.6525735 101.136,17.6525735 C100.585331,17.6525735 100.102335,17.5685743 99.687,17.4005735 C99.2716646,17.2325727 98.9006683,16.9245757 98.574,16.4765735 L99.526,15.6925735 C99.7313344,15.8979079 99.9599987,16.079906 100.212,16.2385735 C100.464001,16.397241 100.771998,16.4765735 101.136,16.4765735 C101.294667,16.4765735 101.455666,16.4602403 101.619,16.4275735 C101.782334,16.3949067 101.926999,16.3435739 102.053,16.2735735 C102.179001,16.2035732 102.281666,16.1149074 102.361,16.0075735 C102.440334,15.9002396 102.48,15.7765742 102.48,15.6365735 C102.48,15.4499059 102.421667,15.2959074 102.305,15.1745735 C102.188333,15.0532396 102.048334,14.9575739 101.885,14.8875735 C101.721666,14.8175732 101.549001,14.7615737 101.367,14.7195735 C101.184999,14.6775733 101.024001,14.6425736 100.884,14.6145735 C100.613332,14.5492398 100.356668,14.4745739 100.114,14.3905735 C99.8713321,14.3065731 99.6566676,14.1945742 99.47,14.0545735 C99.2833324,13.9145728 99.1340006,13.7372412 99.022,13.5225735 C98.9099994,13.3079058 98.854,13.0419084 98.854,12.7245735 C98.854,12.3792384 98.9263326,12.0782415 99.071,11.8215735 C99.2156674,11.5649056 99.4069988,11.3525743 99.645,11.1845735 C99.8830012,11.0165727 100.153665,10.8905739 100.457,10.8065735 C100.760335,10.7225731 101.065998,10.6805735 101.374,10.6805735 C101.822002,10.6805735 102.251331,10.7645727 102.662,10.9325735 C103.072669,11.1005743 103.399332,11.3805715 103.642,11.7725735 L102.662,12.5145735 Z M105.35,6.9005735 L106.61,6.9005735 L106.61,13.7325735 L109.466,10.8625735 L111.216,10.8625735 L108.122,13.8725735 L111.482,17.4845735 L109.69,17.4845735 L106.61,14.0405735 L106.61,17.4845735 L105.35,17.4845735 L105.35,6.9005735 Z" id="OpenWhisk" fill="#29558F"></path>
                </g>
            </g>
        </g>
    </g>
</svg>