<?xml version="1.0" encoding="UTF-8"?>
<svg width="147px" height="225px" viewBox="0 0 147 225" version="1.1" xmlns="http://www.w3.org/2000/svg" xmlns:xlink="http://www.w3.org/1999/xlink">
    <!-- Generator: Sketch 41.2 (35397) - http://www.bohemiancoding.com/sketch -->
    <title>persona-integrator-torso</title>
    <desc>Created with Sketch.</desc>
    <defs>
        <polygon id="path-1" points="0 0.637720295 0 97.5838292 87.655715 97.5838292 87.655715 0.637720295 0 0.637720295"></polygon>
    </defs>
    <g id="Home" stroke="none" stroke-width="1" fill="none" fill-rule="evenodd">
        <g id="who-integrator-copy" transform="translate(-49.000000, 0.000000)">
            <g id="persona-integrator-torso" transform="translate(49.000000, 0.000000)">
                <g id="Group-20" transform="translate(35.687967, 156.000000)">
                    <path d="M57.7316523,68.2497912 L9.85529316,68.2497912 C4.74770776,68.2497912 0.570181088,64.0718148 0.570181088,58.9653991 L0.570181088,26.9837631 C0.570181088,21.8773474 4.74770776,17.699371 9.85529316,17.699371 L25.7103958,17.699371 L33.7938596,20.0034476 L42.1527817,17.699371 L57.7316523,17.699371 C62.8384639,17.699371 67.0167644,21.8773474 67.0167644,26.9837631 L67.0167644,58.9653991 C67.0167644,64.0718148 62.8384639,68.2497912 57.7316523,68.2497912 Z" id="Fill-1" fill="#EBEBEB"></path>
                    <path d="M43.5198597,68.2497912 L57.7314975,68.2497912 C62.8383092,68.2497912 67.0166096,64.0718148 67.0166096,58.9653991 L67.0166096,26.9837631 C67.0166096,21.8773474 62.8383092,17.699371 57.7314975,17.699371 L47.2919365,17.699371" id="Fill-3" fill="#AAAAAA"></path>
                    <path d="M24.0663119,68.2497912 L9.85467415,68.2497912 C4.74786251,68.2497912 0.56956208,64.0718148 0.56956208,58.9653991 L0.56956208,26.9837631 C0.56956208,21.8773474 4.74786251,17.699371 9.85467415,17.699371 L20.2942352,17.699371" id="Fill-5" fill="#AAAAAA"></path>
                    <polygon id="Fill-7" fill="#939393" points="24.5174136 14.1210889 8.97800482 17.6994483 16.5221584 30.5297045 9.62254635 46.326324 24.0663119 68.2498686 21.5399877 23.7072237 24.5174136 17.6994483"></polygon>
                    <polygon id="Fill-10" fill="#939393" points="43.0687581 14.1210889 58.6081669 17.6994483 51.0640133 30.5297045 57.9636253 46.326324 43.5198597 68.2498686 46.046184 23.7072237 43.0687581 17.6994483"></polygon>
                    <path d="M33.7934727,27.3706901 L33.7934727,27.3706901 C28.6913036,27.3706901 24.5176458,23.1965822 24.5176458,18.0963561 L24.5176458,9.56554714 C24.5176458,4.46532107 28.6913036,0.291213117 33.7934727,0.291213117 C38.894868,0.291213117 43.0685259,4.46532107 43.0685259,9.56554714 L43.0685259,18.0963561 C43.0685259,23.1965822 38.894868,27.3706901 33.7934727,27.3706901" id="Fill-20" fill="#936454"></path>
                    <path d="M43.0687581,9.56577925 C43.0687581,4.46477948 38.8943264,0.291445227 33.7937049,0.291445227 C28.6915358,0.291445227 24.5171041,4.46477948 24.5171041,9.56577925 L24.5171041,12.6280812 C27.9750346,13.1982977 31.5188524,13.5100985 35.1377248,13.5100985 L35.1384986,13.5100985 C37.824991,13.5100985 40.4681529,13.3267318 43.0687581,13.0087413 L43.0687581,9.56577925 Z" id="Fill-22" fill="#000000"></path>
                </g>
                <g id="Group-19" transform="translate(0.687967, 0.000000)">
                    <g id="face">
                        <g id="Group-17" transform="translate(0.000000, 22.314263)">
                            <mask id="mask-2" fill="white">
                                <use xlink:href="#path-1"></use>
                            </mask>
                            <g id="Clip-16"></g>
                            <path d="M1.38077354,39.2698065 C-4.62437269,65.5817737 9.51453172,91.2492494 32.9609872,96.5993804 C56.406669,101.949511 80.2817871,84.9567527 86.2869334,58.6440117 C92.2920796,32.3320445 77.954319,-4.84111416 54.7067197,1.31443781 C39.3143252,5.39028595 18.8909474,3.56048701 8.36936789,14.4928587 C2.0570392,21.051508 3.63318698,29.4028188 1.38077354,39.2698065" id="Fill-15" fill="#000000" mask="url(#mask-2)"></path>
                        </g>
                        <path d="M120.357259,16.3301625 C121.041263,19.3259264 121.98757,29.6524915 120.691523,32.7557996 C115.917428,44.1810178 97.4129737,48.2831717 75.3484523,53.318407 C47.2903912,59.7199954 21.9497728,53.5412324 18.7487304,39.5156108 C15.547688,25.4907628 35.6987025,8.93127573 63.7575374,2.52813997 C91.8148248,-3.87422209 117.155443,2.30454086 120.357259,16.3301625" id="Fill-13" fill="#000000"></path>
                        <path d="M134.618108,61.5840692 C140.624028,87.8960365 126.48435,113.563512 103.038668,118.913643 C79.5922128,124.263774 55.7170946,107.271015 49.7127222,80.9582745 C43.7068022,54.6463072 58.0445627,17.4731486 81.2921621,23.6287006 C96.6853304,27.7045487 117.108708,25.8747498 127.630288,36.8071215 C133.942616,43.3657708 132.366469,51.7170815 134.618108,61.5840692" id="Fill-18" fill="#000000"></path>
                        <path d="M128.008656,114.638335 L128.008656,114.638335 C130.281961,114.88824 132.346351,113.232524 132.597049,110.958621 L134.105106,97.2254579 C134.35503,94.9523292 132.699185,92.8880994 130.425106,92.6374208 C128.151801,92.3882896 126.087412,94.0440062 125.836713,96.3171349 L124.328657,110.050298 C124.078732,112.324201 125.735351,114.389204 128.008656,114.638335" id="Fill-24" fill="#724C42"></path>
                        <path d="M9.57782523,114.638335 L9.57782523,114.638335 C7.30452029,114.88824 5.23935661,113.232524 4.98943235,110.958621 L3.4813754,97.2254579 C3.23145113,94.9523292 4.88729612,92.8880994 7.16060105,92.6374208 C9.43467975,92.3882896 11.4990697,94.0440062 11.7489939,96.3171349 L13.2578246,110.050298 C13.5077489,112.324201 11.8511302,114.389204 9.57782523,114.638335" id="Fill-26" fill="#724C42"></path>
                        <path d="M130.01718,70.8813047 L127.941184,129.472009 C127.846786,132.125797 126.513598,134.581519 124.337787,136.105707 L92.3559921,158.501982 C78.2093501,168.409202 59.3768216,168.409202 45.2301796,158.501982 L13.2499323,136.10648 C11.074121,134.582293 9.73938618,132.125024 9.64653506,129.470461 L7.60148913,71.2573226 C7.56512244,70.8333354 7.53804086,70.4085744 7.5202444,69.9853609 C6.86332272,54.5129214 20.4861296,42.22116 35.8963206,43.7708798 L58.9249461,46.0857882 C63.5218503,46.5484604 68.1535737,46.5724451 72.7551205,46.1585159 L102.150238,43.5140116 C117.391749,42.1422427 130.757668,54.3434813 130.097651,69.6310066 C130.079855,70.0472569 130.052773,70.4635071 130.01718,70.8813047" id="Fill-28" fill="#936454"></path>
                        <path d="M59.9564447,152.178614 L59.0782278,148.411472 L64.2910445,147.196764 C67.2452577,146.508172 70.3704716,146.508172 73.3277798,147.199085 L78.5096461,148.411472 L77.6283342,152.178614 L72.4472417,150.967001 C70.0648367,150.409164 67.5493451,150.409164 65.1684876,150.963906 L59.9564447,152.178614 Z" id="Fill-30" fill="#000000"></path>
                        <path d="M110.290031,70.2443181 L103.610167,67.9162568 C100.448586,66.8137352 97.0208324,66.4493228 93.7006311,66.8624782 L86.6385296,67.7383059 L86.1618939,63.8984361 L93.2239954,63.0226084 C97.13148,62.5382726 101.164314,62.9676758 104.884549,64.2643959 L111.563639,66.5916835 L110.290031,70.2443181 Z" id="Fill-32" fill="#000000"></path>
                        <path d="M48.1123557,92.4972265 C48.1123557,97.3552846 44.1731469,101.294188 39.314712,101.294188 C34.4555034,101.294188 30.5170683,97.3552846 30.5170683,92.4972265 C30.5170683,87.6383946 34.4555034,83.7002649 39.314712,83.7002649 C44.1731469,83.7002649 48.1123557,87.6383946 48.1123557,92.4972265" id="Fill-34" fill="#FFFFFF"></path>
                        <path d="M42.7591791,92.4972265 C40.8565049,92.4972265 39.3144025,90.9552437 39.3144025,89.052717 C39.3144025,87.6530949 40.1523839,86.4538609 41.3517109,85.9153662 C40.7079431,85.7157517 40.0239398,85.6082075 39.3144025,85.6082075 C35.5098279,85.6082075 32.4256231,88.6921731 32.4256231,92.4972265 C32.4256231,96.3015061 35.5098279,99.3854717 39.3144025,99.3854717 C43.1189772,99.3854717 46.2039557,96.3015061 46.2039557,92.4972265 C46.2039557,91.7877442 46.0956294,91.1037939 45.8967732,90.4600761 C45.357463,91.6585364 44.1589098,92.4972265 42.7591791,92.4972265" id="Fill-36" fill="#000000"></path>
                        <path d="M107.102065,92.4972265 C107.102065,97.3552846 103.162857,101.294188 98.3044218,101.294188 C93.4452131,101.294188 89.5067781,97.3552846 89.5067781,92.4972265 C89.5067781,87.6383946 93.4452131,83.7002649 98.3044218,83.7002649 C103.162857,83.7002649 107.102065,87.6383946 107.102065,92.4972265" id="Fill-38" fill="#FFFFFF"></path>
                        <path d="M101.162147,92.4481739 C99.7438463,92.213743 98.5870761,91.0578362 98.352627,89.6388716 C98.0810375,87.9939868 98.9778246,86.5286003 100.341189,85.9158304 C99.452139,85.6403934 98.4864874,85.5390388 97.4836953,85.6566411 C94.2834266,86.0280168 91.7122244,88.6864477 91.4406348,91.8957526 C91.0777417,96.1750837 94.6316183,99.7263636 98.912055,99.3596302 C102.120061,99.0849669 104.776377,96.5124166 105.14546,93.3131698 C105.261524,92.3112291 105.160935,91.3471998 104.886251,90.4605403 C104.273433,91.8230249 102.80716,92.7205161 101.162147,92.4481739" id="Fill-40" fill="#000000"></path>
                        <path d="M71.6330921,143.53647 C63.1789976,143.53647 54.847157,141.240904 47.4871582,136.797549 L46.5462668,136.229653 L48.5472085,132.91822 L49.4873261,133.486889 C58.7229175,139.062167 69.630603,140.95154 80.2063456,138.804525 L81.2826448,138.586342 L82.0517616,142.377468 L80.9754624,142.595652 C77.874235,143.225443 74.7443784,143.53647 71.6330921,143.53647" id="Fill-42" fill="#000000"></path>
                        <polygon id="Fill-44" fill="#000000" points="61.9200911 127.249557 75.6984237 127.249557 75.6984237 123.381061 61.9200911 123.381061"></polygon>
                        <polygon id="Fill-46" fill="#000000" points="25.1224956 75.1282952 22.7075927 72.1062255 28.2221755 67.7000078 46.2453518 68.147206 46.1494057 72.0141553 29.5352451 71.6017736"></polygon>
                        <path d="M45.0146876,28.896742 C43.6188257,19.931114 56.4415655,21.9272583 61.4795126,21.9489219 C66.3069971,21.9690381 69.8593262,20.3922388 73.400049,17.1929921 C75.457475,15.3337925 77.3663393,13.181361 79.9112338,11.9651056 C83.6353375,10.1863708 86.2676668,12.3434446 89.832376,12.9662725 C92.7169509,13.4714982 95.423561,12.5183006 96.4983127,9.70358242 C97.0314329,8.3070551 94.7883046,7.70279592 94.2606007,9.08694404 C92.7471275,13.0490584 86.9694665,9.18210906 84.299223,8.86953453 C82.3601821,8.64284062 80.4799469,9.10628653 78.7397622,9.9604506 C72.8189557,12.8695601 70.1456172,19.1651517 62.8738269,19.6038392 C57.886948,19.9048083 52.5750901,18.2924188 47.8226602,20.5106148 C44.2362857,22.1849002 42.168027,25.6061987 42.7762018,29.5141541 C43.0052346,30.9849565 45.2421728,30.3605812 45.0146876,28.896742" id="Fill-54" fill="#494949"></path>
                        <path d="M70.3734119,35.3100132 C75.015968,30.387738 82.1980021,33.4740247 88.0306,32.5734387 C90.3758646,32.2105737 92.27467,31.200896 94.284123,29.9939251 C97.4201696,28.1091935 100.234332,27.3509681 103.720118,26.5401312 C107.191976,25.7323891 111.463128,24.1122626 112.404019,20.2081758 C113.123615,17.2263385 111.490209,14.1694524 108.500403,13.4530068 C107.048057,13.1048421 106.42905,15.3423806 107.883717,15.691319 C110.26148,16.2607617 110.406946,18.5656121 109.563549,20.3660104 C108.71164,22.1849776 107.397796,22.9942671 105.486611,23.6689329 C103.669824,24.3103297 101.724593,24.5300603 99.8582853,24.9772585 C95.7465282,25.9614041 92.7528533,29.0763176 88.7323998,30.0883164 C81.9295077,31.800513 74.2770278,27.7881082 68.7322684,33.6689969 C67.707811,34.7552708 69.3458595,36.3993819 70.3734119,35.3100132" id="Fill-55" fill="#494949"></path>
                    </g>
                    <g id="integrator" transform="translate(83.000000, 148.000000)">
                        <path d="M62.7727002,31.0337185 C62.7727002,48.1525901 48.893779,62.0296615 31.7743536,62.0296615 C14.6549282,62.0296615 0.776780699,48.1525901 0.776780699,31.0337185 C0.776780699,13.9156205 14.6549282,0.0377753779 31.7743536,0.0377753779 C48.893779,0.0377753779 62.7727002,13.9156205 62.7727002,31.0337185" id="Fill-47" fill="#FF991F"></path>
                        <path d="M27.8756898,39.5950112 L18.4938578,39.5950112 C14.802252,39.5950112 11.7814955,36.5752626 11.7814955,32.8831694 L11.7814955,29.1848865 C11.7814955,25.4927932 14.802252,22.4730447 18.4938578,22.4730447 L27.8756898,22.4730447 L27.8756898,39.5950112 Z" id="Fill-48" fill="#FFFFFF"></path>
                        <path d="M34.9846037,22.4731221 L44.3656619,22.4731221 C48.0580415,22.4731221 51.0780242,25.4928706 51.0780242,29.1849639 L51.0780242,32.8832467 C51.0780242,36.57534 48.0580415,39.5950885 44.3656619,39.5950885 L34.9846037,39.5950885 L34.9846037,22.4731221 Z" id="Fill-49" fill="#FFFFFF"></path>
                        <polygon id="Fill-50" fill="#FFFFFF" points="23.5528511 29.6986229 32.1268783 29.6986229 32.1268783 26.6038255 23.5528511 26.6038255"></polygon>
                        <polygon id="Fill-51" fill="#FFFFFF" points="6.78703374 32.5814266 16.1355941 32.5814266 16.1355941 29.4866292 6.78703374 29.4866292"></polygon>
                        <polygon id="Fill-52" fill="#FFFFFF" points="47.4148154 32.5814266 56.762602 32.5814266 56.762602 29.4866292 47.4148154 29.4866292"></polygon>
                        <polygon id="Fill-53" fill="#FFFFFF" points="23.5528511 36.0058199 32.1268783 36.0058199 32.1268783 32.9110225 23.5528511 32.9110225"></polygon>
                    </g>
                </g>
            </g>
        </g>
    </g>
</svg>