<?xml version="1.0" encoding="UTF-8"?>
<svg width="144px" height="227px" viewBox="0 0 144 227" version="1.1" xmlns="http://www.w3.org/2000/svg" xmlns:xlink="http://www.w3.org/1999/xlink">
    <!-- Generator: Sketch 41.2 (35397) - http://www.bohemiancoding.com/sketch -->
    <title>DEVELOPER</title>
    <desc>Created with Sketch.</desc>
    <defs>
        <polygon id="path-1" points="72.9546112 0.669249932 0.594247173 0.669249932 0.594247173 48.901048 72.9546112 48.901048 72.9546112 0.669249932"></polygon>
        <polygon id="path-3" points="0 226.024658 143.486706 226.024658 143.486706 0.773699343 0 0.773699343"></polygon>
    </defs>
    <g id="Home" stroke="none" stroke-width="1" fill="none" fill-rule="evenodd">
        <g transform="translate(-374.000000, -682.000000)" id="who-dev">
            <g transform="translate(323.000000, 682.000000)">
                <g id="DEVELOPER" transform="translate(51.235486, 0.000000)">
                    <path d="M125.722274,116.413202 C127.995579,116.663106 130.060743,115.00739 130.310667,112.733488 L131.818724,99.0003242 C132.068649,96.7271955 130.412804,94.6629657 128.139499,94.4122871 C125.86542,94.1631559 123.80103,95.8188725 123.551106,98.0920012 L122.042275,111.825164 C121.792351,114.099067 123.448196,116.16407 125.722274,116.413202 Z" id="Fill-1" fill="#E0B999"></path>
                    <path d="M7.29175326,116.413202 L7.29175326,116.413202 C5.01767456,116.663106 2.95328465,115.00739 2.70336038,112.733488 L1.19452967,99.0003242 C0.944605402,96.7271955 2.60122415,94.6629657 4.87452909,94.4122871 L4.87452909,94.4122871 C7.14860778,94.1631559 9.2129977,95.8188725 9.46292197,98.0920012 L10.9717527,111.825164 C11.2216769,114.099067 9.5650582,116.16407 7.29175326,116.413202" id="Fill-3" fill="#E0B999"></path>
                    <path d="M90.4451934,226.024658 L42.5688343,226.024658 C37.4620227,226.024658 33.2837222,221.846681 33.2837222,216.740265 L33.2837222,184.758629 C33.2837222,179.652214 37.4620227,175.474237 42.5688343,175.474237 L90.4451934,175.474237 C95.5520051,175.474237 99.7303055,179.652214 99.7303055,184.758629 L99.7303055,216.740265 C99.7303055,221.846681 95.5520051,226.024658 90.4451934,226.024658" id="Fill-5" fill="#473D34"></path>
                    <path d="M66.5070139,192.88255 L66.5070139,192.88255 C61.4056186,192.88255 57.2311869,188.708442 57.2311869,183.608216 L57.2311869,167.340413 C57.2311869,162.240187 61.4056186,158.066079 66.5070139,158.066079 C71.6084092,158.066079 75.7820671,162.240187 75.7820671,167.340413 L75.7820671,183.608216 C75.7820671,188.708442 71.6084092,192.88255 66.5070139,192.88255" id="Fill-7" fill="#E0B999"></path>
                    <path d="M75.7822992,167.340646 C75.7822992,162.239646 71.6086413,158.066312 66.507246,158.066312 C61.4050769,158.066312 57.231419,162.239646 57.231419,167.340646 L57.231419,170.402948 C60.6885758,170.973164 64.2331673,171.284965 67.851266,171.284965 L67.8520397,171.284965 C70.5385322,171.284965 73.1816941,171.101598 75.7822992,170.783608 L75.7822992,167.340646 Z" id="Fill-9" fill="#8E6A4A"></path>
                    <path d="M66.5070139,197.324513 C58.7995971,197.324513 52.5282776,191.054453 52.5282776,183.347634 L52.5282776,175.664799 L56.3970743,175.664799 L56.3970743,183.347634 C56.3970743,188.921364 60.9320778,193.456016 66.5070139,193.456016 C72.0811762,193.456016 76.6161796,188.921364 76.6161796,183.347634 L76.6161796,175.664799 L80.4849763,175.664799 L80.4849763,183.347634 C80.4849763,191.054453 74.2144307,197.324513 66.5070139,197.324513" id="Fill-11" fill="#000000"></path>
                    <path d="M129.374573,53.4232433 L123.421269,123.08868 C122.307056,136.130156 114.730404,147.745704 103.243173,154.021179 L85.9295339,163.481201 C82.9699045,165.099006 79.6512507,165.946207 76.2784337,165.946207 L66.506627,165.946207 L56.7355941,165.946207 C53.3627771,165.946207 50.0441233,165.099006 47.0837201,163.481201 L29.7708548,154.021179 C18.2836237,147.745704 10.7069722,136.130156 9.59198503,123.08868 L3.63945443,53.4232433 L67.8514207,19.7603586 L129.374573,53.4232433 Z" id="Fill-13" fill="#E0B999"></path>
                    <path d="M47.9462296,110.457109 L27.2396559,110.457109 C22.1328443,110.457109 17.9545438,106.279907 17.9545438,101.172717 L17.9545438,88.7378214 C17.9545438,87.451933 19.0068565,86.3989282 20.2928446,86.3989282 L54.8930409,86.3989282 C56.179029,86.3989282 57.2313417,87.451933 57.2313417,88.7378214 L57.2313417,101.172717 C57.2313417,106.279907 53.0530412,110.457109 47.9462296,110.457109" id="Fill-15" fill="#FFFFFF"></path>
                    <path d="M20.2930767,88.3334087 C20.0741028,88.3334087 19.8891743,88.5183229 19.8891743,88.7372798 L19.8891743,101.172949 C19.8891743,105.225586 23.1861629,108.523093 27.239888,108.523093 L47.9464617,108.523093 C51.9994131,108.523093 55.2971754,105.225586 55.2971754,101.172949 L55.2971754,88.7372798 C55.2971754,88.5183229 55.112247,88.3334087 54.8924993,88.3334087 L20.2930767,88.3334087 Z M47.9464617,112.39159 L27.239888,112.39159 C21.0529084,112.39159 16.0203776,107.358676 16.0203776,101.172949 L16.0203776,88.7372798 C16.0203776,86.382139 17.9369795,84.464912 20.2930767,84.464912 L54.8924993,84.464912 C57.2485965,84.464912 59.1659721,86.382139 59.1659721,88.7372798 L59.1659721,101.172949 C59.1659721,107.358676 54.1326676,112.39159 47.9464617,112.39159 L47.9464617,112.39159 Z" id="Fill-17" fill="#000000"></path>
                    <path d="M107.577463,110.457109 L86.8708895,110.457109 C81.7640779,110.457109 77.5857775,106.279907 77.5857775,101.172717 L77.5857775,88.7378214 C77.5857775,87.451933 78.6380902,86.3989282 79.9240782,86.3989282 L114.524275,86.3989282 C115.810263,86.3989282 116.862575,87.451933 116.862575,88.7378214 L116.862575,101.172717 C116.862575,106.279907 112.684275,110.457109 107.577463,110.457109" id="Fill-19" fill="#FFFFFF"></path>
                    <path d="M79.9243103,88.3334087 C79.7053364,88.3334087 79.5204079,88.5183229 79.5204079,88.7372798 L79.5204079,101.172949 C79.5204079,105.225586 82.8173965,108.523093 86.8711217,108.523093 L107.577695,108.523093 C111.630647,108.523093 114.928409,105.225586 114.928409,101.172949 L114.928409,88.7372798 C114.928409,88.5183229 114.743481,88.3334087 114.523733,88.3334087 L79.9243103,88.3334087 Z M107.577695,112.39159 L86.8711217,112.39159 C80.684142,112.39159 75.6516113,107.358676 75.6516113,101.172949 L75.6516113,88.7372798 C75.6516113,86.382139 77.5682131,84.464912 79.9243103,84.464912 L114.523733,84.464912 C116.87983,84.464912 118.797206,86.382139 118.797206,88.7372798 L118.797206,101.172949 C118.797206,107.358676 113.763901,112.39159 107.577695,112.39159 L107.577695,112.39159 Z" id="Fill-21" fill="#494949"></path>
                    <path d="M132.638909,95.0004533 L116.86273,95.0004533 C115.794168,95.0004533 114.928332,94.1346838 114.928332,93.066205 C114.928332,91.9977262 115.794168,91.1319566 116.86273,91.1319566 L132.638909,91.1319566 C133.707471,91.1319566 134.573308,91.9977262 134.573308,93.066205 C134.573308,94.1346838 133.707471,95.0004533 132.638909,95.0004533" id="Fill-23" fill="#000000"></path>
                    <path d="M76.46313,99.1122785 L74.6006913,98.1791971 C70.3744178,96.0623557 65.3287332,96.0623557 61.1024596,98.1791971 L59.2407947,99.1122785 L57.5068,95.6530687 L59.3692387,94.7199873 C64.6810966,92.0607827 71.0228281,92.0607827 76.3339122,94.7199873 L78.196351,95.6530687 L76.46313,99.1122785 Z" id="Fill-25" fill="#000000"></path>
                    <path d="M17.7107323,95.0004533 L1.9345531,95.0004533 C0.865991453,95.0004533 0.000154751869,94.1346838 0.000154751869,93.066205 C0.000154751869,91.9977262 0.865991453,91.1319566 1.9345531,91.1319566 L17.7107323,91.1319566 C18.7792939,91.1319566 19.6451306,91.9977262 19.6451306,93.066205 C19.6451306,94.1346838 18.7792939,95.0004533 17.7107323,95.0004533" id="Fill-27" fill="#000000"></path>
                    <path d="M22.8961579,71.590787 L20.053366,68.9671726 L20.7598083,68.2019839 C27.1920697,61.2325002 36.8872742,58.3914763 46.0632862,60.7876231 L47.0714947,61.0506809 L46.0950104,64.7938383 L45.086802,64.5307805 C37.2965929,62.4990461 29.0637936,64.9083458 23.6033739,70.8255984 L22.8961579,71.590787 Z" id="Fill-29" fill="#543824"></path>
                    <path d="M111.958566,66.6743146 L111.249029,65.9122207 C105.763075,60.0181791 97.5202167,57.6421484 89.7377453,59.7094731 L88.7303106,59.9771731 L87.7368036,56.2386578 L88.7442383,55.9709579 C97.9109652,53.5345786 107.617776,56.3353702 114.080214,63.2754534 L114.789751,64.0375472 L111.958566,66.6743146 Z" id="Fill-31" fill="#543824"></path>
                    <path d="M105.829309,94.2720928 C105.829309,99.1301509 101.890874,103.069054 97.0316651,103.069054 C92.1732302,103.069054 88.2340214,99.1301509 88.2340214,94.2720928 C88.2340214,89.4132609 92.1732302,85.4751312 97.0316651,85.4751312 C101.890874,85.4751312 105.829309,89.4132609 105.829309,94.2720928" id="Fill-33" fill="#936C34"></path>
                    <path d="M100.476519,94.2720928 C98.5738448,94.2720928 97.0317424,92.73011 97.0317424,90.8275833 C97.0317424,89.4279612 97.8697238,88.2287272 99.0690508,87.6902324 C98.425283,87.490618 97.7412798,87.3830738 97.0317424,87.3830738 C93.2271678,87.3830738 90.142963,90.4670394 90.142963,94.2720928 C90.142963,98.0763724 93.2271678,101.160338 97.0317424,101.160338 C100.836317,101.160338 103.921296,98.0763724 103.921296,94.2720928 C103.921296,93.5626105 103.812969,92.8786602 103.614113,92.2349424 C103.074803,93.4334027 101.87625,94.2720928 100.476519,94.2720928" id="Fill-35" fill="#000000"></path>
                    <path d="M46.8399859,94.2720928 C46.8399859,99.1301509 42.9007771,103.069054 38.0423422,103.069054 C33.1831335,103.069054 29.2446985,99.1301509 29.2446985,94.2720928 C29.2446985,89.4132609 33.1831335,85.4751312 38.0423422,85.4751312 C42.9007771,85.4751312 46.8399859,89.4132609 46.8399859,94.2720928" id="Fill-37" fill="#936C34"></path>
                    <path d="M41.4868093,94.2720928 C39.5849088,94.2720928 38.0420327,92.73011 38.0420327,90.8275833 C38.0420327,89.4279612 38.8807878,88.2287272 40.079341,87.6902324 C39.4355732,87.490618 38.75157,87.3830738 38.0420327,87.3830738 C34.237458,87.3830738 31.1532533,90.4670394 31.1532533,94.2720928 C31.1532533,98.0763724 34.237458,101.160338 38.0420327,101.160338 C41.8466073,101.160338 44.9315858,98.0763724 44.9315858,94.2720928 C44.9315858,93.5626105 44.8232595,92.8786602 44.6244034,92.2349424 C44.0858669,93.4334027 42.8865399,94.2720928 41.4868093,94.2720928" id="Fill-39" fill="#000000"></path>
                    <path d="M20.2930767,88.3334087 C20.0741028,88.3334087 19.8891743,88.5183229 19.8891743,88.7372798 L19.8891743,101.172949 C19.8891743,105.225586 23.1861629,108.523093 27.239888,108.523093 L47.9464617,108.523093 C51.9994131,108.523093 55.2971754,105.225586 55.2971754,101.172949 L55.2971754,88.7372798 C55.2971754,88.5183229 55.112247,88.3334087 54.8924993,88.3334087 L20.2930767,88.3334087 Z M47.9464617,112.39159 L27.239888,112.39159 C21.0529084,112.39159 16.0203776,107.358676 16.0203776,101.172949 L16.0203776,88.7372798 C16.0203776,86.382139 17.9369795,84.464912 20.2930767,84.464912 L54.8924993,84.464912 C57.2485965,84.464912 59.1659721,86.382139 59.1659721,88.7372798 L59.1659721,101.172949 C59.1659721,107.358676 54.1326676,112.39159 47.9464617,112.39159 L47.9464617,112.39159 Z" id="Fill-41" fill="#000000"></path>
                    <path d="M79.9243103,88.3334087 C79.7053364,88.3334087 79.5204079,88.5183229 79.5204079,88.7372798 L79.5204079,101.172949 C79.5204079,105.225586 82.8173965,108.523093 86.8711217,108.523093 L107.577695,108.523093 C111.630647,108.523093 114.928409,105.225586 114.928409,101.172949 L114.928409,88.7372798 C114.928409,88.5183229 114.743481,88.3334087 114.523733,88.3334087 L79.9243103,88.3334087 Z M107.577695,112.39159 L86.8711217,112.39159 C80.684142,112.39159 75.6516113,107.358676 75.6516113,101.172949 L75.6516113,88.7372798 C75.6516113,86.382139 77.5682131,84.464912 79.9243103,84.464912 L114.523733,84.464912 C116.87983,84.464912 118.797206,86.382139 118.797206,88.7372798 L118.797206,101.172949 C118.797206,107.358676 113.763901,112.39159 107.577695,112.39159 L107.577695,112.39159 Z" id="Fill-43" fill="#000000"></path>
                    <path d="M73.331107,146.137957 L55.3117995,146.137957 C51.0383267,146.137957 46.9103206,144.592105 43.6883867,141.78435 L37.8542413,136.700372 L40.3968145,133.783526 L46.2309599,138.868278 C48.747999,141.060942 51.9730279,142.26946 55.3117995,142.26946 L73.331107,142.26946 L73.331107,146.137957 Z" id="Fill-45" fill="#543824"></path>
                    <path d="M45.0556195,27.4664814 L33.6124926,27.4664814 C16.9650604,27.4664814 3.46915,40.9605716 3.46915,57.6074867 L3.46915,73.6153261 C3.46915,75.3081803 5.66585276,75.9696932 6.6013278,74.5592393 L13.2982149,64.4593681 C19.7946983,54.6596922 28.0924935,46.1830422 37.7497838,39.4781637 L46.9683525,33.0781227 C49.5155683,31.3102197 48.1522043,27.3109678 45.0556195,27.4664814" id="Fill-47" fill="#543824"></path>
                    <path d="M25.8102129,40.0942605 C18.4084311,43.8513445 12.5263126,49.7933555 8.85095571,57.2363431 C8.19171275,58.5709745 10.1926544,59.7485449 10.8549924,58.4077239 C14.3725024,51.2858215 19.897144,45.6942963 26.9816845,42.0989155 C28.3140981,41.4227023 27.141079,39.4195947 25.8102129,40.0942605" id="Fill-49" fill="#936C34"></path>
                    <path d="M3.4694595,65.3558535 L3.4694595,89.4217716 C3.4694595,90.0507891 3.97936691,90.560657 4.60765949,90.560657 L9.4010986,90.560657 C10.161704,90.560657 10.7079781,89.8287374 10.492873,89.0991389 L3.4694595,65.3558535 Z" id="Fill-51" fill="#543824"></path>
                    <path d="M87.9580988,27.4664814 L99.4012257,27.4664814 C116.048658,27.4664814 129.544568,40.9605716 129.544568,57.6074867 L129.544568,73.6153261 C129.544568,75.3081803 127.347865,75.9696932 126.41239,74.5592393 L119.715503,64.4593681 C113.21902,54.6596922 104.921999,46.1830422 95.2639345,39.4781637 L86.0453657,33.0781227 C83.49815,31.3102197 84.8615139,27.3109678 87.9580988,27.4664814" id="Fill-53" fill="#543824"></path>
                    <path d="M106.031879,42.0987608 C113.115646,45.6933679 118.641061,51.284893 122.158571,58.4075692 C122.820135,59.7476165 124.822625,58.5723672 124.163382,57.2361884 C120.487251,49.7932007 114.605132,43.8511898 107.203351,40.0941058 C105.874032,39.4194399 104.697918,41.4217738 106.031879,42.0987608" id="Fill-55" fill="#936C34"></path>
                    <path d="M129.544646,65.3558535 L129.544646,89.4217716 C129.544646,90.0507891 129.034738,90.560657 128.405672,90.560657 L123.613007,90.560657 C122.852401,90.560657 122.305353,89.8287374 122.521232,89.0991389 L129.544646,65.3558535 Z" id="Fill-57" fill="#543824"></path>
                    <g id="Group-61" transform="translate(31.724133, 0.104449)">
                        <mask id="mask-2" fill="white">
                            <use xlink:href="#path-1"></use>
                        </mask>
                        <g id="Clip-60"></g>
                        <path d="M72.6854048,24.0761309 C69.3520496,39.1493415 56.5471063,48.901048 36.639826,48.901048 C16.7325457,48.901048 0.594247173,39.5129802 0.594247173,24.0761309 C21.0555391,24.0761309 20.5518218,11.0926822 36.639826,3.44389051 C57.1320683,-6.29853161 75.4028476,11.7866905 72.6854048,24.0761309" id="Fill-59" fill="#543824" mask="url(#mask-2)"></path>
                    </g>
                    <path d="M35.8298547,20.346049 C40.6619818,30.7229046 51.2942089,38.0034154 62.839472,38.1836873 C74.3870564,38.3639593 85.2258772,31.3782279 90.3744718,21.1653966 C91.0453212,19.8346337 89.0436058,18.657837 88.3704351,19.9940158 C83.5808648,29.4927226 73.6194871,36.053693 62.839472,35.8625893 C52.046303,35.6722593 42.3356232,28.8412678 37.8338914,19.1746682 C37.2040513,17.821468 35.2023359,18.9990384 35.8298547,20.346049" id="Fill-62" fill="#936C34"></path>
                    <path d="M48.4755584,16.616586 C56.3423696,25.6944004 69.6897182,26.2228371 78.4061171,18.0378717 C79.4978916,17.0134938 77.853653,15.3740249 76.7649736,16.3968554 C68.9059,23.7763998 57.1393417,23.0800704 50.1167019,14.9755697 C49.1363488,13.8444213 47.5006216,15.4924009 48.4755584,16.616586" id="Fill-64" fill="#936C34"></path>
                    <mask id="mask-4" fill="white">
                        <use xlink:href="#path-3"></use>
                    </mask>
                    <g id="Clip-67"></g>
                    <polygon id="Fill-66" fill="#543824" mask="url(#mask-4)" points="62.0841281 153.230381 70.9289711 153.230381 70.9289711 149.361884 62.0841281 149.361884"></polygon>
                    <polygon id="Fill-68" fill="#543824" mask="url(#mask-4)" points="59.6173833 129.024424 73.3957159 129.024424 73.3957159 125.155927 59.6173833 125.155927"></polygon>
                    <path d="M45.819552,226.024658 C45.819552,214.600213 55.0814513,205.339032 66.5067817,205.339032 C77.9321122,205.339032 87.1947852,214.600213 87.1947852,226.024658" id="Fill-69" fill="#000000" mask="url(#mask-4)"></path>
                    <path d="M143.486241,180.808585 C143.486241,197.927456 129.608094,211.804528 112.488669,211.804528 C95.3684694,211.804528 81.4903219,197.927456 81.4903219,180.808585 C81.4903219,163.690487 95.3684694,149.812642 112.488669,149.812642 C129.608094,149.812642 143.486241,163.690487 143.486241,180.808585" id="Fill-70" fill="#4193E5" mask="url(#mask-4)"></path>
                    <polygon id="Fill-71" fill="#FFFFFF" mask="url(#mask-4)" points="102.702547 192.105059 91.6346937 181.038064 103.161387 169.513039 105.896626 172.248066 97.105946 181.038064 105.43856 189.370032"></polygon>
                    <polygon id="Fill-72" fill="#FFFFFF" mask="url(#mask-4)" points="122.274403 192.105059 119.53839 189.370032 127.871004 181.038064 119.080324 172.248066 121.815564 169.513039 133.342256 181.038064"></polygon>
                    <polygon id="Fill-73" fill="#FFFFFF" mask="url(#mask-4)" points="109.859125 199.288239 106.106392 198.348968 115.117593 162.328621 118.870326 163.267892"></polygon>
                </g>
            </g>
        </g>
    </g>
</svg>