<?xml version="1.0" encoding="UTF-8"?>
<svg width="159px" height="173px" viewBox="0 0 159 173" version="1.1" xmlns="http://www.w3.org/2000/svg" xmlns:xlink="http://www.w3.org/1999/xlink">
    <!-- Generator: Sketch 41.2 (35397) - http://www.bohemiancoding.com/sketch -->
    <title>persona-developers</title>
    <desc>Created with Sketch.</desc>
    <defs>
        <polygon id="path-1" points="70.3017162 0.643367338 0.572638185 0.643367338 0.572638185 47.0098473 70.3017162 47.0098473 70.3017162 0.643367338"></polygon>
    </defs>
    <g id="Home" stroke="none" stroke-width="1" fill="none" fill-rule="evenodd">
        <g transform="translate(-250.000000, -1147.000000)" id="persona-developers">
            <g transform="translate(250.000000, 1147.000000)">
                <g id="Page-1">
                    <path d="M121.150555,111.911034 C123.341195,112.151274 125.331262,110.55959 125.572098,108.373629 L127.025316,95.1715824 C127.266152,92.9863647 125.67052,91.001967 123.479881,90.7609832 C121.288496,90.5214869 119.299174,92.1131702 119.058338,94.2983878 L117.604374,107.500434 C117.363538,109.686396 118.95917,111.671537 121.150555,111.911034 Z" id="Fill-1" fill="#E0B999"></path>
                    <path d="M7.0265986,111.911034 L7.0265986,111.911034 C4.83521367,112.151274 2.84589248,110.55959 2.60505637,108.373629 L1.15109223,95.1715824 C0.910256114,92.9863647 2.50663418,91.001967 4.69727348,90.7609832 L4.69727348,90.7609832 C6.88865841,90.5214869 8.8779796,92.1131702 9.11881572,94.2983878 L10.5727799,107.500434 C10.813616,109.686396 9.2172379,111.671537 7.0265986,111.911034" id="Fill-3" fill="#E0B999"></path>
                    <path d="M124.670043,51.357151 L118.933223,118.328344 C117.859526,130.865453 110.558389,142.031782 99.4888757,148.064559 L82.8048236,157.158724 C79.952817,158.713962 76.7548415,159.528398 73.5046725,159.528398 L64.0882042,159.528398 L54.6724815,159.528398 C51.4223125,159.528398 48.224337,158.713962 45.3715848,157.158724 L28.6882783,148.064559 C17.6187646,142.031782 10.3176278,130.865453 9.24318557,118.328344 L3.50711063,51.357151 L65.3840963,18.9961458 L124.670043,51.357151 Z" id="Fill-13" fill="#E0B999"></path>
                    <path d="M46.2027303,106.185287 L26.249123,106.185287 C21.3280136,106.185287 17.3016513,102.169634 17.3016513,97.2599602 L17.3016513,85.3059719 C17.3016513,84.0698141 18.3156981,83.0575332 19.5549229,83.0575332 L52.8969304,83.0575332 C54.1361552,83.0575332 55.150202,84.0698141 55.150202,85.3059719 L55.150202,97.2599602 C55.150202,102.169634 51.1238397,106.185287 46.2027303,106.185287" id="Fill-15" fill="#FFFFFF"></path>
                    <path d="M19.5551466,84.9171995 C19.3441354,84.9171995 19.1659316,85.0949623 19.1659316,85.3054513 L19.1659316,97.2601833 C19.1659316,101.156089 22.3430297,104.326067 26.2493467,104.326067 L46.202954,104.326067 C50.1085254,104.326067 53.2863691,101.156089 53.2863691,97.2601833 L53.2863691,85.3054513 C53.2863691,85.0949623 53.1081653,84.9171995 52.8964084,84.9171995 L19.5551466,84.9171995 Z M46.202954,108.044954 L26.2493467,108.044954 C20.2873481,108.044954 15.4378184,103.206683 15.4378184,97.2601833 L15.4378184,85.3054513 C15.4378184,83.0413933 17.2847257,81.1983132 19.5551466,81.1983132 L52.8964084,81.1983132 C55.1668294,81.1983132 57.0144822,83.0413933 57.0144822,85.3054513 L57.0144822,97.2601833 C57.0144822,103.206683 52.164207,108.044954 46.202954,108.044954 L46.202954,108.044954 Z" id="Fill-17" fill="#000000"></path>
                    <path d="M103.665555,106.185287 L83.7119481,106.185287 C78.7908387,106.185287 74.7644765,102.169634 74.7644765,97.2599602 L74.7644765,85.3059719 C74.7644765,84.0698141 75.7785233,83.0575332 77.0177481,83.0575332 L110.359756,83.0575332 C111.59898,83.0575332 112.613027,84.0698141 112.613027,85.3059719 L112.613027,97.2599602 C112.613027,102.169634 108.586665,106.185287 103.665555,106.185287" id="Fill-19" fill="#FFFFFF"></path>
                    <path d="M77.0179718,84.9171995 C76.8069606,84.9171995 76.6287568,85.0949623 76.6287568,85.3054513 L76.6287568,97.2601833 C76.6287568,101.156089 79.8058548,104.326067 83.7121718,104.326067 L103.665779,104.326067 C107.571351,104.326067 110.749194,101.156089 110.749194,97.2601833 L110.749194,85.3054513 C110.749194,85.0949623 110.57099,84.9171995 110.359234,84.9171995 L77.0179718,84.9171995 Z M103.665779,108.044954 L83.7121718,108.044954 C77.7501732,108.044954 72.9006436,103.206683 72.9006436,97.2601833 L72.9006436,85.3054513 C72.9006436,83.0413933 74.7475508,81.1983132 77.0179718,81.1983132 L110.359234,81.1983132 C112.629654,81.1983132 114.477307,83.0413933 114.477307,85.3054513 L114.477307,97.2601833 C114.477307,103.206683 109.627032,108.044954 103.665779,108.044954 L103.665779,108.044954 Z" id="Fill-21" fill="#494949"></path>
                    <path d="M127.815676,91.3264026 L112.613176,91.3264026 C111.583471,91.3264026 110.74912,90.4941159 110.74912,89.4669595 C110.74912,88.4398031 111.583471,87.6075163 112.613176,87.6075163 L127.815676,87.6075163 C128.845381,87.6075163 129.679733,88.4398031 129.679733,89.4669595 C129.679733,90.4941159 128.845381,91.3264026 127.815676,91.3264026" id="Fill-23" fill="#000000"></path>
                    <path d="M73.6826526,95.2792069 L71.8879389,94.3822115 C67.8153481,92.3472369 62.9531429,92.3472369 58.880552,94.3822115 L57.086584,95.2792069 L55.4156436,91.9537788 L57.2103573,91.0567834 C62.3290567,88.5004209 68.4401798,88.5004209 73.5581336,91.0567834 L75.3528473,91.9537788 L73.6826526,95.2792069 Z" id="Fill-25" fill="#000000"></path>
                    <path d="M17.0667056,91.3264026 L1.86420571,91.3264026 C0.834500854,91.3264026 0.000149124528,90.4941159 0.000149124528,89.4669595 C0.000149124528,88.4398031 0.834500854,87.6075163 1.86420571,87.6075163 L17.0667056,87.6075163 C18.0964105,87.6075163 18.9307622,88.4398031 18.9307622,89.4669595 C18.9307622,90.4941159 18.0964105,91.3264026 17.0667056,91.3264026" id="Fill-27" fill="#000000"></path>
                    <path d="M22.0635703,68.8220826 L19.3241527,66.2999339 L20.0049062,65.5643381 C26.2032672,58.8643925 35.5459188,56.1332424 44.3882577,58.4367206 L45.3598039,58.6896048 L44.4188282,62.2879993 L43.4472819,62.035115 C35.9403532,60.0819559 28.0069283,62.3980783 22.7450694,68.0864869 L22.0635703,68.8220826 Z" id="Fill-29" fill="#543824"></path>
                    <path d="M107.887345,64.0957499 L107.203609,63.3631293 C101.917145,57.6970341 93.974027,55.4128941 86.4745545,57.4002669 L85.5037539,57.6576139 L84.5463744,54.0636821 L85.5171751,53.8063352 C94.3505664,51.4641806 103.704402,54.1566543 109.931843,60.8283364 L110.615579,61.560957 L107.887345,64.0957499 Z" id="Fill-31" fill="#543824"></path>
                    <path d="M101.98097,90.6262107 C101.98097,95.2963882 98.185751,99.0829583 93.5032409,99.0829583 C88.8214763,99.0829583 85.0255115,95.2963882 85.0255115,90.6262107 C85.0255115,85.9552895 88.8214763,82.1694632 93.5032409,82.1694632 C98.185751,82.1694632 101.98097,85.9552895 101.98097,90.6262107" id="Fill-33" fill="#936C34"></path>
                    <path d="M96.8228274,90.6262107 C94.9893414,90.6262107 93.5033154,89.1438626 93.5033154,87.3149143 C93.5033154,85.9694212 94.3108248,84.8165665 95.4665398,84.2988975 C94.8461818,84.107003 94.1870514,84.0036179 93.5033154,84.0036179 C89.8370889,84.0036179 86.8650371,86.9683141 86.8650371,90.6262107 C86.8650371,94.2833635 89.8370889,97.2480597 93.5033154,97.2480597 C97.1695419,97.2480597 100.142339,94.2833635 100.142339,90.6262107 C100.142339,89.944167 100.037952,89.2866679 99.8463272,88.6678452 C99.3266282,89.8199562 98.1716588,90.6262107 96.8228274,90.6262107" id="Fill-35" fill="#000000"></path>
                    <path d="M45.1367137,90.6262107 C45.1367137,95.2963882 41.3407488,99.0829583 36.6589843,99.0829583 C31.9764741,99.0829583 28.1812549,95.2963882 28.1812549,90.6262107 C28.1812549,85.9552895 31.9764741,82.1694632 36.6589843,82.1694632 C41.3407488,82.1694632 45.1367137,85.9552895 45.1367137,90.6262107" id="Fill-37" fill="#936C34"></path>
                    <path d="M39.978198,90.6262107 C38.1454576,90.6262107 36.658686,89.1438626 36.658686,87.3149143 C36.658686,85.9694212 37.466941,84.8165665 38.6219104,84.2988975 C38.0015524,84.107003 37.342422,84.0036179 36.658686,84.0036179 C32.9924595,84.0036179 30.0204077,86.9683141 30.0204077,90.6262107 C30.0204077,94.2833635 32.9924595,97.2480597 36.658686,97.2480597 C40.3249125,97.2480597 43.29771,94.2833635 43.29771,90.6262107 C43.29771,89.944167 43.1933228,89.2866679 43.0016978,88.6678452 C42.4827444,89.8199562 41.3270294,90.6262107 39.978198,90.6262107" id="Fill-39" fill="#000000"></path>
                    <path d="M19.5551466,84.9171995 C19.3441354,84.9171995 19.1659316,85.0949623 19.1659316,85.3054513 L19.1659316,97.2601833 C19.1659316,101.156089 22.3430297,104.326067 26.2493467,104.326067 L46.202954,104.326067 C50.1085254,104.326067 53.2863691,101.156089 53.2863691,97.2601833 L53.2863691,85.3054513 C53.2863691,85.0949623 53.1081653,84.9171995 52.8964084,84.9171995 L19.5551466,84.9171995 Z M46.202954,108.044954 L26.2493467,108.044954 C20.2873481,108.044954 15.4378184,103.206683 15.4378184,97.2601833 L15.4378184,85.3054513 C15.4378184,83.0413933 17.2847257,81.1983132 19.5551466,81.1983132 L52.8964084,81.1983132 C55.1668294,81.1983132 57.0144822,83.0413933 57.0144822,85.3054513 L57.0144822,97.2601833 C57.0144822,103.206683 52.164207,108.044954 46.202954,108.044954 L46.202954,108.044954 Z" id="Fill-41" fill="#000000"></path>
                    <path d="M77.0179718,84.9171995 C76.8069606,84.9171995 76.6287568,85.0949623 76.6287568,85.3054513 L76.6287568,97.2601833 C76.6287568,101.156089 79.8058548,104.326067 83.7121718,104.326067 L103.665779,104.326067 C107.571351,104.326067 110.749194,101.156089 110.749194,97.2601833 L110.749194,85.3054513 C110.749194,85.0949623 110.57099,84.9171995 110.359234,84.9171995 L77.0179718,84.9171995 Z M103.665779,108.044954 L83.7121718,108.044954 C77.7501732,108.044954 72.9006436,103.206683 72.9006436,97.2601833 L72.9006436,85.3054513 C72.9006436,83.0413933 74.7475508,81.1983132 77.0179718,81.1983132 L110.359234,81.1983132 C112.629654,81.1983132 114.477307,83.0413933 114.477307,85.3054513 L114.477307,97.2601833 C114.477307,103.206683 109.627032,108.044954 103.665779,108.044954 L103.665779,108.044954 Z" id="Fill-43" fill="#000000"></path>
                    <path d="M70.6645213,140.486212 L53.3004613,140.486212 C49.1823875,140.486212 45.2044908,139.000145 42.0997181,136.300978 L36.4777234,131.413617 L38.9278394,128.609577 L44.5498341,133.497681 C46.9753445,135.605546 50.0830997,136.767326 53.3004613,136.767326 L70.6645213,136.767326 L70.6645213,140.486212 Z" id="Fill-45" fill="#543824"></path>
                    <path d="M43.4172333,26.4042418 L32.3902201,26.4042418 C16.3481491,26.4042418 3.34299909,39.3764611 3.34299909,55.3795729 L3.34299909,70.7683245 C3.34299909,72.3957092 5.45982175,73.0316388 6.36127952,71.6757328 L12.8146434,61.9664644 C19.0748911,52.5457815 27.0709482,44.3969577 36.3770644,37.9513839 L45.2604124,31.7988583 C47.7150022,30.0993273 46.4012151,26.2547426 43.4172333,26.4042418" id="Fill-47" fill="#543824"></path>
                    <path d="M24.8716597,38.5436537 C17.7390336,42.1554362 12.0708103,47.8676456 8.52910277,55.0227829 C7.89383229,56.3057987 9.82201242,57.4378277 10.4602654,56.1488617 C13.8498659,49.3023919 19.1736115,43.9271136 26.0005324,40.4707806 C27.2844946,39.8207193 26.1541306,37.89508 24.8716597,38.5436537" id="Fill-49" fill="#936C34"></path>
                    <path d="M3.34329734,62.8282791 L3.34329734,85.963471 C3.34329734,86.5681619 3.83466266,87.0583112 4.44010824,87.0583112 L9.05924047,87.0583112 C9.79218752,87.0583112 10.3185971,86.3546979 10.111314,85.6533159 L3.34329734,62.8282791 Z" id="Fill-51" fill="#543824"></path>
                    <path d="M84.7596225,26.4042418 L95.7866356,26.4042418 C111.828707,26.4042418 124.833857,39.3764611 124.833857,55.3795729 L124.833857,70.7683245 C124.833857,72.3957092 122.717034,73.0316388 121.815576,71.6757328 L115.362212,61.9664644 C109.101965,52.5457815 101.106653,44.3969577 91.7997914,37.9513839 L82.9164433,31.7988583 C80.4618536,30.0993273 81.7756407,26.2547426 84.7596225,26.4042418" id="Fill-53" fill="#543824"></path>
                    <path d="M102.176174,40.4706319 C109.002349,43.9262211 114.326841,49.3014994 117.716441,56.1487129 C118.353949,57.4369352 120.28362,56.3071375 119.648349,55.0226341 C116.105896,47.8674968 110.437673,42.1552874 103.305047,38.543505 C102.024067,37.8949312 100.890721,39.8198268 102.176174,40.4706319" id="Fill-55" fill="#936C34"></path>
                    <path d="M124.833931,62.8282791 L124.833931,85.963471 C124.833931,86.5681619 124.342566,87.0583112 123.736375,87.0583112 L119.117988,87.0583112 C118.385041,87.0583112 117.857886,86.3546979 118.065915,85.6533159 L124.833931,62.8282791 Z" id="Fill-57" fill="#543824"></path>
                    <g id="Group-61" transform="translate(30.570528, 0.100410)">
                        <mask id="mask-2" fill="white">
                            <use xlink:href="#path-1"></use>
                        </mask>
                        <g id="Clip-60"></g>
                        <path d="M70.0422992,23.1450098 C66.8301569,37.6352786 54.4908479,47.0098473 35.3074687,47.0098473 C16.1240895,47.0098473 0.572638185,37.9848539 0.572638185,23.1450098 C20.2898832,23.1450098 19.8044828,10.6636835 35.3074687,3.31070138 C55.0545386,-6.05494199 72.6609259,11.3308517 70.0422992,23.1450098" id="Fill-59" fill="#543824" mask="url(#mask-2)"></path>
                    </g>
                    <path d="M34.5269509,19.5591852 C39.1833643,29.5347259 49.4289649,36.53367 60.5544003,36.7069701 C71.6820725,36.8802703 82.1267544,30.1647053 87.0881274,20.3468453 C87.7345822,19.0675484 85.8056565,17.9362632 85.1569648,19.2207666 C80.5415607,28.3521201 70.9424148,34.6593513 60.5544003,34.4756383 C50.1537101,34.2926691 40.796146,27.7258596 36.4581135,18.4331064 C35.8511767,17.13224 33.922251,18.264269 34.5269509,19.5591852" id="Fill-62" fill="#936C34"></path>
                    <path d="M46.7128108,15.9739556 C54.2935561,24.7006943 67.1555466,25.2086942 75.5549856,17.3402745 C76.6070591,16.3555134 75.022611,14.7794494 73.97352,15.7627229 C66.4002309,22.8568705 55.0615474,22.1874709 48.2942764,14.3964041 C47.3495725,13.3090017 45.7733263,14.8932473 46.7128108,15.9739556" id="Fill-64" fill="#936C34"></path>
                    <polygon id="Fill-66" fill="#543824" points="59.8265235 147.304344 68.3497358 147.304344 68.3497358 143.585458 59.8265235 143.585458"></polygon>
                    <polygon id="Fill-68" fill="#543824" points="57.4494785 124.034529 70.7267808 124.034529 70.7267808 120.315642 57.4494785 120.315642"></polygon>
                    <g id="Group-11" transform="translate(80.945455, 96.132597)">
                        <path d="M77.4180186,38.3537835 C77.4180186,59.5125467 60.2235345,76.6644756 39.0132334,76.6644756 C17.8019737,76.6644756 0.60748967,59.5125467 0.60748967,38.3537835 C0.60748967,17.1959766 17.8019737,0.043091441 39.0132334,0.043091441 C60.2235345,0.043091441 77.4180186,17.1959766 77.4180186,38.3537835" id="Fill-70" fill="#4193E5"></path>
                        <polygon id="Fill-71" fill="#FFFFFF" points="26.8886105 52.3161192 13.1759711 38.6374177 27.4570945 24.3925954 30.8459494 27.7730631 19.9546395 38.6374177 30.278424 48.9356515"></polygon>
                        <polygon id="Fill-72" fill="#FFFFFF" points="51.1373771 52.3161192 47.7475635 48.9356515 58.071348 38.6374177 47.1800382 27.7730631 50.5688931 24.3925954 64.8500164 38.6374177"></polygon>
                        <polygon id="Fill-73" fill="#FFFFFF" points="35.7553312 61.1944609 31.1058415 60.0335308 42.2703688 15.5127236 46.9198585 16.6736537"></polygon>
                    </g>
                </g>
            </g>
        </g>
    </g>
</svg>