<?xml version="1.0" encoding="UTF-8"?>
<svg width="143px" height="218px" viewBox="0 0 143 218" version="1.1" xmlns="http://www.w3.org/2000/svg" xmlns:xlink="http://www.w3.org/1999/xlink">
    <!-- Generator: Sketch 41.2 (35397) - http://www.bohemiancoding.com/sketch -->
    <title>persona-contributor-torso</title>
    <desc>Created with Sketch.</desc>
    <defs></defs>
    <g id="Home" stroke="none" stroke-width="1" fill="none" fill-rule="evenodd">
        <g id="who-os-copy" transform="translate(-52.000000, 0.000000)">
            <g id="persona-contributor-torso" transform="translate(52.000000, 0.000000)">
                <path d="M65.3465669,184.347099 L65.3465669,184.347099 C60.2443978,184.347099 56.0707399,180.172991 56.0707399,175.072765 L56.0707399,158.804962 C56.0707399,153.704736 60.2443978,149.530628 65.3465669,149.530628 C70.4479622,149.530628 74.6216201,153.704736 74.6216201,158.804962 L74.6216201,175.072765 C74.6216201,180.172991 70.4479622,184.347099 65.3465669,184.347099" id="Fill-7" fill="#FFDBC2"></path>
                <path d="M74.6218522,158.805194 C74.6218522,153.704195 70.4474206,149.53086 65.346799,149.53086 C60.2446299,149.53086 56.0701983,153.704195 56.0701983,158.805194 L56.0701983,161.867496 C59.527355,162.437713 63.0719465,162.749514 66.690819,162.749514 L66.6915927,162.749514 C69.3780852,162.749514 72.0212471,162.566147 74.6218522,162.248156 L74.6218522,158.805194 Z" id="Fill-9" fill="#C9AE93"></path>
                <path d="M89.2847464,217.489206 L41.4083873,217.489206 C36.3008019,217.489206 32.1232752,213.31123 32.1232752,208.204814 L32.1232752,176.223178 C32.1232752,171.116763 36.3008019,166.938786 41.4083873,166.938786 L57.2634899,166.938786 L65.3469537,169.242863 L73.7058759,166.938786 L89.2847464,166.938786 C94.3915581,166.938786 98.5698585,171.116763 98.5698585,176.223178 L98.5698585,208.204814 C98.5698585,213.31123 94.3915581,217.489206 89.2847464,217.489206" id="Fill-16" fill="#454E75"></path>
                <path d="M56.0705852,163.590912 C55.6976332,163.777373 51.5123689,166.938709 51.5123689,166.938709 L58.0181374,171.731776 L60.678322,177.004537 L65.7185904,168.55574 L56.0705852,163.590912 Z" id="Fill-44" fill="#454E75"></path>
                <path d="M52.1601602,166.935072 L58.3216058,171.47514 L60.7063321,176.202443 L65.1747923,168.711486 L56.0893101,164.035247 C55.4989318,164.436023 53.5776873,165.867367 52.1601602,166.935072 L52.1601602,166.935072 Z M60.6506214,177.807096 L57.7142047,171.988876 L50.8656608,166.942809 L51.2788483,166.629461 C51.9829693,166.098703 55.5120857,163.437178 55.8974178,163.244526 L56.0730612,163.157098 L66.2619242,168.400459 L60.6506214,177.807096 Z" id="Fill-45" fill="#5C6BA0"></path>
                <path d="M74.5999548,163.590912 C74.9736806,163.777373 79.1581711,166.938709 79.1581711,166.938709 L72.6524026,171.731776 L69.9922179,177.004537 L64.9519496,168.55574 L74.5999548,163.590912 Z" id="Fill-46" fill="#454E75"></path>
                <path d="M65.4954382,168.711409 L69.9638984,176.202366 L72.3486246,171.475063 L78.5100703,166.934995 C77.0925431,165.86729 75.1712987,164.435946 74.5816941,164.03517 L65.4954382,168.711409 Z M70.0203828,177.807018 L64.4090801,168.400382 L74.5971693,163.157021 L74.7728126,163.245223 C75.1589186,163.437874 78.6880349,166.098626 79.3913821,166.630931 L79.8045696,166.942732 L72.9567995,171.988799 L70.0203828,177.807018 Z" id="Fill-47" fill="#5C6BA0"></path>
                <polygon id="Fill-48" fill="#5C6BA0" points="64.9756266 217.489206 65.749386 217.489206 65.749386 169.242863 64.9756266 169.242863"></polygon>
                <path d="M63.6381062,180.38189 C63.6381062,181.072029 63.079452,181.629867 62.3900324,181.629867 C61.6998391,181.629867 61.1411849,181.072029 61.1411849,180.38189 C61.1411849,179.69175 61.6998391,179.133913 62.3900324,179.133913 C63.079452,179.133913 63.6381062,179.69175 63.6381062,180.38189" id="Fill-49" fill="#FFFFFF"></path>
                <path d="M63.6381062,188.267665 C63.6381062,188.957805 63.079452,189.516416 62.3900324,189.516416 C61.6998391,189.516416 61.1411849,188.957805 61.1411849,188.267665 C61.1411849,187.578299 61.6998391,187.019688 62.3900324,187.019688 C63.079452,187.019688 63.6381062,187.578299 63.6381062,188.267665" id="Fill-50" fill="#FFFFFF"></path>
                <path d="M63.6381062,196.154292 C63.6381062,196.843658 63.079452,197.402269 62.3900324,197.402269 C61.6998391,197.402269 61.1411849,196.843658 61.1411849,196.154292 C61.1411849,195.464152 61.6998391,194.905542 62.3900324,194.905542 C63.079452,194.905542 63.6381062,195.464152 63.6381062,196.154292" id="Fill-51" fill="#FFFFFF"></path>
                <path d="M63.6381062,204.040145 C63.6381062,204.730285 63.079452,205.288122 62.3900324,205.288122 C61.6998391,205.288122 61.1411849,204.730285 61.1411849,204.040145 C61.1411849,203.350006 61.6998391,202.792168 62.3900324,202.792168 C63.079452,202.792168 63.6381062,203.350006 63.6381062,204.040145" id="Fill-52" fill="#FFFFFF"></path>
                <path d="M63.6381062,211.925999 C63.6381062,212.616138 63.079452,213.174749 62.3900324,213.174749 C61.6998391,213.174749 61.1411849,212.616138 61.1411849,211.925999 C61.1411849,211.236632 61.6998391,210.678022 62.3900324,210.678022 C63.079452,210.678022 63.6381062,211.236632 63.6381062,211.925999" id="Fill-53" fill="#FFFFFF"></path>
                <polygon id="Fill-54" fill="#454E75" points="72.5600157 186.097129 88.1001983 186.097129 88.1001983 182.70291 72.5600157 182.70291"></polygon>
                <path d="M72.9468954,185.71028 L87.7133186,185.71028 L87.7133186,183.08976 L72.9468954,183.08976 L72.9468954,185.71028 Z M72.173136,186.483979 L88.4870779,186.483979 L88.4870779,182.316061 L72.173136,182.316061 L72.173136,186.483979 Z" id="Fill-55" fill="#5C6BA0"></path>
                <path d="M80.3298748,198.432295 L80.3298748,198.432295 C76.0386055,198.432295 72.5597836,194.954517 72.5597836,190.66358 L72.5597836,186.097207 L88.0999661,186.097207 L88.0999661,190.66358 C88.0999661,194.954517 84.6211441,198.432295 80.3298748,198.432295" id="Fill-56" fill="#454E75"></path>
                <path d="M72.9466632,186.483824 L72.9466632,190.663348 C72.9466632,194.73378 76.2583532,198.045213 80.3298748,198.045213 C84.4013965,198.045213 87.7130865,194.73378 87.7130865,190.663348 L87.7130865,186.483824 L72.9466632,186.483824 Z M80.3298748,198.818913 C75.8320118,198.818913 72.1729039,195.160862 72.1729039,190.663348 L72.1729039,185.710125 L88.4868458,185.710125 L88.4868458,190.663348 C88.4868458,195.160862 84.8269641,198.818913 80.3298748,198.818913 L80.3298748,198.818913 Z" id="Fill-57" fill="#5C6BA0"></path>
                <g id="Group-15">
                    <path d="M1.67391083,84.3623195 C1.30250635,80.356878 0.719865565,67.886392 0.719865565,67.886392 C-2.53224494,32.8470961 22.6226712,9.13475866 44.7436769,11.2252943 L38.9799436,17.5680815 C40.3084884,17.4907116 36.4683208,25.4396986 35.4384471,26.8501525 L28.0668419,36.9523448 C20.9157581,46.7527944 22.8702742,59.6054879 18.4118729,73.8160237 L16.7328151,129.144811 C15.5567009,132.892611 4.67068075,116.665041 1.67391083,84.3623195" id="Fill-3" fill="#EB672D"></path>
                    <path d="M129.93133,81.4812952 C130.253214,77.5091228 130.681103,65.1500495 130.681103,65.1500495 C134.46556,22.2089623 105.76141,9.73460776 92.6833296,9.13421707 L96.4004694,20.4658176 C95.0703771,20.4054691 94.4072654,23.5157405 95.453388,24.901436 L102.950342,34.8233564 C110.222133,44.4489499 108.429332,57.2018361 113.064151,71.2266841 L115.431854,126.011561 C116.654394,129.709844 127.336915,113.511674 129.93133,81.4812952" id="Fill-5" fill="#EB672D"></path>
                    <path d="M124.561827,107.87775 L124.561827,107.87775 C126.835132,108.127655 128.899522,106.471939 129.15022,104.198036 L130.658277,90.464873 C130.908202,88.1917444 129.252357,86.1275145 126.978278,85.8768359 C124.704973,85.626931 122.640583,87.2834213 122.389885,89.55655 L120.881828,103.289713 C120.631904,105.563616 122.288523,107.628619 124.561827,107.87775" id="Fill-11" fill="#F8D5BF"></path>
                    <path d="M6.13130626,107.87775 L6.13130626,107.87775 C3.85800132,108.127655 1.79283764,106.471939 1.54291337,104.198036 L0.0340826628,90.464873 C-0.215841604,88.1917444 1.44077714,86.1275145 3.71408208,85.8768359 C5.98738702,85.626931 8.0525507,87.2834213 8.30247496,89.55655 L9.81130568,103.289713 C10.0604562,105.563616 8.4046112,107.628619 6.13130626,107.87775" id="Fill-13" fill="#F8D5BF"></path>
                    <path d="M126.570275,64.1207199 L124.679207,124.734648 C124.473387,131.320376 120.652563,137.256971 114.741042,140.170723 L84.7694738,154.946059 C81.8090706,156.562317 78.4904168,157.410292 75.1175998,157.410292 L65.3465669,157.410292 L55.5747602,157.410292 C52.2019432,157.410292 48.8832894,156.562317 45.9228862,154.946059 L15.9544132,140.17227 C10.0421181,137.257745 6.22052071,131.319603 6.01624824,124.731553 L4.15458327,64.4967378 C3.13941102,52.6165844 9.34960348,41.2857575 19.9106447,35.749165 L66.6905868,11.2252169 L111.278469,35.6215046 C121.571789,41.2532621 127.569198,52.4308965 126.570275,64.1207199" id="Fill-18" fill="#FFDBC2"></path>
                    <path d="M70.0415182,120.198074 C126.809519,119.360799 125.316283,104.314605 125.316283,104.314605 L124.679207,124.734648 C124.473387,131.320376 120.652563,137.256971 114.741042,140.170723 L84.7694738,154.946059 C81.8090706,156.562317 78.4904168,157.410292 75.1175998,157.410292 L65.3465669,157.410292 L55.5747602,157.410292 C52.2019432,157.410292 48.8832894,156.562317 45.9228862,154.946059 L15.9544132,140.17227 C10.0421181,137.257745 6.22052071,131.319603 6.01624824,124.731553 L5.4323703,105.83998 C5.4323703,105.83998 13.2735174,121.035349 70.0415182,120.198074 Z" id="Fill-18-Copy" fill="#F1CFB7"></path>
                    <path d="M106.249265,69.0635755 L105.50104,68.3386192 C99.7210577,62.7323938 91.3675518,60.7795766 83.701918,63.241488 L82.7091848,63.5602521 L81.5276543,59.8758958 L82.5196138,59.5579054 C91.5517065,56.6604013 101.387735,58.9590621 108.194496,65.5610386 L108.941948,66.2859949 L106.249265,69.0635755 Z" id="Fill-20" fill="#A06E4D"></path>
                    <path d="M24.783162,62.6110777 L21.9148361,60.0153164 L22.6135408,59.2423908 C28.9800327,52.2133323 38.6512507,49.2817855 47.8473804,51.5897306 L48.8563626,51.8427303 L47.916245,55.5951721 L46.906489,55.3413987 C39.0922935,53.3816183 30.8865757,55.8713828 25.4818667,61.8389258 L24.783162,62.6110777 Z" id="Fill-22" fill="#A06E4D"></path>
                    <path d="M91.4269765,125.094108 L45.5910208,128.693358 C45.2049149,128.723532 45.0161176,129.178467 45.2668156,129.473246 L49.3646451,134.294941 C52.6778826,138.192838 57.5363175,140.439661 62.6524142,140.439661 L70.0619337,140.439661 C74.8569203,140.439661 79.4406706,138.46518 82.7345641,134.980438 L91.6467242,125.554459 C91.8184988,125.371866 91.676127,125.074766 91.4269765,125.094108" id="Fill-24" fill="#FFFFFF"></path>
                    <path d="M91.5788655,127.022322 L91.5742229,127.023095 C91.5757705,127.022322 91.577318,127.022322 91.5788655,127.022322 L91.5788655,127.022322 Z M48.5911179,130.397972 L50.8388888,133.041703 C53.7900069,136.514065 58.0959776,138.505567 62.6526464,138.505567 L70.061392,138.505567 C74.3070095,138.505567 78.4125766,136.736891 81.3288755,133.652151 L87.2767636,127.360428 L48.5911179,130.397972 Z M70.061392,142.374064 L62.6526464,142.374064 C56.9593251,142.374064 51.5786027,139.885847 47.8900919,135.547715 L43.7922625,130.72602 C43.2034316,130.035107 43.054096,129.082683 43.4030615,128.242446 C43.752027,127.402208 44.5327501,126.836634 45.4395961,126.765454 L91.2755518,123.166204 C92.1808503,123.093476 93.0420444,123.583228 93.4389829,124.41186 C93.8366952,125.241266 93.6865859,126.210711 93.0551983,126.879961 L84.1399432,136.309809 C80.4970842,140.162831 75.3655123,142.374064 70.061392,142.374064 L70.061392,142.374064 Z" id="Fill-26" fill="#A06E4D"></path>
                    <path d="M32.4723954,23.7794946 C36.2475673,8.80995968 49.334159,-0.560313064 69.2329279,0.0261510378 C89.1324706,0.61184144 104.986799,10.4703185 104.532603,25.9009782 C84.0790483,25.2990401 84.2013023,38.2909994 67.8943242,45.4624186 C47.1250761,54.5974868 29.393607,35.9830543 32.4723954,23.7794946" id="Fill-28" fill="#EB672D"></path>
                    <path d="M100.892684,29.6004216 C96.4389253,19.2305293 86.2794652,11.7852205 74.9500809,11.0409217 C63.2245319,10.2710909 51.9268718,17.020844 46.3944925,27.2352227 C45.6826339,28.5489642 47.6858968,29.7218924 48.3985292,28.4066035 C53.5641465,18.8715328 63.9967437,12.6239106 74.9500809,13.3620198 C85.5204072,14.0753706 94.7590938,21.1578143 98.8878736,30.7718024 C99.4759307,32.1404765 101.476099,30.9598113 100.892684,29.6004216" id="Fill-30" fill="#A04A28"></path>
                    <path d="M88.1354817,32.9611394 C80.5271061,23.6403834 67.203744,22.7900878 58.2590861,30.7081269 C57.1379088,31.7000095 58.7844687,33.3363836 59.9002296,32.3491432 C67.9782771,25.1993876 79.7278127,26.3135146 86.4943381,34.6021557 C87.439872,35.7596099 89.073278,34.1093092 88.1354817,32.9611394" id="Fill-32" fill="#A04A28"></path>
                    <path d="M79.8334309,39.9992502 L87.1462304,39.3447006 C97.7854213,38.3930504 105.639079,28.9972456 104.686581,18.3588796 L103.771224,8.12902689 C103.674504,7.0466215 102.232216,6.74952096 101.715345,7.70426595 L98.0136803,14.5429944 C94.4218894,21.1759189 89.6044638,27.0676394 83.8151964,31.9048077 L78.2905547,36.5222454 C76.7631538,37.7980756 77.8634396,40.2754609 79.8334309,39.9992502" id="Fill-34" fill="#EB672D"></path>
                    <path d="M106.735882,41.2119466 L106.735882,41.2119466 C115.161348,37.8610547 113.948867,26.2470539 110.598489,17.8230154 L107.375781,9.72083591 C107.035327,8.86435074 105.790349,8.97189495 105.600777,9.87325468 L104.178608,16.6477661 C102.907321,22.7066057 100.497061,28.4683447 97.0770446,33.6281456 L97.9954969,37.5817492 C98.8977003,41.4641726 103.34759,43.3125403 106.735882,41.2119466" id="Fill-36" fill="#EB672D"></path>
                    <path d="M84.6339112,35.8262254 C96.8848428,31.2791944 105.909972,20.4381192 107.921746,7.48948701 C108.148457,6.02796895 105.911519,5.39817768 105.682486,6.87207493 C103.79993,18.9928488 95.5539767,29.3054874 84.0164512,33.5871395 C82.628327,34.1024233 83.2287642,36.3476988 84.6339112,35.8262254" id="Fill-38" fill="#A04A28"></path>
                    <path d="M105.730924,36.8039493 C111.225389,30.5779907 114.722007,23.1535718 115.906633,14.9283741 C116.117869,13.466856 113.880931,12.8355174 113.668921,14.310962 C112.541554,22.1322887 109.321941,29.2340749 104.089006,35.162933 C103.104011,36.2793811 104.739738,37.926587 105.730924,36.8039493" id="Fill-40" fill="#A04A28"></path>
                    <polygon id="Fill-42" fill="#A06E4D" points="58.4729532 117.246398 72.2512857 117.246398 72.2512857 113.377902 58.4729532 113.377902"></polygon>
                    <path d="M142.325794,172.273134 C142.325794,189.392005 128.446873,203.269077 111.327448,203.269077 C94.2080224,203.269077 80.3298748,189.392005 80.3298748,172.273134 C80.3298748,155.155036 94.2080224,141.277191 111.327448,141.277191 C128.446873,141.277191 142.325794,155.155036 142.325794,172.273134" id="Fill-58" fill="#44E06C"></path>
                    <path d="M111.327835,154.405476 C101.446154,154.405476 93.4354237,162.416359 93.4354237,172.296499 C93.4354237,179.545288 97.7483582,185.782079 103.946944,188.593702 L107.394816,178.633097 C105.277037,177.315487 103.862605,174.974273 103.862605,172.296499 C103.862605,168.174229 107.205245,164.831848 111.327835,164.831848 C115.451198,164.831848 118.793065,168.174229 118.793065,172.296499 C118.793065,174.974273 117.378633,177.315487 115.260853,178.633097 L118.708725,188.593702 C124.907311,185.782079 129.220246,179.545288 129.220246,172.296499 C129.220246,162.416359 121.209515,154.405476 111.327835,154.405476" id="Fill-59" fill="#FFFFFF"></path>
                    <path d="M44.7437543,85.5009728 C44.7437543,90.359031 40.8045455,94.2979343 35.9461106,94.2979343 C31.0876757,94.2979343 27.1484669,90.359031 27.1484669,85.5009728 C27.1484669,80.6421409 31.0876757,76.7040113 35.9461106,76.7040113 C40.8045455,76.7040113 44.7437543,80.6421409 44.7437543,85.5009728" id="Fill-60" fill="#FFFFFF"></path>
                    <path d="M39.3908872,85.5009728 C37.488213,85.5009728 35.9461106,83.95899 35.9461106,82.0564633 C35.9461106,80.6568412 36.7848658,79.4576072 37.983419,78.9191125 C37.3396512,78.719498 36.6556479,78.6119538 35.9461106,78.6119538 C32.141536,78.6119538 29.0573312,81.6959194 29.0573312,85.5009728 C29.0573312,89.3052525 32.141536,92.389218 35.9461106,92.389218 C39.7514591,92.389218 42.83489,89.3052525 42.83489,85.5009728 C42.83489,84.7914905 42.7273375,84.1075403 42.5284813,83.4638224 C41.9891711,84.6622827 40.7906179,85.5009728 39.3908872,85.5009728" id="Fill-61" fill="#2494B2"></path>
                    <path d="M103.733077,85.5009728 C103.733077,90.359031 99.7946422,94.2979343 94.9362073,94.2979343 C90.0769986,94.2979343 86.1385636,90.359031 86.1385636,85.5009728 C86.1385636,80.6421409 90.0769986,76.7040113 94.9362073,76.7040113 C99.7946422,76.7040113 103.733077,80.6421409 103.733077,85.5009728" id="Fill-62" fill="#FFFFFF"></path>
                    <path d="M98.3802101,85.5009728 C96.4775359,85.5009728 94.9362073,83.95899 94.9362073,82.0564633 C94.9362073,80.6568412 95.7741886,79.4576072 96.9735156,78.9191125 C96.3289741,78.719498 95.6449708,78.6119538 94.9362073,78.6119538 C91.1308588,78.6119538 88.0466541,81.6959194 88.0466541,85.5009728 C88.0466541,89.3052525 91.1308588,92.389218 94.9362073,92.389218 C98.7407819,92.389218 101.824987,89.3052525 101.824987,85.5009728 C101.824987,84.7914905 101.71666,84.1075403 101.518578,83.4638224 C100.978494,84.6622827 99.7807145,85.5009728 98.3802101,85.5009728" id="Fill-63" fill="#2494B2"></path>
                </g>
            </g>
        </g>
    </g>
</svg>