<?xml version="1.0" encoding="UTF-8" standalone="no"?>
<svg
   xmlns:dc="http://purl.org/dc/elements/1.1/"
   xmlns:cc="http://creativecommons.org/ns#"
   xmlns:rdf="http://www.w3.org/1999/02/22-rdf-syntax-ns#"
   xmlns:svg="http://www.w3.org/2000/svg"
   xmlns="http://www.w3.org/2000/svg"
   xmlns:sodipodi="http://sodipodi.sourceforge.net/DTD/sodipodi-0.dtd"
   xmlns:inkscape="http://www.inkscape.org/namespaces/inkscape"
   width="138.25136"
   height="131.74541"
   viewBox="0 0 138.25135 131.7454"
   version="1.1"
   id="svg13"
   sodipodi:docname="logo-docker-notext-color.svg"
   inkscape:version="0.92.2 5c3e80d, 2017-08-06"
   inkscape:export-filename="/Users/Matt/openwhisk/release/openwhisk-website/images/runtimes/logo-docker-notext-color.png"
   inkscape:export-xdpi="3000"
   inkscape:export-ydpi="3000">
  <metadata
     id="metadata17">
    <rdf:RDF>
      <cc:Work
         rdf:about="">
        <dc:format>image/svg+xml</dc:format>
        <dc:type
           rdf:resource="http://purl.org/dc/dcmitype/StillImage" />
        <dc:title>icon-slack</dc:title>
      </cc:Work>
    </rdf:RDF>
  </metadata>
  <sodipodi:namedview
     pagecolor="#ffffff"
     bordercolor="#666666"
     borderopacity="1"
     objecttolerance="10"
     gridtolerance="10"
     guidetolerance="10"
     inkscape:pageopacity="0"
     inkscape:pageshadow="2"
     inkscape:window-width="1509"
     inkscape:window-height="925"
     id="namedview15"
     showgrid="false"
     inkscape:pagecheckerboard="true"
     fit-margin-top="0"
     fit-margin-left="0"
     fit-margin-right="0"
     fit-margin-bottom="0"
     inkscape:zoom="4.093823"
     inkscape:cx="78.341746"
     inkscape:cy="61.7546"
     inkscape:window-x="86"
     inkscape:window-y="19"
     inkscape:window-maximized="0"
     inkscape:current-layer="svg13"
     units="px" />
  <!-- Generator: Sketch 41.2 (35397) - http://www.bohemiancoding.com/sketch -->
  <title
     id="title2">icon-slack</title>
  <desc
     id="desc4">Created with Sketch.</desc>
  <ellipse
     style="display:inline;fill:#1488c6;fill-opacity:1;stroke:none;stroke-width:3.10134101;stroke-miterlimit:4;stroke-dasharray:none;stroke-opacity:0.49803922"
     id="path1170"
     cx="69.125679"
     cy="65.872704"
     inkscape:label="background circle"
     rx="69.125679"
     ry="65.872704"
     inkscape:export-xdpi="96"
     inkscape:export-ydpi="96" />
  <g
     id="Docker"
     transform="matrix(5.3052819,0,0,5.423994,8.2555341,-0.71551134)"
     style="display:none;fill:#1488c6;fill-opacity:1"
     inkscape:label="Docker logo blue">
    <path
       id="path1136"
       style="fill:#1488c6;fill-opacity:1"
       d="m 23.77,11.08 a 5.12,5.12 0 0 0 -2.41,-0.77 2.7,2.7 0 0 0 -0.44,0 4.24,4.24 0 0 0 -1.64,-2.26 0.5,0.5 0 0 0 -0.64,0.07 4.06,4.06 0 0 0 -0.72,3.28 0.52,0.52 0 0 1 -0.13,0.41 0.45,0.45 0 0 1 -0.34,0.15 H 17 V 9.5 A 0.5,0.5 0 0 0 16.5,9 H 14 V 3.5 A 0.5,0.5 0 0 0 13.5,3 h -3 A 0.5,0.5 0 0 0 10,3.5 V 6 H 4.5 A 0.5,0.5 0 0 0 4,6.5 V 9 H 1.5 A 0.5,0.5 0 0 0 1,9.5 V 12 H 0.5 A 0.5,0.5 0 0 0 0,12.5 C 0,20.17 5.59,21 8,21 a 14.29,14.29 0 0 0 12.38,-7.08 5.13,5.13 0 0 0 3.55,-2.17 0.5,0.5 0 0 0 -0.16,-0.67 z M 16,12 h -2 v -2 h 2 z M 5,12 v -2 h 2 v 2 z m 3,0 v -2 h 2 v 2 z M 13,7 V 9 H 11 V 7 Z m -2,5 v -2 h 2 v 2 z m 0,-8 h 2 V 6 H 11 Z M 10,9 H 8 V 7 h 2 z M 5,7 H 7 V 9 H 5 Z m -3,3 h 2 v 2 H 2 Z m 3,7 a 1,1 0 1 1 1,-1 1,1 0 0 1 -1,1 z"
       inkscape:connector-curvature="0" />
  </g>
  <defs
     id="defs6" />
  <g
     style="fill:#ffffff;fill-opacity:1"
     transform="matrix(5.3052819,0,0,5.423994,8.2555341,-0.71551134)"
     id="g1242"
     inkscape:label="Docker logo whit">
    <path
       inkscape:connector-curvature="0"
       d="m 23.77,11.08 a 5.12,5.12 0 0 0 -2.41,-0.77 2.7,2.7 0 0 0 -0.44,0 4.24,4.24 0 0 0 -1.64,-2.26 0.5,0.5 0 0 0 -0.64,0.07 4.06,4.06 0 0 0 -0.72,3.28 0.52,0.52 0 0 1 -0.13,0.41 0.45,0.45 0 0 1 -0.34,0.15 H 17 V 9.5 A 0.5,0.5 0 0 0 16.5,9 H 14 V 3.5 A 0.5,0.5 0 0 0 13.5,3 h -3 A 0.5,0.5 0 0 0 10,3.5 V 6 H 4.5 A 0.5,0.5 0 0 0 4,6.5 V 9 H 1.5 A 0.5,0.5 0 0 0 1,9.5 V 12 H 0.5 A 0.5,0.5 0 0 0 0,12.5 C 0,20.17 5.59,21 8,21 a 14.29,14.29 0 0 0 12.38,-7.08 5.13,5.13 0 0 0 3.55,-2.17 0.5,0.5 0 0 0 -0.16,-0.67 z M 16,12 h -2 v -2 h 2 z M 5,12 v -2 h 2 v 2 z m 3,0 v -2 h 2 v 2 z M 13,7 V 9 H 11 V 7 Z m -2,5 v -2 h 2 v 2 z m 0,-8 h 2 V 6 H 11 Z M 10,9 H 8 V 7 h 2 z M 5,7 H 7 V 9 H 5 Z m -3,3 h 2 v 2 H 2 Z m 3,7 a 1,1 0 1 1 1,-1 1,1 0 0 1 -1,1 z"
       style="fill:#ffffff;fill-opacity:1"
       id="path1240" />
  </g>
</svg>
