<?xml version="1.0" encoding="UTF-8" standalone="no"?>
<!-- Generator: Adobe Illustrator 13.0.0, SVG Export Plug-In . SVG Version: 6.00 Build 14948)  -->

<svg
   xmlns:dc="http://purl.org/dc/elements/1.1/"
   xmlns:cc="http://creativecommons.org/ns#"
   xmlns:rdf="http://www.w3.org/1999/02/22-rdf-syntax-ns#"
   xmlns:svg="http://www.w3.org/2000/svg"
   xmlns="http://www.w3.org/2000/svg"
   xmlns:sodipodi="http://sodipodi.sourceforge.net/DTD/sodipodi-0.dtd"
   xmlns:inkscape="http://www.inkscape.org/namespaces/inkscape"
   version="1.1"
   id="Layer_1"
   x="0px"
   y="0px"
   width="1000"
   height="538.53802"
   viewBox="0 0 1000 538.53803"
   xml:space="preserve"
   inkscape:version="0.92.2 5c3e80d, 2017-08-06"
   sodipodi:docname="Java_(Horizontal).svg"><metadata
     id="metadata33"><rdf:RDF><cc:Work
         rdf:about=""><dc:format>image/svg+xml</dc:format><dc:type
           rdf:resource="http://purl.org/dc/dcmitype/StillImage" /><dc:title></dc:title></cc:Work></rdf:RDF></metadata><defs
     id="defs31" /><sodipodi:namedview
     pagecolor="#ffffff"
     bordercolor="#666666"
     borderopacity="1"
     objecttolerance="10"
     gridtolerance="10"
     guidetolerance="10"
     inkscape:pageopacity="0"
     inkscape:pageshadow="2"
     inkscape:window-width="1680"
     inkscape:window-height="964"
     id="namedview29"
     showgrid="false"
     inkscape:zoom="1.256"
     inkscape:cx="500"
     inkscape:cy="269.26899"
     inkscape:window-x="0"
     inkscape:window-y="1"
     inkscape:window-maximized="1"
     inkscape:current-layer="Layer_1"
     inkscape:pagecheckerboard="true" /><path
     d="m 652.39179,396.81718 c -0.14187,3.72115 -8.90315,8.69418 -11.77118,10.51354 -13.20327,8.35102 -32.17327,13.89152 -44.55218,1.51262 -11.97439,-11.96673 -8.60408,-34.32046 4.31355,-42.23629 6.50098,-3.9397 14.9191,-5.7744 23.75515,-6.52208 7.06079,-0.59239 21.50061,-1.86536 28.11279,-1.11002 z m -89.2884,-115.41697 5.16666,20.36951 c 8.70952,-2.12035 13.9452,-5.18967 27.06412,-7.78163 10.21639,-1.96889 21.32807,-3.1 32.26338,-1.7005 11.0235,1.41676 17.17173,5.54243 20.95231,13.7209 1.91713,4.118 2.95813,8.98559 3.49109,14.06982 l -0.12844,16.47581 c -0.71893,0.38151 -32.94971,2.41942 -37.57,3.00414 -32.1656,4.12567 -64.54017,21.60414 -59.5077,62.02107 3.13067,25.14699 16.68669,36.59801 42.08866,39.66925 13.92795,1.68324 23.13209,0.0805 34.65788,-4.80049 4.86759,-2.06092 9.3901,-4.42666 13.49467,-7.02437 5.50408,-3.41632 10.31991,-8.34335 11.42034,-8.97216 l 3.40674,17.27717 h 26.09789 c 0.48695,-5.27978 0.0978,-69.91581 0.0978,-77.09737 0,-12.89654 0,-25.75473 0,-38.64934 0,-12.48435 -0.94323,-22.33265 -6.7924,-31.60389 -17.67977,-28.14921 -56.1278,-26.81681 -87.88889,-19.15596 -7.1068,1.70817 -23.96988,6.35721 -28.31409,10.17804"
     style="fill:#ed1e24;fill-opacity:1;fill-rule:evenodd;stroke:none;stroke-width:1.91712976"
     id="path14"
     inkscape:connector-curvature="0" /><path
     d="m 966.14158,398.95095 c -2.25262,1.27297 -4.61261,3.55052 -7.19498,5.42931 -7.35411,5.30278 -16.49882,10.2068 -26.19758,11.41267 -28.7627,3.55053 -35.52634,-26.09789 -26.28385,-41.39083 9.87705,-16.32436 41.19528,-15.42715 59.76652,-15.50191 z M 877.01805,281.40021 c 0.18021,3.17477 4.10458,17.9731 5.40056,20.28707 4.84459,-0.98157 15.49999,-5.46765 27.16189,-7.75095 16.92443,-3.35498 44.73623,-6.15591 52.87828,12.08558 3.31663,7.45955 5.72071,28.08404 3.37606,30.44211 -1.45893,1.07167 -15.58434,1.17711 -18.82621,1.39375 -18.67668,1.1752 -34.12683,2.59004 -50.32466,11.12127 -17.18707,9.00092 -31.47544,24.80958 -27.93258,52.70573 3.21886,25.34254 16.76722,36.41013 42.10209,39.56381 18.61725,2.33506 33.25645,-2.47885 48.16788,-11.84786 6.49141,-4.08157 9.2329,-7.62443 11.44143,-9.08336 l 3.28021,17.36536 26.257,0.0307 v -115.7314 c 0,-13.04607 -1.0199,-22.1371 -6.95725,-31.87228 -17.10463,-28.02461 -56.59367,-26.15157 -87.63392,-18.9029 -7.27167,1.68515 -23.8606,6.3131 -28.39078,10.19337"
     style="fill:#ed1e24;fill-opacity:1;fill-rule:evenodd;stroke:none;stroke-width:1.91712976"
     id="path16"
     inkscape:connector-curvature="0" /><path
     d="m 758.9056,438.05081 41.84711,0.006 c 1.38609,-0.3355 4.32888,-7.0838 5.13791,-8.70185 1.57972,-3.24954 2.82202,-6.19233 4.30587,-9.42845 2.81435,-6.12523 5.41398,-12.96171 7.86215,-19.49912 10.10328,-27.05837 18.27217,-56.58601 25.22943,-84.81191 1.70816,-6.95726 9.75819,-40.52046 9.75819,-45.32095 l -31.27989,-0.023 c -6.83073,-0.0824 -4.05856,-0.94323 -5.89325,12.98472 -1.88838,14.44749 -4.92128,28.89306 -8.40278,42.5066 -2.56129,9.9384 -20.28707,73.13658 -23.82226,77.21048 l -8.93382,-33.85076 c -3.35498,-11.26313 -6.42622,-22.10642 -9.94607,-33.15867 l -15.44057,-49.0977 c -1.75992,-5.52708 -3.43741,-11.44335 -5.47532,-16.50457 l -36.97185,-0.0901 c 0.15721,3.26487 24.2862,78.70776 25.9196,84.03163 4.42473,14.36314 8.70185,27.55107 13.05949,41.67457 4.2311,13.91453 9.20414,28.28533 13.04606,42.07333"
     style="fill:#ed1e24;fill-opacity:1;fill-rule:evenodd;stroke:none;stroke-width:1.91712976"
     id="path18"
     inkscape:connector-curvature="0" /><path
     d="m 493.01504,266.72842 0.023,145.23792 c 0,27.00469 -8.81496,57.78421 -35.90017,66.6356 1.57972,3.28787 13.25504,15.2546 16.35504,19.89022 9.18113,-1.62573 22.66814,-10.03426 27.73895,-14.85009 7.76437,-7.3311 12.54186,-13.0384 18.2875,-24.77315 11.4721,-23.38707 9.64508,-48.16789 9.64508,-76.22125 0,-57.31834 0.29907,-114.69804 -0.0153,-172.01638 -4.22344,-0.75727 -29.01959,-0.26265 -36.13406,-0.24731 v 56.34444"
     style="fill:#ed1e24;fill-opacity:1;fill-rule:evenodd;stroke:none;stroke-width:1.91712976"
     id="path20"
     inkscape:connector-curvature="0" /><path
     d="M 197.21533,291.77956 185.841,275.24431 c -3.73649,-5.42931 -7.39245,-11.46635 -10.87396,-17.49381 -6.37254,-11.09059 -14.02572,-25.17766 -17.53982,-39.16696 -6.41664,-25.61861 9.40735,-41.50203 23.37364,-58.29225 2.11076,-2.56128 4.58386,-4.95003 6.86716,-7.35411 14.61812,-15.39647 34.64254,-33.83542 50.23456,-49.00759 15.84699,-15.50958 25.3943,-32.642969 27.24433,-57.730529 C 266.14381,33.10123 263.61895,5.0555383 254.36305,6.6291016e-5 257.11797,19.658315 257.75637,33.011125 249.79453,52.767147 c -9.21756,22.938458 -24.22677,36.657439 -41.64389,50.219213 -14.23661,11.08293 -37.53549,31.07093 -49.81662,42.64081 -7.94459,7.54198 -21.3875,21.02899 -26.95101,34.18625 -8.23024,19.45695 -0.069,32.19436 8.74595,45.79448 4.20043,6.48565 8.46988,12.02041 12.95596,17.82356 5.22609,6.77705 9.87705,11.45102 14.06406,16.75188 4.41132,5.61719 9.86939,10.78385 14.68522,16.13073 3.00222,3.30321 12.41725,13.38348 15.38113,15.46549"
     style="fill:#ed1e24;fill-opacity:1;fill-rule:evenodd;stroke:none;stroke-width:1.91712976"
     id="path22"
     inkscape:connector-curvature="0" /><path
     d="m 366.06654,460.46397 c 5.57884,8.99326 0.0671,12.80643 -7.55733,16.37804 -33.87952,15.86042 -148.44911,18.83389 -184.22467,19.35151 -36.47723,0.53871 -73.23244,-0.91447 -108.46737,-7.09338 -5.705378,-0.97965 -30.808276,-4.98645 -31.975808,-11.64465 -0.772603,-4.19276 3.669387,-7.34644 5.960357,-8.76895 8.103708,-5.04013 22.953795,-8.51397 33.168263,-10.37167 2.950462,-0.52529 10.087937,-1.29598 12.29647,-2.19511 -17.066289,-2.51528 -71.150438,6.61985 -82.9829633,23.44074 -7.459552,10.58831 5.0401343,15.50191 13.3585603,18.2204 31.176365,10.17613 96.052041,12.23704 130.276641,12.73741 51.1471,0.69017 174.23259,0.18021 219.33882,-30.81594 2.63605,-1.78868 7.81038,-5.56351 8.34143,-9.22523 0.64416,-4.56085 -4.76215,-8.84564 -7.5324,-10.01317"
     style="fill:#3c8ace;fill-opacity:1;fill-rule:evenodd;stroke:none;stroke-width:1.91712976"
     id="path24"
     inkscape:connector-curvature="0" /><path
     d="m 218.46863,312.60534 c 5.43698,-1.86537 21.47761,-15.01496 25.79882,-19.43395 5.66895,-5.88559 15.32361,-16.76722 16.1614,-29.35509 0.73426,-11.42801 -7.14514,-26.30877 -11.95906,-33.60345 -15.21817,-23.07266 -27.37853,-36.28168 -6.77705,-61.86386 6.88825,-8.51589 14.35547,-15.19517 23.088,-22.40742 10.4541,-8.6405 27.56449,-20.44427 39.81686,-28.13388 l 13.95863,-8.97216 c -7.39054,0.9739 -26.95868,8.80729 -34.67896,11.68298 -10.37359,3.90903 -22.33265,9.85405 -31.39301,15.0744 -31.09392,17.98076 -61.68556,46.10889 -49.17246,85.00553 8.46221,26.31453 33.1165,42.07909 31.34124,61.79677 -1.07934,12.07983 -12.68565,24.16733 -16.18441,30.21013"
     style="fill:#ed1e24;fill-opacity:1;fill-rule:evenodd;stroke:none;stroke-width:1.91712976"
     id="path26"
     inkscape:connector-curvature="0" /><path
     d="m 283.39031,441.28501 c -9.54922,-3.61763 -16.73846,-7.81039 -25.29077,-12.88887 -4.95003,-2.95813 -3.04057,-2.71849 -9.38244,-1.14452 -25.86783,6.37254 -67.81846,6.45497 -94.98036,5.63061 -6.98794,-0.21664 -26.63085,-0.82245 -30.59931,-7.40588 -2.52486,-4.141 0.91256,-7.16623 2.25455,-9.52621 -17.80247,3.58695 -35.932765,18.3776 -11.17495,30.68941 27.85973,13.82442 86.40696,13.97396 116.89315,8.55232 8.67885,-1.54329 48.1238,-10.53655 52.28013,-13.90686"
     style="fill:#3c8ace;fill-opacity:1;fill-rule:evenodd;stroke:none;stroke-width:1.91712976"
     id="path28"
     inkscape:connector-curvature="0" /><path
     d="m 291.6263,383.19406 c -7.35986,-1.85003 -13.96629,-6.44731 -18.48113,-10.40235 -3.9397,-3.37607 -2.59196,-2.53828 -11.05417,-1.12152 -30.45552,5.07656 -121.11659,13.94328 -147.07261,3.24187 -3.36265,-1.39376 -7.241,-3.47576 -7.48064,-7.43655 -0.27607,-4.70272 3.70773,-7.241 5.38522,-9.80995 -20.879464,2.58429 -40.903885,22.70648 -12.955967,32.31322 31.519527,10.79919 99.502867,11.15961 133.023887,6.93617 11.03692,-1.41676 50.18854,-9.03159 58.63541,-13.72089"
     style="fill:#3c8ace;fill-opacity:1;fill-rule:evenodd;stroke:none;stroke-width:1.91712976"
     id="path30"
     inkscape:connector-curvature="0" /><path
     d="m 312.59587,314.77744 c -3.96846,0.16488 -9.27891,1.39951 -13.28571,2.04366 -4.64904,0.69017 -9.07569,1.37075 -13.71898,1.98423 -27.90383,3.90903 -58.83863,7.06271 -86.77313,8.69419 -21.80735,1.28064 -104.063722,3.99913 -116.337187,-7.44997 -0.906803,-5.14557 4.986454,-8.37977 8.604078,-10.35825 14.100489,-7.56308 29.102029,-10.11669 42.993549,-14.46091 -19.1943,-1.80402 -67.452291,12.00507 -84.900089,22.9097 -18.872226,11.76351 12.580206,16.45281 24.345631,18.09195 68.859468,9.59332 133.248188,4.44775 201.342728,-5.22609 11.10593,-1.57397 13.48125,-0.93748 21.04433,-5.74372 5.22034,-3.32622 12.05683,-6.82307 16.68478,-10.48479"
     style="fill:#3c8ace;fill-opacity:1;fill-rule:evenodd;stroke:none;stroke-width:1.91712976"
     id="path32"
     inkscape:connector-curvature="0" /><path
     d="m 74.616796,522.14187 c 19.224978,8.07304 61.093174,12.99239 82.825754,14.75232 30.54755,2.50952 64.08199,1.91713 94.62186,-0.23965 39.53314,-2.80092 86.42038,-7.3311 121.20478,-24.98978 8.26858,-4.22344 23.1781,-14.29604 24.60828,-23.97179 -2.48652,1.1311 -4.63562,3.39332 -6.96301,4.95769 -61.34816,42.23629 -201.56128,38.2084 -273.9406,33.04749 l -42.357064,-3.55628"
     style="fill:#3c8ace;fill-opacity:1;fill-rule:evenodd;stroke:none;stroke-width:1.91712976"
     id="path34"
     inkscape:connector-curvature="0" /><path
     d="m 326.49506,298.30163 c 15.0303,-4.69505 32.12726,-1.57205 41.64581,6.89017 10.28924,9.17346 10.4081,26.5695 2.98689,40.04884 -9.92882,17.97309 -30.77185,34.00796 -48.02602,44.83591 -2.95813,1.86537 -5.81849,3.27254 -8.38744,5.17434 11.12894,-1.17521 37.52015,-13.09784 47.56207,-19.29783 12.8141,-7.91583 27.1178,-19.47037 33.01873,-34.44124 8.42387,-21.2533 -3.82659,-37.47414 -16.88033,-45.15032 -7.50365,-4.38831 -16.56592,-7.0167 -27.1178,-6.58151 -8.07112,0.32975 -21.1632,3.54094 -24.80191,8.52164"
     style="fill:#3c8ace;fill-opacity:1;fill-rule:evenodd;stroke:none;stroke-width:1.91712976"
     id="path36"
     inkscape:connector-curvature="0" /></svg>