<?xml version="1.0" encoding="UTF-8" standalone="no"?>
<svg
   xmlns:dc="http://purl.org/dc/elements/1.1/"
   xmlns:cc="http://creativecommons.org/ns#"
   xmlns:rdf="http://www.w3.org/1999/02/22-rdf-syntax-ns#"
   xmlns:svg="http://www.w3.org/2000/svg"
   xmlns="http://www.w3.org/2000/svg"
   xmlns:sodipodi="http://sodipodi.sourceforge.net/DTD/sodipodi-0.dtd"
   xmlns:inkscape="http://www.inkscape.org/namespaces/inkscape"
   height="49.492443"
   viewBox="0 0 142.03741 49.492443"
   width="142.03741"
   version="1.1"
   id="svg8"
   sodipodi:docname="logo-swift-text-color.svg"
   inkscape:version="0.92.2 5c3e80d, 2017-08-06"
   inkscape:export-filename="/Users/Matt/openwhisk/release/openwhisk-website/images/runtimes/logo-swift-text-color.png"
   inkscape:export-xdpi="135.17564"
   inkscape:export-ydpi="135.17564">
  <metadata
     id="metadata14">
    <rdf:RDF>
      <cc:Work
         rdf:about="">
        <dc:format>image/svg+xml</dc:format>
        <dc:type
           rdf:resource="http://purl.org/dc/dcmitype/StillImage" />
        <dc:title></dc:title>
      </cc:Work>
    </rdf:RDF>
  </metadata>
  <defs
     id="defs12" />
  <sodipodi:namedview
     pagecolor="#ffffff"
     bordercolor="#666666"
     borderopacity="1"
     objecttolerance="10"
     gridtolerance="10"
     guidetolerance="10"
     inkscape:pageopacity="0"
     inkscape:pageshadow="2"
     inkscape:window-width="1564"
     inkscape:window-height="871"
     id="namedview10"
     showgrid="false"
     inkscape:pagecheckerboard="true"
     inkscape:zoom="2.025"
     inkscape:cx="15.802501"
     inkscape:cy="24.492444"
     inkscape:window-x="0"
     inkscape:window-y="0"
     inkscape:window-maximized="0"
     inkscape:current-layer="svg8"
     fit-margin-top="0"
     fit-margin-left="0"
     fit-margin-right="0"
     fit-margin-bottom="0" />
  <path
     d="m 49.488949,13.708417 c -0.0029,-0.49775 -0.0084,-0.99525 -0.02217,-1.493584 -0.029,-1.084 -0.09308,-2.177833 -0.28575,-3.2502497 C 48.985532,7.8755 48.665949,6.8628333 48.162282,5.8735 47.667865,4.9019167 47.021532,4.0128333 46.250532,3.2418333 c -0.770833,-0.771 -1.659917,-1.41725 -2.631917,-1.9119166 -0.9885,-0.50308337 -2.001333,-0.82258337 -3.089416,-1.01808337 -1.073,-0.19325 -2.166834,-0.25691666 -3.251667,-0.28625 -0.498083,-0.0135 -0.995667,-0.01916666 -1.493583,-0.02225 C 35.192949,0 34.601532,0 34.010699,0 H 20.909365 15.481782 c -0.591417,0 -1.182167,0 -1.773,0.00341667 -0.498083,0.00308333 -0.99625,0.00875 -1.493583,0.02225 C 11.944032,0.033 11.672282,0.0425 11.400365,0.05558333 10.584699,0.09491667 9.7677818,0.167 8.9634485,0.31191667 c -0.8160834,0.14666666 -1.5899167,0.363 -2.34275,0.67425 -0.2509167,0.10366663 -0.4995834,0.21800003 -0.74675,0.34375003 -0.729,0.371 -1.4115,0.82725 -2.03225,1.3574166 C 3.6347818,2.8640833 3.4346985,3.049 3.2420318,3.24175 2.4708651,4.01275 1.8245318,4.9018333 1.3301151,5.8734167 0.82644843,6.86275 0.50728176,7.8754167 0.31161509,8.9645 c -0.1925,1.072417 -0.2565,2.16625 -0.28566666,3.25025 C 0.01228176,12.713083 0.00653176,13.210583 0.00328176,13.708333 -4.6824116e-4,14.2995 3.1758842e-5,14.89075 3.1758842e-5,15.48175 V 23.55 34.010417 c 0,0.591583 -5.83330002e-4,1.18225 0.0032500012,1.773833 0.00325,0.49775 0.009,0.99525 0.02266667,1.49275 0.02916666,1.084583 0.09308333,2.178667 0.28566666,3.250583 0.19566667,1.08875 0.51483334,2.102334 1.01850001,3.091417 0.4944167,0.971833 1.14075,1.860667 1.9119167,2.631333 0.7705833,0.771334 1.6599167,1.4175 2.632,1.9125 0.9885833,0.503167 2.0013333,0.82225 3.0896667,1.01775 1.0723335,0.193 2.1670005,0.257167 3.2515835,0.286167 0.497333,0.01325 0.9955,0.01917 1.493583,0.022 0.590834,0.0042 1.181584,0.0037 1.773,0.0037 h 18.528834 c 0.590833,0 1.18225,5.83e-4 1.773166,-0.0037 0.497917,-0.0028 0.9955,-0.0088 1.493584,-0.022 1.084833,-0.029 2.178666,-0.09325 3.251666,-0.286167 1.088084,-0.1955 2.100917,-0.514666 3.089417,-1.01775 0.972,-0.494916 1.861083,-1.141166 2.631917,-1.9125 0.771,-0.77075 1.417416,-1.6595 1.91175,-2.631333 0.503666,-0.989083 0.82325,-2.002583 1.01875,-3.091417 0.192666,-1.071916 0.25675,-2.166 0.28575,-3.250583 0.01367,-0.4975 0.01917,-0.994917 0.02217,-1.49275 0.0038,-0.591583 0.0035,-1.18225 0.0035,-1.773833 V 15.48175 c 8.4e-5,-0.591 3.34e-4,-1.18225 -0.0034,-1.773333 z"
     id="path2"
     inkscape:connector-curvature="0"
     style="fill:#f05138"
     inkscape:label="Orange box" />
  <path
     d="m 39.217199,30.550583 c -0.0012,-0.0015 -0.0023,-0.0026 -0.0035,-0.004 0.05475,-0.186333 0.11125,-0.3715 0.159166,-0.5625 C 41.427032,21.8 36.413615,12.124167 27.929865,7.0295833 31.647615,12.0695 33.291449,18.174 31.830949,23.5125 c -0.13025,0.476167 -0.286834,0.933167 -0.459917,1.377333 -0.187833,-0.123416 -0.4245,-0.2635 -0.742333,-0.43875 0,0 -8.439084,-5.210583 -17.585667,-14.426833 -0.24,-0.2419167 4.877333,7.314167 10.684917,13.449917 C 20.991782,21.938583 13.366449,16.3905 8.5391151,11.97225 c 0.5930834,0.989083 1.2985,1.9415 2.0739169,2.858417 4.03125,5.112416 9.2885,11.420333 15.586917,16.264083 -4.425334,2.708167 -10.678417,2.91875 -16.9043339,0.0028 -1.5399166,-0.721666 -2.9875833,-1.592416 -4.3276666,-2.58175 2.6354166,4.215417 6.6943335,7.852417 11.6344165,9.975667 5.89125,2.53175 11.749667,2.360083 16.113,0.0415 l -0.0034,0.005 c 0.01992,-0.01258 0.04525,-0.02633 0.06592,-0.03908 0.179167,-0.09633 0.357,-0.194417 0.530917,-0.298 2.096417,-1.088167 6.23725,-2.192167 8.459833,2.132333 0.544334,1.058333 1.701,-4.550333 -2.551416,-9.782667 z"
     id="path4"
     inkscape:connector-curvature="0"
     style="fill:#ffffff"
     inkscape:label="Bird" />
  <path
     d="m 61.346257,31.610884 c 0.342691,2.733499 3.245076,4.525667 7.27583,4.525667 3.829719,0 6.590818,-1.792168 6.590818,-4.271975 0,-2.136418 -1.672686,-3.440507 -5.522641,-4.309126 l -3.728536,-0.850839 c -5.361193,-1.195023 -7.779971,-3.367797 -7.779971,-6.952134 0,-4.417397 4.293017,-7.477366 10.400301,-7.477366 5.925155,0 10.137669,3.077748 10.278881,7.513721 h -3.930015 c -0.302661,-2.715719 -2.761542,-4.381837 -6.449606,-4.381837 -3.648476,0 -6.18786,1.683898 -6.18786,4.145924 0,1.919015 1.57239,3.059969 5.442138,3.947163 l 3.10379,0.723993 c 6.006176,1.321935 8.464983,3.421932 8.464983,7.205894 0,4.815782 -4.252986,7.839395 -11.025046,7.839395 -6.288157,0 -10.581173,-3.005834 -10.903628,-7.658347 h 3.970562 z m 42.923663,7.223673 h -3.95069 L 95.70375,24.387211 h -0.0805 L 91.02802,38.834557 H 87.077766 L 81.23267,19.914882 h 3.829276 l 4.071224,15.189915 h 0.081 L 93.8094,19.914882 h 3.7083 l 4.63571,15.189915 h 0.081 l 4.0713,-15.189915 h 3.7888 z m 8.37547,-24.006995 c 0,-1.140092 1.04838,-2.063642 2.31811,-2.063642 1.28997,0 2.33791,0.92355 2.33791,2.063642 0,1.140887 -1.04794,2.082283 -2.33791,2.082283 -1.26973,0 -2.31811,-0.94133 -2.31811,-2.082283 z m 0.4034,5.08732 h 3.84951 v 18.919675 h -3.84951 z m 28.98862,2.78843 v -2.788496 h -4.0713 v -4.525668 h -3.82972 v 4.525668 h -3.12402 -4.23452 v -1.665322 c 0.0198,-1.683899 0.74564,-2.390112 2.47911,-2.390112 0.56397,0 1.12845,0.05493 1.59219,0.126846 V 13.27051 c -0.68546,-0.09049 -1.31021,-0.144627 -2.03562,-0.144627 -4.11177,0 -5.84509,1.539273 -5.84509,5.069475 v 1.719458 h -2.94234 v 2.788496 h 2.94234 v 16.131179 h 3.82927 V 22.703312 h 4.21473 3.12403 v 11.17077 c 0,3.657116 1.55215,5.068679 5.58291,5.068679 0.86669,0 1.85437,-0.05413 2.29787,-0.144626 v -2.823989 c -0.26219,0.03636 -1.02822,0.09049 -1.45134,0.09049 -1.79366,0 -2.59965,-0.760348 -2.59965,-2.462026 V 22.703312 Z"
     id="path6"
     inkscape:connector-curvature="0"
     style="stroke-width:0.83997929"
     inkscape:label="Swift text" />
</svg>
